<svg width="75" height="76" viewBox="0 0 75 76" fill="none" xmlns="http://www.w3.org/2000/svg">
<path d="M59.3754 35.2935H40.6254V16.5435C40.6254 15.7147 40.2961 14.9198 39.7101 14.3337C39.124 13.7477 38.3292 13.4185 37.5004 13.4185C36.6716 13.4185 35.8767 13.7477 35.2907 14.3337C34.7046 14.9198 34.3754 15.7147 34.3754 16.5435V35.2935H15.6254C14.7966 35.2935 14.0017 35.6227 13.4157 36.2087C12.8296 36.7948 12.5004 37.5897 12.5004 38.4185C12.5004 39.2473 12.8296 40.0421 13.4157 40.6282C14.0017 41.2142 14.7966 41.5435 15.6254 41.5435H34.3754V60.2935C34.3754 61.1223 34.7046 61.9171 35.2907 62.5032C35.8767 63.0892 36.6716 63.4185 37.5004 63.4185C38.3292 63.4185 39.124 63.0892 39.7101 62.5032C40.2961 61.9171 40.6254 61.1223 40.6254 60.2935V41.5435H59.3754C60.2042 41.5435 60.999 41.2142 61.5851 40.6282C62.1711 40.0421 62.5004 39.2473 62.5004 38.4185C62.5004 37.5897 62.1711 36.7948 61.5851 36.2087C60.999 35.6227 60.2042 35.2935 59.3754 35.2935Z" fill="url(#paint0_linear)"/>
<defs>
<linearGradient id="paint0_linear" x1="37.5004" y1="13.4185" x2="37.5004" y2="63.4185" gradientUnits="userSpaceOnUse">
<stop stop-color="#B9E1DD"/>
<stop offset="1" stop-color="#B1DDF5" stop-opacity="0.75"/>
</linearGradient>
</defs>
</svg>
