<svg width="57" height="57" viewBox="0 0 57 57" fill="none" xmlns="http://www.w3.org/2000/svg">
<g clip-path="url(#clip0)">
<path d="M31.8737 7.32675L34.3127 12.2618C34.6818 13.0089 35.3956 13.5267 36.2212 13.6465L41.6749 14.4378C44.7608 14.8856 45.993 18.6725 43.76 20.8461L39.8136 24.6875C39.2162 25.269 38.9436 26.1068 39.0847 26.928L40.0162 32.3521C40.5434 35.4212 37.3175 37.7616 34.5574 36.3126L29.6794 33.7517C28.941 33.3641 28.0588 33.3641 27.3204 33.7517L22.4424 36.3126C19.6824 37.7616 16.4564 35.4212 16.9836 32.3521L17.9152 26.928C18.0562 26.1068 17.7836 25.2691 17.1862 24.6875L13.2398 20.8461C11.0068 18.6725 12.239 14.8856 15.3249 14.4378L20.7786 13.6465C21.6042 13.5267 22.318 13.0089 22.6871 12.2618L25.1261 7.32675C26.5062 4.53431 30.4936 4.53431 31.8737 7.32675Z" fill="#FFDE5C"/>
<path d="M43.7601 20.8459C45.9931 18.6724 44.7609 14.8854 41.675 14.4377L36.2213 13.6462C35.3956 13.5265 34.6819 13.0087 34.3128 12.2615L31.8738 7.32648C30.7163 4.98447 27.7255 4.60785 25.9764 6.19439C26.986 6.4402 27.9074 7.10015 28.44 8.17781L30.1038 11.5444C30.9583 13.2734 32.6101 14.4719 34.5209 14.7491L38.6962 15.3549C41.5961 15.7757 42.7539 19.3343 40.6556 21.3769L37.4549 24.4924C36.1846 25.7289 35.6049 27.5104 35.9047 29.2563L36.5826 33.2031C36.8208 34.5896 36.2916 35.8259 35.3868 36.6328C37.9196 37.2896 40.4914 35.1171 40.0164 32.3518L39.0848 26.9277C38.9438 26.1065 39.2164 25.2688 39.8138 24.6872L43.7601 20.8459Z" fill="#FFC736"/>
<path d="M56.9287 21.083C51.5738 15.4211 48.1376 21.5147 48.1376 21.5147C51.4606 25.8408 55.9313 22.3194 56.9124 21.4554C57.0225 21.3583 57.0296 21.1896 56.9287 21.083Z" fill="#FF8724"/>
<path d="M56.9288 21.0828C54.3901 18.3986 52.283 18.3571 50.7686 19.0552C51.6058 19.4148 52.5152 20.054 53.4882 21.0828C53.589 21.1895 53.582 21.3581 53.4719 21.4551C53.0217 21.8516 51.8363 22.8074 50.3644 23.3079C53.2014 24.4644 56.1397 22.1358 56.9126 21.4551C57.0226 21.3581 57.0296 21.1895 56.9288 21.0828Z" fill="#F86F1B"/>
<path d="M55.3218 30.8917C51.5228 24.09 46.6936 29.1544 46.6936 29.1544C48.8514 34.1629 54.051 31.8455 55.2145 31.2486C55.345 31.1816 55.3932 31.0198 55.3218 30.8917Z" fill="#FF8724"/>
<path d="M55.3217 30.8918C53.1331 26.9732 50.6027 26.9933 48.8506 27.7143C49.8626 28.1828 50.9057 29.1455 51.881 30.8918C51.9526 31.02 51.9044 31.1817 51.7737 31.2487C51.3978 31.4417 50.6 31.814 49.62 32.061C51.882 32.8029 54.4406 31.6457 55.2143 31.2487C55.345 31.1817 55.3932 31.02 55.3217 30.8918Z" fill="#F86F1B"/>
<path d="M50.6389 41.2878C50.774 33.5006 44.0513 35.4581 44.0513 35.4581C43.3987 40.8714 49.0603 41.4753 50.3667 41.5426C50.5132 41.5502 50.6364 41.4344 50.6389 41.2878Z" fill="#FF8724"/>
<path d="M44.0512 35.4581C44.0502 35.4661 44.0496 35.4738 44.0487 35.4818C45.6166 35.9732 47.1403 37.3552 47.1976 40.8537C48.4952 41.3909 49.8166 41.5143 50.3665 41.5426C50.5131 41.5502 50.6362 41.4344 50.6388 41.2878C50.7739 33.5006 44.0512 35.4581 44.0512 35.4581Z" fill="#F86F1B"/>
<path d="M42.3205 48.2717C45.4717 41.4842 38.7248 40.6287 38.7248 40.6287C36.0368 45.1331 40.8421 47.8318 41.9788 48.3912C42.1066 48.454 42.2612 48.3995 42.3205 48.2717Z" fill="#FF8724"/>
<path d="M38.7249 40.6287C38.4775 41.0432 38.294 41.4425 38.1649 41.8263C39.2814 42.6946 40.1492 44.1669 39.4868 46.6336C40.4199 47.5668 41.5106 48.1608 41.979 48.3912C42.1065 48.454 42.2612 48.3996 42.3205 48.2717C45.4718 41.4842 38.7249 40.6287 38.7249 40.6287Z" fill="#F86F1B"/>
<path d="M54.7772 10.6415C47.9704 8.69781 48.1379 15.1319 48.1379 15.1319C52.7409 16.9797 54.5776 12.0886 54.9381 10.9432C54.9786 10.8146 54.9055 10.6781 54.7772 10.6415Z" fill="#FF8724"/>
<path d="M54.7772 10.6415C53.0794 10.1566 51.8158 10.1931 50.8749 10.5209C51.0255 10.5572 51.1785 10.5963 51.3366 10.6415C51.4647 10.6781 51.538 10.8146 51.4976 10.9432C51.2515 11.7248 50.3176 14.2504 48.2867 15.1887C52.7803 16.8728 54.5816 12.0761 54.9382 10.9432C54.9786 10.8146 54.9054 10.6781 54.7772 10.6415Z" fill="#F86F1B"/>
<path d="M28.6888 42.9003C28.5785 42.8112 28.4213 42.8112 28.3111 42.9003C27.3725 43.6587 23.4432 47.2979 28.2951 51.6885C28.4115 51.794 28.5882 51.794 28.7047 51.6885C33.5567 47.2979 29.6274 43.6587 28.6888 42.9003Z" fill="#F86F1B"/>
<path d="M0.0712184 21.083C5.4261 15.4211 8.86236 21.5147 8.86236 21.5147C5.53932 25.8408 1.06861 22.3194 0.0874723 21.4554C-0.0226312 21.3583 -0.0296448 21.1896 0.0712184 21.083Z" fill="#FF8724"/>
<path d="M2.79077 19.0552C4.47082 19.8297 5.42168 21.5146 5.42168 21.5146C4.71641 22.4328 3.95938 22.9965 3.195 23.3081C4.9305 23.8982 7.06432 23.8554 8.86238 21.5146C8.86238 21.5146 6.56101 17.4357 2.79077 19.0552Z" fill="#F86F1B"/>
<path d="M1.67814 30.8917C5.4771 24.09 10.3063 29.1544 10.3063 29.1544C8.14853 34.1629 2.94895 31.8455 1.78546 31.2486C1.65487 31.1816 1.60666 31.0198 1.67814 30.8917Z" fill="#FF8724"/>
<path d="M4.70871 27.7142C5.99778 28.2446 6.86569 29.1544 6.86569 29.1544C6.14284 30.8322 5.07866 31.6871 3.93921 32.0609C5.99199 32.5781 8.84588 32.5446 10.3064 29.1544C10.3063 29.1544 7.63842 26.3581 4.70871 27.7142Z" fill="#F86F1B"/>
<path d="M6.36104 41.2878C6.22599 33.5006 12.9487 35.4581 12.9487 35.4581C13.6013 40.8714 7.93967 41.4753 6.63323 41.5426C6.48672 41.5502 6.3636 41.4344 6.36104 41.2878Z" fill="#FF8724"/>
<path d="M12.9487 35.4578C12.9487 35.4578 11.2043 34.9506 9.51057 35.4815C9.87673 38.6001 8.14202 40.1163 6.36166 40.8534C6.35932 40.9951 6.35854 41.1389 6.3611 41.2875C6.36366 41.4341 6.48668 41.5499 6.63341 41.5423C7.93962 41.475 13.6013 40.8712 12.9487 35.4578Z" fill="#F86F1B"/>
<path d="M14.7034 48.2717C11.5947 41.4842 18.2506 40.6287 18.2506 40.6287C20.9024 45.1331 16.1618 47.8318 15.0403 48.3912C14.9145 48.454 14.762 48.3995 14.7034 48.2717Z" fill="#FF8724"/>
<path d="M18.2506 40.6287C18.2506 40.6287 16.6392 40.8364 15.3725 41.8556C16.0336 43.8868 15.1808 45.4798 14.0949 46.5964C14.2285 47.1104 14.4266 47.6671 14.7035 48.2717C14.7621 48.3995 14.9146 48.454 15.0405 48.3912C16.1619 47.8317 20.9024 45.1331 18.2506 40.6287Z" fill="#F86F1B"/>
<path d="M2.22272 10.6415C9.02954 8.69781 8.86199 15.1319 8.86199 15.1319C4.25902 16.9797 2.42233 12.0886 2.06185 10.9432C2.02132 10.8146 2.09447 10.6781 2.22272 10.6415Z" fill="#FF8724"/>
<path d="M2.68428 10.521C5.51547 11.5073 5.42128 15.1319 5.42128 15.1319C5.3713 15.1519 5.32209 15.1702 5.27266 15.1887C6.21773 15.6253 7.40014 15.7187 8.86188 15.1319C8.86188 15.1319 9.02052 8.99458 2.68428 10.521Z" fill="#F86F1B"/>
<path d="M28.7683 16.6326H26.5114C26.0502 16.6326 25.6764 17.0064 25.6764 17.4675C25.6764 17.9287 26.0502 18.3025 26.5114 18.3025H27.9334V28.0209C27.9334 28.482 28.3072 28.8558 28.7683 28.8558C29.2296 28.8558 29.6033 28.482 29.6033 28.0209V17.4675C29.6033 17.0064 29.2296 16.6326 28.7683 16.6326Z" fill="#FF8724"/>
</g>
<defs>
<clipPath id="clip0">
<rect width="57" height="57" fill="white"/>
</clipPath>
</defs>
</svg>
