<svg width="46" height="46" viewBox="0 0 46 46" fill="none" xmlns="http://www.w3.org/2000/svg">
<path d="M4.0508 9.96777C2.56761 12.1206 1.44043 14.5378 0.756958 17.1358H11.2192L4.0508 9.96777Z" fill="#29337A"/>
<path d="M16.5588 0.920654C13.9088 1.6924 11.4546 2.92388 9.29343 4.53011L16.5588 11.7954V0.920654Z" fill="#29337A"/>
<path d="M9.83371 41.8536C11.8608 43.2721 14.1256 44.3702 16.5587 45.0788V35.1296L9.83371 41.8536Z" fill="#29337A"/>
<path d="M1.0209 29.7913C1.78139 32.2546 2.94673 34.5399 4.43604 36.5729L11.2177 29.7913H1.0209Z" fill="#29337A"/>
<path d="M4.43015 9.43384C4.30157 9.60961 4.17484 9.78791 4.05063 9.96805L11.2191 17.1361H0.75679C0.587233 17.7814 0.448848 18.4391 0.334839 19.1059H14.103L4.43015 9.43384Z" fill="white"/>
<path d="M9.30011 41.4738C9.47511 41.6042 9.65496 41.7283 9.83355 41.8533L16.5586 35.1291V45.0782C17.2046 45.2671 17.8608 45.4302 18.5284 45.5613V32.2458L9.30011 41.4738Z" fill="white"/>
<path d="M0.509827 27.8213C0.652581 28.4887 0.821071 29.1461 1.02044 29.7911H11.2173L4.43568 36.5727C5.17324 37.5805 5.99112 38.5261 6.87979 39.4006L18.459 27.8213H0.509827Z" fill="white"/>
<path d="M16.5587 0.920535V11.7953L9.29329 4.53038C8.29167 5.27523 7.35542 6.10214 6.48792 6.99732L18.5281 19.0375V0.4375C17.861 0.569378 17.2048 0.732817 16.5587 0.920535Z" fill="white"/>
<path d="M16.5587 29.7219L16.4896 29.7914H16.5587V29.7219Z" fill="#D32030"/>
<path d="M18.4595 27.8213H18.5284V27.752L18.4595 27.8213Z" fill="#D32030"/>
<path d="M27.3107 19.1055H27.2443V19.1723L27.3107 19.1055Z" fill="#D32030"/>
<path d="M16.6266 17.1361L16.5587 17.0679V17.1361H16.6266Z" fill="#D32030"/>
<path d="M18.5284 19.0376V19.1056H18.5964L18.5284 19.0376Z" fill="#D32030"/>
<path d="M29.2138 39.9872V45.143C31.6786 44.453 33.9767 43.3653 36.0321 41.9483L30.4457 36.3618C29.9992 37.9303 29.8359 38.7412 29.2138 39.9872Z" fill="#252F6C"/>
<path d="M30.4749 10.5337L36.5735 4.43517C34.3825 2.83068 31.897 1.60794 29.2137 0.856201V6.15249C29.9309 7.58878 29.9912 8.68012 30.4749 10.5337Z" fill="#252F6C"/>
<path d="M41.4697 36.7067C43.0055 34.6406 44.2025 32.3084 44.98 29.791H34.5541L41.4697 36.7067Z" fill="#252F6C"/>
<path d="M45.2433 17.1358C44.5452 14.4829 43.3843 12.0203 41.8543 9.83374L34.5515 17.1358H45.2433Z" fill="#252F6C"/>
<path d="M31.8175 28.2111L33.398 29.7916L40.9634 37.3569C41.1351 37.1419 41.3058 36.9277 41.47 36.7072L34.5543 29.7916H44.9803C45.179 29.147 45.3478 28.4893 45.4901 27.8218H31.9653C31.9432 28.1011 31.844 27.9337 31.8175 28.2111Z" fill="#E7E7E7"/>
<path d="M30.236 11.6875L37.0928 4.82992C36.921 4.69668 36.7489 4.56412 36.5734 4.43555L30.4749 10.5341C30.5381 10.7752 30.1772 11.4405 30.236 11.6875Z" fill="#E7E7E7"/>
<path d="M29.2137 5.72891V0.856021C28.5684 0.675199 27.9114 0.521956 27.2439 0.396973V2.77389C27.9768 3.56846 28.6337 4.56648 29.2137 5.72891Z" fill="#E7E7E7"/>
<path d="M31.6625 19.1057H45.6655C45.5518 18.4389 45.4131 17.7815 45.2436 17.1358H34.5517L41.8546 9.83379C41.1366 8.80819 40.3387 7.84367 39.4672 6.94995L31.2416 15.1748C31.4631 16.6667 31.5622 17.5331 31.6625 19.1057Z" fill="#E7E7E7"/>
<path d="M30.1133 36.0289L36.0324 41.9487C37.0169 41.2707 37.9441 40.516 38.8091 39.6968L31.0234 31.9106C30.7749 33.3506 30.48 34.7415 30.1133 36.0289Z" fill="#E7E7E7"/>
<path d="M27.2443 42.9529V45.6021C27.9117 45.4779 28.5684 45.3239 29.2141 45.1431V39.9873C28.6337 41.1502 27.9768 42.1594 27.2443 42.9529Z" fill="#E7E7E7"/>
<path d="M31.2416 15.1748L39.4664 6.94998C38.7259 6.1895 37.932 5.48175 37.0924 4.82983L30.6296 11.2937C30.9169 12.4943 31.0473 13.8685 31.2416 15.1748Z" fill="#D71F28"/>
<path d="M21.852 0.0283567C22.2352 0.00980831 22.6173 0 22.9996 0C22.615 0 22.2323 0.00980831 21.852 0.0283567Z" fill="#D32030"/>
<path d="M22.9996 46C22.6172 46 22.2352 45.9895 21.8528 45.9709C22.233 45.9902 22.6151 46 22.9996 46Z" fill="#D32030"/>
<path d="M22.9995 45.9999C24.4507 45.9999 25.8677 45.8594 27.2441 45.6018V42.9526C26.0359 44.2622 24.6226 45.9999 22.9995 45.9999Z" fill="#D32030"/>
<path d="M45.6651 19.1055H31.8441C32.0271 21.9901 32.005 24.9564 31.778 27.8213H45.4901C45.8221 26.2658 46 24.6542 46 23.0003C46 21.6718 45.8816 20.3725 45.6651 19.1055Z" fill="#D71F28"/>
<path d="M31.8176 28.2109C31.6898 29.5699 31.2445 30.6288 31.023 31.9108L38.8087 39.6966C39.579 38.9666 40.2991 38.1858 40.963 37.3568L33.398 29.791L31.8176 28.2109Z" fill="#D71F28"/>
<path d="M27.2444 2.94482V0.397285C25.8684 0.140521 24.4513 0 22.9997 0C24.6227 0 26.0361 1.63566 27.2444 2.94482Z" fill="#D32030"/>
<path d="M29.2137 40.9819C29.8358 39.7356 30.3693 38.3008 30.816 36.7326L29.2137 35.1304V40.9819Z" fill="#29337A"/>
<path d="M31.0154 9.99351C30.5309 8.13993 29.931 6.45484 29.2137 5.01855V11.7943L31.0154 9.99351Z" fill="#29337A"/>
<path d="M32.2639 28.6569C32.29 28.3795 32.3136 28.101 32.3362 27.8213H31.4283L32.2639 28.6569Z" fill="white"/>
<path d="M29.2137 11.7944V5.01825C28.6333 3.85582 27.9768 2.85712 27.2439 2.06323V14.6787L31.1997 10.7228C31.1402 10.4759 31.0777 10.2339 31.0152 9.99282L29.2137 11.7944Z" fill="white"/>
<path d="M27.3107 19.1055H32.4021C32.3023 17.533 32.1432 15.9859 31.922 14.4944L27.3107 19.1055Z" fill="white"/>
<path d="M27.2443 43.9367C27.9772 43.1421 28.6337 42.1441 29.2141 40.9816V35.1301L30.8163 36.7323C31.1838 35.4442 31.4921 34.0681 31.7413 32.6283L27.2444 28.1316L27.2443 43.9367Z" fill="white"/>
<path d="M27.2443 43.9366V28.1315L31.741 32.6285C31.9621 31.3461 32.1361 30.0162 32.2635 28.657L31.4279 27.8213H32.3358C32.5627 24.9563 32.5849 21.99 32.4019 19.1055H27.3104L31.9215 14.4944C31.7272 13.1878 31.4868 11.924 31.1996 10.723L27.2444 14.6789V2.06344C26.036 0.75388 24.6226 0 22.9996 0C22.6172 0 22.2351 0.00980831 21.852 0.0283567C20.7208 0.084973 19.6114 0.224134 18.5284 0.437684V19.0376L6.48786 6.9974C5.74806 7.7608 5.05992 8.57421 4.43015 9.43385L12.1324 17.1361L14.1029 19.1059H0.334842C0.119156 20.3725 0 21.6719 0 23.0004C0 24.6546 0.178686 26.2659 0.509838 27.8213H18.4594L6.88009 39.4007C7.63834 40.1455 8.44563 40.8392 9.30022 41.4739L18.5281 32.246V45.5616C19.611 45.7752 20.7212 45.9143 21.8524 45.971C22.2349 45.9895 22.6169 46 22.9993 46C24.6226 46 26.036 45.2461 27.2443 43.9366Z" fill="#E51D35"/>
</svg>
