<svg width="211" height="263" viewBox="0 0 211 263" fill="none" xmlns="http://www.w3.org/2000/svg">
<g opacity="0.9">
<path d="M105.5 224.081C163.764 224.081 211 232.693 211 243.315C211 253.937 163.76 262.549 105.5 262.549C47.2395 262.549 -6.10352e-05 253.937 -6.10352e-05 243.315C-6.10352e-05 232.693 47.236 224.081 105.5 224.081Z" fill="#A0D9F6"/>
<path d="M165.292 173.998C164.522 176.06 163.729 177.988 162.927 179.786C163.231 179.675 163.546 179.595 163.858 179.551C166.557 179.17 168.975 180.058 170.967 181.354C172.759 182.514 174.193 184.009 175.177 185.197C175.955 185.3 176.824 185.489 177.688 185.836C178.511 186.16 179.326 186.62 180.066 187.259C180.699 187.81 181.226 188.434 181.654 189.071C181.99 189.57 182.265 190.075 182.493 190.559C183.317 190.815 184.186 191.19 184.98 191.754C185.932 192.422 186.772 193.345 187.299 194.616V194.624C187.452 194.991 187.581 195.343 187.689 195.68C187.743 195.84 187.797 196.016 187.85 196.187C188.927 196.495 190.016 197.038 190.91 197.946C191.94 199.002 192.68 200.537 192.785 202.759C192.992 207.138 190.361 209.632 186.683 213.102L186.667 213.118C185.569 214.153 184.339 215.317 182.999 216.772C182.243 217.587 181.581 218.723 180.962 220.006C180.322 221.334 179.735 222.824 179.162 224.283C178.223 226.667 177.3 229.014 176.073 231.061C174.801 233.172 173.213 234.942 170.977 236.063C168.375 237.374 165.83 237.405 163.312 236.795C160.893 236.215 158.552 235.048 156.232 233.904C155.143 233.361 154.058 232.825 153.06 232.409C152.137 232.028 151.33 231.764 150.727 231.741C148.981 231.661 146.059 231.653 142.908 231.674C137.761 231.702 131.963 231.821 129.6 231.873C128.274 232.541 125.726 233.744 122.653 234.807C119.419 235.931 115.614 236.883 112.068 236.883C110.061 236.883 108.193 236.839 106.539 236.759C104.365 236.663 102.618 236.523 101.397 236.414C100.175 236.526 98.429 236.663 96.2549 236.759C94.6001 236.839 92.7301 236.883 90.7256 236.883C87.1793 236.883 83.372 235.928 80.1405 234.807C77.0678 233.744 74.5197 232.541 73.1932 231.873C70.8281 231.821 65.0325 231.705 59.8852 231.674C56.7344 231.651 53.8151 231.658 52.0688 231.741C51.4661 231.762 50.6589 232.028 49.736 232.409C48.7378 232.828 47.6535 233.361 46.5637 233.904C44.2444 235.048 41.9035 236.215 39.4846 236.795C36.9688 237.403 34.4208 237.374 31.8189 236.063C29.583 234.939 27.9982 233.172 26.7228 231.061C25.4958 229.014 24.573 226.667 23.6339 224.283C23.0608 222.824 22.4742 221.334 21.8339 220.006C21.215 218.723 20.5531 217.587 19.797 216.772C18.4544 215.32 17.2274 214.153 16.1297 213.118L16.1135 213.102C12.4381 209.632 9.80659 207.138 10.0111 202.759C10.1187 200.537 10.8586 199.005 11.8865 197.946C12.7798 197.038 13.8695 196.495 14.9458 196.187C14.9996 196.019 15.0534 195.85 15.1072 195.68C15.2148 195.335 15.344 194.983 15.4973 194.616C16.0247 193.348 16.8615 192.422 17.8167 191.754C18.6104 191.19 19.4795 190.815 20.3029 190.559C20.5235 190.075 20.806 189.567 21.1343 189.071C21.5702 188.432 22.0949 187.808 22.7272 187.259C23.4671 186.62 24.2824 186.16 25.1057 185.836C25.9667 185.492 26.8304 185.3 27.6161 185.197C28.6009 184.009 30.035 182.514 31.827 181.354C33.8181 180.055 36.2343 179.168 38.9276 179.551C39.2478 179.595 39.5599 179.675 39.8667 179.786C39.0649 177.99 38.2657 176.06 37.5016 173.998H165.292Z" fill="#143D52"/>
<path d="M42.2148 173.996C46.676 185.395 52.0923 192.568 52.0627 194.858C52.0331 197.565 51.8259 199.956 51.7801 200.476C52.1541 202.435 52.7945 204.482 53.6798 206.006C56.0072 210.012 57.0808 205.67 57.6754 202.836L60.9392 202.3C60.9392 202.316 63.1751 205.915 65.0128 204.583C67.2246 202.976 65.516 199.845 65.5079 199.829L68.5753 198.114C68.5833 198.129 70.6794 201.283 72.6785 200.388C74.8687 199.413 74.2499 195.619 74.2499 195.614L73.997 194.022L75.6517 193.691C75.6759 193.691 82.6152 192.312 83.1936 189.781C83.3147 189.269 81.7595 188.85 80.0214 188.482C79.7012 188.41 79.0285 188.283 78.3747 188.159C76.5585 187.815 74.8284 187.483 73.623 186.816C71.9305 185.876 69.0838 181.563 66.6057 176.744C66.1402 175.841 65.6828 174.925 65.2415 173.994H42.2148V173.996ZM69.1618 173.996C69.369 174.415 69.5735 174.832 69.7861 175.243C72.0059 179.542 74.3172 183.276 75.3853 183.863C76.0553 184.238 77.5217 184.515 79.0527 184.81C79.5263 184.898 79.9918 184.986 80.7828 185.154C83.9336 185.83 86.7157 186.834 86.7776 189.416L116.187 188.397C116.873 186.557 119.3 185.734 121.998 185.154C122.792 184.986 123.258 184.898 123.729 184.81C125.262 184.518 126.726 184.238 127.396 183.863C128.464 183.276 130.775 179.542 132.995 175.243C133.208 174.832 133.415 174.415 133.619 173.996H69.1618ZM137.537 173.996C137.101 174.928 136.644 175.844 136.178 176.747C133.7 181.565 130.853 185.879 129.161 186.818C127.956 187.486 126.225 187.817 124.409 188.161C123.753 188.285 123.083 188.41 122.763 188.485C121.024 188.852 119.466 189.269 119.59 189.784C120.169 192.315 127.111 193.694 127.132 193.694L128.779 194.025L128.534 195.616C128.534 195.624 127.91 199.415 130.105 200.391C132.105 201.286 134.201 198.132 134.209 198.116L137.276 199.832C137.268 199.847 135.551 202.978 137.771 204.585C139.609 205.921 141.837 202.319 141.845 202.303L145.1 202.839C145.703 205.67 146.779 210.012 149.096 206.009C149.989 204.482 150.63 202.438 151.004 200.479C150.958 199.959 150.751 197.568 150.721 194.861C150.692 192.573 156.105 185.398 160.561 173.999H137.537V173.996ZM85.4969 192.648C83.5757 194.819 79.9218 196.087 77.8634 196.662C77.8634 198.665 77.3522 202.068 74.1638 203.491C72.4714 204.246 70.9135 204.042 69.6031 203.462C69.3959 204.725 68.7798 206.029 67.4129 207.116C68.6721 208.327 70.1816 210.247 71.7691 213.301C74.3387 218.238 75.0033 224.42 75.162 228.051C77.5029 229.238 84.6735 232.605 90.7221 232.605C95.7402 232.605 99.5072 232.305 101.393 232.121C103.277 232.305 107.044 232.605 112.064 232.605C117.984 232.605 124.977 229.378 127.471 228.123C127.442 225.116 127.783 218.507 130.888 213.334C132.764 210.208 134.314 208.317 135.457 207.181C134.031 206.081 133.399 204.754 133.184 203.462C131.87 204.042 130.315 204.246 128.623 203.491C125.434 202.068 124.923 198.665 124.923 196.662C122.604 196.018 118.264 194.491 116.655 191.792L85.5049 192.879L85.4969 192.648ZM131.018 227.58C135.998 227.476 146.753 227.292 150.918 227.476C156.417 227.719 163.671 234.929 168.926 232.289C174.181 229.642 175.013 218.976 179.681 213.922C184.349 208.876 188.52 206.469 188.353 202.942C188.261 201.087 187.064 200.404 185.95 200.176C184.051 201.672 181.19 203.85 180.908 203.682C180.563 203.462 183.814 200.976 183.798 198.277C183.706 197.785 183.561 197.234 183.356 196.662C181.473 193.419 176.659 198.106 175.89 197.482C175.287 196.998 178.276 194.703 178.597 192.581C178.292 191.869 177.819 191.054 177.095 190.431C177.041 190.379 176.979 190.327 176.92 190.283C174.418 189.952 170.398 193.401 170.261 192.351C170.132 191.367 171.953 189.799 172.123 188.345C170.81 186.598 167.845 183.299 164.511 183.767C161.43 184.207 158.546 193.003 157.028 198.525V198.533C156.966 198.76 156.038 202.383 155.715 205.222C155.379 208.149 156.173 211.632 156.173 211.632C156.173 211.632 153.915 208.741 153.915 205.618C153.915 204.562 154.044 203.307 154.219 202.112L153.824 201.928C153.267 203.894 152.505 205.838 151.62 207.357C150.888 208.625 150.041 209.668 149.134 210.299C147.829 211.207 146.448 211.378 145.068 210.503C144.129 209.908 143.252 208.713 142.528 206.733C141.498 207.592 140.187 208.34 138.716 208.361L138.845 208.728C138.845 208.728 137.494 209.14 133.964 215.022C131.421 219.26 131.023 224.733 131.018 227.58ZM63.646 208.34C62.3491 208.2 61.1894 207.52 60.2584 206.741C59.5266 208.721 58.6575 209.916 57.7184 210.511C56.3301 211.383 54.9578 211.215 53.6528 210.307C52.7461 209.675 51.8985 208.635 51.1667 207.365C50.2814 205.846 49.52 203.902 48.963 201.936L48.5675 202.119C48.7424 203.315 48.8662 204.57 48.8662 205.626C48.8662 208.752 46.6168 211.639 46.6168 211.639C46.6168 211.639 47.4105 208.156 47.0742 205.23C46.754 202.391 45.8149 198.768 45.7611 198.541V198.533H45.7531C44.2436 193.011 41.3592 184.215 38.2784 183.775C34.9447 183.304 31.9796 186.606 30.6665 188.35C30.8333 189.802 32.6576 191.373 32.5284 192.356C32.3832 193.404 28.3714 189.957 25.8691 190.288C25.8072 190.332 25.748 190.384 25.6942 190.436C24.9704 191.059 24.4968 191.875 24.1928 192.586C24.513 194.706 27.5023 197.001 26.8996 197.487C26.13 198.111 21.3164 193.425 19.433 196.667C19.2258 197.239 19.0832 197.79 18.9836 198.282C18.9756 200.981 22.2259 203.467 21.8734 203.687C21.599 203.856 18.7388 201.677 16.8392 200.181C15.7252 200.409 14.5198 201.089 14.4364 202.947C14.2696 206.474 18.4401 208.881 23.1084 213.927C27.7767 218.981 28.6081 229.647 33.863 232.294C39.1179 234.934 46.3719 227.725 51.8716 227.481C55.991 227.298 66.5384 227.481 71.5942 227.585C71.4112 224.218 70.7628 218.981 68.6049 214.83C65.3626 208.596 63.6325 208.464 63.6325 208.464L63.646 208.34Z" fill="#FEDFC0"/>
<path d="M156.012 173.997C151.863 186.078 143.678 195.254 143.678 195.254L145.013 202.823L145.104 202.839C145.707 205.669 146.783 210.011 149.1 206.008C149.993 204.482 150.633 202.437 151.007 200.479C150.962 199.958 150.754 197.567 150.725 194.861C150.695 192.573 156.109 185.398 160.565 173.999H156.012V173.997ZM69.1627 173.997C69.3699 174.416 69.5744 174.832 69.787 175.244C72.0068 179.542 74.3181 183.276 75.3862 183.863C76.0562 184.238 77.5226 184.515 79.0536 184.81C79.5272 184.898 79.9927 184.986 80.7837 185.155C83.9345 185.83 86.7166 186.834 86.7785 189.416L116.187 188.397C116.874 186.557 119.301 185.734 121.999 185.155C122.793 184.986 123.259 184.898 123.729 184.81C125.263 184.518 126.727 184.238 127.397 183.863C128.465 183.276 130.776 179.542 132.996 175.244C133.209 174.832 133.416 174.416 133.62 173.997H132.124C128.952 178.538 125.36 182.629 122.492 182.704C119.327 182.784 114.406 186.151 114.406 186.151L90.3517 186.407C90.0531 185.675 89.566 184.924 88.8557 184.148C86.3534 181.421 81.5183 182.704 75.5154 176.615C74.7997 175.883 74.1109 174.995 73.457 173.997H69.1627ZM88.81 192.76C87.3839 194.843 86.0332 196.419 82.5111 199.045C78.4913 202.052 81.2842 199.909 80.0249 202.748C78.7657 205.587 72.7951 206.086 72.7951 206.086C72.7951 206.086 75.5262 208.361 77.1971 215.094C78.8599 221.834 79.8581 227.364 79.8581 227.364C79.8581 227.364 83.7784 228.407 90.2844 230.327C96.7824 232.257 100.956 227.768 107.704 229.931C114.46 232.094 122.629 228.001 122.629 228.001C122.629 228.001 123.377 224.958 125.963 216.294C127.938 209.685 132.194 206.767 134.102 205.755C134.446 206.254 134.888 206.738 135.461 207.178C134.317 208.314 132.767 210.208 130.892 213.331C127.787 218.502 127.445 225.11 127.475 228.12C124.981 229.375 117.988 232.602 112.068 232.602C107.05 232.602 103.283 232.301 101.397 232.118C99.5134 232.301 95.7465 232.602 90.7257 232.602C84.6771 232.602 77.5092 229.235 75.1656 228.047C75.0042 224.417 74.3423 218.232 71.7727 213.298C70.1852 210.247 68.6757 208.324 67.4165 207.113C68.7807 206.026 69.3995 204.722 69.6067 203.46C70.9198 204.039 72.4749 204.244 74.1674 203.488C77.3558 202.065 77.867 198.662 77.867 196.659C79.9254 196.087 83.5793 194.819 85.5005 192.646L85.5085 192.873L88.81 192.76ZM142.526 206.741L137.637 224.161C137.637 224.161 162.647 228.65 167.819 223.353C172.982 218.064 178.657 198.582 179.152 197.542C179.313 197.21 179.9 196.61 180.249 195.694C181.455 195.342 182.628 195.407 183.354 196.662C183.562 197.234 183.704 197.785 183.796 198.276C183.812 200.975 180.562 203.462 180.906 203.682C181.189 203.85 184.049 201.671 185.948 200.176C187.062 200.404 188.26 201.084 188.351 202.942C188.518 206.469 184.347 208.875 179.679 213.921C175.011 218.975 174.179 229.641 168.924 232.289C163.67 234.928 156.416 227.719 150.916 227.475C146.751 227.292 135.996 227.475 131.016 227.579C131.024 224.733 131.419 219.262 133.959 215.029C137.489 209.147 138.84 208.736 138.84 208.736L138.711 208.368C140.185 208.348 141.496 207.597 142.526 206.741ZM33.4227 232.038C36.2129 230.922 40.5314 228.935 44.6347 226.001C51.4689 221.107 66.1438 224.557 66.1438 224.557C66.1438 224.557 67.395 222.554 66.9752 217.024C66.5636 211.486 62.4684 208.06 62.4684 208.06C62.8505 208.2 63.2379 208.296 63.6496 208.34L63.6334 208.456C63.6334 208.456 65.3635 208.588 68.6058 214.822C70.7637 218.973 71.4121 224.21 71.5951 227.576C66.5393 227.473 55.9893 227.289 51.8725 227.473C46.3728 227.716 39.1188 234.925 33.8639 232.286C33.7106 232.208 33.5653 232.125 33.4227 232.038Z" fill="#F8CDAA"/>
<path d="M109.348 192.048L89.4718 192.736L85.5058 192.876L85.4977 192.648C83.5766 194.819 79.9227 196.087 77.8643 196.662C77.8643 198.664 77.3531 202.067 74.1646 203.49C72.4722 204.246 70.9143 204.042 69.604 203.462C69.3968 204.725 68.7806 206.029 67.4138 207.116C67.9088 207.592 68.4524 208.179 69.0147 208.912C69.8757 210.019 70.8067 211.45 71.7673 213.298C74.3368 218.235 75.0014 224.417 75.1602 228.047C77.5011 229.235 84.6717 232.602 90.7203 232.602C95.7384 232.602 99.5053 232.301 101.391 232.118C103.275 232.301 107.042 232.602 112.063 232.602C117.982 232.602 124.975 229.375 127.469 228.12C127.44 225.113 127.781 218.504 130.887 213.331C131.231 212.759 131.556 212.239 131.877 211.748C133.311 209.548 134.524 208.109 135.453 207.178C134.027 206.078 133.394 204.751 133.179 203.459C131.866 204.039 130.311 204.243 128.618 203.488C125.43 202.065 124.919 198.662 124.919 196.659C122.599 196.015 118.259 194.488 116.65 191.789L109.348 192.048Z" fill="#FEFEFE"/>
<path d="M75.1631 228.047C77.504 229.235 84.6746 232.602 90.7232 232.602C95.7413 232.602 99.5082 232.301 101.394 232.118C102.53 232.229 104.354 232.382 106.725 232.493C108.188 232.565 115.999 228.927 114.665 225.956C113.33 222.994 111.414 226.037 106.076 229.088C100.746 232.131 102.659 228.12 101.491 224.274C100.323 220.424 94.7403 226.601 90.4864 224.59C86.2378 222.587 97.1593 220.181 93.8201 216.574C90.4864 212.964 87.9868 221.627 83.3185 217.937C78.6502 214.247 85.7374 213.287 84.9894 209.758C84.2333 206.231 74.816 213.528 74.816 213.528L75.1631 228.047ZM84.7661 213.846C85.9473 213.846 86.9024 214.749 86.9024 215.857C86.9024 216.964 85.95 217.86 84.7661 217.86C83.5849 217.86 82.6297 216.964 82.6297 215.857C82.6324 214.749 83.5849 213.846 84.7661 213.846ZM97.8239 219.063C98.7925 219.063 99.5782 219.707 99.5782 220.507C99.5782 221.299 98.7925 221.951 97.8239 221.951C96.8552 221.951 96.0776 221.299 96.0776 220.507C96.0776 219.707 96.8552 219.063 97.8239 219.063Z" fill="#CAE4F8"/>
<path d="M88.81 192.759L85.5086 192.876L85.5005 192.648C83.5794 194.819 79.9255 196.087 77.8671 196.661C77.8671 198.664 77.3559 202.067 74.1674 203.49C72.475 204.246 70.9171 204.041 69.6068 203.462C69.3996 204.725 68.7834 206.029 67.4166 207.116C67.9116 207.592 68.4552 208.179 69.0175 208.911C69.8785 210.019 70.8095 211.45 71.7701 213.298C74.3396 218.235 75.0042 224.417 75.163 228.047C77.5039 229.235 84.6745 232.602 90.7231 232.602C95.7412 232.602 99.5081 232.301 101.394 232.118C103.278 232.301 107.045 232.602 112.065 232.602C117.985 232.602 124.978 229.375 127.472 228.12C127.443 225.113 127.784 218.504 130.889 213.331C131.234 212.759 131.559 212.239 131.879 211.748C133.314 209.548 134.527 208.109 135.455 207.178C134.882 206.738 134.441 206.254 134.097 205.754C132.189 206.766 127.935 209.685 125.957 216.294C123.372 224.958 122.624 228.001 122.624 228.001C122.624 228.001 114.455 232.094 107.698 229.931C100.948 227.768 96.7771 232.257 90.2791 230.327C83.7731 228.404 79.8528 227.364 79.8528 227.364C79.8528 227.364 78.8546 221.834 77.1917 215.093C75.5208 208.36 72.7898 206.086 72.7898 206.086C72.7898 206.086 78.7631 205.586 80.0196 202.748C81.2789 199.909 78.486 202.052 82.5058 199.045C86.0333 196.418 87.384 194.842 88.81 192.759Z" fill="#CAE4F8"/>
<path d="M26.3726 83.0401C27.0049 81.3607 27.882 80.129 28.9126 79.2492C29.6686 78.5971 30.4839 78.1417 31.3368 77.8337C24.403 62.6131 23.4962 49.5635 26.8219 38.7238C30.7045 26.0416 40.3532 16.4104 52.8917 9.87391C58.421 6.99125 64.5315 4.73998 70.9595 3.11752C77.5786 1.44589 84.5285 0.44705 91.5135 0.118416C98.4608 -0.205042 105.465 0.133943 112.237 1.13796C118.864 2.12127 125.279 3.74891 131.214 6.02346C144.439 11.0849 155.293 19.2257 161.035 30.4795C165.961 40.147 167.1 52.0891 162.69 66.2979C164.032 66.6136 165.458 67.201 166.839 68.0731C168.119 68.8804 169.371 69.944 170.468 71.2481H170.476C171.606 72.5989 172.613 74.2188 173.366 76.1336C174.036 77.8415 174.518 79.7797 174.709 81.9352C174.824 83.3144 174.83 84.7971 174.693 86.3808C174.572 87.8558 174.319 89.4239 173.923 91.0904C172.451 97.2361 169.766 100.605 166.761 102.321C164.038 103.876 161.094 104.06 158.546 103.728C157.104 110.697 154.236 116.667 150.315 121.7C145.9 127.369 140.147 131.836 133.59 135.182C129.266 137.381 124.582 139.084 119.701 140.308C114.621 141.576 109.336 142.326 104.02 142.582C98.8563 142.838 93.6553 142.619 88.5914 141.966C83.5034 141.307 78.5472 140.207 73.9004 138.696C66.8617 136.393 60.4767 133.13 55.2972 128.976C50.6154 125.229 46.9158 120.761 44.5964 115.627C43.4152 115.927 42.1022 116.074 40.6923 115.963C38.9676 115.823 37.0922 115.295 35.1253 114.167C33.3172 113.14 31.77 111.372 30.4812 109.178C29.0632 106.772 27.9493 103.832 27.1555 100.786C26.2945 97.4845 25.7752 93.929 25.6219 90.7747C25.482 87.5892 25.7187 84.7946 26.3726 83.0401Z" fill="#143D52"/>
<path d="M39.6462 83.3044C39.6462 83.3044 32.8496 79.8266 31.0361 84.6551C29.2226 89.4837 32.0666 106.865 37.6551 110.063C43.2544 113.254 47.4626 108.656 47.4626 108.656C55.9435 147.002 149.657 151.962 154.47 97.5209C154.47 97.5209 165.82 103.742 169.099 90.0245C172.371 76.2996 164.103 70.4412 159.862 70.7853C155.63 71.1295 155.638 71.2925 155.638 71.2925C194.238 -21.9897 -16.5806 -16.4443 39.6462 83.3044Z" fill="#FEDFC0"/>
<path d="M40.1632 88.2414C36.3506 86.6862 34.6258 89.9492 35.3577 96.545C36.0896 103.138 40.9704 109.315 43.244 107.004C47.1213 103.081 43.2386 89.4886 40.1632 88.2414Z" fill="#F8C5A6"/>
<path d="M159.276 76.4182C162.938 74.5396 164.951 77.65 164.83 84.2822C164.714 90.9144 160.428 97.4793 157.942 95.3807C153.723 91.7994 156.333 77.9294 159.276 76.4182Z" fill="#F8C5A6"/>
<path d="M69.2759 106.389C75.5371 106.117 80.6628 107.108 80.7327 108.596C80.8027 110.084 75.7819 111.507 69.5288 111.778C63.2676 112.042 58.1338 111.059 58.0666 109.571C57.9966 108.083 63.0147 106.66 69.2759 106.389Z" fill="#F59F8E"/>
<path d="M134.388 103.498C140.649 103.234 145.775 104.217 145.845 105.706C145.92 107.194 140.902 108.617 134.641 108.889C128.38 109.153 123.246 108.169 123.179 106.681C123.109 105.193 128.127 103.77 134.388 103.498Z" fill="#F59F8E"/>
<path d="M73.3253 79.5132C76.9092 79.3579 80.0142 83.312 80.2429 88.3373C80.4797 93.3704 77.7568 97.5729 74.1728 97.7256C70.5808 97.8808 67.4839 93.9268 67.2552 88.8937C67.0184 83.8709 69.7333 79.6659 73.3253 79.5132Z" fill="#143D52"/>
<path d="M127.403 75.6985C131.048 75.5433 134.175 79.2696 134.396 84.0309C134.616 88.7923 131.839 92.7826 128.202 92.9353C124.564 93.0905 121.429 89.3642 121.209 84.6028C120.988 79.844 123.765 75.8512 127.403 75.6985Z" fill="#143D52"/>
<path d="M56.8067 65.8921C56.8067 65.8921 60.5736 60.7269 65.554 59.7746C70.5425 58.8275 72.4501 59.4822 72.4501 59.4822C65.8903 55.541 58.0498 58.0796 56.8067 65.8921Z" fill="#143D52"/>
<path d="M122.182 55.0725C122.182 55.0725 128.058 52.2805 132.91 53.7451C137.756 55.2096 139.098 56.6689 139.098 56.6689C135.312 50.1846 127.168 48.7926 122.182 55.0725Z" fill="#143D52"/>
<path d="M95.7874 95.937C98.9463 91.9028 103.932 91.4628 107.64 95.1814C107.801 90.3838 97.5283 88.3006 95.7874 95.937Z" fill="#143D52"/>
<path d="M124.833 77.4742C126.35 77.4225 127.663 78.6619 127.755 80.2326C127.846 81.8085 126.687 83.1308 125.169 83.1825C123.652 83.2343 122.347 81.9948 122.247 80.4241C122.156 78.8457 123.315 77.526 124.833 77.4742Z" fill="#FEFEFE"/>
<path d="M71.2889 82.0884C72.8979 82.0289 74.2863 83.3433 74.3859 85.0147C74.4855 86.6862 73.2558 88.0886 71.6414 88.1455C70.0243 88.1972 68.6359 86.8828 68.5444 85.2114C68.4448 83.5399 69.6745 82.1401 71.2889 82.0884Z" fill="#FEFEFE"/>
<path d="M110.635 109.313C107.737 110.172 102.366 110.925 97.7841 110.462C94.324 110.11 91.2432 109.052 89.7283 106.824L91.9535 105.432C92.9544 106.904 95.3249 107.639 98.064 107.916C102.267 108.343 107.193 107.652 109.854 106.868L110.635 109.313Z" fill="#143D52"/>
<path d="M168.663 186.187C171.195 183.612 171.722 181.089 171.722 179.43C171.722 177.766 171.195 175.241 168.663 172.674C168.168 172.167 167.603 171.67 166.979 171.186C167.452 170.562 167.864 169.946 168.206 169.331C169.96 166.22 169.793 163.653 169.349 162.046C168.9 160.439 167.71 158.136 164.576 156.289C163.957 155.921 163.279 155.585 162.539 155.269C162.838 154.55 163.066 153.846 163.233 153.171C164.086 149.732 163.233 147.289 162.372 145.85C160.785 143.216 157.97 141.588 153.975 140.993C154.058 140.222 154.096 139.49 154.074 138.799C153.975 135.256 152.495 133.114 151.276 131.941C149.995 130.71 147.646 129.242 143.726 129.242C143.131 129.242 142.504 129.271 141.859 129.346C141.737 128.575 141.576 127.863 141.363 127.196C140.319 123.801 138.312 122.098 136.819 121.27C135.414 120.494 133.83 120.095 132.097 120.095C130.504 120.095 128.817 120.426 127.017 121.099C126.697 120.388 126.347 119.743 125.965 119.148C124.036 116.133 121.641 114.99 119.978 114.558C119.222 114.366 118.444 114.265 117.659 114.265C115.28 114.265 112.899 115.116 110.467 116.832C109.963 116.232 109.444 115.688 108.925 115.212C106.248 112.785 103.624 112.27 101.899 112.27C100.169 112.27 97.5514 112.782 94.8742 115.212C94.3468 115.688 93.8356 116.232 93.3324 116.832C90.9 115.116 88.5188 114.265 86.1403 114.265C85.3546 114.265 84.577 114.369 83.8209 114.558C82.15 114.99 79.7553 116.133 77.8342 119.148C77.4521 119.743 77.1023 120.388 76.7821 121.099C74.9821 120.424 73.2977 120.095 71.7021 120.095C69.9721 120.095 68.3846 120.491 66.98 121.27C65.484 122.098 63.4795 123.801 62.4274 127.196C62.2202 127.863 62.0615 128.575 61.9404 129.346C61.292 129.274 60.6677 129.242 60.065 129.242C56.1528 129.242 53.8039 130.71 52.5231 131.941C51.3015 133.116 49.8244 135.256 49.7248 138.799C49.7006 139.487 49.7329 140.222 49.8244 140.993C45.8287 141.588 43.0062 143.216 41.4268 145.85C40.5658 147.289 39.7102 149.732 40.5658 153.171C40.7326 153.846 40.9613 154.55 41.2519 155.269C40.52 155.585 39.842 155.921 39.2231 156.289C36.0885 158.136 34.8992 160.439 34.4499 162.046C34.0086 163.653 33.8391 166.22 35.5934 169.331C35.9378 169.946 36.3495 170.562 36.8204 171.186C36.1961 171.67 35.6311 172.169 35.136 172.674C32.6041 175.241 32.0687 177.764 32.0687 179.43C32.0687 181.089 32.6014 183.612 35.136 186.187C35.6311 186.686 36.1961 187.185 36.8204 187.669C36.3468 188.293 35.9351 188.917 35.5934 189.525C33.8391 192.643 34.0059 195.21 34.4499 196.809C34.8992 198.416 36.0885 200.719 39.2231 202.574C39.842 202.942 40.52 203.278 41.2519 203.586C40.9613 204.313 40.7326 205.009 40.5658 205.692C39.7128 209.131 40.5658 211.569 41.4268 213.013C43.0062 215.647 45.8287 217.267 49.8244 217.862C49.7329 218.633 49.7033 219.366 49.7248 220.062C49.8244 223.596 51.3042 225.747 52.5231 226.919C53.8039 228.151 56.1528 229.618 60.065 229.618C60.6677 229.618 61.292 229.582 61.9404 229.514C62.0615 230.278 62.2229 230.997 62.4274 231.665C63.4795 235.054 65.4867 236.755 66.98 237.59C68.3846 238.367 69.9694 238.765 71.7021 238.765C73.295 238.765 74.9821 238.429 76.7821 237.761C77.1023 238.465 77.4521 239.117 77.8342 239.704C79.7553 242.727 82.15 243.871 83.8209 244.295C84.5689 244.494 85.3546 244.587 86.1403 244.587C88.5188 244.587 90.9 243.744 93.3324 242.02C93.8356 242.621 94.3468 243.164 94.8742 243.64C97.5514 246.075 100.167 246.583 101.899 246.583C103.624 246.583 106.248 246.075 108.925 243.64C109.444 243.164 109.963 242.621 110.467 242.02C112.899 243.744 115.28 244.587 117.659 244.587C118.444 244.587 119.222 244.492 119.978 244.295C121.641 243.871 124.036 242.724 125.965 239.704C126.347 239.117 126.697 238.465 127.017 237.761C128.817 238.429 130.501 238.765 132.097 238.765C133.827 238.765 135.414 238.369 136.819 237.59C138.315 236.755 140.319 235.052 141.363 231.665C141.576 230.997 141.737 230.278 141.859 229.514C142.507 229.582 143.131 229.618 143.726 229.618C147.646 229.618 149.995 228.151 151.276 226.919C152.497 225.744 153.975 223.596 154.074 220.062C154.096 219.366 154.058 218.631 153.975 217.862C157.97 217.267 160.785 215.647 162.372 213.013C163.233 211.569 164.089 209.131 163.233 205.692C163.066 205.009 162.838 204.313 162.539 203.586C163.279 203.278 163.957 202.942 164.576 202.574C167.71 200.719 168.9 198.416 169.349 196.809C169.79 195.21 169.96 192.643 168.206 189.525C167.861 188.917 167.449 188.293 166.979 187.669C167.603 187.185 168.168 186.686 168.663 186.187Z" fill="#143D52"/>
<path d="M42.3373 178.287C42.3373 147.089 68.6359 121.797 101.075 121.797C133.513 121.797 159.812 147.089 159.812 178.287C159.812 209.484 133.513 234.776 101.075 234.776C68.6359 234.776 42.3373 209.484 42.3373 178.287Z" fill="#BFE4ED"/>
<path d="M42.3442 177.986C42.3899 169.486 44.3891 161.423 47.9354 154.198V202.375C44.3891 195.151 42.3899 187.09 42.3442 178.587V177.986ZM53.5266 145.118C55.2351 142.866 57.1025 140.739 59.1258 138.757V217.816C57.1052 215.837 55.2351 213.709 53.5266 211.456V145.118ZM64.7144 133.923C66.4983 132.567 68.3683 131.312 70.3136 130.161V226.412C68.3683 225.261 66.501 224.006 64.7144 222.65V133.923ZM75.9021 127.234C77.7183 126.406 79.5857 125.663 81.4933 125.019V231.554C79.5857 230.91 77.7183 230.159 75.9021 229.331V127.234ZM87.0926 123.412C88.9223 122.988 90.7842 122.636 92.6838 122.377V234.194C90.7842 233.937 88.9249 233.586 87.0926 233.159V123.412ZM98.2723 121.865C99.2033 121.821 100.134 121.797 101.071 121.797C102.007 121.797 102.938 121.818 103.869 121.865V234.709C102.938 234.753 102.007 234.776 101.071 234.776C100.134 234.776 99.2033 234.753 98.2723 234.709V121.865ZM109.463 122.372C111.354 122.636 113.222 122.98 115.054 123.415V233.164C113.224 233.596 111.354 233.94 109.463 234.207V122.372ZM120.651 125.011C122.558 125.663 124.426 126.406 126.242 127.234V229.339C124.426 230.167 122.558 230.91 120.651 231.554V125.011ZM131.833 130.161C133.778 131.305 135.646 132.56 137.432 133.916V222.655C135.648 224.006 133.778 225.258 131.833 226.41V130.161ZM143.021 138.749C145.041 140.729 146.911 142.856 148.612 145.11V211.463C146.911 213.715 145.041 215.842 143.021 217.824V138.749ZM154.211 154.185C157.69 161.278 159.687 169.178 159.802 177.51V179.066C159.687 187.398 157.69 195.298 154.211 202.391V154.185Z" fill="#EDFBFF"/>
<path d="M53.618 202.574C42.1154 203.806 31.3312 205.669 21.5533 208.06L26.7167 194.775L13.3925 185.152C18.6931 183.596 24.3597 182.209 30.341 181.006L35.9699 196.799L53.618 202.574ZM163.857 196.149L151.776 194.41L151.846 201.055L163.857 196.149ZM150.167 202.647C161.675 203.879 172.462 205.742 182.24 208.133L177.076 194.842L190.401 185.227C185.1 183.671 179.433 182.284 173.447 181.081L167.826 196.874L150.167 202.647ZM39.9252 196.074L52.0143 194.335L51.939 200.98L39.9252 196.074ZM101.539 163.441C129.005 163.441 154.273 166.939 174.3 172.808L166.139 195.717C147.589 191.176 125.394 188.536 101.539 188.536C77.6886 188.536 55.4933 191.176 36.9439 195.717L28.775 172.808C48.8124 166.939 74.0724 163.441 101.539 163.441Z" fill="#BFE4ED"/>
<path d="M53.1206 203.791C47.446 204.399 42.5651 205.098 37.2484 205.998C31.8859 206.914 26.7467 207.985 21.8497 209.181L19.6299 209.724L25.2803 195.179L10.783 184.712L13.0405 184.052C15.7715 183.253 18.5402 182.513 21.3304 181.829C24.1153 181.146 27.0212 180.502 30.032 179.894L27.2418 172.053L28.4311 171.709C38.6906 168.702 50.3062 166.319 62.8824 164.697C75.0173 163.134 88.0212 162.282 101.536 162.282C115.06 162.282 128.064 163.134 140.199 164.697C152.775 166.316 164.39 168.702 174.65 171.709L175.839 172.053L173.07 179.829L173.689 179.953C176.732 180.569 179.654 181.216 182.453 181.897C185.251 182.58 188.02 183.328 190.751 184.127L193 184.787L178.508 195.246L184.159 209.799L181.939 209.256C177.042 208.053 171.895 206.989 166.54 206.073C160.936 205.118 149.546 205.809 150.652 201.268L150.568 193.676C145.596 192.824 140.446 192.1 135.14 191.505C124.509 190.325 113.227 189.693 101.536 189.693C89.8509 189.693 78.5716 190.325 67.9381 191.505C62.8824 192.069 57.9692 192.76 53.2175 193.559L53.1341 201.203L53.1206 203.791ZM36.8367 203.726C40.5364 203.095 44.3491 202.531 48.2532 202.039L35.0205 197.712L29.545 182.352C26.9754 182.88 24.4355 183.452 21.9251 184.068C19.8802 184.567 17.9052 185.079 16.0056 185.607L28.1486 194.372L23.4749 206.417C27.7477 205.418 32.2169 204.518 36.8367 203.726ZM38.7148 196.478L39.5166 196.742L39.5785 196.279L38.7148 196.478ZM159.48 196.682L152.99 195.751L153.028 199.322L159.48 196.682ZM164.232 196.45L164.277 196.817L164.902 196.613L164.232 196.45ZM155.538 202.111C159.442 202.603 163.258 203.167 166.955 203.799C171.577 204.59 176.038 205.493 180.316 206.49L175.64 194.439L187.783 185.68C185.883 185.152 183.908 184.637 181.864 184.132C179.353 183.524 176.813 182.952 174.235 182.425L168.768 197.785L155.538 202.111ZM50.804 195.678L44.3141 196.61L50.7663 199.249L50.804 195.678ZM139.886 166.976C127.897 165.437 114.992 164.593 101.536 164.593C88.0912 164.593 75.1841 165.437 63.1864 166.976C51.2264 168.516 40.1516 170.754 30.3146 173.564L37.7193 194.338C46.9106 192.144 56.971 190.407 67.6717 189.217C78.4102 188.022 89.7755 187.382 101.536 187.382C113.297 187.382 124.668 188.022 135.409 189.217C146.11 190.405 156.17 192.144 165.362 194.338L172.766 173.564C162.929 170.754 151.855 168.516 139.886 166.976Z" fill="#143D52"/>
<path d="M30.6215 149.9C30.6215 149.9 38.1043 156.493 40.1626 154.183C42.221 151.872 40.5366 149.333 40.5366 149.333C40.5366 149.333 47.4247 149.134 47.118 146.179C46.8193 143.224 45.4632 142.489 45.4632 142.489C45.4632 142.489 48.7351 143.025 49.7037 140.61C50.6643 138.191 43.3269 132.278 41.8389 132.754C40.359 133.23 37.0495 138.659 37.0495 138.659C37.0495 138.659 34.5257 140.134 33.549 141.218C32.5723 142.305 33.3956 145.136 33.3956 145.136C33.3956 145.136 31.1597 145.209 30.4735 146.464C29.782 147.729 30.6215 149.9 30.6215 149.9Z" fill="#FEDFC0"/>
<path d="M36.1134 153.781C33.4604 152.394 30.6217 149.9 30.6217 149.9C30.6217 149.9 29.7822 147.729 30.4764 146.466C31.1626 145.211 33.3985 145.139 33.3985 145.139C33.3985 145.139 32.5752 142.308 33.5519 141.221C34.5286 140.134 37.0524 138.662 37.0524 138.662C37.0524 138.662 40.3619 133.233 41.8418 132.757C42.9934 132.382 47.6375 135.839 49.2411 138.538C49.7147 139.337 49.9191 140.065 49.7066 140.613C48.7379 143.027 45.4661 142.492 45.4661 142.492C45.4661 142.492 46.8249 143.224 47.1209 146.182C47.3334 148.288 43.8948 149 41.9037 149.225C41.1019 149.32 40.5395 149.336 40.5395 149.336C40.5395 149.336 41.3467 150.555 41.1584 152.063C41.083 152.739 40.8005 153.471 40.1655 154.182C39.3718 155.073 37.7762 154.646 36.1134 153.781ZM43.5719 156.985C44.6239 155.805 45.2885 154.389 45.5388 152.915C47.8204 152.27 50.016 151.028 51.0465 148.873C51.512 147.897 51.6869 146.834 51.5793 145.762L51.5093 145.219C52.5398 144.448 53.3713 143.428 53.8825 142.153C54.4933 140.634 54.348 139.123 53.7749 137.707C52.9892 135.733 51.3882 133.953 49.8842 132.573C47.581 130.454 43.814 127.572 40.4104 128.671C37.795 129.515 35.3546 133.013 33.7456 135.567C32.4568 136.382 31.0469 137.407 30.1536 138.406C29.1849 139.477 28.7356 140.825 28.6118 142.228C27.7427 142.792 27.0109 143.54 26.5077 144.458C25.3642 146.549 25.5848 149.219 26.4082 151.383L26.7741 152.358L27.5894 153.078C28.8701 154.208 30.6244 155.616 32.5536 156.775C36.2587 158.995 40.6148 160.307 43.5719 156.985Z" fill="#143D52"/>
<path d="M171.996 147.625C171.996 147.625 164.514 154.219 162.455 151.908C160.397 149.589 162.081 147.059 162.081 147.059C162.081 147.059 155.193 146.854 155.5 143.897C155.798 140.947 157.155 140.207 157.155 140.207C157.155 140.207 153.883 140.742 152.914 138.328C151.953 135.914 159.291 129.996 160.779 130.472C162.259 130.956 165.568 136.385 165.568 136.385C165.568 136.385 168.092 137.86 169.069 138.944C170.046 140.031 169.222 142.861 169.222 142.861C169.222 142.861 171.458 142.929 172.144 144.189C172.836 145.449 171.996 147.625 171.996 147.625Z" fill="#FEDFC0"/>
<path d="M166.505 151.499C169.158 150.12 171.996 147.626 171.996 147.626C171.996 147.626 172.836 145.447 172.142 144.192C171.456 142.929 169.22 142.864 169.22 142.864C169.22 142.864 170.043 140.033 169.066 138.946C168.09 137.859 165.566 136.387 165.566 136.387C165.566 136.387 162.256 130.958 160.776 130.474C159.625 130.107 154.981 133.561 153.377 136.263C152.903 137.055 152.699 137.782 152.911 138.33C153.88 140.745 157.152 140.209 157.152 140.209C157.152 140.209 155.793 140.949 155.497 143.899C155.285 146.011 158.723 146.715 160.714 146.95C161.516 147.046 162.079 147.061 162.079 147.061C162.079 147.061 161.271 148.273 161.46 149.789C161.535 150.464 161.818 151.189 162.453 151.901C163.249 152.799 164.842 152.366 166.505 151.499ZM159.046 154.706C157.994 153.526 157.33 152.11 157.079 150.643C154.798 149.999 152.602 148.756 151.572 146.601C151.106 145.625 150.931 144.554 151.039 143.483L151.109 142.939C150.078 142.176 149.241 141.148 148.736 139.88C148.125 138.354 148.27 136.842 148.843 135.427C149.629 133.46 151.23 131.672 152.734 130.293C155.037 128.181 158.804 125.298 162.208 126.391C164.823 127.242 167.264 130.733 168.873 133.292C170.161 134.107 171.571 135.132 172.465 136.131C173.433 137.202 173.883 138.545 174.006 139.945C174.875 140.517 175.607 141.257 176.11 142.184C177.254 144.267 177.033 146.937 176.21 149.101L175.844 150.084L175.029 150.803C173.748 151.934 171.994 153.334 170.064 154.493C166.359 156.716 162.006 158.028 159.046 154.706Z" fill="#143D52"/>
</g>
</svg>
