<svg width="220" height="109" viewBox="0 0 220 109" fill="none" xmlns="http://www.w3.org/2000/svg">
<path d="M76.3031 108.023H143.09C160.55 103.505 176.477 95.5634 189.68 84.4733C208.127 68.979 228.232 36.9295 215.263 15.4032C209.581 5.96922 195.034 -3.2193 181.208 1.09645C165.703 5.93619 155.547 16.2553 145.145 26.4062C131.246 39.9758 119.546 54.73 109.696 70.3114C99.846 54.73 88.1457 39.975 74.2462 26.4062C63.8482 16.2553 53.6913 5.93694 38.1829 1.09645C24.3537 -3.22006 9.80774 5.96847 4.1266 15.4032C-8.83997 36.9295 11.2634 68.9797 29.7097 84.4733C42.9174 95.5641 58.8404 103.505 76.3031 108.023ZM150.153 59.2439C155.651 52.3916 161.781 45.916 168.216 39.6327C171.303 36.6187 174.575 33.7337 177.844 30.8511C181.641 27.5022 189.53 19.1792 190.549 28.8114C192.144 43.8756 178.923 60.4773 166.739 70.7108C156.867 79.003 144.213 84.3855 130.684 87.1743C136.402 77.5474 142.924 68.2583 150.153 59.2439ZM28.8397 28.8137C29.8575 19.1815 37.7479 27.5022 41.5467 30.8533C44.8172 33.736 48.0868 36.6217 51.1726 39.6357C57.6074 45.9183 63.7374 52.3938 69.2347 59.2462C76.4648 68.2575 82.9873 77.5497 88.7054 87.1773C75.1763 84.3885 62.5228 79.0068 52.6504 70.7138C40.4698 60.4796 27.2483 43.8764 28.8397 28.8137Z" fill="#B1D3DF" fill-opacity="0.3"/>
</svg>
