<svg width="227" height="282" viewBox="0 0 227 282" fill="none" xmlns="http://www.w3.org/2000/svg">
<path d="M112.148 281.67C167.221 281.67 211.866 275.142 211.866 267.089C211.866 259.036 167.221 252.508 112.148 252.508C57.0754 252.508 12.4301 259.036 12.4301 267.089C12.4301 275.142 57.0754 281.67 112.148 281.67Z" fill="#516B7C"/>
<path d="M49.3657 144.386C52.5644 148.844 89.6565 158.867 97.7153 160.996L106.625 158.886L106.615 155.622L113.512 157.256L120.41 155.622L120.4 158.886L129.31 160.996C137.365 158.867 174.451 148.844 177.659 144.386C179.357 142.028 180.645 138.682 181.793 135.719C184.027 129.931 185.911 125.082 191.334 123.587C195.922 122.322 199.196 124.376 201.401 128.016C201.715 128.546 202.012 129.116 202.271 129.711C206.555 127.887 211.226 127.023 214.136 129.517L214.127 129.536C217.26 132.241 217.306 135.36 216.305 138.579C220.05 138.165 223.5 139.203 225.92 144.457C228.589 150.281 225.966 153.691 221.822 156.059C224.586 159.947 224.946 163.991 219.664 167.945C214.918 171.494 209.77 170.303 204.903 169.184C203.216 168.799 201.993 168.268 201.796 168.34C201.322 168.534 199.118 170.514 196.334 173.008C190.699 178.061 183.18 184.8 175.226 188.314C171.314 190.048 168.403 191.332 166.287 192.277C167.53 197.036 169.116 203.729 169.142 207.068C174.474 208.032 181.103 211.277 185.051 220.74C191.003 235.001 177.496 253.626 174.101 257.974C173.175 260.358 170.902 264.597 165.924 267.081C163.671 268.21 161.689 268.76 160.017 268.97C156.374 272.659 148.502 278.893 136.839 278.983C127.53 279.058 121.391 276.344 117.833 273.995L113.503 273.6L109.172 273.995C105.611 276.344 99.4749 279.058 90.1667 278.983C78.5037 278.893 70.6248 272.655 66.9879 268.97C65.3198 268.76 63.3346 268.21 61.0811 267.081C56.1032 264.597 53.8301 260.358 52.9046 257.974C49.5129 253.626 36.002 235.001 41.9545 220.74C45.9054 211.277 52.5317 208.029 57.8628 207.068C57.889 203.729 59.4752 197.036 60.7181 192.277C58.6053 191.332 55.6944 190.048 51.7795 188.314C43.8253 184.8 36.3062 178.061 30.6709 173.008C27.8909 170.514 25.6832 168.534 25.2089 168.34C25.0127 168.265 23.7895 168.799 22.1018 169.184C17.2352 170.303 12.0905 171.494 7.34153 167.945C2.05621 163.991 2.41925 159.947 5.17311 156.059C1.03905 153.694 -1.5938 150.281 1.08484 144.457C3.49528 139.203 6.94252 138.165 10.7005 138.579C9.69965 135.36 9.74544 132.241 12.8787 129.536L12.8689 129.517C15.7699 127.023 20.4535 127.883 24.7347 129.711C24.9931 129.116 25.2907 128.546 25.6047 128.016C27.8124 124.376 31.0732 122.322 35.6651 123.587C41.0976 125.082 42.9717 129.934 45.2153 135.719C46.3797 138.682 47.6683 142.031 49.3657 144.386Z" fill="#143D52"/>
<path d="M97.6037 167.587C97.6037 167.587 49.0611 155.015 44.0996 148.092C39.1315 141.179 38.0162 130.871 33.9672 129.752C29.9051 128.632 28.6165 140.079 30.0097 140.583C31.4096 141.078 19.4685 132.356 17.1431 134.365C14.8079 136.365 23.4292 146.892 19.5732 147.092C15.7269 147.293 9.03198 142.683 7.01073 147.092C4.97968 151.502 16.4301 152.502 15.9297 154.511C15.4195 156.52 7.11212 159.719 11.2658 162.828C15.4195 165.937 23.7269 160.829 27.6843 162.424C31.6352 164.029 43.0824 177.464 54.4315 182.479C65.7871 187.487 68.4199 188.687 68.4199 188.687C68.4199 188.687 64.3676 202.524 64.3676 207.138C64.3676 208.982 64.433 210.337 64.5083 211.311C66.1109 211.952 67.8639 212.861 69.7478 214.145C74.0487 217.089 76.9039 221.453 78.7028 225.187L78.8892 224.802C78.9252 224.821 91.0068 230.699 108.138 230.699C125.548 230.699 147.827 225.565 147.893 225.546L147.978 225.921C149.757 222.042 152.697 217.283 157.286 214.145C159.167 212.861 160.92 211.955 162.526 211.311C162.601 210.34 162.666 208.982 162.666 207.138C162.666 202.524 158.614 188.687 158.614 188.687C158.614 188.687 161.247 187.487 172.596 182.479C183.951 177.461 195.402 164.029 199.353 162.424C203.304 160.829 211.618 165.937 215.771 162.828C219.925 159.719 211.618 156.52 211.107 154.511C210.607 152.502 222.057 151.502 220.026 147.092C217.995 142.683 211.31 147.293 207.464 147.092C203.608 146.892 212.219 136.361 209.894 134.365C207.569 132.356 195.628 141.078 197.027 140.583C198.417 140.079 197.129 128.632 193.07 129.752C189.018 130.871 187.906 141.179 182.937 148.092C177.976 155.015 129.433 167.587 129.433 167.587L113.931 163.919V163.725L113.522 163.825L113.113 163.725V163.919L97.6037 167.587ZM80.7011 230.169C80.9235 230.858 81.0903 231.424 81.1917 231.819C84.966 233.423 86.7256 236.717 88.58 240.182C89.8425 242.54 91.1573 244.996 93.2047 246.694C95.4581 248.564 97.934 249.318 100.259 250.033C103.55 251.042 106.601 251.977 109.142 255.261C112.053 259.02 111.644 263.799 110.886 266.943L113.509 267.183L116.122 266.943C115.37 263.799 114.964 259.02 117.875 255.261C120.416 251.977 123.464 251.042 126.758 250.033C129.083 249.318 131.559 248.564 133.813 246.694C135.86 244.999 137.178 242.54 138.437 240.182C140.292 236.717 142.045 233.423 145.826 231.819C145.917 231.443 146.078 230.91 146.28 230.269C139.827 231.628 122.408 234.983 108.129 234.983C95.7754 234.983 85.8 232.048 80.7011 230.169ZM171.121 214.365C174.022 215.675 177.027 218.254 179.075 223.168C183.526 233.825 172.835 249.036 169.368 253.54C168.978 252.43 168.311 251.696 167.598 251.211C167.664 250.971 167.709 250.725 167.745 250.476C167.893 249.451 167.781 248.457 167.392 247.568C166.983 246.633 166.306 245.843 165.335 245.267C165.113 245.138 164.88 245.018 164.632 244.908C164.586 243.734 164.233 242.213 163.085 240.654C161.711 238.8 159.628 238.069 158.022 237.784V236.704L157.947 236.118C157.947 236.099 156.501 230.826 150.63 230.819C151.827 227.335 154.552 221.198 159.726 217.658C166.967 212.705 171.065 214.468 171.075 214.475L171.121 214.365ZM165.243 259.861C164.622 260.411 163.889 260.926 163.019 261.366C158.607 263.566 157.086 262.566 157.086 262.566C157.086 262.566 149.996 272.488 136.818 272.589C128.521 272.653 123.608 270.295 121.093 268.535L121.149 268.516C121.139 268.496 118.137 261.942 121.306 257.839C123.003 255.639 125.424 254.895 128.017 254.106C130.761 253.262 133.672 252.372 136.583 249.962C139.271 247.733 140.792 244.889 142.248 242.168C143.87 239.143 145.391 236.29 148.347 235.445C152.213 234.345 153.427 236.4 153.714 237.079V242.013L155.984 241.883C155.994 241.883 158.535 241.718 159.602 243.168C160.694 244.653 160.259 245.801 160.259 245.808L159.445 248.228L161.996 248.587C162.476 248.651 162.839 248.771 163.098 248.926C163.265 249.027 163.366 249.137 163.422 249.256C163.487 249.412 163.507 249.622 163.467 249.881C163.402 250.311 163.209 250.806 162.882 251.34L160.907 254.578H164.736C164.736 254.578 165.384 254.578 165.413 255.714C165.505 258.493 164.995 259.758 164.995 259.768L165.243 259.861ZM55.9 214.365C52.9989 215.675 49.9932 218.254 47.9458 223.168C43.4945 233.825 54.1862 249.036 57.6432 253.54C58.0422 252.43 58.7094 251.696 59.4224 251.211C59.357 250.971 59.3112 250.725 59.2753 250.476C59.1281 249.451 59.2393 248.457 59.6285 247.568C60.0373 246.633 60.7143 245.843 61.6857 245.267C61.9081 245.138 62.1403 245.018 62.3889 244.908C62.4347 243.734 62.7879 242.213 63.9359 240.654C65.3096 238.8 67.393 238.069 68.9988 237.784V236.704L69.074 236.118C69.074 236.099 70.5197 230.826 76.3904 230.819C75.1934 227.335 72.4689 221.198 67.285 217.658C60.0537 212.705 55.9556 214.468 55.9458 214.475L55.9 214.365ZM61.7806 259.861C62.402 260.411 63.1346 260.926 64.0046 261.366C68.4166 263.566 69.9375 262.566 69.9375 262.566C69.9375 262.566 77.0282 272.488 90.2055 272.589C98.4933 272.653 103.416 270.295 105.921 268.535L105.875 268.516C105.885 268.496 108.887 261.942 105.718 257.839C104.011 255.639 101.6 254.895 99.0068 254.106C96.2627 253.262 93.3519 252.372 90.441 249.962C87.7526 247.733 86.2317 244.889 84.7665 242.168C83.1541 239.143 81.6332 236.29 78.6766 235.445C74.8107 234.345 73.5973 236.4 73.3095 237.079V242.013L71.0397 241.883C71.0299 241.883 68.4886 241.718 67.4256 243.168C66.3333 244.653 66.7683 245.801 66.7683 245.808L67.5826 248.228L65.025 248.587C64.5508 248.651 64.191 248.771 63.9326 248.926C63.7658 249.027 63.6546 249.137 63.6088 249.256C63.5336 249.412 63.5238 249.622 63.563 249.881C63.6186 250.311 63.8214 250.806 64.1485 251.34L66.1239 254.578H62.2941C62.2941 254.578 61.6465 254.578 61.6072 255.714C61.5222 258.493 62.0324 259.758 62.0324 259.768L61.7806 259.861Z" fill="#FEDFC0"/>
<path d="M97.6046 167.588C97.6046 167.588 66.4159 159.509 51.4822 152.741C57.425 161.334 71.4232 175.99 101.304 184.527C145.49 197.154 184.603 158.665 192.103 147.432C194.598 143.699 196.332 141.004 197.535 139.079C197.758 135.889 196.283 128.862 193.058 129.752C189.005 130.871 187.893 141.179 182.925 148.092C177.964 155.016 129.421 167.588 129.421 167.588L113.918 163.919V163.725L113.51 163.825L113.101 163.725V163.919L97.6046 167.588ZM154.814 216.119C155.583 215.414 156.401 214.754 157.28 214.149C159.161 212.864 160.914 211.958 162.52 211.315C162.595 210.344 162.661 208.985 162.661 207.141C162.661 202.528 158.608 188.691 158.608 188.691C158.608 188.691 161.241 187.491 172.59 182.483C180.413 179.024 188.276 171.58 193.709 166.756C188.822 170.296 181.444 175.148 174.369 177.908C162.307 182.622 149.846 188.435 149.846 188.435L152.479 216.103C152.479 216.1 153.379 216.074 154.814 216.119ZM161.277 216.669C167.442 217.568 174.572 219.833 174.572 225.527C174.572 232.424 171.18 240.263 169.055 244.482C168.59 242.628 167.776 240.512 166.356 239.134C163.37 236.226 160.839 235.016 160.839 235.016C160.839 235.016 161.895 231.007 157.186 228.358C154.477 226.827 152.391 228.833 151.102 230.826C156.571 231.111 157.944 236.1 157.944 236.119L158.02 236.705V237.785C159.622 238.07 161.709 238.804 163.082 240.655C164.234 242.214 164.584 243.735 164.629 244.909C164.881 245.019 165.11 245.139 165.333 245.268C166.307 245.847 166.984 246.633 167.39 247.568C167.779 248.458 167.89 249.448 167.743 250.477C167.707 250.726 167.658 250.972 167.596 251.211C168.309 251.696 168.976 252.431 169.365 253.54C172.832 249.037 183.521 233.825 179.073 223.168C177.025 218.254 174.019 215.676 171.118 214.365L171.073 214.475C171.066 214.469 167.544 212.965 161.277 216.669ZM151.432 235.239C152.129 235.808 152.944 236.478 153.722 237.109V237.08C153.526 236.633 152.934 235.579 151.432 235.239ZM161.823 253.084C157.094 257.504 150.134 263.411 143.966 266.226C133.424 271.03 120.11 265.126 120.11 265.126C120.489 267.07 121.147 268.51 121.147 268.519L121.091 268.539C123.603 270.299 128.518 272.657 136.816 272.593C149.99 272.492 157.084 262.57 157.084 262.57C157.084 262.57 158.605 263.57 163.017 261.37C163.887 260.93 164.62 260.415 165.241 259.865L164.999 259.775C164.999 259.765 165.509 258.5 165.418 255.721C165.388 254.585 164.741 254.585 164.741 254.585H160.911L161.823 253.084ZM115.959 266.145L112.205 267.06L111.24 265.161C111.138 265.795 111.017 266.391 110.887 266.941L113.51 267.18L116.123 266.941C116.07 266.685 116.015 266.42 115.959 266.145ZM99.0044 254.113C99.0044 254.113 103.835 260.211 94.9161 263.815C87.6946 266.74 68.6236 260.322 61.6506 257.782C61.7716 259.131 62.0202 259.771 62.0202 259.771L61.7782 259.862C62.3996 260.412 63.1322 260.926 64.0022 261.366C68.4143 263.566 69.9351 262.567 69.9351 262.567C69.9351 262.567 77.0258 272.489 90.2031 272.589C98.4909 272.654 103.413 270.296 105.918 268.536L105.873 268.516C105.883 268.497 108.885 261.942 105.716 257.84C104.008 255.643 101.598 254.903 99.0044 254.113Z" fill="#F8CDAA"/>
<path d="M27.8384 104.741C28.607 102.642 29.683 101.108 30.9259 99.9986C31.8449 99.1931 32.8359 98.614 33.8727 98.229C25.4443 79.2093 24.3421 62.8942 28.3846 49.3322C33.1041 33.4765 44.8326 21.4449 60.0737 13.2728C66.7948 9.65904 74.2289 6.84442 82.0359 4.81595C90.0816 2.72601 98.5296 1.47724 107.02 1.06637C115.465 0.661967 123.978 1.08577 132.21 2.35073V2.34101C140.266 3.57039 148.063 5.60533 155.278 8.44907C171.353 14.7771 184.547 24.955 191.526 39.0249C197.515 51.1213 198.898 66.0421 193.538 83.8065C195.17 84.2012 196.903 84.9356 198.581 86.0259C200.138 87.0449 201.659 88.3649 202.993 90.0051H203.003C204.377 91.6842 205.6 93.7191 206.516 96.1132C207.33 98.2419 207.916 100.662 208.148 103.357C208.295 105.091 208.295 106.941 208.128 108.915C207.981 110.759 207.674 112.719 207.193 114.803C205.404 122.496 202.14 126.699 198.486 128.844C195.176 130.788 191.598 131.018 188.511 130.604C186.748 139.316 183.265 146.78 178.5 153.072C173.132 160.17 166.14 165.754 158.169 169.927C152.914 172.677 147.219 174.806 141.286 176.336C135.121 177.922 128.688 178.86 122.225 179.19C115.959 179.5 109.637 179.225 103.472 178.41C97.2868 177.595 91.2623 176.22 85.6139 174.321C77.058 171.451 69.2968 167.368 63.0009 162.169C57.31 157.485 52.8129 151.898 49.9936 145.479C48.5578 145.854 46.9617 146.039 45.2479 145.9C43.1515 145.725 40.8718 145.065 38.481 143.661C36.2832 142.367 34.4026 140.157 32.8359 137.423C31.1123 134.405 29.7583 130.73 28.7934 126.922C27.7468 122.804 27.1156 118.349 26.9292 114.405C26.7526 110.429 27.0404 106.935 27.8384 104.741Z" fill="#143D52"/>
<path d="M43.9684 105.072C43.9684 105.072 35.7068 100.734 33.5024 106.761C31.2948 112.795 34.7551 134.529 41.5482 138.527C48.3543 142.526 53.4696 136.777 53.4696 136.777C63.7786 184.713 177.691 190.922 183.542 122.846C183.542 122.846 197.338 130.624 201.325 113.474C205.302 96.3145 195.251 88.99 190.106 89.4203C184.952 89.8506 184.962 90.0544 184.962 90.0544C231.882 -26.5715 -24.3778 -19.6384 43.9684 105.072Z" fill="#FEDFC0"/>
<path d="M84.8747 105.092C90.8469 104.898 96.0014 109.835 96.3906 116.103C96.3906 116.204 96.4004 116.298 96.4004 116.398H93.2671L93.2573 116.204C92.9793 111.746 89.3162 108.246 85.0808 108.382C80.9369 108.512 77.7644 112.076 77.8854 116.395H74.7423C74.5722 110.3 79.0236 105.277 84.8747 105.092Z" fill="#143D52"/>
<path d="M152.005 103.506C157.977 103.311 163.131 108.249 163.521 114.519C163.53 114.619 163.53 114.713 163.54 114.814H160.397L160.387 114.619C160.119 110.161 156.456 106.66 152.211 106.796C148.067 106.925 144.904 110.491 145.015 114.81H141.882C141.705 108.715 146.163 103.687 152.005 103.506Z" fill="#143D52"/>
<path d="M70.5283 81.817C70.5283 81.817 77.2036 77.5234 83.2576 78.6623C89.3213 79.7915 91.1561 81.4061 91.1561 81.4061C85.6321 73.8994 75.6108 73.3235 70.5283 81.817Z" fill="#143D52"/>
<path d="M162.575 78.5791C162.575 78.5791 155.631 74.7253 149.659 76.2396C143.687 77.754 141.963 79.485 141.963 79.485C146.98 71.6449 156.946 70.4348 162.575 78.5791Z" fill="#143D52"/>
<path d="M112.314 125.585C116.144 120.551 122.188 120.001 126.695 124.64C126.888 118.652 114.427 116.058 112.314 125.585Z" fill="#143D52"/>
<path d="M44.5984 111.244C39.964 109.3 37.8675 113.379 38.7571 121.626C39.6468 129.869 45.5796 137.591 48.3433 134.702C53.0529 129.794 48.3335 112.803 44.5984 111.244Z" fill="#F8C5A6"/>
<path d="M189.386 96.462C193.838 94.1229 196.284 98.0019 196.137 106.294C195.996 114.586 190.786 122.794 187.774 120.17C182.636 115.692 185.805 98.3481 189.386 96.462Z" fill="#F8C5A6"/>
<path d="M79.9887 133.932C87.5994 133.602 93.8299 134.841 93.915 136.692C94 138.552 87.897 140.332 80.2961 140.671C72.6854 141.011 66.445 139.772 66.3633 137.912C66.2815 136.051 72.3779 134.272 79.9887 133.932Z" fill="#F59F8E"/>
<path d="M159.133 130.318C166.744 129.988 172.975 131.228 173.066 133.079C173.151 134.939 167.048 136.719 159.437 137.059C151.827 137.399 145.586 136.159 145.505 134.299C145.423 132.438 151.523 130.658 159.133 130.318Z" fill="#F59F8E"/>
<path d="M98.2409 131.623C98.2409 131.623 107.003 136.657 121.426 134.813C135.853 132.969 140.729 127.696 140.729 127.696C140.729 127.696 135.156 152.778 118.394 151.464C101.646 150.154 98.2409 131.623 98.2409 131.623Z" fill="#143D52"/>
<path d="M119.324 140.765C124.413 140.536 128.633 142.39 128.754 144.9C128.865 147.414 124.832 149.624 119.743 149.854C114.654 150.074 110.435 148.22 110.314 145.719C110.203 143.205 114.235 140.995 119.324 140.765Z" fill="#EC7174"/>
<path d="M130.107 232.875C137.051 231.865 143.013 230.684 146.228 230.005L146.683 229.914L146.542 230.354C146.451 230.62 146.376 230.885 146.3 231.144C146.215 231.419 146.143 231.674 146.088 231.888L146.052 232.017L145.931 232.072C144.096 232.852 142.742 234.043 141.62 235.476C140.498 236.906 139.599 238.595 138.673 240.309C137.404 242.694 136.076 245.178 133.983 246.912C132.842 247.857 131.638 248.527 130.421 249.048C129.208 249.562 128.001 249.937 126.834 250.296C125.202 250.791 123.625 251.277 122.16 252.04C120.704 252.791 119.331 253.82 118.091 255.434C116.672 257.259 116.06 259.349 115.903 261.358C115.736 263.383 116.024 265.337 116.394 266.887L116.469 267.191L113.539 267.456H113.483L110.552 267.191L110.628 266.887C110.997 265.337 111.285 263.383 111.118 261.358C110.961 259.349 110.35 257.259 108.93 255.434C107.687 253.82 106.317 252.794 104.862 252.04C103.386 251.28 101.82 250.795 100.188 250.296C99.0202 249.937 97.8068 249.562 96.6 249.048C95.3866 248.524 94.1797 247.854 93.0317 246.912C90.945 245.178 89.6204 242.694 88.3416 240.309C87.4226 238.595 86.5232 236.906 85.4013 235.476C84.2795 234.046 82.9255 232.852 81.0906 232.072L80.9696 232.017L80.9337 231.888C80.8781 231.668 80.8028 231.403 80.7113 231.089C80.636 230.84 80.5445 230.558 80.4529 230.254L80.2763 229.73L80.7963 229.924C83.3376 230.859 87.0922 232.053 91.7562 233.023C96.4103 233.988 101.974 234.719 108.139 234.719C115.265 234.719 123.174 233.874 130.107 232.875Z" fill="#FEFEFE"/>
<path d="M141.528 230.947C143.418 230.588 145.024 230.258 146.228 230.003L146.682 229.912L146.541 230.352C146.45 230.617 146.375 230.883 146.299 231.141C146.214 231.416 146.142 231.672 146.087 231.886L146.051 232.015L145.93 232.07C144.095 232.85 142.741 234.04 141.619 235.473C140.497 236.903 139.598 238.592 138.672 240.306C137.403 242.691 136.076 245.175 133.982 246.909C132.841 247.854 131.637 248.524 130.421 249.044C129.207 249.559 128 249.934 126.833 250.293C125.201 250.788 123.624 251.273 122.159 252.037C120.704 252.787 119.33 253.816 118.09 255.43C116.671 257.255 116.059 259.345 115.902 261.354C115.736 263.379 116.023 265.333 116.393 266.883L116.468 267.187L113.538 267.452H113.482L110.552 267.187L110.627 266.883C110.996 265.333 111.284 263.379 111.117 261.354C111.081 260.904 111.026 260.438 110.931 259.979C112.543 256.301 114.908 251.801 117.309 250.442C121.564 248.029 127.647 247.433 131.085 243.82C133.538 241.258 137.626 234.59 141.528 230.947Z" fill="#CAE4F8"/>
<path d="M36.934 202.712C36.6004 202.227 36.7312 201.557 37.2218 201.227C37.7124 200.897 38.3894 201.026 38.723 201.512L44.2471 209.564C44.5807 210.05 44.4499 210.719 43.9593 211.049C43.4687 211.379 42.7917 211.25 42.4581 210.765L36.934 202.712ZM27.7632 207.267C27.2333 206.983 27.0404 206.342 27.3282 205.818C27.6062 205.303 28.2636 205.112 28.7836 205.387L42.1441 212.466C42.6739 212.741 42.8669 213.392 42.5889 213.906C42.3011 214.421 41.6535 214.621 41.1237 214.336L27.7632 207.267ZM29.804 217.814C29.2121 217.814 28.728 217.339 28.728 216.75C28.728 216.155 29.2088 215.676 29.804 215.676L39.5766 215.695C40.1784 215.695 40.6625 216.171 40.6625 216.76C40.6625 217.355 40.1719 217.834 39.5766 217.834L29.804 217.814Z" fill="#143D52"/>
<path d="M191.582 199.724C191.729 199.155 191.379 198.569 190.804 198.42C190.228 198.275 189.636 198.614 189.486 199.19L187.029 208.608C186.872 209.177 187.226 209.763 187.798 209.912C188.374 210.057 188.966 209.711 189.116 209.142L191.582 199.724ZM201.764 200.96C202.163 200.52 202.133 199.85 201.688 199.456C201.243 199.061 200.566 199.097 200.167 199.53L189.989 210.646C189.59 211.086 189.626 211.756 190.074 212.151C190.509 212.545 191.196 212.51 191.595 212.067L201.764 200.96ZM203.432 211.572C203.988 211.377 204.285 210.766 204.079 210.206C203.883 209.656 203.265 209.362 202.699 209.566L193.512 212.83C192.946 213.031 192.658 213.645 192.854 214.195C193.057 214.755 193.679 215.04 194.235 214.846L203.432 211.572Z" fill="#143D52"/>
</svg>
