<svg width="843" height="458" viewBox="0 0 843 458" fill="none" xmlns="http://www.w3.org/2000/svg">
<path fill-rule="evenodd" clip-rule="evenodd" d="M491.764 420.867C412.457 416.991 196 438.635 132 421.382C53.6178 400.253 38.0003 334.016 38.0002 267.633C38.0002 178.625 8.69747 122.026 16.5002 96.6328C35.5381 34.6751 132.089 33.258 254.59 33.5658C313.222 33.7131 401.497 28.8081 469.041 34.2576C536.323 39.6859 630.151 23.4449 698.087 34.9964C782.193 49.2973 855.363 107.856 816.001 179.633C782 241.632 816 307.132 816.001 386.135C816.001 411.133 779.535 409.48 699.424 421.388C633.505 417.03 571.248 424.752 491.764 420.867Z" fill="url(#paint0_linear)" fill-opacity="0.12"/>
<g opacity="0.75">
<path d="M807.982 211.241C807.982 212.727 807.041 213.768 805.75 213.722C804.447 213.676 803.504 212.569 803.504 211.096C803.503 209.61 804.445 208.582 805.736 208.614C807.039 208.66 807.981 209.755 807.982 211.241Z" fill="#B9E1DD"/>
<path d="M807.995 185.777C808.019 187.264 807.1 188.346 805.809 188.327C804.505 188.307 803.528 187.211 803.504 185.751C803.48 184.264 804.399 183.195 805.69 183.214C807.005 183.221 807.971 184.303 807.995 185.777Z" fill="#B9E1DD"/>
<path d="M808.008 160.405C808.02 161.892 807.078 162.946 805.787 162.914C804.484 162.881 803.53 161.773 803.518 160.3C803.505 158.814 804.436 157.772 805.738 157.804C807.053 157.837 807.995 158.919 808.008 160.405Z" fill="#B9E1DD"/>
<path d="M792.283 274.183C792.283 272.697 793.213 271.655 794.516 271.701C795.819 271.747 796.762 272.841 796.762 274.327C796.763 275.813 795.821 276.855 794.53 276.809C793.238 276.777 792.295 275.656 792.283 274.183Z" fill="#B9E1DD"/>
<path d="M792.297 248.81C792.284 247.323 793.203 246.268 794.506 246.287C795.82 246.321 796.774 247.402 796.787 248.876C796.799 250.362 795.88 251.431 794.589 251.398C793.286 251.379 792.32 250.27 792.297 248.81Z" fill="#B9E1DD"/>
<path d="M796.799 223.545C796.788 225.018 795.835 226.059 794.532 225.999C793.241 225.941 792.298 224.806 792.309 223.334C792.32 221.848 793.274 220.834 794.577 220.893C795.879 220.939 796.81 222.06 796.799 223.545Z" fill="#B9E1DD"/>
<path d="M796.812 197.999C796.847 199.487 795.94 200.582 794.661 200.59C793.358 200.584 792.369 199.514 792.322 198.053C792.286 196.566 793.193 195.47 794.473 195.476C795.799 195.469 796.776 196.526 796.812 197.999Z" fill="#B9E1DD"/>
<path d="M796.825 172.641C796.837 174.128 795.907 175.196 794.627 175.165C793.324 175.132 792.358 174.036 792.346 172.563C792.334 171.076 793.264 170.021 794.555 170.053C795.858 170.086 796.813 171.168 796.825 172.641Z" fill="#B9E1DD"/>
<path d="M781.113 261.02C781.124 259.534 782.066 258.506 783.369 258.565C784.672 258.611 785.603 259.718 785.604 261.204C785.604 262.69 784.651 263.718 783.348 263.672C782.056 263.614 781.114 262.492 781.113 261.02Z" fill="#B9E1DD"/>
<path d="M783.535 238.254C782.22 238.288 781.208 237.244 781.126 235.794C781.055 234.306 781.939 233.169 783.207 233.134C784.522 233.101 785.534 234.132 785.605 235.581C785.687 237.096 784.803 238.22 783.535 238.254Z" fill="#B9E1DD"/>
<path d="M785.628 210.263C785.664 211.75 784.768 212.846 783.477 212.84C782.175 212.834 781.186 211.764 781.138 210.303C781.103 208.816 782.01 207.72 783.289 207.725C784.615 207.732 785.593 208.788 785.628 210.263Z" fill="#B9E1DD"/>
<path d="M785.642 185C785.631 186.472 784.666 187.499 783.363 187.427C782.072 187.368 781.14 186.234 781.151 184.748C781.174 183.276 782.128 182.262 783.431 182.321C784.734 182.394 785.653 183.514 785.642 185Z" fill="#B9E1DD"/>
<path d="M769.943 247.886C769.942 246.4 770.872 245.372 772.175 245.404C773.478 245.45 774.421 246.545 774.421 248.031C774.422 249.517 773.48 250.559 772.189 250.513C770.897 250.468 769.943 249.359 769.943 247.886Z" fill="#B9E1DD"/>
<path d="M774.446 222.688C774.423 224.16 773.458 225.187 772.155 225.114C770.864 225.042 769.933 223.908 769.956 222.423C769.978 220.951 770.932 219.936 772.246 220.009C773.549 220.069 774.469 221.189 774.446 222.688Z" fill="#B9E1DD"/>
<path d="M774.459 197.17C774.471 198.656 773.541 199.725 772.262 199.693C770.959 199.66 769.993 198.565 769.981 197.092C769.969 195.605 770.887 194.55 772.19 194.582C773.493 194.615 774.447 195.697 774.459 197.17Z" fill="#B9E1DD"/>
<path d="M758.772 234.831C758.737 233.343 759.644 232.247 760.923 232.253C762.238 232.259 763.216 233.315 763.251 234.776C763.287 236.264 762.38 237.36 761.1 237.367C759.808 237.375 758.819 236.292 758.772 234.831Z" fill="#B9E1DD"/>
<path d="M763.275 209.419C763.299 210.906 762.381 211.988 761.089 211.969C759.787 211.949 758.809 210.853 758.785 209.393C758.761 207.906 759.68 206.837 760.971 206.856C762.286 206.863 763.252 207.945 763.275 209.419Z" fill="#B9E1DD"/>
<path d="M752.093 221.791C752.07 223.263 751.116 224.29 749.813 224.218C748.522 224.146 747.591 223.012 747.613 221.54C747.636 220.068 748.59 219.053 749.893 219.113C751.184 219.185 752.115 220.305 752.093 221.791Z" fill="#B9E1DD"/>
<path d="M837.002 250.525C837.002 249.039 837.944 248.011 839.258 248.057C840.561 248.103 841.492 249.21 841.493 250.697C841.493 252.183 840.54 253.224 839.249 253.165C837.946 253.119 837.003 251.998 837.002 250.525Z" fill="#B9E1DD"/>
<path d="M839.108 222.653C840.423 222.62 841.436 223.651 841.506 225.099C841.576 226.601 840.692 227.724 839.424 227.759C838.121 227.793 837.097 226.748 837.026 225.3C836.945 223.811 837.84 222.675 839.108 222.653Z" fill="#B9E1DD"/>
<path d="M841.518 199.822C841.53 201.308 840.6 202.377 839.32 202.345C838.018 202.312 837.052 201.216 837.04 199.743C837.027 198.257 837.946 197.201 839.249 197.234C840.551 197.267 841.494 198.348 841.518 199.822Z" fill="#B9E1DD"/>
<path d="M825.82 262.751C825.843 261.279 826.796 260.264 828.099 260.323C829.391 260.382 830.322 261.503 830.299 263.002C830.276 264.474 829.323 265.501 828.02 265.429C826.74 265.371 825.809 264.236 825.82 262.751Z" fill="#B9E1DD"/>
<path d="M830.322 237.497C830.335 238.983 829.416 240.039 828.125 240.02C826.822 239.987 825.856 238.905 825.844 237.432C825.832 235.946 826.75 234.89 828.053 234.909C829.344 234.942 830.299 236.024 830.322 237.497Z" fill="#B9E1DD"/>
<path d="M830.336 212.111C830.348 213.598 829.418 214.653 828.115 214.607C826.812 214.574 825.858 213.466 825.846 211.993C825.834 210.506 826.775 209.465 828.067 209.497C829.381 209.544 830.323 210.625 830.336 212.111Z" fill="#B9E1DD"/>
<path d="M830.348 186.726C830.349 188.212 829.407 189.24 828.104 189.194C826.801 189.148 825.859 188.027 825.87 186.555C825.869 185.069 826.811 184.04 828.125 184.087C829.417 184.146 830.348 185.24 830.348 186.726Z" fill="#B9E1DD"/>
<path d="M814.637 275.093C814.624 273.607 815.555 272.565 816.858 272.597C818.16 272.63 819.115 273.725 819.127 275.198C819.139 276.685 818.197 277.74 816.906 277.707C815.615 277.662 814.649 276.553 814.637 275.093Z" fill="#B9E1DD"/>
<path d="M814.65 249.681C814.638 248.194 815.568 247.153 816.871 247.185C818.173 247.218 819.127 248.313 819.14 249.786C819.152 251.273 818.21 252.327 816.919 252.295C815.628 252.249 814.662 251.141 814.65 249.681Z" fill="#B9E1DD"/>
<path d="M819.153 224.296C819.189 225.783 818.282 226.879 817.002 226.887C815.699 226.881 814.71 225.811 814.663 224.35C814.616 222.862 815.534 221.767 816.814 221.772C818.14 221.766 819.106 222.821 819.153 224.296Z" fill="#B9E1DD"/>
<path d="M819.165 198.978C819.166 200.464 818.224 201.505 816.932 201.46C815.629 201.414 814.687 200.306 814.675 198.833C814.674 197.347 815.604 196.305 816.907 196.351C818.222 196.397 819.165 197.492 819.165 198.978Z" fill="#B9E1DD"/>
<path d="M819.178 173.552C819.19 175.038 818.248 176.093 816.957 176.061C815.654 176.028 814.7 174.92 814.688 173.446C814.675 171.96 815.617 170.919 816.909 170.951C818.223 170.984 819.166 172.065 819.178 173.552Z" fill="#B9E1DD"/>
<path d="M803.454 287.343C803.442 285.857 804.384 284.815 805.675 284.847C806.978 284.88 807.932 285.975 807.933 287.448C807.945 288.935 807.003 289.989 805.712 289.957C804.432 289.925 803.466 288.816 803.454 287.343Z" fill="#B9E1DD"/>
<path d="M803.466 262.011C803.419 260.523 804.338 259.428 805.618 259.433C806.932 259.439 807.91 260.495 807.957 261.957C807.992 263.444 807.085 264.54 805.806 264.548C804.503 264.555 803.513 263.472 803.466 262.011Z" fill="#B9E1DD"/>
<path d="M807.969 236.626C807.981 238.112 807.051 239.181 805.76 239.148C804.457 239.116 803.492 238.02 803.479 236.547C803.467 235.061 804.397 234.005 805.688 234.038C807.003 234.058 807.957 235.139 807.969 236.626Z" fill="#B9E1DD"/>
</g>
<defs>
<linearGradient id="paint0_linear" x1="907.164" y1="379.048" x2="99.8324" y2="9.44809" gradientUnits="userSpaceOnUse">
<stop stop-color="#B1DDF5" stop-opacity="0.75"/>
<stop offset="1" stop-color="#B9E1DD"/>
</linearGradient>
</defs>
</svg>
