<svg width="342" height="272" viewBox="0 0 342 272" fill="none" xmlns="http://www.w3.org/2000/svg">
<path d="M57.8835 107.511C71.941 107.511 84.6896 112.819 93.9399 121.39C103.261 130.029 109.02 141.967 109.02 155.142C109.02 157.111 108.874 159.151 108.581 161.251L108.552 161.452C110.37 162.094 112.153 162.813 113.872 163.604C115.884 164.528 117.812 165.545 119.647 166.646C124.473 163.058 129.9 160.106 135.777 157.936C142.422 155.483 149.577 154.041 157.018 153.821C163.535 145.858 172.098 139.238 182.042 134.537C192.607 129.545 204.717 126.695 217.55 126.695C220.822 126.695 224.085 126.888 227.303 127.257C229.205 127.467 231.104 127.759 233.007 128.109C238.352 122.494 244.933 117.852 252.375 114.494C260.738 110.732 270.143 108.615 280.058 108.615C297.056 108.615 312.474 114.794 323.681 124.788C334.995 134.897 341.998 148.872 341.998 164.342C341.998 179.803 334.998 193.787 323.681 203.886C313.225 213.22 299.077 219.223 283.414 219.98C277.456 229.945 268.563 238.386 257.714 244.432C246.136 250.891 232.343 254.656 217.556 254.656C214.767 254.656 211.898 254.507 208.983 254.206C207.319 254.048 205.685 253.828 204.066 253.574C198.646 258.705 192.23 262.926 185.101 265.939C177.141 269.298 168.313 271.177 159.027 271.177C149.267 271.177 139.972 269.084 131.654 265.35C124.654 262.203 118.363 257.887 113.092 252.684C109.903 254.091 106.521 255.251 102.984 256.138C97.8734 257.422 92.518 258.107 87.0433 258.107C71.322 258.107 57.029 252.578 46.6277 243.629C36.0426 234.532 29.5007 221.918 29.5007 207.952C29.5007 204.928 29.8102 201.958 30.4131 199.049C30.6421 197.942 30.9161 196.851 31.2256 195.762C24.6095 191.992 18.9865 186.86 14.8112 180.795C9.71044 173.378 6.75061 164.568 6.75061 155.139C6.75061 141.964 12.5091 130.026 21.8303 121.387C31.0773 112.819 43.8259 107.511 57.8835 107.511Z" fill="#143D52"/>
<path d="M57.8827 113.663C82.5963 113.663 102.622 132.237 102.622 155.142C102.622 158.782 102.119 162.296 101.177 165.663C108.197 167.393 114.603 170.382 120.042 174.339C130.195 165.418 143.924 159.942 159.023 159.942C159.417 159.942 159.81 159.951 160.203 159.961C172.175 143.672 193.39 132.854 217.552 132.854C223.72 132.854 229.698 133.567 235.382 134.885C245.5 122.686 261.74 114.767 280.057 114.767C310.729 114.767 335.597 136.968 335.597 164.348C335.597 191.728 310.729 213.921 280.057 213.921C279.893 213.921 279.728 213.911 279.554 213.911C269.082 234.287 245.261 248.507 217.552 248.507C212.142 248.507 206.877 247.961 201.831 246.935C191.439 258.026 176.112 265.034 159.023 265.034C140.99 265.034 124.934 257.229 114.552 245.074C106.61 249.443 97.1698 251.973 87.0425 251.973C58.792 251.973 35.8968 232.268 35.8968 207.964C35.8968 202.627 37.0027 197.505 39.0211 192.776C23.7383 186.175 13.1467 171.812 13.1467 155.148C13.1435 132.237 33.1691 113.663 57.8827 113.663Z" fill="#FEFEFE"/>
<path d="M136.364 198.659C95.8034 192.541 84.725 165.61 84.6895 165.53L82.9066 161.371L164.96 95.3183L169.428 93.9043C169.503 93.9136 194.013 95.3803 200.997 93.6129C206.326 92.2671 212.036 87.4423 213.745 85.9136C214.384 84.9833 215.738 83.0578 218.03 80.1647C220.655 76.85 230.45 70.1615 245.146 70.5305C253.609 70.7507 263.882 73.1848 275.524 79.8732C301.031 94.5245 300.383 120.025 299.113 129.604C303.008 132.909 309.569 138.984 310.465 143.071C310.501 143.229 311.088 143.722 311.661 144.196C312.987 145.288 314.292 146.376 315.453 148.258C317.565 151.678 316.723 154.64 314.986 156.959C318.99 160.95 322.901 166.593 319.574 171.39C316.401 175.97 307.995 177.105 299.751 178.227C296.388 178.677 293.071 179.133 290.63 179.722C289.221 180.066 287.064 181.322 284.397 182.885C276.118 187.719 263.898 194.866 241.809 195.455C217.946 196.097 207.7 186.06 203.76 180.187L194.668 179.967C188.493 186.73 169.383 203.632 136.364 198.659Z" fill="#143D52"/>
<path d="M90.5837 163.201C90.5837 163.201 100.372 187.03 137.341 192.603C163.361 196.522 179.675 185.589 187.059 178.776V178.767C187.243 178.599 192.359 173.589 193.73 169.53C195.129 165.399 196.225 160.106 196.225 160.106C196.225 160.106 198.008 169.468 195.867 173.871L205.282 174.1C204.037 165.83 203.654 151.933 211.505 139.688C216.238 132.314 223.879 126.311 232.369 122.24C232.195 119.409 230.989 111.954 223.357 105.179C216.647 99.2289 210.544 97.9545 207.436 97.725C205.872 98.4909 204.237 99.139 202.619 99.5452C194.623 101.567 169.048 100.029 169.048 100.029L90.5837 163.201ZM165.079 149.647C165.06 149.682 159.54 162.761 147.185 165.716C135.204 168.571 118.57 166.339 118.525 166.33L119.092 162.277C119.137 162.286 134.978 164.413 146.172 161.741C156.993 159.158 165.108 148.153 165.137 148.116L165.079 149.647ZM236.441 120.457C237.353 120.097 238.269 119.762 239.191 119.446C250.734 115.483 262.928 115.077 271.179 119.465C284.633 126.618 280.838 141.483 278.691 147.328C279.807 147.558 280.709 147.803 281.406 148.023C282.576 146.677 284.633 144.708 287.164 143.908C287.603 143.362 288.399 142.237 289.176 140.463C290.401 137.651 292.749 126.55 292.749 126.522L293.052 126.584C293.883 116.987 292.823 96.9529 272.259 85.142C244.485 69.1885 226.304 79.8521 223.105 83.8862C219.907 87.9297 218.711 89.8459 218.711 89.8459C218.711 89.8459 216.28 92.1591 212.762 94.5746C216.547 95.6382 221.316 97.7994 226.243 102.178C233.8 108.882 235.883 116.345 236.441 120.457ZM292.071 144.094C296.385 145.79 305.094 152.066 308.66 154.702C309.83 153.719 310.672 152.522 309.966 151.387C308.367 148.785 305.02 147.967 304.227 144.32C303.698 141.911 298.662 137.341 295.28 134.503C294.548 137.502 293.716 140.612 293.103 142.026C292.768 142.801 292.41 143.496 292.071 144.094ZM210.547 178.838C214.468 183.471 223.225 189.824 241.632 189.334C270.401 188.568 281.196 175.694 289.092 173.768C296.979 171.852 311.868 171.465 314.264 168.01C315.898 165.644 311.065 161.313 307.828 158.798L307.599 159.089C307.554 159.055 294.138 148.866 290.043 147.725C287.074 146.9 283.946 151.567 283.937 151.576L282.931 153.08L281.241 152.323C281.232 152.314 275.428 149.607 265.082 151.145C254.471 152.727 246.984 156.506 246.958 156.516L244.995 152.885C245.024 152.866 253.075 148.798 264.433 147.111C268.299 146.54 271.646 146.513 274.396 146.733C276.105 142.469 280.374 129.03 269.131 123.052C261.973 119.254 251.098 119.713 240.626 123.306C230.344 126.832 220.555 133.362 215.119 141.834C205.724 156.479 209.251 173.846 210.547 178.838Z" fill="#FEDFC0"/>
<path d="M90.5837 163.201C90.5837 163.201 92.6214 168.168 98.3702 174.1L113.514 166.33L118.586 165.889L119.089 162.277C119.134 162.286 134.975 164.413 146.169 161.74C156.99 159.157 165.105 148.153 165.134 148.116L165.079 149.644C165.079 149.654 164.596 150.785 163.609 152.457C168.719 148.255 174.33 142.745 179.666 135.703C189.528 122.711 191.711 108.869 192.014 100.537C181.723 100.782 169.055 100.029 169.055 100.029L90.5837 163.201ZM101.743 177.3C108.936 183.523 120.224 190.02 137.341 192.603C163.361 196.522 179.675 185.589 187.059 178.776V178.767C187.242 178.599 192.359 173.589 193.73 169.53C195.129 165.399 196.225 160.106 196.225 160.106C196.225 160.106 180.942 182.299 151.973 184.224C131.035 185.613 111.167 180.333 101.743 177.3ZM196.228 160.106C196.228 160.106 198.011 169.468 195.87 173.871L205.285 174.1C204.399 168.212 203.95 159.483 206.591 150.519C206.591 150.519 201.326 163.57 200.12 163.66C198.924 163.756 196.228 160.106 196.228 160.106ZM240.993 76.7542C246.02 77.4395 265.12 81.0612 275.551 96.8907C287.632 115.216 285.146 130.509 285.146 130.509L280.429 131.424C281.718 137.585 279.935 143.957 278.691 147.325C279.806 147.554 280.709 147.799 281.406 148.019C282.576 146.674 284.633 144.705 287.164 143.905C287.603 143.359 288.399 142.233 289.176 140.46C290.401 137.647 292.749 126.547 292.749 126.519L293.052 126.581C293.883 116.984 292.823 96.9496 272.259 85.1387C259.71 77.9325 249.125 76.1589 240.993 76.7542ZM279.587 128.571L277.55 118.41L261.254 116.565H261.245C264.911 116.987 268.29 117.926 271.178 119.464C275.667 121.855 278.236 125.089 279.587 128.571ZM249.821 120.984C257.069 123.322 268.348 127.638 269.16 132.05C270.356 138.59 267.361 139.356 267.361 139.356C267.361 139.356 248.58 143.002 244.979 147.812C241.387 152.612 246.961 156.513 246.961 156.513L244.998 152.882C245.027 152.863 253.078 148.795 264.437 147.108C268.303 146.537 271.649 146.509 274.399 146.73C276.108 142.466 280.377 129.027 269.134 123.049C264.079 120.37 257.15 119.805 249.821 120.984ZM285.32 149.886C288.06 151.855 301.625 161.725 301.625 164.144C301.625 166.832 278.346 169.716 278.346 169.716C278.346 169.716 249.576 183.551 231.598 182.013C218.756 180.916 212.333 177.074 209.709 174.971C210.002 176.606 210.312 177.923 210.55 178.838C214.471 183.471 223.228 189.824 241.635 189.334C270.405 188.568 281.199 175.694 289.095 173.768C296.982 171.852 311.871 171.464 314.267 168.01C315.902 165.644 311.068 161.313 307.831 158.798L307.602 159.089C307.557 159.055 294.141 148.866 290.047 147.725C288.306 147.238 286.516 148.637 285.32 149.886ZM292.071 144.094C296.385 145.79 305.094 152.066 308.66 154.702C309.83 153.719 310.672 152.522 309.966 151.387C308.367 148.785 305.02 147.967 304.227 144.32C303.698 141.911 298.662 137.34 295.28 134.503C294.548 137.502 293.716 140.612 293.103 142.026C292.768 142.801 292.41 143.495 292.071 144.094Z" fill="#F8CDAA"/>
<path d="M37.9926 151.017C37.2801 148.986 37.1511 147.203 37.4155 145.637C37.6154 144.487 38.0281 143.467 38.5859 142.571C20.2626 133.315 9.25839 121.749 3.93843 109.206C-2.29398 94.5365 -0.749578 78.583 5.90198 63.4481C8.83602 56.769 12.8018 50.2636 17.5543 44.1209C22.4454 37.8015 28.1749 31.8604 34.4621 26.524C40.7138 21.2248 47.5331 16.5053 54.6618 12.5735H54.6521C61.6261 8.72237 68.8903 5.63091 76.2221 3.48517C92.527 -1.28693 109.032 -1.48228 123.154 4.92704C135.29 10.4278 145.646 20.7937 152.575 37.2651C154.074 36.5891 155.863 36.1147 157.83 35.938C159.668 35.7705 161.661 35.8666 163.708 36.2976H163.718C165.82 36.7472 168.022 37.5473 170.224 38.7938C172.181 39.9007 174.125 41.3705 175.983 43.2589C177.179 44.462 178.333 45.8418 179.439 47.417C180.461 48.893 181.451 50.5457 182.373 52.3845C185.781 59.2062 185.884 64.2853 184.401 68.0558C183.066 71.4667 180.451 73.7613 177.82 75.2807C181.88 82.8404 183.843 90.4962 184.092 98.0187C184.375 106.509 182.463 114.834 178.92 122.673C176.589 127.851 173.529 132.816 169.908 137.467C166.142 142.31 161.783 146.819 157.005 150.881C152.372 154.837 147.335 158.369 142.08 161.411C136.805 164.453 131.314 166.983 125.785 168.909C117.411 171.827 108.896 173.365 100.807 173.206C93.5136 173.067 86.5686 171.535 80.4072 168.406C79.5302 169.532 78.4243 170.62 77.0153 171.526C75.2968 172.642 73.1301 173.495 70.4089 173.854C67.9133 174.189 65.0889 173.653 62.1839 172.527C58.9758 171.287 55.6484 169.337 52.5403 167.061C49.1677 164.589 45.9145 161.637 43.319 158.791C40.7009 155.913 38.7438 153.129 37.9926 151.017Z" fill="#143D52"/>
<path d="M50.625 141.709C50.625 141.709 41.5585 143.353 43.6156 149.173C45.6629 154.999 61.8582 169.223 69.5705 168.193C77.2925 167.157 77.66 159.824 77.66 159.824C115.435 189.613 207.019 126.828 169.163 72.4033C169.163 72.4033 184.627 70.0652 177.024 54.8589C169.421 39.6619 157.118 40.1178 153.416 43.4945C149.715 46.8713 149.85 47.0108 149.85 47.0108C113.423 -68.0814 -79.6043 88.7972 50.625 141.709Z" fill="#FEDFC0"/>
<path d="M89.0938 125.592C93.6819 122.041 94.33 115.272 90.5383 110.472C90.4738 110.392 90.419 110.323 90.3545 110.243L88.0137 112.184L88.133 112.333C90.8188 115.734 90.3642 120.55 87.1109 123.074C83.9221 125.536 79.2405 124.91 76.5193 121.694L74.1785 123.635C78.0089 128.175 84.6057 129.071 89.0938 125.592Z" fill="#143D52"/>
<path d="M140.295 85.2287C144.883 81.6783 145.521 74.8999 141.739 70.103C141.675 70.0316 141.62 69.9541 141.555 69.8828L139.215 71.8239L139.334 71.9634C142.02 75.3743 141.565 80.1806 138.302 82.7046C135.123 85.176 130.441 84.5403 127.717 81.3341L125.376 83.2752C129.206 87.8117 135.807 88.7016 140.295 85.2287Z" fill="#143D52"/>
<path d="M56.6127 108.584C56.6127 108.584 59.0792 101.421 64.4443 98.6768C69.8192 95.9419 72.2309 96.0659 72.2309 96.0659C63.3094 93.7186 55.2391 99.2226 56.6127 108.584Z" fill="#143D52"/>
<path d="M125.469 51.6775C125.469 51.6775 117.728 52.8993 114.072 57.5661C110.415 62.2329 110.161 64.5554 110.161 64.5554C109.155 55.7117 116.074 48.9084 125.469 51.6775Z" fill="#143D52"/>
<path d="M116.019 116.624C115.835 110.578 120.15 106.587 126.511 107.403C122.929 102.807 111.715 108.23 116.019 116.624Z" fill="#143D52"/>
<path d="M54.9491 145.957C50.1675 147.25 51.1025 151.548 56.9126 157.191C62.7259 162.844 72.0923 165.111 72.4309 161.312C72.9983 154.85 58.7956 144.918 54.9491 145.957Z" fill="#F8C5A6"/>
<path d="M157.247 49.1907C159.21 44.8061 163.518 46.2635 168.56 52.5582C173.616 58.8529 174.703 68.081 170.743 67.8949C164.017 67.5879 155.663 52.7256 157.247 49.1907Z" fill="#F8C5A6"/>
<path d="M96.3124 142.011C101.971 137.254 107.536 134.488 108.761 135.831C109.986 137.176 106.395 142.116 100.746 146.87C95.0872 151.626 89.5222 154.392 88.297 153.049C87.0718 151.707 90.6636 146.764 96.3124 142.011Z" fill="#F59F8E"/>
<path d="M155.017 92.4535C160.675 87.6968 166.24 84.9309 167.465 86.2735C168.691 87.6162 165.099 92.5589 159.45 97.3124C153.791 102.069 148.226 104.835 147.001 103.492C145.776 102.15 149.368 97.2101 155.017 92.4535Z" fill="#F59F8E"/>
<path d="M119.776 125.53C123.084 128.141 126.83 128.475 130.093 127.427C131.847 126.866 133.475 125.899 134.826 124.677C136.171 123.446 137.238 121.97 137.889 120.379C139.015 117.601 138.85 114.42 136.629 111.582L139.169 109.738C142.139 113.536 142.358 117.781 140.859 121.499C140.037 123.53 138.702 125.393 137.019 126.913C135.336 128.432 133.308 129.629 131.105 130.342C126.875 131.703 122.02 131.272 117.744 127.908L119.776 125.53Z" fill="#143D52"/>
<path d="M233.726 112.397C232.201 109.207 229.815 105.69 226.059 102.36C223.618 100.189 221.206 98.5614 218.949 97.3583C216.683 96.1459 214.561 95.3459 212.688 94.8188L212.159 94.6792L212.607 94.3722C215.925 92.0869 218.266 89.907 218.501 89.6869C218.656 89.4419 219.9 87.5163 222.896 83.7364C224.898 81.2061 232.71 76.0898 245.004 76.4061C252.546 76.5984 261.777 78.8247 272.394 84.924C282.741 90.8652 288.177 98.8746 290.93 106.608C293.681 114.335 293.735 121.78 293.316 126.605L293.287 126.897L292.958 126.825C292.729 127.88 291.827 132.081 290.901 135.66C290.373 137.743 289.831 139.616 289.421 140.565C289.028 141.461 288.625 142.199 288.27 142.779C287.912 143.359 287.603 143.79 287.374 144.063L287.245 144.15C286.01 144.547 284.895 145.222 283.947 145.96C282.986 146.708 282.193 147.533 281.615 148.193L281.496 148.326L281.322 148.274C280.958 148.159 280.519 148.029 280.023 147.905C279.604 147.799 279.146 147.685 278.633 147.588L278.34 147.526L278.44 147.244C279.5 144.345 280.98 139.21 280.513 133.911C280.055 128.646 277.679 123.222 271.043 119.697C267.058 117.579 262.141 116.586 256.821 116.586C251.211 116.577 245.159 117.669 239.275 119.69C238.827 119.849 238.369 120.007 237.914 120.183C237.456 120.342 237.002 120.518 236.544 120.701L236.225 120.835L236.18 120.5C235.902 118.453 235.244 115.588 233.726 112.397Z" fill="#FEFEFE"/>
<path d="M239.747 76.6046C241.392 76.4278 243.146 76.3597 245.003 76.4031C252.544 76.5953 261.775 78.8217 272.393 84.921C282.739 90.8622 288.176 98.8716 290.929 106.605C293.679 114.332 293.734 121.777 293.315 126.602L293.286 126.894L292.957 126.822C292.728 127.877 291.825 132.078 290.9 135.657C290.371 137.74 289.83 139.613 289.42 140.562C289.027 141.458 288.624 142.196 288.269 142.776C287.911 143.356 287.602 143.787 287.373 144.06L287.244 144.147C286.009 144.544 284.893 145.22 283.945 145.958C282.984 146.705 282.191 147.53 281.614 148.19L281.495 148.323L281.321 148.271C280.956 148.156 280.518 148.026 280.021 147.902C279.602 147.796 279.144 147.682 278.632 147.585L278.338 147.523L278.438 147.241C279.499 144.342 280.979 139.207 280.512 133.908C280.054 128.643 277.677 123.219 271.042 119.694C267.918 118.032 264.223 117.064 260.212 116.723L261.243 116.565L277.539 118.41L280.154 131.48L285.135 130.512C285.135 130.512 287.621 115.219 275.54 96.8933C263.51 78.617 239.922 76.6232 239.747 76.6046Z" fill="#CAE4F8"/>
<path d="M45.0766 172.605C45.0766 172.605 65.0282 158.769 87.8235 165.3C110.619 171.83 115.407 204.308 115.407 204.308C115.407 204.308 82.2391 215.26 68.6587 209.108C55.0685 202.965 45.0766 172.605 45.0766 172.605Z" fill="#FEFEFE"/>
<path d="M45.0766 172.605C45.0766 172.605 65.0282 158.769 87.8235 165.3C110.619 171.83 115.407 204.308 115.407 204.308C115.407 204.308 115.078 204.413 114.475 204.605C111.138 193.61 104.157 178.14 90.3094 171.951C67.7978 161.892 45.0766 172.605 45.0766 172.605Z" fill="#143D52"/>
<path d="M243.285 199.502C243.285 199.502 251.271 170.099 273.254 168.379C295.234 166.648 312.416 182.019 312.416 182.019C312.416 182.019 308.221 196.813 281.45 199.502C254.673 202.193 243.285 199.502 243.285 199.502Z" fill="#FEFEFE"/>
<path d="M243.285 199.501C243.285 199.501 251.271 170.099 273.254 168.379C295.234 166.648 312.416 182.019 312.416 182.019L312.406 182.038C284.378 167.991 259.068 169.873 243.285 199.501Z" fill="#143D52"/>
<path d="M333.073 149.532C334.717 154.208 335.594 159.182 335.594 164.342C335.594 191.721 310.726 213.914 280.054 213.914C279.889 213.914 279.725 213.904 279.551 213.904C269.078 234.28 245.258 248.5 217.549 248.5C212.139 248.5 206.874 247.954 201.828 246.928C191.436 258.019 176.108 265.027 159.02 265.027C140.987 265.027 124.93 257.222 114.548 245.067C106.607 249.436 97.1665 251.967 87.0392 251.967C59.556 251.967 37.138 233.306 35.9418 209.917C42.5676 227.619 61.8613 240.435 84.6468 240.435C94.7741 240.435 104.205 237.905 112.146 233.536C122.528 245.7 138.594 253.505 156.627 253.505C173.719 253.505 189.044 246.491 199.435 235.405C204.481 236.425 209.743 236.971 215.157 236.971C242.869 236.971 266.686 222.751 277.158 202.385C277.323 202.385 277.487 202.385 277.652 202.385C308.333 202.385 333.202 180.193 333.202 152.813C333.198 151.703 333.153 150.614 333.073 149.532ZM34.0008 190.221C22.0454 183.216 13.9204 171.104 13.1982 157.188C17.1736 167.842 25.7017 176.515 36.6221 181.238C35.3969 184.103 34.5102 187.108 34.0008 190.221Z" fill="#CAE4F8"/>
</svg>
