<svg width="413" height="402" viewBox="0 0 413 402" fill="none" xmlns="http://www.w3.org/2000/svg">
<path opacity="0.8" fill-rule="evenodd" clip-rule="evenodd" d="M195.194 46.0629C247.433 47.7236 305.763 27.9929 345.14 62.3331C385.691 97.6968 392.557 158.825 385.656 212.162C379.537 259.457 344.609 294.019 310.808 327.686C277.088 361.272 242.749 399.56 195.194 401.868C146.083 404.251 102.649 374.116 67.775 339.481C32.7751 304.721 9.70842 261.16 4.1798 212.162C-2.14132 156.14 -7.1688 89.4957 35.3925 52.4859C77.1982 16.1332 139.802 44.3019 195.194 46.0629Z" fill="#EDF9F9" fill-opacity="0.69"/>
<g clip-path="url(#clip0)">
<path d="M139.402 220.734C138.877 220.369 138.047 220.105 137.886 219.618C137.483 218.406 136.644 218.368 135.699 218.452C132.938 218.698 130.184 218.99 127.424 219.245C126.577 219.323 125.714 219.267 124.876 219.396C123.442 219.615 122.022 219.923 120.598 220.207C119.366 220.454 118.558 221.209 118.009 222.33C117.265 223.852 116.474 225.351 115.676 226.845C115.517 227.143 115.231 227.372 114.699 227.98C115.126 225.217 116.158 223.185 117.183 221.15C117.455 220.608 117.836 220.095 117.977 219.523C118.146 218.833 118.37 219.125 118.719 219.318C118.973 219.46 119.333 219.625 119.573 219.548C123.828 218.181 128.339 219.019 132.64 217.998C133.744 217.736 134.966 217.825 136.116 217.943C137.251 218.058 138.086 217.66 138.64 216.776C140.61 213.629 143.574 211.742 146.785 210.14C147.258 209.905 147.68 209.567 148.23 209.207C147.571 208.253 146.987 207.35 146.344 206.493C144.572 204.129 144.536 199.174 147.875 196.944C148.71 196.386 149.498 195.757 150.297 195.148C152.842 193.213 153.171 191.736 152.007 188.754C151.631 187.792 151.476 186.648 151.564 185.617C151.723 183.738 152.677 182.902 154.525 182.611C156.398 182.317 156.38 182.318 156.238 180.325C156.175 179.434 155.889 178.402 157.243 178.112C157.385 178.082 157.521 177.753 157.559 177.544C157.863 175.875 158.333 174.208 158.388 172.527C158.482 169.719 158.921 167.016 159.761 164.338C160.147 163.106 160.256 161.76 160.311 160.457C160.397 158.441 160.439 156.41 160.302 154.4C160.071 151.024 160.896 147.811 161.468 144.537C162.867 136.539 163.271 128.548 160.777 120.633C160.116 118.536 158.629 117.069 157.357 115.436C155.362 112.871 153.29 110.364 151.181 107.893C150.491 107.085 149.583 106.462 148.596 105.598C149.842 105.406 150.491 106.198 151.058 106.722C152.183 107.762 153.107 109.021 154.115 110.189C156.039 112.417 157.867 114.739 159.915 116.846C162.083 119.078 162.895 121.86 163.573 124.724C165.456 132.671 164.226 140.439 162.162 148.159C161.416 150.943 161.134 153.748 161.565 156.662C162.009 159.663 161.975 162.696 160.48 165.502C160.408 165.638 160.315 165.776 160.289 165.925C160.063 167.207 159.86 168.491 159.632 169.771C159.428 170.916 159.202 172.059 158.941 173.441C161.021 172.232 163.047 172.673 165.012 172.654C168.339 172.623 168.458 172.53 166.818 169.745C164.788 166.298 166.173 162.428 170.13 161.65C171.63 161.356 173.153 161.12 174.675 161.017C176.296 160.906 177.932 160.912 179.556 160.992C184.806 161.248 188.867 158.706 192.649 155.489C194.295 154.089 195.6 152.445 196.593 150.485C197.797 148.109 200.038 146.773 202.312 145.612C206.503 143.473 210.797 141.565 215.319 140.211C218.706 139.197 222.019 137.862 225.462 137.136C227.645 136.675 229.006 135.741 230.365 133.996C233.336 130.185 237.676 128.877 242.311 128.282C245.268 127.901 248.179 127.952 251.012 128.819C252.899 129.396 254.694 130.277 256.531 131.021C256.48 131.176 256.428 131.332 256.377 131.487C255.885 131.325 255.388 131.18 254.902 130.998C254.328 130.783 253.77 130.528 253.198 130.308C250.208 129.16 247.174 128.445 243.938 129.137C242.361 129.474 240.751 129.657 239.156 129.909C236.473 130.334 234.245 131.69 232.281 133.47C231.506 134.172 230.826 135.081 230.387 136.028C229.951 136.97 229.375 137.442 228.408 137.663C225.637 138.295 222.816 138.796 220.127 139.688C214.429 141.578 208.793 143.657 203.428 146.405C200.373 147.971 197.849 149.987 196.782 153.449C196.446 154.539 195.902 155.564 195.457 156.609C194.848 155.694 194.249 155.713 193.457 156.533C191.196 158.876 188.359 160.239 185.261 161.064C184.233 161.337 183.152 161.508 182.091 161.532C179.767 161.585 177.425 161.341 175.121 161.551C173.318 161.717 171.447 162.138 169.808 162.89C167.38 164.005 166.525 165.96 167.755 168.933C168.614 171.009 169.106 173.383 171.098 174.871C171.337 175.05 171.349 175.536 171.466 175.879C171.041 175.855 170.525 175.975 170.214 175.775C169.708 175.449 169.174 174.984 168.939 174.451C168.385 173.192 167.417 173.051 166.271 173.17C164.737 173.331 163.193 173.435 161.673 173.684C160.551 173.868 159.968 174.65 159.906 175.814C159.771 178.373 159.346 180.954 159.568 183.481C159.72 185.206 158.86 184.763 158.024 184.82L158.07 184.873C158.268 184.464 158.562 184.074 158.64 183.644C158.741 183.085 158.739 182.48 157.86 183.098C157.522 183.336 157.015 183.386 156.577 183.42C153.293 183.67 152.216 185.109 152.941 188.344C153.007 188.639 153.176 188.912 153.292 189.198C154.454 192.07 153.702 193.299 151.773 195.175C150.725 196.193 149.461 196.984 148.37 197.963C146.17 199.939 145.694 202.386 146.928 205.056C147.185 205.612 147.474 206.159 147.806 206.674C148.817 208.248 148.706 207.965 150.471 207.18C152.765 206.161 155.236 205.334 157.71 204.981C160.27 204.615 162.954 204.491 165.501 205.42C165.891 205.562 166.239 205.817 166.835 206.146C164.955 206.01 163.367 205.896 161.778 205.781C159.042 205.582 156.397 206.105 153.822 206.941C152.818 207.267 151.683 207.703 151.017 208.454C149.362 210.316 147.215 211.358 145.081 212.373C142.673 213.519 141.046 215.454 139.379 217.373C138.458 218.434 138.604 219.625 139.385 220.75L139.402 220.734Z" fill="#168B9C"/>
<path d="M131.469 98.4639C130.461 98.4846 129.453 98.5508 128.447 98.5161C124.878 98.3922 121.429 98.9529 117.925 99.6962C114.582 100.406 111.614 101.65 108.828 103.493C105.283 105.837 102.639 108.888 100.563 112.691C97.3651 118.547 95.9871 124.807 95.1746 131.3C94.6861 135.203 94.1033 139.094 93.5638 142.984C95.9535 143.597 98.4971 145.174 99.9661 147.14C99.2414 146.785 98.8806 146.627 98.5372 146.438C97.1181 145.656 95.7466 144.773 94.2788 144.098C91.6257 142.878 89.0301 144.414 88.6932 147.328C88.3747 150.092 88.9792 152.731 89.9022 155.302C91.2227 158.979 93.5984 162.064 95.5906 165.365C96.4995 166.87 97.8331 167.704 99.5025 167.936C100.226 168.036 100.447 168.272 100.713 168.947C101.241 170.298 101.969 171.579 102.703 172.838C103.554 174.3 104.474 175.724 105.416 177.129C105.695 177.544 106.162 178.155 106.521 178.141C109.339 178.032 110.649 180.256 112.396 181.803C113.782 183.027 115.141 184.282 116.543 185.487C117.889 186.644 119.219 187.835 120.657 188.869C123.226 190.717 125.729 192.74 128.53 194.154C130.73 195.265 133.37 195.071 135.776 194.313C137.823 193.667 139.796 192.784 141.807 192.018C141.999 191.944 142.223 191.95 142.958 191.843C139.896 194.362 136.945 195.726 133.231 195.588C136.063 196.645 136.553 196.697 139.14 195.987C142.116 195.17 144.969 194.086 147.529 192.273C148.628 191.494 149.924 190.994 151.489 190.181C149.953 192.578 145.627 195.246 138.568 197.158C140.467 199.043 142.95 198.625 145.192 199.05C142.776 199.478 140.533 199.238 138.264 198.132C136.362 197.205 134.247 196.612 132.162 196.198C129.692 195.707 127.576 194.613 125.391 193.425C120.026 190.508 115.418 186.556 111.26 182.267C107.777 178.675 108.327 179.531 102.263 177.854C101.092 177.53 99.9195 177.142 98.8286 176.615C95.14 174.833 91.5217 172.923 88.4928 170.082C86.9729 168.656 85.3263 168.797 83.5638 169.623C77.9403 172.257 73.1056 175.802 69.821 181.231C67.6359 184.842 65.9677 188.567 65.7976 192.917C65.6925 195.603 64.9623 198.257 64.7121 200.945C64.3882 204.417 64.1726 207.905 64.0816 211.391C64.0025 214.452 63.0341 217.238 62.1653 220.074C61.9887 220.039 61.8132 220.004 61.6366 219.968C61.7915 219.048 62.0103 218.133 62.0916 217.206C62.3407 214.349 62.6636 211.49 62.7275 208.626C62.8445 203.351 63.7675 198.175 64.3286 192.953C65.0523 186.218 68.2978 180.994 72.6419 176.151C75.4997 172.965 79.0962 170.863 82.8293 169.085C84.6883 168.2 87.0152 168.278 89.1428 168.008C89.497 167.964 90.0311 168.277 90.2727 168.588C91.6994 170.421 93.9332 170.758 95.8441 171.676C96.7119 172.093 96.8007 171.276 97.0163 170.714C97.2221 170.177 97.4767 169.659 97.7096 169.133C97.9652 169.724 98.3834 170.3 98.4408 170.911C98.5361 171.923 98.0465 173.147 98.4636 173.926C98.8546 174.657 100.103 174.922 100.971 175.398C101.757 175.828 102.537 176.267 103.649 176.443C103.324 175.894 102.998 175.346 102.674 174.796C101.583 172.944 100.384 171.145 99.4483 169.217C99.0063 168.306 98.2751 168.222 97.6143 168.116C96.2872 167.902 95.2765 167.259 94.5647 166.209C91.7016 161.994 88.56 157.881 87.6403 152.704C87.2665 150.6 87.2568 148.385 87.4149 146.245C87.5428 144.515 88.9933 143.431 90.745 143.239C91.2802 143.18 91.8229 143.182 92.4491 143.153C91.3733 137.746 92.4718 132.568 93.6949 127.406C94.1574 125.454 94.5582 123.477 95.1931 121.58C97.0845 115.925 99.1634 110.314 103.648 106.12C107.231 102.769 111.267 100.354 116.224 99.1746C120.677 98.1194 125.071 97.9543 129.545 98.0086C130.173 98.0162 130.798 98.3389 131.424 98.5161L131.469 98.4639ZM96.8137 174.041C95.3621 172.339 93.8508 171.69 92.1024 171.498C93.4121 172.532 94.568 173.866 96.8137 174.041Z" fill="#168B9C"/>
<path d="M75.7942 213.735C71.1717 218.082 71.3721 222.939 73.5377 227.838C75.311 231.851 77.5719 235.649 79.6464 239.526C80.2758 240.703 80.5705 242.719 80.0722 243.061C79.5273 243.435 77.8904 242.468 77.1602 241.171C75.8029 238.755 74.2169 236.429 73.6103 233.667C73.3795 232.617 73.399 231.515 73.2311 230.448C73.191 230.196 72.8574 229.991 72.6591 229.764C72.4544 229.97 72.138 230.143 72.0633 230.391C71.5032 232.225 70.3365 233.858 70.3636 235.895C70.3733 236.676 69.6573 237.52 70.7687 238.118C70.8749 238.176 70.8478 238.704 70.7276 238.929C69.5684 241.09 70.1068 243.176 71.0862 245.167C72.6147 248.279 74.2852 251.319 75.8451 254.416C76.7453 256.203 77.3368 258.183 78.4396 259.825C80.7146 263.21 83.2127 266.446 85.6707 269.705C87.2512 271.8 88.9098 273.836 90.5683 275.871C90.8251 276.186 91.5444 276.593 91.5844 276.548C92.7057 275.274 94.167 276.381 95.5114 276.209C94.4964 276.611 93.4824 277.014 92.4673 277.417C92.4793 277.607 92.4901 277.796 92.502 277.986C93.1975 278.037 93.893 278.098 94.5895 278.137C95.1583 278.169 95.8267 278.236 95.5818 278.982C95.4844 279.28 94.6914 279.589 94.3036 279.5C93.4293 279.301 92.6093 278.858 91.6798 278.478C91.2237 279.472 91.0135 280.461 91.1999 281.688C91.345 282.644 90.8738 283.734 90.538 284.717C89.6453 287.325 88.8047 289.964 87.6986 292.483C86.7453 294.655 85.4833 296.694 84.3101 298.764C81.1923 304.269 78.1807 309.841 74.8831 315.238C70.1653 322.958 65.2406 330.551 60.3777 338.182C59.3399 339.811 58.1862 341.367 56.7345 342.714C58.4039 339.645 60.0484 336.562 61.7481 333.51C64.1974 329.116 66.5872 324.682 69.186 320.378C72.0622 315.614 75.3024 311.067 78.0995 306.259C81.4296 300.535 85.1735 295.016 87.5708 288.789C88.2609 286.998 88.5642 285.062 89.1145 283.212C89.6193 281.516 90.2336 279.853 90.7644 278.165C90.8489 277.897 90.8727 277.453 90.7178 277.291C87.846 274.299 85.3587 270.986 82.7696 267.758C81.7556 266.495 80.8532 265.137 79.7959 263.914C77.9099 261.73 76.3651 259.366 75.4616 256.602C75.1919 255.776 74.8593 255.961 74.5755 256.619C74.4628 256.474 74.2321 256.308 74.2537 256.187C74.6036 254.2 73.6579 252.558 72.84 250.902C71.747 248.689 70.5759 246.516 69.3215 244.098C66.3749 252.099 66.0455 260.382 64.4639 268.485C64.4639 267.535 64.3577 266.57 64.4812 265.635C65.245 259.828 65.3544 253.933 66.8461 248.222C67.586 245.391 68.2598 242.541 68.8686 239.679C69.1893 238.171 69.4092 236.626 69.4872 235.088C69.589 233.073 70.3723 231.337 71.3624 229.662C71.9062 228.741 72.0741 227.901 71.63 226.824C70.2433 223.46 70.9778 220.085 71.9051 216.771C72.3569 215.16 73.4174 214.412 75.7942 213.735ZM74.9081 233.903C75.337 236.862 77.1093 239.162 78.769 241.523C78.3562 238.558 75.9307 236.591 74.9081 233.903Z" fill="#168B9C"/>
<path d="M154.785 234.233C154.644 234.942 154.286 235.688 154.399 236.353C154.807 238.761 154.605 241.115 154.359 243.527C153.797 249.036 152.676 254.447 150.905 259.634C149.568 263.546 147.459 267.228 145.419 270.857C141.478 277.869 137.341 284.769 133.292 291.719C133.142 291.975 133.05 292.266 132.826 292.787C134.741 292.385 136.421 291.873 138.135 291.709C140.815 291.452 143.517 291.38 146.211 291.324C148.801 291.271 151.205 290.522 153.604 289.651C155.119 289.101 156.718 288.77 158.214 288.175C162.134 286.617 165.671 284.492 168.126 280.908C168.303 280.651 168.46 280.379 168.883 279.704C168.656 281.495 168.282 282.397 167.267 283.526C164.584 286.509 161.432 288.769 157.484 289.788C156.517 290.037 155.541 290.324 154.639 290.745C150.509 292.672 146.114 292.566 141.7 292.747C136.418 292.963 131.341 294.226 126.864 297.257C125.644 298.084 124.494 299.019 123.024 299.617C123.883 298.705 124.642 297.661 125.623 296.91C127.208 295.696 128.87 294.535 130.642 293.634C131.411 293.243 131.959 292.839 132.217 292.115C134.261 286.361 138.082 281.604 140.962 276.32C143.622 271.439 146.256 266.538 148.73 261.56C151.315 256.36 152.009 250.641 152.851 244.979C153.343 241.676 153.514 238.366 153.223 235.057C148.318 236.818 143.522 238.731 138.608 240.258C132.528 242.147 126.417 243.978 120.115 245.046C117.078 245.561 114.055 246.068 110.949 246.01C109.264 245.979 107.573 246.421 105.886 246.411C103.513 246.398 101.141 246.165 98.769 246.025C98.7733 245.87 98.7787 245.716 98.7831 245.562C99.6064 245.562 100.431 245.56 101.254 245.562C103.321 245.568 105.388 245.588 107.455 245.577C108.072 245.574 108.693 245.425 109.307 245.453C113.589 245.651 117.752 244.776 121.866 243.84C128.993 242.219 135.998 240.149 142.844 237.535C146.43 236.167 150.192 235.331 153.634 233.483C155.112 232.69 157.045 232.587 158.745 233.607C157.373 233.835 156.054 234.055 154.735 234.274C154.735 234.278 154.785 234.233 154.785 234.233Z" fill="#168B9C"/>
<path d="M257.15 139.179C257.6 140.224 258.219 141.23 258.467 142.321C259.251 145.766 259.428 149.191 257.885 152.544C256.145 156.323 254.381 160.102 252.867 163.974C251.271 168.056 249.647 172.173 248.593 176.414C247.06 182.582 246.416 188.936 246.953 195.293C247.319 199.619 248.566 203.781 250.821 207.572C255.651 215.689 258.746 224.486 260.981 233.625C262.142 238.373 262.976 243.16 263.182 248.054C263.428 253.869 263.847 259.681 263.94 265.499C264.017 270.312 263.733 275.132 263.601 279.948C263.448 285.528 263.286 291.108 262.685 296.713C262.522 295.199 262.23 293.687 262.218 292.172C262.138 281.83 262.27 271.485 262.023 261.147C261.858 254.245 261.581 247.3 260.643 240.474C259.053 228.907 255.669 217.827 249.823 207.625C247.799 204.093 246.523 200.284 246.032 196.29C245.693 193.531 245.718 190.681 245.969 187.907C246.296 184.297 246.871 180.695 247.585 177.14C248.831 170.928 251.132 165.067 253.81 159.341C255.082 156.621 256.321 153.871 257.325 151.044C258.466 147.827 258.339 144.521 257.251 141.271C257.04 140.641 256.839 140.008 256.633 139.376C256.807 139.31 256.978 139.244 257.15 139.179Z" fill="#168B9C"/>
<path d="M167.929 219.916C168.35 221.386 168.811 222.846 169.173 224.329C169.391 225.221 169.456 226.15 169.585 227.064C169.658 227.584 169.559 228.211 169.816 228.607C172.088 232.099 172.269 236.105 172.394 240.021C172.603 246.62 172.457 253.229 172.463 259.835C172.466 263.253 172.438 266.672 172.498 270.089C172.527 271.752 172.728 273.411 173.214 275.102C174.665 272.39 176.123 269.68 177.569 266.963C178.835 264.583 180.087 262.196 181.349 259.814C181.421 259.678 181.501 259.511 181.623 259.446C181.869 259.316 182.148 259.246 182.412 259.152C182.444 259.44 182.578 259.762 182.493 260.009C182.093 261.176 181.732 262.373 181.177 263.467C179.254 267.258 177.197 270.982 175.305 274.789C173.416 278.591 171.669 282.465 169.845 286.3C169.46 287.109 169.009 287.886 168.417 289.003C167.949 286.828 168.745 285.315 169.385 283.792C170.193 281.871 171.083 279.985 171.94 278.085C172.262 277.37 172.404 276.756 172.051 275.897C171.625 274.862 171.585 273.646 171.485 272.498C171.309 270.492 171.187 268.48 171.099 266.468C171.062 265.62 171.166 264.766 171.213 263.914C171.273 262.829 171.407 261.743 171.392 260.661C171.359 258.198 171.259 258.138 168.76 258.078C167.992 258.06 167.133 258.186 166.483 257.882C165.676 257.505 165.24 257.823 164.606 258.173C160.993 260.162 158.689 263.216 157.219 267.015C157.086 263.73 158.721 261.364 161.146 259.431C161.868 258.855 162.647 258.313 163.477 257.917C164.458 257.449 164.295 256.788 163.973 256.066C162.724 253.258 161.397 250.483 160.205 247.651C158.745 244.182 157.393 240.666 155.99 237.172C155.596 236.19 155.185 235.213 154.782 234.234L154.732 234.279C155.495 235.21 156.493 236.033 156.978 237.091C158.744 240.942 160.344 244.869 161.994 248.773C162.953 251.041 163.891 253.317 164.832 255.593C165.206 256.494 165.562 257.007 166.834 256.769C168.114 256.528 169.522 256.964 171.088 257.126C170.994 248.051 171.31 238.722 169.312 229.206C167.794 229.958 166.511 230.528 165.463 229.129L165.419 229.168C168.25 229.018 168.978 228.379 168.607 225.531C168.33 223.404 167.879 221.211 166.425 219.449C166.699 219.38 166.974 219.311 167.248 219.242C167.478 219.467 167.704 219.691 167.929 219.916Z" fill="#168B9C"/>
<path d="M88.7234 355.816C90.3234 349.893 92.5897 344.204 94.909 338.536C96.3997 334.895 98.133 331.338 99.3766 327.615C100.596 323.962 101.987 320.394 103.759 317.004C107.48 309.883 111.226 302.769 115.228 295.806C118.155 290.712 120.226 285.224 122.986 280.069C124.729 276.816 126.755 273.716 128.622 270.528C131.805 265.093 135.262 259.831 137.621 253.912C138.929 250.627 141.334 247.873 143.895 245.372C145.442 243.86 147.029 242.38 147.931 240.355C148.391 239.324 148.783 238.262 149.38 237.287C149.594 240.202 148.46 242.699 146.473 244.617C142.712 248.249 139.744 252.326 137.411 257.046C134.823 262.283 131.782 267.311 128.695 272.279C125.476 277.463 122.745 282.875 120.137 288.382C118.3 292.262 116.007 295.923 113.98 299.713C111.377 304.575 108.638 309.377 106.323 314.375C103.803 319.813 101.675 325.434 99.4232 330.996C97.0778 336.787 94.8115 342.609 92.4651 348.4C91.4338 350.946 90.2898 353.446 89.1978 355.967C89.0419 355.913 88.8826 355.864 88.7234 355.816Z" fill="#168B9C"/>
<path d="M250.585 308.564C250.273 305.343 250.006 302.117 249.635 298.903C249.246 295.523 248.815 292.146 248.298 288.785C247.889 286.123 247.427 283.462 246.801 280.846C245.929 277.206 244.181 273.963 242.157 270.814C237.477 263.531 233.269 255.974 229.593 248.123C228.213 245.174 228.682 242.19 229.337 239.25C230.67 233.268 231.313 227.236 230.982 221.121C230.878 219.205 230.42 217.31 230.136 215.403C229.705 212.506 229.082 209.619 228.916 206.705C228.731 203.47 227.339 200.603 226.664 197.53C225.87 193.914 224.9 190.324 225.023 186.568C225.239 179.919 226.302 173.459 228.655 167.189C229.667 164.492 230.749 161.753 231.044 158.816C231.075 158.507 231.416 158.231 231.613 157.94C231.734 158.265 232.019 158.635 231.947 158.91C231.483 160.688 230.94 162.446 230.425 164.211C229.205 168.398 227.977 172.583 226.778 176.777C226.588 177.441 226.477 178.141 226.433 178.831C226.256 181.615 226.165 184.404 225.957 187.185C225.74 190.095 226.557 192.857 227.112 195.643C227.669 198.431 228.621 201.14 229.178 203.93C230.057 208.324 230.797 212.748 231.512 217.173C232.358 222.41 232.173 227.611 231.252 232.858C230.558 236.804 230.344 240.848 230.143 244.86C230.077 246.181 230.471 247.67 231.085 248.858C233.712 253.94 236.441 258.972 239.249 263.956C240.99 267.049 242.971 270.004 244.793 273.053C247.078 276.877 248.449 281.043 249.192 285.422C250.048 290.467 250.474 295.552 250.646 300.666C250.734 303.282 251.022 305.892 251.22 308.505C251.009 308.523 250.798 308.544 250.585 308.564Z" fill="#168B9C"/>
<path d="M237.938 300.352C238.625 300.783 238.993 300.902 239.191 301.155C242.139 304.924 245.245 308.584 246.528 313.382C247.616 317.449 248.184 321.552 248.052 325.768C247.807 333.597 246.33 341.261 245.195 348.98C244.331 354.863 243.415 360.768 243.564 366.777C243.656 370.489 243.148 374.215 243.2 377.931C243.239 380.7 243.752 383.461 244.032 386.228C244.075 386.652 243.994 387.09 243.944 388.001C242.658 384.457 242.348 381.214 242.242 378.005C242.062 372.572 242.056 367.126 242.239 361.693C242.363 357.988 242.822 354.282 243.333 350.605C244.099 345.093 245.085 339.612 245.898 334.107C246.638 329.099 246.725 324.032 246.301 319.018C245.902 314.309 244.734 309.724 241.762 305.818C240.521 304.185 239.405 302.457 237.938 300.352Z" fill="#168B9C"/>
<path d="M95.2134 180.579C91.0351 180.448 87.8957 182.577 85.0683 185.326C83.9081 186.454 82.7619 187.62 81.7718 188.896C80.9279 189.983 80.0948 191.176 79.642 192.458C78.3301 196.173 77.4819 199.991 76.9923 203.939C76.4885 208.002 76.5763 212.014 77.067 216.013C77.4613 219.223 78.3128 222.376 78.9671 225.554C79.4351 227.823 79.7612 230.135 80.4328 232.342C81.0081 234.234 81.97 236.01 82.7944 237.821C83.0035 238.28 83.3393 238.681 83.4303 239.242C81.8888 238.178 80.7719 236.752 80.24 234.967C79.6269 232.905 79.1437 230.8 78.692 228.695C77.8665 224.853 77.0248 221.01 76.3509 217.14C76.0249 215.266 76.0595 213.33 75.9155 211.184C75.3576 211.577 74.9567 211.794 74.635 212.096C72.8465 213.772 71.0471 215.44 69.3149 217.173C68.6736 217.816 68.1362 218.589 67.6748 219.376C67.1613 220.252 66.5525 220.742 65.4811 220.801C64.7119 220.843 63.9623 221.226 63.0631 221.499C63.2365 220.495 63.8843 220.338 64.5722 220.299C65.8461 220.227 66.5156 219.437 67.2761 218.487C68.6974 216.714 70.3354 215.11 71.9397 213.492C73.023 212.4 74.2385 211.44 75.3153 210.342C75.584 210.069 75.5905 209.497 75.6414 209.053C75.9447 206.443 76.2719 203.835 76.5026 201.219C76.7745 198.128 77.6357 195.202 78.7277 192.323C78.9162 191.828 79.005 191.295 79.0993 190.933C78.1991 190.414 77.3801 189.942 76.5622 189.469C77.2371 189.585 77.9142 189.801 78.5847 189.786C79.1405 189.773 79.8338 189.643 80.2118 189.29C81.1012 188.46 81.813 187.441 82.6439 186.542C84.5277 184.504 86.378 182.421 88.9205 181.155C89.6886 180.773 90.4718 180.422 91.2486 180.056C89.6886 179.525 88.2175 179.25 86.7908 179.399C84.1995 179.671 81.6169 180.112 79.0646 180.647C77.7332 180.925 76.4549 181.505 75.1907 182.039C74.3598 182.39 73.7618 183.083 73.8918 184.038C74.0966 185.551 74.4378 187.045 74.7217 188.547C73.764 188.678 73.0848 187.987 73.0014 187.323C72.7912 185.657 72.7197 183.931 72.9407 182.275C73.023 181.656 73.9828 180.953 74.6946 180.664C76.1776 180.06 77.7365 179.48 79.3105 179.298C82.268 178.957 85.1972 178.119 88.2272 178.583C90.6365 178.953 93.0414 179.309 95.1723 180.622L95.2134 180.579Z" fill="#168B9C"/>
<path d="M219.938 175.386C220.527 176.307 220.913 176.672 220.59 177.676C218.804 183.203 217.573 188.861 218.065 194.734C218.174 196.021 218.532 197.302 218.905 198.546C220.626 204.293 222.365 210.034 224.154 215.758C225.417 219.803 225.206 223.797 224.045 227.815C223.496 229.717 223.104 231.663 222.608 233.581C222.477 234.09 222.224 234.567 221.706 234.99C221.8 234.281 221.894 233.571 222.015 232.652C219.943 234.418 218.648 237.081 215.486 237.23C212.738 237.36 210.152 237.301 207.98 235.275C208.337 235.409 208.708 235.517 209.051 235.68C211.986 237.075 215.97 236.384 218.288 234.182C219.588 232.947 220.276 230.939 222.445 230.744C222.524 230.736 222.62 230.509 222.646 230.372C223.125 227.821 223.733 225.283 224.03 222.71C224.445 219.109 223.462 215.711 222.294 212.314C220.593 207.369 219.029 202.368 217.644 197.326C216.651 193.707 216.754 189.966 217.517 186.285C218.251 182.746 219.082 179.226 219.938 175.386Z" fill="#168B9C"/>
<path d="M115.327 189.341C116.393 190.411 117.819 191.301 118.452 192.586C120.032 195.787 120.746 199.291 120.717 202.879C120.71 203.73 120.155 204.577 119.847 205.424C119.822 205.492 119.733 205.538 119.707 205.607C118.865 207.785 117.159 208.887 115.01 209.507C113.45 209.957 112.285 210.992 111.595 212.444C111.151 213.38 110.436 213.836 109.551 214.166L109.617 214.214C109.637 213.492 109.489 212.712 109.707 212.056C110.423 209.889 111.339 207.79 112.052 205.622C112.949 202.894 113.265 200.099 112.397 197.139C113.586 198.208 114.22 200.658 113.714 202.847C113.274 204.756 112.555 206.6 111.895 208.673C113.681 207.974 115.26 207.344 116.848 206.738C117.793 206.377 118.404 205.772 118.536 204.725C118.613 204.116 118.831 203.516 118.847 202.907C118.95 199.134 118.14 195.503 116.884 191.986C116.566 191.098 115.687 190.413 115.065 189.633C115.152 189.534 115.238 189.437 115.327 189.341Z" fill="#168B9C"/>
<path d="M44.5042 269.257C44.176 267.874 43.6462 266.501 43.5606 265.103C43.3851 262.261 43.7643 259.459 44.4349 256.665C45.9407 250.387 47.2612 244.064 48.6782 237.765C49.3607 234.73 50.4927 231.794 52.5109 229.482C54.6515 227.031 55.6698 224.483 55.0989 221.288C55.0318 220.914 55.0989 220.515 55.1043 220.128C56.0598 219.543 57.0142 218.96 57.9697 218.375C58.377 218.459 59.092 218.37 58.6413 219.101C58.3748 219.534 57.8158 219.782 57.3977 220.126C56.635 220.752 55.6514 222.623 55.7186 223.51C55.8767 225.613 55.2246 227.336 53.9224 229.038C51.3463 232.405 50.0204 236.3 49.5058 240.546C49.2285 242.832 48.4073 245.054 47.8137 247.299C46.8896 250.791 45.8399 254.253 45.0523 257.775C44.4316 260.551 43.787 263.356 44.4175 266.269C44.6266 267.234 44.4587 268.28 44.4641 269.289L44.5042 269.257Z" fill="#168B9C"/>
<path d="M43.5258 278.598C44.1693 280.056 43.2463 281.33 42.9365 282.626C41.8607 287.125 40.7568 291.631 39.3475 296.032C37.6163 301.438 37.6759 307.029 37.1527 312.567C37.0855 313.283 36.936 313.991 36.8244 314.704C36.6468 314.702 36.4691 314.7 36.2915 314.698C36.22 314.312 36.1073 313.928 36.0824 313.539C35.7975 309.029 36.2817 304.559 36.9924 300.123C37.3563 297.85 38.0356 295.623 38.639 293.394C39.3247 290.862 40.005 288.324 40.8359 285.838C41.6484 283.405 42.6483 281.034 43.5648 278.636L43.5258 278.598Z" fill="#168B9C"/>
<path d="M215.595 237.818C215.806 238.827 216.153 239.468 216.012 239.973C215.168 243.009 214.386 246.083 213.226 249.003C212.563 250.672 211.234 252.079 210.186 253.59C209.005 255.293 207.625 256.885 206.648 258.697C204.814 262.099 204.905 265.671 206.364 269.214C206.732 270.107 207.197 270.961 207.396 272.019C207.066 271.678 206.662 271.383 206.416 270.988C203.679 266.617 202.986 261.665 206.21 257.164C207.601 255.222 209.049 253.323 210.466 251.401C212.891 248.111 213.988 244.293 214.819 240.37C214.914 239.92 214.964 239.459 215.077 239.013C215.143 238.748 215.293 238.503 215.595 237.818Z" fill="#168B9C"/>
<path d="M231.434 136.91C231.773 137.975 232.357 139.029 232.405 140.107C232.587 144.118 232.578 148.111 231.38 152.038C229.648 157.723 227.38 163.178 224.877 168.552C224.201 170.004 223.652 171.515 222.669 172.967C222.669 172.619 222.569 172.235 222.683 171.929C225.336 164.832 228.704 158.014 230.648 150.637C231.846 146.092 232.24 141.585 231.434 136.91Z" fill="#168B9C"/>
<path d="M130.524 176.846C134.324 178.379 138.086 180.068 142.204 180.529C143.388 180.662 144.625 180.294 145.841 180.195C146.119 180.173 146.412 180.307 146.698 180.369C146.474 180.606 146.292 180.97 146.022 181.056C145.304 181.283 144.505 181.63 143.816 181.503C140.975 180.98 138.039 180.886 135.362 179.545C134.427 179.076 133.268 179.082 132.246 178.757C130.018 178.047 127.813 177.265 125.648 176.231C126.584 175.912 127.445 175.86 128.365 176.264C129.054 176.566 129.823 176.687 130.556 176.888L130.524 176.846Z" fill="#168B9C"/>
<path d="M232.585 265.435C234.947 268.381 236.301 271.842 237.025 275.454C237.671 278.682 237.795 282.025 238.004 285.327C238.079 286.505 237.728 287.711 237.571 288.904C237.403 288.897 237.236 288.889 237.068 288.882C237.068 287.765 237.037 286.648 237.073 285.532C237.3 278.688 236.18 272.171 232.5 266.261C232.389 266.084 232.437 265.809 232.411 265.58L232.585 265.435Z" fill="#168B9C"/>
<path d="M167.967 206.902C169.491 208.021 169.701 209.14 168.683 210.283C167.797 211.277 166.808 211.888 165.3 211.474C163.986 211.113 162.57 211.129 161.198 210.983C159.967 210.853 158.91 211.102 158.209 212.261C158.104 212.436 157.766 212.469 157.536 212.568C157.46 212.244 157.223 211.841 157.336 211.607C158.075 210.068 160.98 209.114 163.013 209.699C163.815 209.929 164.592 210.29 165.406 210.425C166.31 210.575 167.305 210.663 167.879 209.67C168.388 208.794 168.831 207.881 167.967 206.902Z" fill="#168B9C"/>
<path d="M167.929 219.916C167.703 219.692 167.477 219.467 167.251 219.243C166.386 216.973 164.567 216.854 162.528 217.134C163.055 217.413 163.551 217.674 164.046 217.936C162.908 218.067 161.773 218.216 160.633 218.312C160.393 218.333 160.136 218.153 159.888 218.067C159.991 217.871 160.045 217.61 160.204 217.491C162.503 215.766 165.95 216.254 167.801 218.511C168.064 218.829 168.508 218.998 168.867 219.236C169.082 218.835 169.505 218.414 169.472 218.035C169.354 216.689 169.08 215.355 168.871 214.059C170.292 215.298 171.185 218.694 170.484 220.412C170.246 220.992 169.81 221.29 169.205 220.907C168.753 220.618 168.353 220.249 167.929 219.916Z" fill="#168B9C"/>
<path d="M99.367 161.494C99.8773 160.107 99.3334 158.816 98.9857 157.518C98.7095 156.485 98.1212 155.483 98.0779 154.451C97.9522 151.443 96.259 149.332 94.2192 147.08C95.713 147.289 96.4074 148.141 97.091 149.145C98.7831 151.629 99.2305 154.514 99.8534 157.343C100.133 158.613 100.32 159.911 100.455 161.205C100.525 161.886 100.323 161.921 99.4028 161.453L99.367 161.494Z" fill="#168B9C"/>
<path d="M222.029 236.041C221.739 238.556 221.362 241.064 221.186 243.586C221.005 246.166 221.418 248.669 222.788 250.938C223.097 251.448 223.356 251.989 223.447 252.608C221.815 250.916 220.906 248.821 220.594 246.543C220.389 245.041 220.574 243.473 220.687 241.943C220.817 240.182 221.049 238.427 221.267 236.674C221.3 236.409 221.495 236.163 221.615 235.909C221.753 235.951 221.891 235.997 222.029 236.041Z" fill="#168B9C"/>
<path d="M262.796 153.283C263.433 147.43 263.955 141.586 261.104 135.719C264.445 138.121 264.737 148.401 262.796 153.283Z" fill="#168B9C"/>
<path d="M132.862 126.454C133.377 126.019 133.846 125.508 134.414 125.163C137.715 123.157 140.227 120.393 142.248 117.134C142.398 116.893 142.718 116.759 142.959 116.576C143.027 116.616 143.093 116.659 143.157 116.706C141.384 120.436 138.761 123.422 135.226 125.533C134.536 125.945 134.094 127.187 132.919 126.514L132.862 126.454Z" fill="#168B9C"/>
<path d="M160.621 274.03C163.84 275.625 166.665 275.261 169.51 274.523C169.922 274.416 170.444 274.739 171.154 274.926C167.384 276.976 162.503 276.668 160.621 274.03Z" fill="#168B9C"/>
<path d="M216.816 218.713C216.533 218.777 216.242 218.921 215.969 218.891C214.239 218.711 212.775 218.938 212.034 220.846C211.713 221.671 210.858 221.67 210.047 221.727C208.958 221.806 207.38 221.088 207.241 223.142C207.239 223.155 206.78 223.183 206.769 223.142C206.639 222.645 206.461 222.126 206.504 221.632C206.52 221.454 207.113 221.167 207.414 221.198C209.387 221.406 210.855 220.82 211.795 218.937C211.982 218.561 212.837 218.4 213.401 218.357C214.537 218.269 215.684 218.33 216.826 218.33C216.823 218.459 216.819 218.586 216.816 218.713Z" fill="#168B9C"/>
<path d="M119.434 130.284C119.944 128.561 121.678 128.549 122.804 128.486C126.281 128.291 129.584 127.5 132.862 126.454L132.919 126.513C131.26 128.14 129.087 128.473 126.951 128.743C124.395 129.067 121.839 129.322 119.402 130.228L119.434 130.284Z" fill="#168B9C"/>
<path d="M217.901 277.258C218.362 277.585 218.912 277.835 219.267 278.254C222.049 281.525 223.872 285.375 225.67 289.247C222.887 285.41 221.171 280.854 217.901 277.258Z" fill="#168B9C"/>
<path d="M99.4027 161.453C98.6975 161.224 97.9738 161.041 97.2924 160.757C96.5233 160.436 95.8256 159.917 95.0391 159.673C92.6353 158.926 92.1142 156.579 94.2927 154.327C94.2927 155.606 94.283 156.568 94.296 157.53C94.3068 158.382 94.6611 158.817 95.5375 159.189C96.8959 159.765 98.0995 160.707 99.368 161.495L99.4027 161.453Z" fill="#168B9C"/>
<path d="M165.466 229.129C164.435 229.055 164.401 228.114 164.097 227.464C163.298 225.761 162.648 225.456 160.904 226.139C160.694 226.222 160.5 226.525 160.331 226.5C159.927 226.443 159.541 226.25 159.149 226.112C159.406 225.797 159.598 225.336 159.929 225.19C162.757 223.932 165.38 225.85 165.424 229.169L165.466 229.129Z" fill="#168B9C"/>
<path d="M109.551 214.167C110.071 214.415 110.591 214.663 111.111 214.911C111.107 215.007 111.102 215.104 111.097 215.201C109.737 215.042 108.381 214.815 107.016 214.743C105.475 214.662 103.901 214.547 102.387 214.767C101.002 214.969 99.6768 215.599 98.2772 215.905C99.3399 214.754 100.636 214.179 102.202 214.192C104.673 214.213 107.144 214.21 109.616 214.216L109.551 214.167Z" fill="#168B9C"/>
<path d="M201.136 227.891C203.451 229.452 204.422 232.097 206.235 234.065C204.345 233.339 203.984 232.912 201.136 227.891Z" fill="#168B9C"/>
<path d="M139.387 220.748C142.101 222.836 142.908 225.747 141.617 227.668C140.928 225.511 140.165 223.123 139.402 220.735L139.387 220.748Z" fill="#168B9C"/>
<path d="M165.716 237.14C166.408 236.931 167.1 236.723 167.803 236.51C166.758 235.422 166.762 235.432 168.115 234.784C168.251 234.719 168.301 234.448 168.365 234.264C168.447 234.023 168.504 233.775 168.573 233.53C168.733 233.694 169.035 233.861 169.031 234.02C169.003 234.986 169.193 236.115 168.763 236.878C168.111 238.031 166.836 237.563 165.716 237.14Z" fill="#168B9C"/>
<path d="M139.371 186.023C136.165 187.034 134.7 186.729 132.807 184.717C134.909 185.136 137.231 185.598 139.371 186.023Z" fill="#168B9C"/>
<path d="M190.592 165.689C190.787 163.263 192.608 161.866 194.049 160.069C193.933 161.58 192.444 163.901 190.552 165.652L190.592 165.689Z" fill="#168B9C"/>
<path d="M44.4629 269.291C45.4747 272.356 45.1671 275.382 44.152 278.374C44.1076 278.505 43.7414 278.526 43.5248 278.598L43.5649 278.636C44.8486 275.607 44.2831 272.393 44.5041 269.257L44.4629 269.291Z" fill="#168B9C"/>
<path d="M236.783 132.824C239.702 131.207 242.438 130.777 245.165 131.331C242.629 131.783 239.82 132.283 236.783 132.824Z" fill="#168B9C"/>
<path d="M212.385 229.372C214.713 229.251 216.697 229.146 218.681 229.042C216.7 230.108 214.705 230.639 212.385 229.372Z" fill="#168B9C"/>
<path d="M144.167 227.127C143.885 228.799 143.605 230.471 143.323 232.142C143.119 232.111 142.916 232.079 142.712 232.048C142.646 230.356 143.272 228.758 143.368 227.088C143.634 227.102 143.9 227.115 144.167 227.127Z" fill="#168B9C"/>
<path d="M130.556 176.888C132.778 175.882 135.861 176.277 137.836 177.978C135.505 176.795 133.01 176.847 130.523 176.846L130.556 176.888Z" fill="#168B9C"/>
<path d="M145.262 173.968C143.443 174.217 141.831 174.437 140.22 174.659C141.849 174.443 143.233 171.917 145.262 173.968Z" fill="#168B9C"/>
<path d="M170.278 267.335C168.698 267.073 167.122 266.801 166.225 265.085C167.646 265.663 169.068 266.241 170.489 266.82C170.419 266.99 170.348 267.163 170.278 267.335Z" fill="#168B9C"/>
<path d="M142.959 116.576C143.582 115.161 144.205 113.746 144.854 112.272C145.301 114.176 144.662 115.604 143.158 116.706C143.094 116.659 143.028 116.616 142.959 116.576Z" fill="#168B9C"/>
<path d="M190.553 165.653C190.167 166.467 189.829 167.309 189.384 168.088C188.864 168.997 188.078 169.271 187.284 168.916C187.977 168.172 188.664 167.398 189.391 166.665C189.753 166.301 190.189 166.012 190.592 165.69L190.553 165.653Z" fill="#168B9C"/>
<path d="M58.0086 218.434C57.1853 218.44 56.3349 218.325 55.5485 218.498C55.0718 218.602 54.6927 219.152 54.2702 219.501C53.9874 219.164 53.7047 218.827 53.4219 218.49C53.8043 218.299 54.1911 217.94 54.567 217.95C55.724 217.981 56.9643 217.571 58.0086 218.434Z" fill="#168B9C"/>
<path d="M100.304 182.022C101.953 182.469 103.603 182.916 105.252 183.362C103.793 183.747 102.016 183.15 100.339 181.98C100.339 181.979 100.304 182.022 100.304 182.022Z" fill="#168B9C"/>
<path d="M100.339 181.979C98.5467 181.819 96.6607 182.008 95.2134 180.579L95.1755 180.624C96.9402 180.888 98.7666 180.921 100.305 182.022L100.339 181.979Z" fill="#168B9C"/>
<path d="M143.266 102.789C142.228 102.216 141.189 101.645 140.151 101.072C140.217 100.938 140.283 100.804 140.35 100.67C141.41 101.202 142.47 101.734 143.53 102.266C143.441 102.44 143.354 102.615 143.266 102.789Z" fill="#168B9C"/>
<path d="M119.403 130.228C118.375 130.798 117.347 131.369 116.181 132.015C116.999 130.556 118.267 129.927 119.434 130.284L119.403 130.228Z" fill="#168B9C"/>
<path d="M93.6438 244.44C95.0077 244.653 96.3716 244.866 97.7344 245.079C97.717 245.221 97.6997 245.361 97.6824 245.502C96.3531 245.309 95.0239 245.115 93.6947 244.922C93.6785 244.761 93.6611 244.6 93.6438 244.44Z" fill="#168B9C"/>
<path d="M158.029 184.818C156.743 185.331 155.456 185.844 154.17 186.357C155.272 185.211 156.525 184.549 158.074 184.871L158.029 184.818Z" fill="#168B9C"/>
<path d="M235.627 297.568C237.076 298.556 237.076 298.556 236.951 300.134C236.51 299.279 236.069 298.424 235.627 297.568Z" fill="#168B9C"/>
<path d="M210.075 224.98C210.582 225.934 211.09 226.888 211.597 227.842C211.44 227.93 211.282 228.018 211.125 228.107C210.614 227.19 210.102 226.273 209.591 225.356C209.753 225.23 209.914 225.105 210.075 224.98Z" fill="#168B9C"/>
<path d="M115.066 189.633C114.189 189.267 113.311 188.901 112.435 188.535C113.625 188.235 114.586 188.501 115.327 189.341C115.238 189.437 115.152 189.535 115.066 189.633Z" fill="#168B9C"/>
<path d="M59.2046 223.533C59.8015 223.07 60.1341 222.94 60.2403 222.707C60.731 221.631 60.9195 223.63 61.3496 222.799C61.4655 222.897 61.5814 222.995 61.6984 223.093C61.4427 223.239 61.2022 223.46 60.9282 223.514C60.562 223.588 60.172 223.533 59.2046 223.533Z" fill="#168B9C"/>
<path d="M133.567 165.745C133.537 165.87 133.548 166.051 133.473 166.101C132.983 166.425 132.481 166.734 131.965 167.013C131.887 167.056 131.672 166.954 131.594 166.859C131.518 166.765 131.479 166.5 131.523 166.473C132.071 166.136 132.632 165.817 133.207 165.529C133.274 165.494 133.446 165.668 133.567 165.745Z" fill="#168B9C"/>
<path d="M131.425 98.516C132.701 98.516 133.976 98.516 135.546 98.516C133.586 99.1202 133.009 99.0985 131.468 98.4639L131.425 98.516Z" fill="#168B9C"/>
<path d="M140.997 178.3C140.233 178.203 139.467 178.104 138.268 177.95C139.575 177.102 140.264 177.916 140.997 178.3Z" fill="#168B9C"/>
<path d="M232.41 265.577C231.892 264.924 231.374 264.272 230.856 263.619C231.037 263.508 231.217 263.397 231.398 263.287C231.793 264.003 232.189 264.718 232.584 265.434L232.41 265.577Z" fill="#168B9C"/>
</g>
<g opacity="0.75">
<path d="M326.127 57.6797C327.196 58.7047 327.29 60.1004 326.359 60.9972C325.421 61.902 323.969 61.8151 322.91 60.7992C321.842 59.7742 321.758 58.3877 322.679 57.4818C323.617 56.5769 325.059 56.6547 326.127 57.6797Z" fill="#B9E1DD"/>
<path d="M307.753 40.0509C308.838 41.0598 308.977 42.4668 308.066 43.382C307.146 44.3053 305.679 44.2518 304.613 43.2612C303.528 42.2524 303.398 40.8544 304.31 39.9393C305.228 38.9988 306.677 39.0512 307.753 40.0509Z" fill="#B9E1DD"/>
<path d="M289.445 22.4855C290.522 23.5024 290.625 24.9072 289.704 25.8131C288.775 26.7271 287.315 26.6483 286.248 25.6406C285.171 24.6237 285.069 23.2361 285.998 22.3221C286.936 21.4 288.368 21.4686 289.445 22.4855Z" fill="#B9E1DD"/>
<path d="M360.691 112.553C359.623 111.528 359.521 110.14 360.46 109.235C361.398 108.33 362.841 108.408 363.909 109.433C364.977 110.458 365.071 111.854 364.141 112.751C363.22 113.657 361.759 113.561 360.691 112.553Z" fill="#B9E1DD"/>
<path d="M342.383 94.9866C341.306 93.9697 341.186 92.581 342.105 91.6578C343.043 90.7357 344.484 90.7961 345.551 91.8039C346.628 92.8208 346.757 94.2187 345.837 95.1246C344.917 96.0478 343.449 95.9771 342.383 94.9866Z" fill="#B9E1DD"/>
<path d="M327.273 74.2671C328.323 75.291 328.409 76.6949 327.46 77.5906C326.52 78.4783 325.05 78.3731 323.999 77.3491C322.939 76.3161 322.873 74.9305 323.821 74.0348C324.76 73.1299 326.213 73.234 327.273 74.2671Z" fill="#B9E1DD"/>
<path d="M308.839 56.5818C309.933 57.5825 310.09 58.9907 309.206 59.916C308.296 60.8484 306.839 60.8213 305.757 59.8469C304.663 58.8461 304.506 57.438 305.399 56.5218C306.317 55.5641 307.755 55.5902 308.839 56.5818Z" fill="#B9E1DD"/>
<path d="M290.541 39.026C291.617 40.043 291.739 41.4489 290.826 42.3468C289.897 43.2608 288.439 43.1992 287.371 42.1914C286.295 41.1745 286.183 39.7777 287.104 38.8718C288.033 37.9577 289.473 38.0182 290.541 39.026Z" fill="#B9E1DD"/>
<path d="M343.459 111.509C342.399 110.476 342.315 109.089 343.263 108.193C344.202 107.288 345.645 107.383 346.714 108.408C347.782 109.433 347.858 110.828 346.919 111.733C345.979 112.621 344.518 112.525 343.459 111.509Z" fill="#B9E1DD"/>
<path d="M328.699 94.0105C327.809 94.9784 326.355 94.9858 325.256 94.0448C324.137 93.0683 323.935 91.6489 324.791 90.7133C325.681 89.7454 327.126 89.7289 328.216 90.6779C329.362 91.6647 329.555 93.0749 328.699 94.0105Z" fill="#B9E1DD"/>
<path d="M309.954 73.1412C311.047 74.142 311.213 75.5419 310.311 76.4661C309.401 77.3984 307.945 77.3712 306.862 76.3968C305.769 75.396 305.611 73.988 306.505 73.0719C307.431 72.1235 308.87 72.1496 309.954 73.1412Z" fill="#B9E1DD"/>
<path d="M291.725 55.6504C292.775 56.6744 292.842 58.0771 291.885 58.9638C290.945 59.8516 289.482 59.7384 288.422 58.7053C287.38 57.6733 287.314 56.2877 288.262 55.3919C289.22 54.5052 290.665 54.6173 291.725 55.6504Z" fill="#B9E1DD"/>
<path d="M326.248 110.486C325.18 109.461 325.087 108.082 326.016 107.168C326.955 106.263 328.397 106.341 329.465 107.366C330.534 108.391 330.627 109.787 329.697 110.684C328.767 111.58 327.307 111.502 326.248 110.486Z" fill="#B9E1DD"/>
<path d="M311.186 89.8115C312.228 90.8435 312.295 92.2463 311.338 93.1329C310.388 94.0114 308.926 93.8982 307.874 92.8571C306.832 91.8251 306.766 90.4395 307.732 89.5448C308.68 88.6491 310.125 88.7612 311.186 89.8115Z" fill="#B9E1DD"/>
<path d="M292.773 72.1454C293.85 73.1624 293.971 74.5683 293.059 75.4662C292.13 76.3802 290.671 76.3186 289.604 75.3108C288.527 74.2939 288.407 72.9051 289.336 71.9911C290.265 71.0771 291.706 71.1376 292.773 72.1454Z" fill="#B9E1DD"/>
<path d="M309.093 109.516C307.999 108.515 307.842 107.107 308.736 106.191C309.654 105.25 311.093 105.276 312.167 106.259C313.261 107.26 313.418 108.668 312.534 109.593C311.642 110.527 310.176 110.491 309.093 109.516Z" fill="#B9E1DD"/>
<path d="M293.877 88.6947C294.962 89.7036 295.102 91.1106 294.19 92.0258C293.271 92.949 291.804 92.8956 290.738 91.905C289.652 90.8962 289.523 89.4983 290.434 88.5831C291.352 87.6426 292.802 87.695 293.877 88.6947Z" fill="#B9E1DD"/>
<path d="M295.071 105.329C296.113 106.361 296.189 107.756 295.231 108.642C294.282 109.521 292.819 109.408 291.777 108.376C290.735 107.344 290.669 105.958 291.617 105.062C292.567 104.184 294.019 104.288 295.071 105.329Z" fill="#B9E1DD"/>
<path d="M374.556 63.8985C373.487 62.8734 373.403 61.4869 374.35 60.574C375.289 59.6691 376.732 59.7641 377.8 60.7891C378.869 61.8141 378.954 63.2179 378.014 64.1056C377.076 65.0104 375.615 64.9143 374.556 63.8985Z" fill="#B9E1DD"/>
<path d="M355.905 43.1032C356.795 42.1352 358.24 42.1186 359.33 43.0677C360.458 44.0534 360.651 45.4638 359.795 46.3995C358.913 47.3594 357.45 47.375 356.36 46.4259C355.233 45.4574 355.039 44.0298 355.905 43.1032Z" fill="#B9E1DD"/>
<path d="M341.089 25.5675C342.166 26.5844 342.287 27.9904 341.375 28.8883C340.446 29.8024 338.987 29.7408 337.92 28.733C336.843 27.716 336.723 26.3272 337.652 25.4132C338.581 24.4991 340.014 24.5677 341.089 25.5675Z" fill="#B9E1DD"/>
<path d="M375.644 80.431C374.602 79.399 374.536 78.0135 375.484 77.1177C376.424 76.2301 377.877 76.3342 378.938 77.3845C379.98 78.4165 380.056 79.8112 379.098 80.6978C378.166 81.5774 376.704 81.4641 375.644 80.431Z" fill="#B9E1DD"/>
<path d="M360.542 59.7195C361.618 60.7364 361.738 62.125 360.827 63.0401C359.898 63.9541 358.449 63.9016 357.382 62.8939C356.305 61.877 356.185 60.4883 357.104 59.5652C358.025 58.6593 359.466 58.7198 360.542 59.7195Z" fill="#B9E1DD"/>
<path d="M342.224 42.1445C343.301 43.1614 343.412 44.5581 342.474 45.4629C341.545 46.3768 340.085 46.2979 339.018 45.2902C337.941 44.2733 337.847 42.8776 338.768 41.9718C339.715 41.059 341.147 41.1276 342.224 42.1445Z" fill="#B9E1DD"/>
<path d="M323.905 24.5695C324.974 25.5945 325.058 26.9811 324.119 27.8859C323.181 28.7908 321.72 28.6947 320.669 27.6708C319.601 26.6458 319.517 25.2593 320.464 24.3464C321.403 23.4587 322.837 23.5445 323.905 24.5695Z" fill="#B9E1DD"/>
<path d="M376.816 97.045C375.739 96.0281 375.637 94.6404 376.566 93.7263C377.495 92.8123 378.946 92.8819 380.013 93.8897C381.09 94.9067 381.193 96.3116 380.272 97.2176C379.342 98.1144 377.874 98.0437 376.816 97.045Z" fill="#B9E1DD"/>
<path d="M358.479 79.4517C357.402 78.4348 357.3 77.0472 358.229 76.1332C359.158 75.2192 360.609 75.2888 361.676 76.2966C362.753 77.3135 362.856 78.7183 361.935 79.6242C361.005 80.521 359.537 80.4503 358.479 79.4517Z" fill="#B9E1DD"/>
<path d="M343.283 58.6489C344.376 59.6497 344.533 61.0578 343.65 61.9832C342.74 62.9156 341.283 62.8885 340.2 61.9141C339.098 60.9214 338.95 59.5052 339.843 58.5889C340.76 57.6313 342.19 57.6653 343.283 58.6489Z" fill="#B9E1DD"/>
<path d="M325.012 41.1211C326.081 42.1461 326.175 43.5419 325.244 44.4388C324.306 45.3437 322.854 45.2569 321.787 44.2491C320.718 43.224 320.616 41.8363 321.555 40.9314C322.502 40.0184 323.944 40.0961 325.012 41.1211Z" fill="#B9E1DD"/>
<path d="M306.665 23.5181C307.742 24.5351 307.845 25.9399 306.925 26.8459C305.996 27.7599 304.536 27.6811 303.469 26.6733C302.392 25.6564 302.298 24.2607 303.219 23.3547C304.156 22.4326 305.589 22.5012 306.665 23.5181Z" fill="#B9E1DD"/>
<path d="M377.922 113.595C376.845 112.578 376.752 111.182 377.672 110.276C378.602 109.362 380.052 109.431 381.111 110.447C382.188 111.464 382.291 112.869 381.37 113.775C380.458 114.673 378.989 114.602 377.922 113.595Z" fill="#B9E1DD"/>
<path d="M359.642 96.0566C358.54 95.0639 358.391 93.6477 359.284 92.7315C360.203 91.7911 361.641 91.8171 362.724 92.7914C363.818 93.7922 363.975 95.2003 363.091 96.1257C362.19 97.0672 360.725 97.031 359.642 96.0566Z" fill="#B9E1DD"/>
<path d="M344.445 75.2544C345.522 76.2713 345.643 77.6772 344.723 78.5831C343.793 79.4971 342.335 79.4356 341.267 78.4278C340.191 77.4109 340.079 76.0142 341 75.1083C341.928 74.177 343.369 74.2375 344.445 75.2544Z" fill="#B9E1DD"/>
</g>
<defs>
<clipPath id="clip0">
<rect width="228" height="290" fill="white" transform="translate(36.0001 98)"/>
</clipPath>
</defs>
</svg>
