<svg width="440" height="395" viewBox="0 0 440 395" fill="none" xmlns="http://www.w3.org/2000/svg">
<path fill-rule="evenodd" clip-rule="evenodd" d="M6.15081 213.396C12.0884 165.216 33.3938 120.313 71.8061 87.3412C108.733 55.6444 157.653 43.0268 207.917 40.207C262.27 37.1578 320.203 38.2084 361.473 71.0908C405.111 105.859 426.127 159.91 425.039 213.202C423.97 265.538 398.772 315.981 355.778 349.982C315.622 381.74 260.744 381.151 208.077 384.787C148.672 388.887 80.6313 409.272 36.7246 372.005C-7.72638 334.276 -0.685333 268.867 6.15081 213.396Z" fill="#EFFAFB" fill-opacity="0.8"/>
<path d="M166.943 278.277C167.899 278.478 168.816 278.832 169.837 278.751C170.73 278.681 171.494 278.488 172.106 277.8C172.6 277.244 173.199 276.767 173.775 276.28C174.578 275.603 175.305 274.877 175.96 274.059C176.568 273.3 177.367 272.675 178.081 271.993C178.912 272.215 178.928 272.855 179.144 273.443C178.82 273.59 178.554 273.709 178.291 273.83C177.034 274.409 175.942 275.183 175.127 276.268C174.426 277.204 173.553 277.957 172.604 278.677C171.662 279.389 170.932 280.312 171.083 281.589C171.182 282.423 171.614 283.055 172.409 283.409C173.457 283.875 174.513 284.342 175.606 284.699C176.861 285.11 178.174 284.901 179.441 284.715C181.409 284.425 183.27 283.803 184.99 282.833C185.322 282.645 185.675 282.487 185.989 282.275C187.172 281.476 188.463 281.442 189.811 281.76C190.061 281.819 190.325 281.853 190.556 281.952C192.129 282.621 193.736 282.451 195.367 282.199C198.132 281.77 200.572 280.573 203.036 279.418C204.696 278.64 206.451 278.099 208.23 277.624C208.849 277.459 209.476 277.31 210.079 277.101C211.286 276.682 212.518 276.331 213.73 275.937C216.205 275.134 218.666 274.246 221.02 273.171C224.577 271.546 228.054 269.762 231.532 267.987C233.079 267.198 234.572 266.305 236.04 265.388C237.76 264.314 239.442 263.182 241.114 262.041C244.078 260.017 246.868 257.789 249.574 255.468C252.501 252.957 255.421 250.447 258.555 248.155C260.522 246.716 262.426 245.175 264.196 243.525C266.795 241.101 269.19 238.494 271.118 235.538C272.861 232.866 273.528 229.92 273.598 226.836C273.641 224.933 273.732 223.013 273.272 221.139C273.002 220.039 272.686 218.927 272.202 217.901C271.329 216.05 270.381 214.225 269.336 212.456C268.587 211.188 267.663 210.005 266.754 208.828C265.349 207.01 263.596 205.517 261.668 204.203C261.389 204.014 261.118 203.811 260.865 203.591C258.513 201.536 255.791 199.988 253.04 198.473C250.292 196.961 247.554 195.443 244.933 193.728C243.173 192.577 241.234 191.666 239.354 190.683C236.495 189.189 233.648 187.687 231.019 185.834C229.714 184.914 228.281 184.155 226.887 183.35C225.654 182.638 224.639 181.756 223.907 180.553C223.122 179.26 221.928 178.311 220.567 177.579C217.47 175.912 214.361 174.264 211.236 172.643C210.49 172.255 209.656 172.02 208.875 171.685C208.494 171.521 208.146 171.286 207.782 171.086C204.808 169.458 201.841 167.818 198.857 166.204C196.75 165.065 194.525 164.179 192.083 163.996C189.598 163.808 187.106 163.753 184.625 164.173C182.172 164.589 179.703 164.926 177.306 165.588C174.393 166.395 171.662 167.521 169.393 169.51C167.937 170.786 166.593 172.14 165.461 173.684C164.654 174.783 163.802 175.852 162.973 176.938C162.466 177.601 162.139 178.341 161.853 179.115C161.371 180.413 160.771 181.673 160.289 182.97C159.835 184.192 159.399 185.428 159.091 186.686C158.876 187.56 159 188.478 159.221 189.364C159.256 189.503 159.204 189.662 159.194 189.804C159.041 189.811 158.932 189.85 158.884 189.814C157.792 189.014 156.482 188.773 155.179 188.517C154.675 188.418 154.172 188.337 153.804 187.952L153.785 187.973C154.793 188.15 155.805 188.311 156.807 188.511C157.261 188.601 157.696 188.769 158.109 188.892C158.499 188.625 158.481 188.299 158.452 187.978C158.262 185.816 158.837 183.811 159.786 181.864C160.197 181.02 160.557 180.138 160.796 179.238C161.268 177.458 162.34 175.997 163.418 174.533C164.03 173.701 164.703 172.909 165.342 172.093C166.447 170.681 167.765 169.459 169.168 168.321C171.3 166.592 173.857 165.638 176.498 164.868C179.297 164.051 182.179 163.544 185.076 163.217C189.726 162.691 194.264 163.017 198.423 165.371C200.671 166.644 202.977 167.826 205.222 169.104C207.072 170.157 209.079 170.889 211.004 171.784C213.242 172.823 215.681 173.088 218.072 173.552C218.113 173.56 218.158 173.56 218.2 173.57C221.507 174.441 224.915 174.403 228.301 174.571C229.847 174.647 231.393 174.71 232.938 174.811C234.658 174.925 236.334 175.279 237.999 175.698C238.868 175.916 239.757 176.133 240.648 176.18C242.696 176.289 244.624 176.842 246.531 177.468C248.476 178.107 250.396 178.821 252.316 179.527C253.037 179.792 253.752 179.667 254.499 179.644C255.297 178.389 256.53 177.827 258.015 177.712C260.206 177.541 262.351 177.121 264.488 176.658C266.252 176.276 268.031 176.015 269.846 175.98C273.415 175.909 276.975 175.69 280.528 175.357C283.832 175.046 287.042 175.339 290.113 176.658C291.637 177.313 293.243 177.795 294.781 178.424C298.466 179.934 301.557 182.219 304.329 184.942C305.576 186.167 306.907 187.337 308.316 188.391C311.371 190.676 314.924 191.985 318.696 192.799C319.491 192.972 320.295 193.116 321.087 193.303C321.531 193.409 322 193.485 322.343 193.75C322.343 193.854 322.358 193.903 322.339 193.932C322.321 193.958 322.266 193.97 322.226 193.971C321.582 193.988 320.938 194.008 320.293 194.013C319.992 194.015 319.691 193.991 319.392 193.96C316.703 193.678 314.215 192.822 311.84 191.628C309.345 190.374 307.237 188.654 305.245 186.791C304.36 185.964 303.508 185.103 302.63 184.269C300.358 182.112 297.723 180.464 294.748 179.297C293.558 178.83 292.334 178.427 291.171 177.907C287.967 176.475 284.604 176.102 281.108 176.395C277.938 176.661 274.764 176.857 271.577 176.818C269.422 176.791 267.284 177.016 265.182 177.483C262.874 177.996 260.53 178.261 258.176 178.475C256.988 178.584 256.495 178.819 255.594 179.6C256.12 179.728 256.589 179.841 257.256 180.004C256.438 180.375 255.738 180.43 254.901 180.567C260.669 183.226 266.3 185.871 272.245 187.882C272.458 187.637 272.212 187.507 272.102 187.377C271.508 186.682 270.907 185.993 270.293 185.315C269.381 184.31 268.271 183.588 266.949 183.112C265.991 182.765 265.069 182.318 264.162 181.861C263.657 181.607 263.163 181.428 262.586 181.393C261.944 181.354 261.306 181.249 260.67 181.155C260.417 181.118 260.421 181.098 260.12 180.539C261.443 180.441 262.712 180.471 263.879 181.093C264.969 181.674 266.127 182.093 267.282 182.539C269.294 183.316 271.072 184.44 272.493 186.021C272.966 186.547 273.43 187.08 273.917 187.594C275.463 189.226 276.42 191.149 277.222 193.185C278.954 197.58 279.204 202.132 278.955 206.734C278.856 208.552 278.518 210.358 278.341 212.173C278.109 214.554 277.914 216.939 277.73 219.324C277.592 221.094 277.929 222.783 278.664 224.427C279.365 225.995 279.981 227.594 280.403 229.258C280.754 230.643 280.951 232.041 281.078 233.46C281.495 238.119 281.256 242.783 281.252 247.445C281.25 250.112 280.694 252.682 279.656 255.159C279.293 256.026 278.869 256.871 278.514 257.741C277.174 261.033 275.855 264.332 274.522 267.626C274 268.913 273.461 270.193 272.928 271.476C272.819 271.74 272.641 271.995 272.609 272.267C272.587 272.452 272.762 272.66 272.912 273C272.761 273.153 272.481 273.392 272.259 273.673C271.903 274.122 271.555 274.584 271.267 275.072C271.161 275.252 271.139 275.573 271.24 275.745C271.491 276.166 271.111 276.402 270.985 276.758C272.046 276.979 273.136 276.663 274.148 276.969C274.276 277.746 274.224 277.887 273.625 277.944C272.214 278.077 270.8 278.233 269.384 278.251C267.82 278.272 266.297 278.372 264.862 279.019C264.712 279.086 264.533 279.095 264.303 279.145C263.999 278.891 263.684 278.627 263.24 278.256C262.426 278.256 261.483 278.261 260.539 278.255C255.288 278.226 250.209 277.261 245.235 275.735C244.747 275.586 244.286 275.359 243.812 275.165C242.905 274.795 241.998 274.427 241.094 274.052C240.386 273.759 239.681 273.461 238.978 273.157C238.626 273.006 238.299 272.785 237.933 272.684C236.139 272.188 234.621 271.154 232.942 270.435C232.593 270.286 232.258 270.087 231.956 269.862C231.438 269.479 230.957 269.53 230.409 269.815C229.581 270.245 228.72 270.617 227.877 271.021C225.425 272.197 222.974 273.376 220.525 274.556C220.45 274.592 220.392 274.657 220.279 274.746C220.69 275.361 221.257 275.829 221.878 276.254C223.362 277.271 224.556 278.55 225.446 280.047C225.947 280.888 226.318 281.812 226.633 282.734C227.188 284.349 227.715 285.961 227.678 287.711C227.636 289.742 227.15 291.649 226.232 293.456C224.967 295.948 223.178 298.048 220.784 299.674C216.292 302.723 211.505 305.235 206.257 306.948C202.905 308.041 199.463 308.651 195.938 308.979C193.406 309.215 190.872 309.215 188.336 309.261C186.531 309.294 184.724 309.278 182.917 309.301C181.011 309.323 179.152 309.06 177.318 308.575C174.877 307.929 172.42 307.339 169.979 306.693C167.647 306.076 165.48 305.095 163.42 303.902C163.017 303.669 162.62 303.426 162.229 303.175C159.721 301.567 156.968 300.44 154.135 299.461C152.562 298.918 150.98 298.382 149.45 297.744C147.119 296.772 144.681 296.139 142.231 295.519C139.74 294.888 137.285 294.14 134.889 293.234C133.8 292.823 132.669 292.579 131.516 292.466C130.235 292.339 128.945 292.294 127.658 292.228C125.856 292.135 124.056 292.032 122.254 291.979C120.363 291.924 118.469 291.881 116.578 291.91C114.412 291.943 112.285 291.721 110.213 291.145C109.23 290.871 108.258 290.509 107.344 290.069C105.655 289.257 104.115 288.215 102.645 287.088C102.28 286.807 101.96 286.473 101.625 286.16C100.95 285.527 100.65 284.759 100.622 283.862C100.551 281.635 100.483 279.408 100.346 277.183C100.253 275.688 100.024 274.201 100.1 272.697C100.112 272.453 100.05 272.194 100.124 271.971C100.235 271.635 100.378 271.279 100.612 271.015C101.021 270.554 101.617 270.388 102.241 270.423C102.939 270.462 103.728 270.266 104.22 270.978L104.238 270.958C103.854 270.929 103.469 270.875 103.086 270.877C102.627 270.88 102.168 270.929 101.716 270.957C101.616 271.877 101.782 272.666 101.975 273.452C102.333 274.9 102.164 275.258 100.763 276.018C101.006 278.619 101.294 281.234 101.476 283.855C101.581 285.364 102.307 286.43 103.578 287.288C104.873 288.162 106.16 289.049 107.623 289.652C109.693 290.506 111.871 290.932 114.138 290.918C114.827 290.914 115.514 290.893 116.203 290.909C118.35 290.96 120.494 290.886 122.643 291.074C124.736 291.258 126.85 291.243 128.954 291.308C131.04 291.373 133.041 291.799 134.97 292.54C137.684 293.582 140.517 294.264 143.329 295.009C144.862 295.415 146.369 295.868 147.837 296.462C149.534 297.149 151.257 297.79 153.001 298.361C156.678 299.565 160.106 301.213 163.363 303.219C165.09 304.284 166.981 305.081 168.994 305.585C171.61 306.24 174.221 306.913 176.832 307.584C178.291 307.959 179.764 308.209 181.283 308.2C185.154 308.175 189.028 308.277 192.892 308.116C198.033 307.903 203.032 306.921 207.8 305.031C212.225 303.277 216.296 300.95 220.102 298.202C221.164 297.435 222.096 296.534 222.904 295.525C224.529 293.494 225.816 291.296 226.216 288.748C226.449 287.268 226.527 285.753 226.078 284.285C225.662 282.925 225.223 281.567 224.701 280.241C224.134 278.802 223.06 277.687 221.854 276.685C221.179 276.124 220.504 275.566 219.736 274.93C219.567 274.973 219.276 275.021 219.005 275.116C217.999 275.471 217.009 275.869 215.994 276.199C215.145 276.474 214.268 276.677 213.402 276.909C213.237 276.954 213.064 276.972 212.902 277.025C210.103 277.934 207.282 278.789 204.516 279.781C203.117 280.283 201.836 281.067 200.471 281.661C198.345 282.585 196.11 283.13 193.757 283.206C193.015 283.23 192.302 283.148 191.611 282.877C191.295 282.752 190.963 282.661 190.633 282.572C189.243 282.197 187.935 282.267 186.7 283.088C185.501 283.886 184.175 284.453 182.777 284.901C181.042 285.458 179.271 285.734 177.454 285.638C176.743 285.6 176.025 285.38 175.346 285.148C174.54 284.873 173.746 284.542 172.998 284.148C172.329 283.797 171.712 283.35 171.104 282.905C170.404 282.393 170.215 281.628 170.141 280.851C170.116 280.587 170.247 280.301 170.342 280.037C170.422 279.817 170.554 279.613 170.714 279.301C170.185 279.283 169.764 279.298 169.351 279.25C168.454 279.146 167.568 279 166.967 278.257L166.943 278.277ZM231.917 269.153C233.795 269.75 235.128 270.767 236.778 271.164C237.313 271.293 237.816 271.547 238.333 271.746C240.362 272.526 242.358 273.393 244.425 274.068C248.385 275.359 252.494 276.042 256.667 276.321C259.111 276.484 261.566 276.501 264.012 276.635C264.693 276.672 265.269 276.556 265.846 276.229C267.063 275.541 268.295 274.877 269.537 274.231C269.935 274.024 270.222 273.768 270.395 273.372C271.216 271.499 272.118 269.654 272.861 267.753C274.453 263.684 275.969 259.589 277.783 255.599C279.105 252.692 279.77 249.657 279.664 246.479C279.599 244.534 279.567 242.587 279.546 240.64C279.517 237.923 279.471 235.206 279.156 232.502C279.053 231.616 278.933 230.73 278.758 229.856C278.325 227.692 277.513 225.637 276.567 223.636C275.705 221.817 275.327 219.929 275.432 217.955C275.57 215.364 275.737 212.774 275.913 210.184C275.976 209.254 276.093 208.327 276.2 207.401C276.655 203.467 276.599 199.548 275.827 195.651C275.454 193.771 274.795 191.973 274.002 190.214C273.749 189.653 273.379 189.263 272.751 189.089C272.463 189.009 272.188 188.887 271.911 188.775C268.63 187.455 265.286 186.255 262.086 184.776C259.113 183.401 256.088 182.14 253.105 180.787C253.037 180.756 252.939 180.783 252.849 180.783C252.794 180.869 252.733 180.964 252.662 181.073C252.167 181.048 251.714 180.82 251.45 180.481C250.976 179.871 250.311 179.667 249.617 179.443C248.967 179.234 248.336 178.97 247.693 178.742C245.353 177.914 242.986 177.2 240.47 177.007C239.792 176.954 239.13 176.734 238.459 176.595C237.158 176.327 235.869 175.939 234.554 175.824C231.69 175.577 228.813 175.432 225.937 175.318C223.827 175.235 221.743 175.076 219.693 174.549C218.037 174.125 216.349 173.812 214.675 173.454C214.64 173.447 214.596 173.477 214.43 173.533C216.126 174.464 217.728 175.389 219.375 176.235C221.535 177.342 223.359 178.801 224.686 180.742C225.246 181.561 225.926 182.157 226.79 182.646C228.117 183.396 229.473 184.119 230.708 184.991C233.268 186.796 236.043 188.25 238.837 189.689C240.835 190.718 242.855 191.731 244.747 192.92C246.718 194.158 248.712 195.347 250.764 196.457C254.382 198.416 257.93 200.446 261.118 203.038C263.273 204.789 265.444 206.483 267.205 208.613C268.372 210.025 269.423 211.504 270.318 213.073C271.233 214.678 272.068 216.326 272.9 217.972C273.796 219.745 274.384 221.587 274.318 223.592C274.261 225.335 274.268 227.081 274.313 228.824C274.381 231.407 273.701 233.793 272.369 236.038C270.42 239.328 267.804 242.131 264.994 244.758C263.197 246.438 261.234 247.978 259.23 249.438C256.402 251.501 253.739 253.738 251.084 255.988C248.203 258.429 245.23 260.762 242.074 262.883C240.533 263.919 238.988 264.95 237.412 265.936C236.052 266.787 234.645 267.573 233.259 268.385C232.902 268.595 232.541 268.796 231.917 269.153ZM100.701 275.123C100.967 274.834 101.076 274.758 101.123 274.656C101.188 274.513 101.254 274.348 101.241 274.198C101.169 273.394 101.071 272.593 100.983 271.79C100.564 272.816 100.586 273.847 100.701 275.123ZM178.446 273.006C178.412 272.996 178.378 272.985 178.344 272.975C178.366 273.015 178.388 273.054 178.41 273.095C178.421 273.065 178.434 273.036 178.446 273.006Z" fill="#168B9C"/>
<path d="M245.443 276.796C244.575 276.796 243.942 276.813 243.31 276.791C242.55 276.766 241.866 276.968 241.231 277.339C239.8 278.175 238.459 279.126 237.307 280.286C236.934 280.661 236.634 281.124 236.398 281.591C236.148 282.082 236.144 282.606 236.547 283.079C236.706 283.265 236.84 283.49 236.913 283.718C237.36 285.104 238.256 286.24 239.141 287.392C239.668 288.079 240.104 288.829 240.559 289.564C241.929 291.78 243.828 293.294 246.615 293.623C247.553 293.733 248.51 293.738 249.432 293.914C252.253 294.453 255.075 294.997 257.869 295.645C260.239 296.196 262.309 297.369 264.245 298.749C266.895 300.637 269.826 301.971 273.111 302.48C275.015 302.775 276.952 302.939 278.88 303.029C281.723 303.16 284.534 303.466 287.317 304.016C291.54 304.851 295.809 305.226 300.121 305.249C303.303 305.265 306.487 305.317 309.658 305.012C314.151 304.579 318.621 304.004 322.991 302.879C325.892 302.132 328.801 301.403 331.7 300.644C332.726 300.375 333.733 300.041 335.006 299.661C334.744 299.989 334.664 300.161 334.525 300.25C333.67 300.792 332.833 301.369 331.933 301.836C329.326 303.186 326.576 304.226 323.757 305.118C320.079 306.282 316.332 307.152 312.487 307.653C310.095 307.965 307.695 308.081 305.286 308.07C301.801 308.054 298.318 307.939 294.873 307.43C292.625 307.098 290.396 306.637 288.179 306.149C285.285 305.511 282.361 305.048 279.405 304.814C274.04 304.389 269.167 302.753 264.876 299.677C262.565 298.02 260.003 296.974 257.158 296.489C254.707 296.071 252.264 295.607 249.81 295.197C248.838 295.034 247.847 294.979 246.87 294.843C245.964 294.716 245.125 294.4 244.395 293.868C243.545 293.25 242.675 292.65 241.869 291.982C240.961 291.229 240.248 290.321 239.655 289.315C239.031 288.255 238.339 287.227 237.618 286.222C237.086 285.478 236.588 284.734 236.292 283.873C236.147 283.454 235.937 283.041 235.681 282.674C235.043 281.762 235.192 280.902 235.82 280.076C236.094 279.718 236.417 279.373 236.782 279.098C237.788 278.34 238.827 277.618 239.855 276.885C240.991 276.074 242.282 275.907 243.651 276.106C244.075 276.168 244.497 276.253 244.91 276.364C245.042 276.399 245.143 276.546 245.443 276.796Z" fill="#168B9C"/>
<path d="M148.897 270.245C148.345 270.162 147.841 270.198 147.288 270.412C146.382 270.764 145.416 270.995 144.458 271.209C142.33 271.685 140.194 272.132 138.056 272.565C137.303 272.717 136.534 272.894 135.773 272.892C133.371 272.886 130.967 272.823 128.566 272.726C127.983 272.703 127.387 272.518 126.839 272.311C125.366 271.752 123.909 271.155 122.46 270.543C121.835 270.28 121.24 269.953 120.637 269.645C119.883 269.26 119.146 268.839 118.374 268.488C118.087 268.357 117.666 268.254 117.402 268.357C116.632 268.656 115.895 268.549 115.127 268.429C114.037 268.259 112.985 268.339 112.087 269.073C111.934 268.412 111.985 268.224 112.478 267.96C113.174 267.587 113.932 267.499 114.72 267.611C115.078 267.661 115.435 267.709 115.813 267.663C114.093 266.97 112.486 266.036 110.482 266.155C108.948 266.245 107.405 266.238 105.862 265.975C105 265.828 104.067 265.791 103.186 266.073L103.208 266.093C103.186 265.835 103.211 265.569 103.544 265.541C104.223 265.486 104.934 265.344 105.582 265.467C106.904 265.715 108.201 265.826 109.543 265.63C111.056 265.409 112.527 265.628 113.967 266.136C116.299 266.957 118.71 267.589 120.848 268.851C121.245 269.085 121.703 269.229 122.139 269.4C123.408 269.899 124.668 270.419 125.954 270.874C126.589 271.099 127.274 271.333 127.936 271.337C130.427 271.353 132.919 271.299 135.408 271.22C136.086 271.199 136.762 271.024 137.429 270.879C139.354 270.462 141.265 269.985 143.199 269.608C144.589 269.338 145.975 269.086 147.305 268.596C148.063 268.318 148.871 268.159 149.627 267.878C151.294 267.258 152.68 266.236 153.936 265.054C155.332 263.737 156.713 262.406 158.095 261.074C158.364 260.813 158.62 260.537 158.854 260.247C159.764 259.118 160.731 258.037 161.759 257.001C162.133 256.623 162.38 256.135 162.693 255.685C162.803 255.685 163.026 255.749 163.104 255.675C163.913 254.909 164.909 254.438 165.945 254.034C166.471 253.829 166.745 253.468 166.926 252.985C168.204 249.581 169.287 246.135 169.79 242.535C170.118 240.187 170.105 237.839 169.961 235.496C169.863 233.886 169.523 232.283 169.219 230.691C168.839 228.699 168.451 226.704 167.939 224.74C167.51 223.091 166.888 221.486 166.375 219.856C166.07 218.885 165.809 217.902 165.53 216.924C165.008 215.087 164.49 213.251 163.967 211.414C163.176 208.633 162.547 205.822 162.329 202.944C162.3 202.569 162.174 202.143 162.61 201.774C162.693 201.908 162.788 201.991 162.793 202.08C162.998 205.426 163.955 208.62 164.965 211.805C165.494 213.471 166.028 215.136 166.564 216.8C167.276 219.008 168.044 221.204 168.69 223.43C169.2 225.185 169.606 226.971 169.977 228.758C170.273 230.188 170.458 231.638 170.674 233.082C171.212 236.682 171.106 240.269 170.483 243.857C169.923 247.083 168.756 250.119 167.358 253.172C167.839 253.216 168.154 252.863 168.549 252.807C168.963 252.747 169.386 252.735 169.864 252.869C169.704 252.974 169.557 253.1 169.385 253.181C167.997 253.822 166.605 254.457 165.212 255.09C164.502 255.412 163.869 255.844 163.421 256.448C162.806 257.276 162.209 258.123 161.706 259.014C161.346 259.651 161.124 260.372 161.682 261.169C162.15 260.943 162.606 260.739 163.047 260.508C164.418 259.789 165.903 259.399 167.434 259.149C168.195 259.024 168.24 259.056 168.992 259.575C168.742 260.078 168.232 260.315 167.752 260.532C166.63 261.039 165.5 261.543 164.336 261.957C162.262 262.694 160.931 264.083 160.117 265.976C159.868 266.552 159.818 267.111 159.929 267.748C160.109 268.784 160.229 269.827 160.55 270.837C159.792 270.302 159.626 269.505 159.496 268.696C159.425 268.257 159.412 267.807 159.302 267.377C159.155 266.799 159.215 266.259 159.436 265.712C160.259 263.678 161.647 262.185 163.875 261.432C164.884 261.091 165.854 260.646 166.833 260.234C166.996 260.165 167.124 260.022 167.461 259.765C166.078 259.861 165.033 260.2 164.019 260.635C163.51 260.852 163.032 261.13 162.524 261.349C161.717 261.699 161.241 261.494 160.949 260.692C160.87 260.472 160.823 260.242 160.741 259.941C159.973 260.784 159.296 261.555 158.586 262.3C158.07 262.841 157.512 263.346 156.975 263.87C155.962 264.861 154.989 265.892 153.929 266.836C152.9 267.752 151.822 268.627 150.505 269.181C149.996 269.394 149.482 269.596 148.99 269.839C148.903 269.878 148.924 270.104 148.897 270.245Z" fill="#168B9C"/>
<path d="M216.509 235.683C216.289 234.487 216.477 233.366 217.061 232.271C217.678 231.115 218.207 229.919 218.76 228.735C219.417 227.329 220.418 226.191 221.719 225.278C221.887 225.16 222.049 225.031 222.318 224.829C222.019 224.7 221.821 224.581 221.606 224.527C218.521 223.764 215.567 222.693 212.761 221.254C211.367 220.537 209.952 219.856 208.533 219.183C204.993 217.506 201.707 215.44 198.436 213.351C198.046 213.102 197.598 212.864 197.341 212.514C196.82 211.806 196.108 211.611 195.268 211.504C193.601 211.289 192.018 210.772 190.467 210.165C190.072 210.01 189.668 209.868 189.26 209.748C188.148 209.42 187.089 208.989 186.101 208.4C185.635 208.123 185.174 207.856 184.545 208.084C184.072 208.256 183.643 207.971 183.237 207.728C182.377 207.215 181.507 206.718 180.64 206.214L180.615 206.235C180.706 206.194 180.797 206.152 180.888 206.112C180.797 206.064 180.707 206.015 180.615 205.966L180.64 205.986C180.26 205.734 179.889 205.467 179.497 205.233C178.629 204.716 177.741 204.227 176.876 203.705C175.684 202.988 174.669 202.079 173.682 201.129C173.249 200.712 172.918 200.156 172.238 199.991C172.112 199.96 172.002 199.764 171.941 199.622C171.67 198.996 171.418 198.362 171.156 197.721C171.415 197.552 171.533 197.773 171.67 197.897C171.759 197.979 171.818 198.093 171.878 198.199C173.221 200.604 175.361 202.253 177.734 203.673C178.416 204.082 179.151 204.411 179.862 204.777L179.836 204.754C180.018 205.039 180.203 204.851 180.388 204.756L180.371 204.773C180.785 205.122 181.216 205.455 181.61 205.822C182.11 206.288 182.654 206.644 183.369 206.764C184.436 206.942 185.432 207.309 186.375 207.818C186.783 208.038 187.224 208.225 187.676 208.347C190.11 209.004 192.435 209.998 194.958 210.383C195.897 210.527 196.751 210.848 197.291 211.732C197.528 212.12 198.059 212.368 198.491 212.629C202.108 214.82 205.696 217.054 209.639 218.723C211.087 219.336 212.451 220.124 213.874 220.794C216.269 221.921 218.784 222.733 221.393 223.296C222.086 223.446 222.749 223.72 223.617 223.997C223.789 223.872 224.128 223.637 224.448 223.382C224.645 223.226 224.81 223.036 224.996 222.867C226.693 221.309 228.653 220.216 230.974 219.662C233.515 219.056 236.022 218.323 238.629 217.992C240.027 217.815 241.426 217.682 243.143 217.682C242.744 217.948 242.6 218.079 242.428 218.15C242.194 218.248 241.941 218.31 241.691 218.372C238.282 219.21 234.874 220.057 231.46 220.876C229.731 221.292 228.114 221.904 226.706 223.048C226.732 223.262 226.76 223.487 226.791 223.751C226.649 223.828 226.513 223.933 226.357 223.982C224.527 224.542 222.974 225.551 221.531 226.705C220.983 227.143 220.502 227.689 220.109 228.258C218.881 230.032 218.077 232.008 217.196 233.944C217.048 234.268 217.024 234.652 216.99 235.013C216.96 235.344 216.754 235.516 216.482 235.659L216.509 235.683Z" fill="#168B9C"/>
<path d="M135.658 168.557C134.332 167.895 132.961 167.3 131.69 166.554C129.929 165.523 128.086 165.577 126.217 166.037C125.1 166.311 124.004 166.707 122.955 167.163C121.512 167.789 120.302 168.671 120.062 170.31C119.136 171.547 119.357 172.978 119.492 174.314C119.607 175.455 120.097 176.574 120.512 177.674C120.855 178.585 121.344 179.447 121.74 180.341C121.962 180.841 121.906 181.359 121.752 181.899C121.636 181.819 121.524 181.778 121.523 181.734C121.495 180.938 121.107 180.287 120.73 179.592C120.11 178.448 119.411 177.32 119.101 176.043C119.072 175.926 119.038 175.804 118.979 175.698C118.317 174.494 118.349 173.189 118.393 171.896C118.415 171.257 118.582 170.622 118.69 169.953C118.425 169.506 117.922 169.352 117.445 169.194C116.716 168.953 115.975 168.741 115.231 168.543C111.384 167.514 107.473 166.752 103.538 166.096C102.1 165.856 100.664 165.597 99.2175 165.413C97.9846 165.257 96.7397 165.124 95.498 165.109C92.8332 165.078 90.163 165.056 87.5026 165.177C85.8379 165.254 84.1777 165.553 82.5316 165.833C79.7389 166.308 76.9856 166.963 74.2903 167.799C72.9065 168.227 71.5457 168.745 70.221 169.318C68.3082 170.147 66.4326 171.053 64.5526 171.946C63.9405 172.237 63.3536 172.578 62.7699 172.919C61.784 173.495 60.8057 174.084 59.8319 174.678C57.7245 175.964 55.7538 177.382 54.4608 179.486C54.2422 179.843 54.0892 180.328 53.4334 180.404C53.4443 180.228 53.4104 180.064 53.4683 179.938C54.2192 178.325 55.1243 176.821 56.7179 175.791C57.7442 175.128 58.7509 174.437 59.7707 173.764C60.0166 173.602 60.2811 173.464 60.5325 173.309C65.662 170.123 71.0877 167.567 77.108 166.217C79.575 165.665 82.0244 165.036 84.5427 164.742C86.2456 164.543 87.966 164.423 89.681 164.388C92.2572 164.336 94.8444 164.201 97.4086 164.552C99.5334 164.842 101.647 165.2 103.762 165.544C107.616 166.173 111.428 166.982 115.201 167.958C116.485 168.29 117.712 168.733 118.814 169.352C118.927 169.292 118.982 169.282 118.997 169.252C119.841 167.614 121.295 166.697 123.059 166.094C124.683 165.539 126.29 165 128.058 165.054C128.846 165.077 129.613 165.155 130.306 165.5C132.016 166.349 133.706 167.232 135.4 168.11C135.544 168.185 135.649 168.326 135.772 168.437C135.735 168.477 135.697 168.517 135.658 168.557Z" fill="#168B9C"/>
<path d="M100.024 262.752C98.8916 262.01 97.6696 262.113 96.4432 262.453C95.5885 262.69 95.4672 262.869 95.5699 263.679C95.6464 264.281 95.7896 264.876 95.9153 265.471C95.9568 265.669 96.0257 265.863 96.0946 266.056C96.3919 266.884 96.393 267.651 95.594 268.198C95.606 268.342 95.594 268.428 95.6213 268.501C96.452 270.694 96.6553 273.003 97.0477 275.279C97.1548 275.898 97.4685 276.486 97.6936 277.106C97.3789 277.214 97.3242 276.98 97.2236 276.838C96.5919 275.935 96.3339 274.91 96.2181 273.859C96.0038 271.917 95.6289 270.015 94.9535 268.165C94.7032 267.479 94.5556 266.761 94.3687 266.085C93.8626 265.834 93.3981 265.935 92.9325 265.999C91.4329 266.204 89.9311 266.212 88.4446 265.92C85.1644 265.275 81.8876 264.616 78.6118 263.951C75.1393 263.246 71.8952 261.958 68.7659 260.411C67.7811 259.925 66.8969 259.26 65.9416 258.718C63.8725 257.544 62.0789 256.026 60.1628 254.66C58.9518 253.797 57.8926 252.803 57.1756 251.516C56.8215 250.88 56.7876 250.797 56.8521 249.932C56.992 250.211 57.1013 250.382 57.1658 250.566C57.6762 252.024 58.7419 253.042 60.0601 253.878C60.6274 254.237 61.1476 254.663 61.6952 255.053C62.3784 255.539 63.0615 256.028 63.7567 256.499C64.3141 256.877 64.8879 257.236 65.4596 257.596C66.1733 258.045 66.8608 258.542 67.6139 258.923C71.2711 260.77 75.1163 262.14 79.1977 262.902C81.5149 263.335 83.8222 263.814 86.1394 264.246C87.1493 264.434 88.1691 264.582 89.1911 264.706C90.8481 264.909 92.5095 265.077 94.231 265.266C94.5326 264.904 94.349 264.446 94.3534 264.025C94.3709 262.487 94.7359 262.037 96.3405 261.669C96.5077 261.631 96.6782 261.608 96.8466 261.573C98.1789 261.295 99.3135 261.57 100.17 262.626C100.121 262.668 100.073 262.71 100.024 262.752ZM95.2901 267.064C95.3349 266.971 95.3721 266.93 95.3644 266.901C95.3437 266.826 95.3021 266.756 95.2693 266.683C95.2759 266.791 95.2814 266.899 95.2901 267.064Z" fill="#168B9C"/>
<path d="M148.868 270.224C149.391 270.274 149.682 270.632 149.974 270.98C150.184 271.229 150.375 271.494 150.651 271.854C150.83 271.566 150.963 271.352 151.101 271.128C151.16 271.34 151.219 271.558 151.297 271.844C151.566 271.879 151.849 271.947 152.131 271.945C152.943 271.939 153.754 271.899 154.567 271.881C157.181 271.827 159.765 272.149 162.349 272.46C162.514 272.479 162.678 272.501 162.937 272.533C163.002 272.124 163.063 271.748 163.127 271.349C162.505 271.368 161.962 271.436 161.434 271.381C161.169 271.353 160.93 271.102 160.68 270.953C161.023 270.965 161.367 270.992 161.709 270.986C162.63 270.969 163.313 270.609 163.863 269.874C164.99 268.366 166.418 267.15 168.17 266.296C169.2 265.794 170.225 265.284 171.259 264.788C171.698 264.578 171.705 264.59 172.248 265.016C171.909 265.468 171.355 265.629 170.892 265.903C169.401 266.787 167.877 267.624 166.416 268.548C165.051 269.412 164.12 270.587 163.805 272.164C163.64 272.994 163.757 273.777 164.018 274.554C164.258 275.271 164.545 275.972 164.733 276.71C163.514 275.776 163.543 274.283 162.896 273.099C159.641 272.969 156.412 272.412 153.14 272.643C152.974 272.655 152.81 272.698 152.561 272.741C152.561 272.994 152.515 273.231 152.569 273.446C152.892 274.755 153.015 276.078 153.001 277.422C152.986 279.082 153.108 280.751 152.787 282.393C152.53 283.704 152.191 285.002 151.856 286.297C151.781 286.587 151.565 286.846 151.352 287.231C150.81 286.523 150.838 285.949 151.226 285.357L151.206 285.339C151.224 285.456 151.244 285.574 151.292 285.873C151.45 285.64 151.562 285.538 151.596 285.416C152.092 283.615 152.488 281.797 152.496 279.925C152.503 278.471 152.523 277.016 152.481 275.561C152.455 274.639 152.327 273.719 152.237 272.718C151.864 272.617 151.515 272.524 151.191 272.437C150.976 272.721 150.812 272.937 150.545 273.289C150.271 272.649 150.092 272.126 149.826 271.645C149.551 271.151 149.19 270.697 148.868 270.224Z" fill="#168B9C"/>
<path d="M169.461 251.673C169.157 251.085 169.256 250.719 169.503 250.353C169.923 249.731 170.378 249.139 171.085 248.785C172.146 248.253 173.186 247.665 174.293 247.235C176.115 246.527 177.92 245.766 179.922 245.542C181.184 245.401 182.411 245.537 183.642 245.706C184.705 245.851 185.762 246.038 186.812 246.245C187.608 246.403 188.39 246.621 189.179 246.813C189.843 246.975 190.509 247.135 191.173 247.299C191.588 247.401 192.028 247.456 192.408 247.627C193.29 248.025 194.21 248.116 195.168 248.112C195.983 248.109 196.801 248.159 197.611 248.239C197.87 248.263 198.111 248.455 198.488 248.629C197.92 248.969 197.494 249.225 196.982 249.532C196.982 250.881 196.916 252.258 197.01 253.626C197.056 254.294 197.343 254.964 197.613 255.599C198.46 257.59 199.323 259.578 200.237 261.543C200.822 262.804 201.503 264.025 202.156 265.258C202.475 265.862 202.83 266.45 202.887 267.187C202.704 266.951 202.474 266.736 202.344 266.477C201.201 264.211 199.879 262.026 198.961 259.655C198.401 258.213 197.696 256.819 197.024 255.418C196.519 254.365 196.225 253.283 196.285 252.121C196.319 251.473 196.332 250.825 196.347 250.176C196.355 249.779 196.349 249.381 196.349 248.883C195.8 248.856 195.34 248.812 194.881 248.818C194.268 248.825 193.695 248.713 193.125 248.496C192.652 248.316 192.143 248.215 191.645 248.094C191.23 247.993 190.787 247.963 190.392 247.817C188.087 246.964 185.63 246.777 183.23 246.34C181.641 246.051 180.06 246.139 178.509 246.562C176.273 247.17 174.13 247.999 172.065 249.012C170.924 249.568 170.047 250.366 169.461 251.673Z" fill="#168B9C"/>
<path d="M336.434 191.937C336.093 191.629 335.743 191.331 335.411 191.015C333.309 189.022 330.988 187.288 328.429 185.848C324.033 183.375 319.582 181.003 314.756 179.328C310.258 177.766 305.656 176.619 300.855 176.343C298.927 176.232 296.988 176.299 295.055 176.276C294.433 176.269 293.86 176.371 293.401 176.921C293.207 176.494 293.382 176.239 293.631 176.122C294.006 175.947 294.424 175.798 294.837 175.758C299.239 175.34 303.589 175.693 307.888 176.637C312.473 177.643 316.854 179.176 321.023 181.241C324.334 182.881 327.668 184.486 330.708 186.562C332.909 188.066 334.925 189.76 336.614 191.781C336.553 191.834 336.494 191.885 336.434 191.937Z" fill="#168B9C"/>
<path d="M41.2022 210.739C40.1944 211.235 39.7944 211.994 39.4872 212.8C38.8631 214.439 38.2609 216.085 37.6542 217.73C37.5745 217.947 37.5296 218.174 37.4302 218.54C37.7286 218.407 37.8892 218.366 38.0117 218.277C39.6129 217.116 41.2197 215.961 42.8002 214.775C43.3696 214.347 43.9096 213.872 44.3927 213.36C44.7271 213.005 44.9731 212.563 45.2004 212.133C45.3731 211.808 45.3797 211.461 45.2146 211.086C44.9895 210.576 44.8506 210.029 44.7042 209.491C44.6342 209.234 44.855 208.927 45.0682 208.946C45.3469 208.972 45.6398 209.139 45.572 209.39C45.3993 210.032 45.666 210.561 45.865 211.138C46.1295 211.904 46.0322 212.675 45.4769 213.325C45.1009 213.765 44.7118 214.21 44.2528 214.567C43.1915 215.39 42.0908 216.169 40.9956 216.952C39.9343 217.71 38.8609 218.456 37.7898 219.202C37.3285 219.524 37.0225 219.916 36.8181 220.443C36.4497 221.392 35.9732 222.304 35.5382 223.23C35.0649 224.235 34.6867 225.264 34.5785 226.368C34.5676 226.474 34.4823 226.575 34.3687 226.805C33.9227 224.742 34.9632 223.091 35.5732 221.276C33.7795 222.381 32.1859 224.561 31.024 227.443C30.7858 227.058 30.9202 226.722 31.024 226.397C31.517 224.855 32.4187 223.529 33.5227 222.324C34.196 221.589 34.9119 220.886 35.6453 220.204C36.0563 219.822 36.3273 219.401 36.512 218.887C37.2979 216.701 38.1013 214.521 38.9385 212.354C39.1112 211.907 39.4151 211.49 39.7332 211.117C40.0283 210.772 40.4218 210.496 41.2022 210.739Z" fill="#168B9C"/>
<path d="M159.499 191.141C159.748 191.356 159.844 191.399 159.865 191.463C160.313 192.884 161.187 194.073 162.065 195.282C164.234 198.266 166.03 201.447 167.256 204.883C167.803 206.416 168.259 207.982 168.653 209.556C168.97 210.818 169.288 212.07 169.769 213.29C170.146 214.243 170.355 215.239 170.122 216.268C170.097 216.38 170.023 216.483 169.917 216.705C169.749 216.381 169.599 216.151 169.51 215.903C169.126 214.83 168.759 213.752 168.392 212.673C168.234 212.212 168.054 211.752 167.956 211.278C167.25 207.89 166.179 204.607 164.782 201.419C164.471 200.71 164.126 200.007 163.719 199.343C162.668 197.626 161.538 195.951 160.512 194.22C160.078 193.488 159.818 192.661 159.508 191.866C159.441 191.694 159.499 191.479 159.499 191.141Z" fill="#168B9C"/>
<path d="M171.831 221.992C173.013 223.423 174.204 224.849 175.374 226.288C175.66 226.64 175.885 227.037 176.132 227.417C179.054 231.911 182.745 235.768 186.986 239.187C188.781 240.634 190.512 242.15 192.479 243.396C193.042 243.753 193.601 244.116 194.399 244.626C193.58 244.602 193.126 244.378 192.697 244.148C190.944 243.201 189.249 242.182 187.779 240.846C186.234 239.442 184.559 238.163 183.057 236.723C180.285 234.065 177.672 231.277 175.732 227.986C174.919 226.608 174.042 225.269 172.908 224.081C172.376 223.523 172.05 222.791 171.631 222.139C171.698 222.09 171.764 222.042 171.831 221.992Z" fill="#168B9C"/>
<path d="M147.204 258.374C147.101 258.301 146.963 258.251 146.911 258.157C145.931 256.368 145.59 254.479 146.13 252.519C146.429 251.43 146.828 250.348 147.331 249.328C148.181 247.607 149.182 245.953 150.056 244.242C150.5 243.373 150.815 242.445 151.162 241.535C151.353 241.034 151.328 241.026 152.128 241.068C152.449 241.638 152.376 242.25 152.153 242.814C151.885 243.49 151.536 244.144 151.159 244.773C150.231 246.321 149.246 247.839 148.324 249.39C147.604 250.602 147.248 251.93 147.022 253.301C146.859 254.286 146.946 255.232 147.237 256.176C147.332 256.487 147.428 256.799 147.495 257.115C147.597 257.598 147.586 257.6 147.204 258.374Z" fill="#168B9C"/>
<path d="M136.554 168.917C137.18 169.338 137.851 169.711 138.426 170.187C140.586 171.979 142.779 173.741 144.832 175.638C146.175 176.877 147.417 178.248 148.05 179.986C148.106 180.139 148.17 180.295 148.265 180.426C149.261 181.797 149.431 183.375 149.451 184.956C149.467 186.123 149.305 187.295 149.187 188.461C149.091 189.417 148.457 190.123 147.705 190.656C146.912 191.217 145.968 191.254 144.815 190.762C145.97 190.609 146.718 190.145 147.375 189.509C147.876 189.025 148.175 188.464 148.297 187.809C148.668 185.834 148.649 183.862 148.208 181.896C148.173 181.738 148.14 181.575 148.072 181.428C146.987 179.076 145.711 176.846 143.631 175.112C141.22 173.102 138.821 171.08 136.417 169.064C136.463 169.013 136.509 168.965 136.554 168.917Z" fill="#168B9C"/>
<path d="M104.74 271.216C105.266 271.245 105.59 271.571 105.87 271.935C106.95 273.337 107.749 274.834 107.628 276.639C107.612 276.88 107.633 277.124 107.646 277.367C107.65 277.445 107.685 277.522 107.736 277.711C108.563 278.026 109.541 278.22 110.266 278.906C110.998 279.598 111.209 280.511 111.571 281.458C112.903 281.363 114.249 281.21 115.436 281.949C115.818 282.187 116.182 282.453 116.457 282.87C115.721 282.565 115.013 282.132 114.243 281.988C113.42 281.835 112.54 281.953 111.682 281.953C111.1 282.651 111.758 283.608 111.111 284.241C110.638 284.264 110.444 284.017 110.423 283.659C110.394 283.135 110.411 282.608 110.41 282.082C110.41 281.597 110.445 281.109 110.41 280.626C110.292 278.999 109.373 278.301 107.524 278.447C107.375 278.648 107.221 278.889 107.033 279.104C106.609 279.591 106.453 279.57 105.808 278.932C106.47 278.107 106.567 277.131 106.603 276.102C106.664 274.393 106.089 272.928 105.017 271.596C104.918 271.472 104.841 271.331 104.754 271.198L104.74 271.216Z" fill="#168B9C"/>
<path d="M115.066 236.643C114.9 236.331 114.735 236.018 114.541 235.655C115.538 232.395 115.779 228.97 115.775 225.516C115.774 224.462 115.775 223.408 115.784 222.354C115.786 222.12 115.819 221.886 115.917 221.649C116.303 222.344 116.239 223.114 116.311 223.839C116.48 225.533 116.502 227.239 116.627 228.936C116.725 230.285 116.468 231.605 116.295 232.928C116.164 233.936 115.836 234.907 115.243 235.777C115.33 236.016 115.414 236.245 115.526 236.549C115.363 236.585 115.219 236.617 115.073 236.65L115.066 236.643Z" fill="#168B9C"/>
<path d="M216.483 235.659C216.722 235.985 216.963 236.313 217.202 236.64C217.175 236.675 217.147 236.71 217.12 236.745C216.851 236.536 216.583 236.327 216.344 236.141C216.199 236.169 216.09 236.159 216.039 236.204C215.124 237.017 214.032 237.573 212.958 238.167C211.962 238.719 211.018 239.355 210.069 239.977C208.591 240.947 207.117 241.921 205.666 242.927C204.943 243.429 204.273 244 203.589 244.551C202.316 245.574 201.058 246.614 199.778 247.629C199.475 247.871 199.162 248.19 198.497 248.036C199.42 247.243 200.228 246.542 201.044 245.849C201.523 245.444 202.03 245.068 202.497 244.652C204.311 243.028 206.379 241.731 208.447 240.42C210.405 239.179 212.332 237.9 214.388 236.804C214.79 236.589 215.134 236.261 215.462 235.943C215.772 235.642 216.108 235.574 216.513 235.682L216.483 235.659Z" fill="#168B9C"/>
<path d="M45.1188 247.354C45.0565 247.254 44.9953 247.153 44.9188 247.03C44.686 247.172 44.4772 247.301 44.2619 247.433C44.2324 247.347 44.1679 247.256 44.1931 247.218C44.6062 246.605 45.0314 246 45.4511 245.391C45.7211 244.999 45.6861 244.637 45.3374 244.294C44.7155 243.685 44.1034 243.067 43.4564 242.423C44.1242 242.648 44.1242 242.648 44.6915 243.152C45.0631 243.482 45.4336 243.812 45.8326 244.167C46.4053 243.748 46.5485 243.266 46.3376 242.665C46.2436 242.398 46.1211 242.116 46.1299 241.845C46.1583 240.95 46.0359 240.118 45.2708 239.453C45.8654 239.599 46.1802 240.031 46.5441 240.397C46.8349 240.689 47.13 240.989 47.3508 241.328C47.4754 241.519 47.4885 241.795 47.4918 242.033C47.5093 243.525 47.5104 245.019 47.5104 246.512C47.5104 246.627 47.4535 246.741 47.3967 246.95C47.1956 246.838 46.9814 246.783 46.8863 246.652C46.648 246.324 46.4633 245.96 46.2272 245.557C45.7014 245.774 45.5921 246.208 45.4336 246.608C45.3342 246.86 45.2271 247.11 45.1232 247.36L45.1188 247.354ZM47.001 244.588C46.5343 244.924 46.6064 245.176 47.0633 245.498C47.036 245.107 47.0185 244.848 47.001 244.588Z" fill="#168B9C"/>
<path d="M34.0278 206.458C32.926 206.128 32.3008 205.301 31.7707 204.428C31.1685 203.437 30.8766 202.351 30.8362 201.191C30.7455 198.575 31.2767 196.051 32.0287 193.559C32.3915 192.357 32.7861 191.161 33.2146 189.979C33.49 189.222 33.7906 188.459 34.4639 187.905C34.5087 187.943 34.5535 187.982 34.5983 188.02C32.937 191.528 32.0571 195.236 31.563 199.025C31.4122 200.18 31.3761 201.366 31.6516 202.535C31.9762 203.916 32.5511 205.152 33.7305 206.084C33.854 206.181 33.9218 206.342 34.0147 206.473L34.0278 206.458Z" fill="#168B9C"/>
<path d="M140.067 177.787C140.843 178.303 141.031 178.973 141.12 179.637C141.196 180.188 141.163 180.769 141.074 181.321C140.888 182.477 140.619 183.622 140.412 184.776C140.308 185.356 140.036 185.739 139.389 185.858C138.718 185.982 138.057 186.151 137.388 186.286C137.226 186.319 137.013 186.351 136.889 186.281C136.651 186.146 136.338 185.968 136.275 185.751C136.172 185.401 136.549 185.304 136.845 185.253C137.35 185.167 137.858 185.093 138.367 185.036C138.891 184.977 139.226 184.756 139.357 184.243C139.698 182.909 140.096 181.588 140.411 180.249C140.508 179.834 140.444 179.373 140.39 178.94C140.345 178.597 140.204 178.264 140.067 177.787Z" fill="#168B9C"/>
<path d="M148.927 274.346C149.323 275.523 149.241 277.217 148.993 278.185C148.681 279.404 148.428 280.637 148.091 281.85C147.886 282.592 147.593 283.315 147.303 284.034C146.427 286.214 145.21 288.207 143.556 289.951C143.386 290.131 143.198 290.298 143.004 290.457C142.962 290.492 142.862 290.468 142.678 290.475C142.812 290.225 142.897 290.012 143.03 289.828C143.416 289.292 143.808 288.758 144.221 288.24C145.743 286.333 146.687 284.153 147.437 281.91C147.978 280.293 148.324 278.615 148.716 276.957C148.827 276.489 148.795 275.99 148.831 275.506C148.862 275.119 148.896 274.732 148.927 274.346Z" fill="#168B9C"/>
<path d="M124.94 179.637C124.064 178.829 123.204 178.019 122.769 176.879C122.064 175.035 122.724 173.535 124.085 172.239C124.852 171.508 125.792 170.996 126.906 170.882C127.927 170.777 128.953 170.71 129.98 170.65C130.214 170.636 130.454 170.719 130.867 170.786C129.622 170.958 128.562 171.078 127.512 171.256C125.891 171.531 124.697 172.393 123.853 173.716C122.853 175.285 122.942 176.916 124.135 178.355C124.45 178.734 124.792 179.094 125.122 179.463C125.062 179.52 125.001 179.578 124.94 179.637Z" fill="#168B9C"/>
<path d="M46.4321 190.915C45.9305 191.056 45.7315 191.492 45.4419 191.834C44.7456 192.657 44.5248 192.847 43.5739 193.295C44.3631 192.358 45.2517 191.701 45.6944 190.679C45.3752 189.839 44.7708 189.054 44.7926 188.083C44.8057 187.493 44.7434 186.896 45.044 186.316C45.1009 186.856 45.1577 187.396 45.2244 188.021C45.6189 187.962 45.8998 187.915 46.1829 187.88C46.4289 187.851 46.6759 187.836 46.9557 187.811C47.312 187.006 47.2508 186.014 48.1547 185.465C48.5701 185.214 48.7198 185.156 49.5691 185.149C49.3068 185.295 49.1384 185.401 48.9603 185.486C48.2181 185.838 47.7886 186.394 47.6159 187.165C47.4563 187.877 47.194 188.569 47.0486 189.282C46.9699 189.668 47.0125 190.083 47.0595 190.479C47.0912 190.746 47.2257 191.002 47.3197 191.279C46.8377 191.373 46.5983 191.181 46.4092 190.893C46.4715 190.843 46.5567 190.802 46.5863 190.737C46.6027 190.701 46.5283 190.626 46.4944 190.57C46.4781 190.606 46.454 190.641 46.4485 190.678C46.4365 190.757 46.4365 190.837 46.4321 190.915ZM45.4156 188.579C45.4987 189.529 45.49 189.533 46.0813 190.056C46.4311 189.578 46.7426 189.117 46.3381 188.477C46.0561 188.508 45.7741 188.539 45.4156 188.579Z" fill="#168B9C"/>
<path d="M111.972 262.306C111.889 261.076 112.42 260.027 112.562 258.925C112.707 257.809 112.744 256.681 112.833 255.488C113.051 255.453 113.327 255.324 113.51 255.4C113.708 255.481 113.936 255.747 113.946 255.941C113.987 256.743 114.059 257.567 113.918 258.35C113.679 259.672 113.078 260.89 112.334 262.035C112.276 262.125 112.149 262.177 111.972 262.306Z" fill="#168B9C"/>
<path d="M118.219 269.545C117.936 269.779 117.824 269.889 117.695 269.973C116.992 270.432 116.3 270.908 115.575 271.333C114.33 272.063 113.498 273.119 112.807 274.302C112.711 274.468 112.599 274.626 112.426 274.895C112.055 274.454 112.085 274.059 112.252 273.708C112.724 272.713 113.192 271.709 114.185 271.041C114.532 270.807 114.858 270.537 115.158 270.252C115.956 269.491 116.902 269.293 118.219 269.545Z" fill="#168B9C"/>
<path d="M55.8556 253.715C55.6599 253.494 55.4993 253.262 55.2861 253.087C55.0621 252.904 54.7779 252.786 54.5374 252.618C53.0345 251.568 51.8956 250.203 50.8397 248.771C50.6299 248.486 50.4036 248.156 50.6058 247.733C50.9239 247.556 51.1677 247.748 51.3666 247.943C52.4672 249.019 53.5788 250.086 54.6325 251.201C55.1112 251.708 55.4807 252.312 55.8676 252.89C55.9736 253.048 55.9758 253.274 55.9988 253.471C56.0053 253.533 55.9234 253.604 55.8556 253.715ZM54.7516 252.173C54.5341 251.758 54.2838 251.361 53.6335 251.005C53.9374 251.641 54.2948 251.943 54.7516 252.173Z" fill="#168B9C"/>
<path d="M39.4926 224.676C39.4926 225.675 39.4806 226.676 39.4959 227.676C39.509 228.525 39.4937 229.381 39.5986 230.221C39.7811 231.686 40.3211 233.038 41.1802 234.289C42.1825 235.75 43.0307 237.309 44.4024 238.519C44.4417 238.553 44.4221 238.646 44.4483 238.863C43.74 238.377 43.14 237.923 42.7312 237.324C41.6885 235.792 40.6271 234.263 39.721 232.659C39.0936 231.547 38.9013 230.265 38.9373 229C38.9789 227.555 39.1297 226.114 39.2335 224.671C39.3199 224.673 39.4062 224.674 39.4926 224.676Z" fill="#168B9C"/>
<path d="M135.592 245.538C136.232 246.144 136.063 246.761 135.718 247.341C135.301 248.043 134.793 248.695 134.366 249.392C134.114 249.805 133.909 250.253 133.754 250.707C133.695 250.88 133.551 251.21 133.905 251.307C134.179 251.382 134.122 251.554 134.042 251.662C133.956 251.776 133.775 251.889 133.634 251.89C133.213 251.893 132.914 251.641 132.849 251.232C132.761 250.668 132.756 250.102 133.042 249.576C133.314 249.074 133.563 248.556 133.894 248.091C134.394 247.388 134.93 246.712 135.239 245.904C135.289 245.771 135.454 245.676 135.592 245.538Z" fill="#168B9C"/>
<path d="M152.084 245.192C152.293 245.516 152.431 245.637 152.445 245.769C152.648 247.692 153.03 249.618 152.545 251.547C152.186 252.974 151.456 254.246 150.525 255.454C150.56 255.254 150.568 255.046 150.634 254.857C150.779 254.435 150.953 254.022 151.114 253.604C151.66 252.19 152.019 250.751 151.943 249.225C151.895 248.258 151.946 247.287 151.966 246.318C151.973 246.018 152.026 245.72 152.084 245.192Z" fill="#168B9C"/>
<path d="M50.2539 256.828C50.1774 256.524 50.0757 256.224 50.0298 255.916C49.809 254.436 49.6516 252.946 49.3806 251.475C49.1204 250.065 49.1183 248.655 49.2166 247.244C49.3084 245.931 49.8768 244.783 50.7753 243.658C50.8343 243.872 50.8933 243.962 50.866 244.005C49.8484 245.593 49.5926 247.343 49.7194 249.146C49.8123 250.474 50.0298 251.795 50.1916 253.118C50.3096 254.081 50.4386 255.042 50.5392 256.006C50.5676 256.28 50.5151 256.562 50.5009 256.84C50.4189 256.837 50.337 256.832 50.2539 256.828Z" fill="#168B9C"/>
<path d="M202.163 276.461C201.665 274.955 201.154 273.722 200.297 272.636C199.762 271.958 199.272 271.241 198.831 270.505C198.518 269.983 198.307 269.403 198.074 268.842C197.703 267.942 197.351 267.035 196.966 266.069C197.336 266.063 197.412 266.314 197.501 266.496C197.902 267.301 198.349 268.092 198.651 268.93C199.156 270.33 199.941 271.563 200.877 272.733C201.314 273.28 201.71 273.862 202.065 274.46C202.378 274.987 202.584 275.56 202.163 276.461Z" fill="#168B9C"/>
<path d="M136.731 175.562C135.754 175.642 134.766 175.665 133.8 175.815C132.13 176.075 131.015 177.006 130.556 178.55C130.327 179.323 130.215 180.127 130.052 180.917C129.99 181.219 130.056 181.567 129.598 181.824C129.542 181.664 129.458 181.54 129.462 181.417C129.488 180.611 129.364 179.754 129.619 179.014C129.905 178.181 130.466 177.401 131.041 176.694C131.595 176.013 132.402 175.583 133.341 175.492C134.19 175.408 135.042 175.347 135.894 175.33C136.165 175.325 136.439 175.494 136.711 175.582L136.731 175.562Z" fill="#168B9C"/>
<path d="M299.079 247.341C299.339 246.58 299.576 245.811 299.864 245.06C300.562 243.241 301.168 241.403 301.488 239.484C301.783 237.717 301.697 235.955 301.543 234.188C301.487 233.55 301.463 232.909 301.425 232.269L301.404 232.284C301.489 232.417 301.625 232.542 301.651 232.684C302.013 234.675 302.104 236.688 301.965 238.697C301.827 240.674 301.245 242.576 300.497 244.421C300.089 245.424 299.583 246.391 299.122 247.376L299.079 247.341Z" fill="#168B9C"/>
<path d="M35.9671 257.952C35.6993 256.918 35.9375 255.917 36.1758 254.948C36.6567 252.991 37.612 251.231 39.0144 249.704C39.3215 249.37 39.668 249.057 40.0451 248.798C40.2615 248.649 40.5763 248.626 41.1403 248.461C37.8175 251.071 36.4316 254.289 35.9671 257.952Z" fill="#168B9C"/>
<path d="M100.169 262.625C100.745 262.958 101.072 263.493 101.338 264.037C101.859 265.096 102.327 266.172 102.495 267.355C102.589 268.02 102.883 268.659 103.112 269.391C102.925 269.253 102.729 269.15 102.592 268.997C102.056 268.397 101.71 267.711 101.622 266.925C101.455 265.408 100.858 264.041 100.022 262.753C100.073 262.71 100.121 262.668 100.169 262.625Z" fill="#168B9C"/>
<path d="M45.1247 247.359C45.1324 247.399 45.1477 247.439 45.1455 247.478C44.9564 250.058 45.5237 252.551 46.0713 255.053C46.2527 255.882 46.2877 256.74 46.3675 257.586C46.3904 257.825 46.3511 258.072 46.3096 258.309C46.291 258.413 46.1937 258.504 46.1259 258.611C45.8133 258.521 45.8986 258.284 45.9008 258.121C45.9183 256.407 45.6406 254.729 45.2165 253.071C44.7892 251.398 44.7039 249.706 44.8712 248C44.893 247.779 45.034 247.569 45.1193 247.354L45.1247 247.359Z" fill="#168B9C"/>
<path d="M141.027 256.073C140.885 255.605 140.827 255.238 140.667 254.918C140.174 253.933 140.415 253.019 140.905 252.124C141.311 251.384 142.094 250.769 143.334 250.276C142.87 250.719 142.591 250.989 142.307 251.253C141.38 252.117 140.979 253.118 141.363 254.341C141.538 254.899 141.573 255.45 141.027 256.073Z" fill="#168B9C"/>
<path d="M174.141 250.959C174.396 250.819 174.653 250.682 174.906 250.541C176.12 249.862 177.335 249.186 178.545 248.499C178.986 248.25 179.401 247.96 179.849 247.726C179.957 247.67 180.153 247.761 180.309 247.785C180.283 247.927 180.261 248.07 180.226 248.212C180.219 248.244 180.169 248.27 180.133 248.292C178.284 249.465 176.384 250.542 174.141 250.959Z" fill="#168B9C"/>
<path d="M44.5382 229.776C45.5329 226.982 46.5275 224.188 47.5254 221.394C47.5331 221.372 47.5877 221.364 47.6817 221.323C47.6817 221.581 47.7364 221.827 47.673 222.042C46.9341 224.535 46.1788 227.025 45.0159 229.382C44.9273 229.561 44.7852 229.716 44.6672 229.882C44.6246 229.847 44.5819 229.812 44.5382 229.776Z" fill="#168B9C"/>
<path d="M50.2526 171.83C50.1356 172.142 50.0799 172.46 49.9115 172.712C49.1213 173.891 49.1235 175.159 49.3749 176.463C49.3902 176.541 49.412 176.619 49.4131 176.697C49.4142 176.731 49.3705 176.765 49.3191 176.84C48.6841 176.212 48.6567 175.433 48.7551 174.684C48.848 173.977 49.118 173.291 49.3355 172.504C49.3191 172.49 49.2043 172.389 49.0896 172.288C49.5519 171.774 49.5519 171.774 50.2526 171.83Z" fill="#168B9C"/>
<path d="M141.598 260.131C140.286 260.285 139.728 259.835 139.849 258.687C139.915 258.065 139.991 257.427 140.741 256.916C140.768 257.195 140.797 257.331 140.789 257.464C140.782 257.582 140.722 257.697 140.708 257.815C140.558 259.045 140.653 259.29 141.598 260.131Z" fill="#168B9C"/>
<path d="M112.012 276.806C111.816 276.779 111.58 276.808 111.434 276.713C111.082 276.483 110.776 276.192 110.447 275.931C109.92 275.509 109.388 275.092 108.642 275.078C108.561 275.077 108.442 275.055 108.407 275.003C108.324 274.879 108.249 274.734 108.236 274.592C108.232 274.548 108.431 274.451 108.542 274.443C108.663 274.433 108.801 274.477 108.912 274.534C109.324 274.749 109.751 274.947 110.129 275.207C110.782 275.656 111.403 276.148 112.037 276.622C112.029 276.685 112.02 276.746 112.012 276.806Z" fill="#168B9C"/>
<path d="M111.259 269.224C111.063 269.215 110.835 269.262 110.681 269.182C110.426 269.049 110.192 268.856 109.998 268.649C109.122 267.718 108.027 267.142 106.769 266.813C106.691 266.793 106.619 266.743 106.555 266.694C106.528 266.674 106.532 266.621 106.495 266.488C106.659 266.488 106.803 266.461 106.933 266.492C107.812 266.702 108.601 267.089 109.301 267.626C109.63 267.879 109.899 268.206 110.241 268.438C110.568 268.659 110.954 268.802 111.315 268.98C111.295 269.062 111.277 269.144 111.259 269.224Z" fill="#168B9C"/>
<path d="M54.4138 176.187C53.5874 176.966 52.5557 177.34 51.5096 177.672C51.0112 177.831 50.5074 177.81 50.0177 177.299C51.6922 177.416 52.9797 176.578 54.4138 176.187Z" fill="#168B9C"/>
<path d="M132.92 243.198C130.364 243.52 130.484 243.907 129.353 245.587C129.301 245.274 129.197 245.057 129.25 244.885C129.534 243.976 130.515 243.258 131.524 243.203C131.988 243.178 132.455 243.198 132.92 243.198Z" fill="#168B9C"/>
<path d="M40.7211 179.927C40.6676 180.201 40.6337 180.479 40.5572 180.747C40.1571 182.142 40.179 183.53 40.5921 184.918C40.6719 185.187 40.7178 185.466 40.7791 185.739C40.743 185.768 40.7069 185.795 40.6708 185.823C39.6839 184.016 39.6882 182.17 40.4369 180.301C40.4916 180.165 40.6391 180.063 40.7441 179.945L40.7211 179.927Z" fill="#168B9C"/>
<path d="M127.648 277.222C128.094 276.927 128.537 276.629 128.987 276.337C129.638 275.914 130.488 275.828 131.057 275.238C131.152 275.14 131.498 275.258 131.91 275.289C131.435 275.786 130.904 275.819 130.486 276.032C130.039 276.261 129.57 276.452 129.118 276.672C128.666 276.892 128.223 277.126 127.776 277.354C127.733 277.311 127.69 277.266 127.648 277.222Z" fill="#168B9C"/>
<path d="M40.215 209.138C38.5864 208.747 37.007 208.232 35.5303 207.465C35.4341 207.415 35.3849 207.286 35.3139 207.193L35.3128 207.195C36.8933 207.785 38.4749 208.374 40.0521 208.97C40.1166 208.995 40.1505 209.092 40.1986 209.156L40.215 209.138Z" fill="#168B9C"/>
<path d="M123.72 277.703C124.816 278.569 125.408 279.455 125.837 280.446C125.882 280.548 125.783 280.706 125.711 280.995C125.035 279.877 124.45 278.911 123.72 277.703Z" fill="#168B9C"/>
<path d="M226.005 244.528C224.759 244.088 223.565 243.564 222.421 242.579C223.336 242.868 225.386 243.973 226.005 244.528Z" fill="#168B9C"/>
<path d="M300.164 226.873C300.084 226.736 299.934 226.598 299.932 226.46C299.914 225.053 299.921 223.648 299.921 222.25C299.96 222.224 299.985 222.208 300.009 222.192C300.031 222.226 300.067 222.258 300.073 222.295C300.091 222.415 300.109 222.536 300.11 222.656C300.122 224.067 300.132 225.479 300.142 226.89L300.164 226.873Z" fill="#168B9C"/>
<path d="M173.726 254.774C174.574 255.139 174.615 255.437 174.001 256.73C173.567 256.096 173.569 255.456 173.726 254.774Z" fill="#168B9C"/>
<path d="M128.223 182.381C126.82 182.318 126.272 181.348 125.831 180.253C126.062 180.448 126.349 180.608 126.512 180.843C126.959 181.489 127.579 181.942 128.244 182.359L128.223 182.381Z" fill="#168B9C"/>
<path d="M219.163 238.772C219.802 239.519 220.442 240.267 221.169 241.115C220.21 240.594 219.635 239.982 219.018 238.896C219.066 238.855 219.114 238.814 219.163 238.772Z" fill="#168B9C"/>
<path d="M177.634 259.766C178.488 259.945 178.877 260.481 179.086 261.414C178.283 260.953 178.03 260.301 177.634 259.766Z" fill="#168B9C"/>
<path d="M115.056 237.605C114.417 237.759 113.776 237.914 113.031 238.094C113.858 237.234 113.892 237.226 115.079 237.626L115.056 237.605Z" fill="#168B9C"/>
<path d="M55.4356 184.056C55.4563 183.06 55.4782 182.063 55.4989 181.068C55.8214 181.958 55.6858 182.859 55.6323 183.755C55.6268 183.853 55.4891 183.943 55.4126 184.038C55.4137 184.039 55.4356 184.056 55.4356 184.056Z" fill="#168B9C"/>
<path d="M336.612 191.782C337.175 192.216 337.623 192.74 338.029 193.283C337.957 193.361 337.933 193.409 337.899 193.417C337.867 193.425 337.812 193.402 337.787 193.376C337.334 192.898 336.884 192.417 336.433 191.937C336.494 191.885 336.553 191.834 336.612 191.782Z" fill="#168B9C"/>
<path d="M219.017 238.897C218.544 238.404 218.07 237.91 217.418 237.231C218.424 237.813 218.507 237.89 219.163 238.773C219.113 238.814 219.065 238.855 219.017 238.897Z" fill="#168B9C"/>
<path d="M206.455 271.679C205.687 271.258 205.382 270.534 205.079 269.809C205.123 269.77 205.168 269.731 205.211 269.693C205.781 270.272 206.176 270.946 206.433 271.694L206.455 271.679Z" fill="#168B9C"/>
<path d="M48.4838 197.7C48.6084 196.949 48.8751 196.268 49.52 195.766L49.5014 195.751C49.2817 196.455 48.9888 197.125 48.4631 197.683L48.4838 197.7Z" fill="#168B9C"/>
<path d="M121.348 276.99C120.69 276.99 120.031 276.99 119.373 276.99C120.022 276.748 120.68 276.765 121.348 276.99Z" fill="#168B9C"/>
<path d="M39.9144 239.386C40.2084 239.685 40.5439 240.026 40.7177 240.202C40.321 240.032 40.321 240.032 39.9144 239.386Z" fill="#168B9C"/>
<path d="M185.787 273.38C186.336 273.524 186.758 273.815 186.821 274.665C186.366 274.101 186.077 273.74 185.787 273.38Z" fill="#168B9C"/>
<path d="M115.079 237.627C114.946 237.352 114.815 237.075 114.652 236.735C114.785 236.706 114.925 236.674 115.066 236.643L115.072 236.648C115.294 236.914 115.515 237.179 115.824 237.551C115.489 237.574 115.272 237.59 115.056 237.605L115.079 237.627Z" fill="#168B9C"/>
<path d="M298.076 249.544C298.149 248.905 298.357 248.32 298.855 247.854L298.832 247.835C298.844 248.51 298.498 249.038 298.055 249.525L298.076 249.544Z" fill="#168B9C"/>
<path d="M179.862 204.777C179.704 204.512 179.546 204.247 179.305 203.842C179.796 204.151 180.163 204.372 180.372 204.772L180.388 204.755C180.204 204.754 180.02 204.754 179.836 204.753L179.862 204.777Z" fill="#168B9C"/>
<path d="M40.7794 185.74C41.0231 186.238 41.268 186.736 41.5117 187.234L41.503 187.241C40.9794 186.898 40.786 186.382 40.6712 185.824C40.7084 185.796 40.7433 185.768 40.7794 185.74Z" fill="#168B9C"/>
<path d="M178.525 203.331C178.309 203.081 178.091 202.833 177.875 202.583C178.302 202.676 178.494 202.944 178.525 203.331Z" fill="#168B9C"/>
<path d="M129.784 182.852C129.186 182.922 128.643 182.834 128.223 182.381L128.243 182.358C128.827 182.327 129.376 182.393 129.777 182.859L129.784 182.852Z" fill="#168B9C"/>
<path d="M51.2562 193.025C51.3885 192.544 51.6672 192.156 52.0924 191.862L52.0869 191.858C52.0705 192.395 51.7164 192.755 51.3502 193.109C51.3196 193.081 51.2879 193.053 51.2562 193.025Z" fill="#168B9C"/>
<path d="M41.5114 187.233C41.9573 187.522 42.2011 187.935 42.3213 188.421L42.2579 188.476C41.836 188.156 41.5573 187.76 41.5037 187.241L41.5114 187.233Z" fill="#168B9C"/>
<path d="M53.632 189.426C53.5566 189.934 53.3784 190.384 52.8527 190.633L52.8724 190.649C52.9576 190.145 53.1708 189.715 53.655 189.442L53.632 189.426Z" fill="#168B9C"/>
<path d="M127.776 277.353C127.497 277.625 127.219 277.899 126.776 278.332C127.068 277.614 127.065 277.611 127.648 277.221C127.691 277.266 127.733 277.31 127.776 277.353Z" fill="#168B9C"/>
<path d="M338.548 193.904C338.709 194.092 338.87 194.279 339.031 194.468C338.989 194.504 338.946 194.539 338.905 194.575C338.732 194.403 338.559 194.23 338.386 194.058C338.44 194.005 338.495 193.955 338.548 193.904Z" fill="#168B9C"/>
<path d="M135.002 186.022C135.065 186.246 135.129 186.471 135.192 186.695C135.142 186.707 135.09 186.719 135.04 186.732C134.968 186.517 134.896 186.303 134.823 186.089C134.882 186.067 134.942 186.045 135.002 186.022Z" fill="#168B9C"/>
<path d="M204.312 268.829C204.013 268.614 203.799 268.351 203.683 267.895C204.137 268.113 204.336 268.38 204.423 268.734C204.386 268.766 204.349 268.797 204.312 268.829Z" fill="#168B9C"/>
<path d="M205.079 269.81C204.823 269.483 204.567 269.155 204.312 268.828C204.349 268.797 204.386 268.765 204.423 268.733C204.686 269.054 204.949 269.374 205.212 269.694C205.167 269.733 205.124 269.771 205.079 269.81Z" fill="#168B9C"/>
<path d="M38.5289 195.099C38.7279 195.099 38.9257 195.099 39.1246 195.099C39.1246 195.124 39.1246 195.15 39.1246 195.174C38.9257 195.174 38.7279 195.174 38.5289 195.174C38.5289 195.149 38.5289 195.123 38.5289 195.099Z" fill="#168B9C"/>
<path d="M301.426 232.268C301.021 231.923 301.17 231.472 301.168 231.052L301.147 231.066C301.545 231.413 301.445 231.854 301.405 232.283L301.426 232.268Z" fill="#168B9C"/>
<path d="M55.415 184.039C55.4456 184.47 55.5702 184.917 55.1713 185.272L55.1921 185.289C55.1899 184.863 55.1112 184.425 55.4369 184.057L55.415 184.039Z" fill="#168B9C"/>
<path d="M301.168 231.052C300.805 230.795 300.917 230.424 300.904 230.083L300.885 230.099C301.278 230.347 301.166 230.719 301.148 231.067L301.168 231.052Z" fill="#168B9C"/>
<path d="M175.971 200.339C175.748 200.154 175.657 200.1 175.603 200.024C175.579 199.99 175.632 199.909 175.649 199.85C175.681 199.871 175.725 199.886 175.742 199.916C175.794 199.998 175.836 200.087 175.971 200.339Z" fill="#168B9C"/>
<path d="M43.3041 189.925C43.467 190.067 43.6298 190.211 43.8561 190.41C43.3664 190.413 43.3369 190.167 43.3249 189.908L43.3041 189.925Z" fill="#168B9C"/>
<path d="M34.4651 187.905C34.5788 187.752 34.6925 187.6 34.8455 187.395C35.0401 187.78 34.7428 187.864 34.6007 188.018C34.5548 187.98 34.51 187.942 34.4651 187.905Z" fill="#168B9C"/>
<path d="M34.7979 206.951C34.4394 206.929 34.1585 206.798 34.0284 206.458L34.0164 206.472C34.3771 206.486 34.6668 206.605 34.7968 206.953L34.7979 206.951Z" fill="#168B9C"/>
<path d="M47.2077 174.157C47.1041 174.176 46.9982 174.197 46.8924 174.218C46.9142 174.154 46.9186 174.071 46.9644 174.029C47.0179 173.979 47.1073 173.964 47.1815 173.933C47.1892 173.997 47.1968 174.059 47.2077 174.157Z" fill="#168B9C"/>
<path d="M176.757 201.164C177.002 201.373 177.091 201.44 177.166 201.519C177.188 201.541 177.174 201.593 177.176 201.633C177.11 201.628 177.013 201.649 176.986 201.616C176.921 201.54 176.891 201.439 176.757 201.164Z" fill="#168B9C"/>
<path d="M46.7339 203.002C46.7536 202.886 46.7743 202.772 46.794 202.656C46.8191 202.71 46.864 202.763 46.864 202.817C46.864 202.882 46.8246 202.946 46.8027 203.011C46.7798 203.009 46.7568 203.005 46.7339 203.002Z" fill="#168B9C"/>
<path d="M42.4885 193.985C42.6831 193.853 42.8776 193.721 43.0711 193.589C43.1071 193.638 43.1443 193.688 43.1815 193.736C42.9804 193.86 42.7793 193.983 42.5771 194.106C42.5486 194.066 42.5191 194.025 42.4885 193.985Z" fill="#168B9C"/>
<path d="M50.2742 194.532C50.2688 194.189 50.4316 193.935 50.7388 193.758L50.8306 193.832C50.7727 194.152 50.6273 194.412 50.2906 194.544L50.2742 194.532Z" fill="#168B9C"/>
<path d="M300.67 229.078C300.418 228.879 300.346 228.653 300.594 228.189C300.62 228.619 300.635 228.855 300.649 229.092L300.67 229.078Z" fill="#168B9C"/>
<path d="M49.7749 195.272C49.8044 194.943 49.9454 194.68 50.2755 194.532L50.2908 194.545C50.2569 194.88 50.1356 195.156 49.7542 195.257L49.7749 195.272Z" fill="#168B9C"/>
<path d="M50.7398 193.759C50.9125 193.515 51.0841 193.27 51.2568 193.026C51.2885 193.054 51.3202 193.082 51.3519 193.11C51.1792 193.351 51.0054 193.593 50.8327 193.834C50.8316 193.833 50.7398 193.759 50.7398 193.759Z" fill="#168B9C"/>
<path d="M300.144 226.892C300.216 227.121 300.288 227.351 300.36 227.581C300.295 227.591 300.23 227.601 300.165 227.61C300.165 227.365 300.165 227.118 300.165 226.873L300.144 226.892Z" fill="#168B9C"/>
<path d="M131.069 183.595C131.259 183.687 131.449 183.778 131.638 183.87C131.6 183.914 131.562 183.957 131.522 184.002C131.377 183.859 131.233 183.717 131.087 183.574L131.069 183.595Z" fill="#168B9C"/>
<path d="M131.086 183.574C130.727 183.553 130.45 183.418 130.313 183.085L130.296 183.105C130.553 183.267 130.809 183.431 131.066 183.594L131.086 183.574Z" fill="#168B9C"/>
<path d="M174.091 197.931C174.049 197.978 174.025 198.005 173.999 198.032C173.926 197.942 173.851 197.853 173.783 197.759C173.778 197.752 173.829 197.71 173.854 197.684C173.934 197.768 174.014 197.85 174.091 197.931Z" fill="#168B9C"/>
<path d="M52.6116 191.133C52.5756 191.464 52.4663 191.748 52.087 191.858L52.0924 191.863C52.1296 191.536 52.2542 191.262 52.5985 191.123C52.5996 191.124 52.6116 191.133 52.6116 191.133Z" fill="#168B9C"/>
<path d="M42.3222 188.421C42.6282 188.594 42.8064 188.837 42.7987 189.185L42.8009 189.183C42.449 189.064 42.3156 188.796 42.2588 188.476L42.3222 188.421Z" fill="#168B9C"/>
<path d="M43.3252 189.907C42.9623 189.787 42.8126 189.529 42.8005 189.182L42.7983 189.184C43.1558 189.316 43.3055 189.575 43.3044 189.925L43.3252 189.907Z" fill="#168B9C"/>
<path d="M136.418 169.062C136.164 168.894 135.91 168.725 135.657 168.557C135.695 168.516 135.734 168.476 135.772 168.436C136.032 168.597 136.292 168.758 136.552 168.919C136.508 168.965 136.462 169.013 136.418 169.062Z" fill="#168B9C"/>
<path d="M38.6536 237.88C38.8033 238.024 38.9541 238.169 39.1039 238.312C39.0569 238.344 39.0099 238.377 38.9629 238.409C38.8667 238.226 38.7705 238.045 38.6743 237.862L38.6536 237.88Z" fill="#168B9C"/>
<path d="M300.904 230.084C300.584 229.798 300.658 229.431 300.67 229.078L300.651 229.093C300.985 229.376 300.917 229.741 300.885 230.099L300.904 230.084Z" fill="#168B9C"/>
<path d="M166.179 277.772C165.969 277.688 165.759 277.604 165.55 277.521C165.858 277.431 166.078 277.501 166.16 277.791L166.179 277.772Z" fill="#168B9C"/>
<path d="M174.43 198.434C174.669 198.633 174.758 198.671 174.779 198.731C174.807 198.816 174.785 198.915 174.785 199.007C174.728 198.958 174.662 198.916 174.619 198.858C174.576 198.801 174.559 198.728 174.43 198.434Z" fill="#168B9C"/>
<path d="M166.962 278.257C166.604 278.234 166.327 278.094 166.179 277.771L166.159 277.792C166.513 277.821 166.8 277.946 166.943 278.279L166.962 278.257Z" fill="#168B9C"/>
<path d="M99.8237 279.744C100.196 279.926 100.177 280.183 99.9265 280.658C99.8904 280.229 99.8685 279.978 99.8467 279.727L99.8237 279.744Z" fill="#168B9C"/>
<path d="M40.744 179.946C40.8304 179.762 40.9167 179.578 41.0031 179.394C41.0555 179.427 41.1069 179.46 41.1594 179.493C41.0129 179.637 40.8675 179.782 40.7211 179.927L40.744 179.946Z" fill="#168B9C"/>
<path d="M179.863 205.982C180.123 205.983 180.383 205.984 180.644 205.985L180.618 205.965C180.618 206.055 180.618 206.145 180.617 206.235L180.642 206.214C180.389 206.13 180.136 206.045 179.883 205.961L179.863 205.982Z" fill="#168B9C"/>
<path d="M54.1481 188.209C54.147 188.478 54.1787 188.756 53.8847 188.929L53.9077 188.948C53.8825 188.671 53.9011 188.41 54.1678 188.227L54.1481 188.209Z" fill="#168B9C"/>
<path d="M136.712 175.581C136.863 175.588 137.014 175.594 137.164 175.601C137.15 175.649 137.136 175.697 137.121 175.745C136.991 175.684 136.861 175.623 136.73 175.562L136.712 175.581Z" fill="#168B9C"/>
<path d="M55.1713 185.271C55.1713 185.449 55.1713 185.627 55.1713 185.899C54.8794 185.591 54.9417 185.423 55.1921 185.286L55.1713 185.271Z" fill="#168B9C"/>
<path d="M129.751 275.007C129.718 275.017 129.684 275.028 129.65 275.039C129.639 275.002 129.628 274.966 129.617 274.929C129.654 274.93 129.695 274.924 129.726 274.935C129.742 274.941 129.744 274.982 129.751 275.007Z" fill="#168B9C"/>
<path d="M54.6805 186.997C54.6958 186.829 54.7111 186.66 54.7264 186.492C54.7843 186.51 54.8434 186.527 54.9013 186.545C54.8204 186.689 54.7384 186.835 54.6575 186.979L54.6805 186.997Z" fill="#168B9C"/>
<path d="M54.658 186.979C54.6995 187.261 54.658 187.518 54.4011 187.707L54.4208 187.723C54.4459 187.462 54.3137 187.149 54.6809 186.997L54.658 186.979Z" fill="#168B9C"/>
<path d="M41.492 194.527C41.2406 194.611 40.9903 194.696 40.7389 194.781L40.7553 194.8C40.9247 194.499 41.2362 194.572 41.5095 194.546L41.492 194.527Z" fill="#168B9C"/>
<path d="M40.7383 194.78C40.5853 194.85 40.4334 194.919 40.2803 194.99C40.2639 194.94 40.2486 194.89 40.2322 194.84C40.406 194.827 40.5798 194.813 40.7536 194.8C40.7547 194.799 40.7383 194.78 40.7383 194.78Z" fill="#168B9C"/>
<path d="M48.2122 198.193C48.1225 198.426 48.0318 198.659 47.9422 198.893L47.9652 198.913C48.0548 198.68 48.1444 198.446 48.234 198.213L48.2122 198.193Z" fill="#168B9C"/>
<path d="M47.369 200.803C47.3461 200.822 47.321 200.843 47.2959 200.864C47.2828 200.828 47.2501 200.782 47.2632 200.758C47.2817 200.723 47.333 200.704 47.3701 200.678C47.369 200.717 47.369 200.757 47.369 200.803Z" fill="#168B9C"/>
<path d="M47.0471 201.592C47.07 201.608 47.1147 201.626 47.1125 201.639C47.1038 201.706 47.0831 201.771 47.0667 201.837C47.0438 201.821 46.9991 201.803 47.0001 201.79C47.01 201.723 47.0307 201.658 47.0471 201.592Z" fill="#168B9C"/>
<path d="M46.5917 204.187C46.5667 204.213 46.5459 204.235 46.5241 204.256C46.5121 204.221 46.4816 204.177 46.4936 204.152C46.5089 204.119 46.5579 204.1 46.5928 204.076C46.5917 204.114 46.5917 204.152 46.5917 204.187Z" fill="#168B9C"/>
<path d="M46.2602 206.286C46.2776 206.288 46.2951 206.291 46.3125 206.293C46.294 206.324 46.2743 206.354 46.2558 206.384C46.2569 206.352 46.2591 206.32 46.2602 206.286Z" fill="#168B9C"/>
<path d="M138.434 176.488C138.45 176.517 138.48 176.547 138.479 176.575C138.478 176.601 138.444 176.626 138.424 176.651C138.408 176.622 138.379 176.593 138.381 176.563C138.381 176.537 138.414 176.513 138.434 176.488Z" fill="#168B9C"/>
<path d="M45.4444 175.471L45.3484 175.426L45.451 175.389L45.4444 175.471Z" fill="#168B9C"/>
<path d="M298.854 247.855C298.93 247.684 299.005 247.512 299.08 247.341L299.122 247.374C299.025 247.528 298.929 247.682 298.831 247.837L298.854 247.855Z" fill="#168B9C"/>
<path d="M179.882 205.963C179.8 205.946 179.72 205.928 179.638 205.911C179.712 205.935 179.787 205.959 179.862 205.985L179.882 205.963Z" fill="#168B9C"/>
<path d="M40.1984 209.156C40.3689 209.239 40.5383 209.32 40.7088 209.402L40.7274 209.382C40.5569 209.301 40.3853 209.219 40.2148 209.137L40.1984 209.156Z" fill="#168B9C"/>
<path d="M41.2416 209.625C41.0711 209.544 40.8995 209.462 40.729 209.382L40.7104 209.401C40.8809 209.483 41.0514 209.564 41.2219 209.646L41.2416 209.625Z" fill="#168B9C"/>
<path d="M41.7552 209.871C41.5836 209.789 41.412 209.708 41.2404 209.626L41.2197 209.647C41.3913 209.728 41.5629 209.81 41.7345 209.891L41.7552 209.871Z" fill="#168B9C"/>
<path d="M298.054 249.526C297.966 249.687 297.879 249.847 297.792 250.007L297.813 250.027C297.901 249.866 297.987 249.704 298.075 249.543C298.076 249.543 298.054 249.526 298.054 249.526Z" fill="#168B9C"/>
<path d="M297.552 250.511C297.639 250.35 297.727 250.188 297.814 250.027L297.791 250.008C297.704 250.168 297.615 250.329 297.528 250.49C297.529 250.491 297.552 250.511 297.552 250.511Z" fill="#168B9C"/>
<path d="M41.7361 209.89C41.8125 209.907 41.89 209.924 41.9664 209.941C41.8965 209.916 41.8256 209.893 41.7558 209.869L41.7361 209.89Z" fill="#168B9C"/>
<path d="M297.529 250.491C297.512 250.565 297.496 250.64 297.478 250.713C297.503 250.646 297.528 250.579 297.553 250.51L297.529 250.491Z" fill="#168B9C"/>
<path d="M47.6256 199.924C47.6038 199.952 47.582 199.979 47.5602 200.007C47.5471 199.974 47.5198 199.939 47.5241 199.909C47.5285 199.879 47.5634 199.853 47.5852 199.826C47.5983 199.858 47.6125 199.891 47.6256 199.924Z" fill="#168B9C"/>
<path d="M47.9416 198.893C47.9056 198.986 47.8707 199.077 47.8347 199.17C47.8227 199.139 47.7911 199.095 47.802 199.081C47.8489 199.02 47.9089 198.967 47.9645 198.912L47.9416 198.893Z" fill="#168B9C"/>
<path d="M48.4623 197.682C48.3792 197.853 48.295 198.023 48.212 198.194L48.2338 198.213C48.3169 198.042 48.4 197.87 48.483 197.699L48.4623 197.682Z" fill="#168B9C"/>
<path d="M49.754 195.256C49.7846 195.473 49.7682 195.669 49.5004 195.75L49.5189 195.765C49.6042 195.601 49.6884 195.436 49.7736 195.272C49.7747 195.272 49.754 195.256 49.754 195.256Z" fill="#168B9C"/>
<path d="M41.5096 194.547C41.5949 194.297 41.8047 194.285 42.0299 194.303L42.0146 194.285C41.8408 194.366 41.6659 194.447 41.4921 194.527L41.5096 194.547Z" fill="#168B9C"/>
<path d="M42.5405 194.051C42.3657 194.13 42.1908 194.209 42.0148 194.287L42.0301 194.305C42.1023 194.041 42.3165 194.037 42.5405 194.051Z" fill="#168B9C"/>
<path d="M44.668 229.883C44.5882 229.968 44.5084 230.053 44.4286 230.137C44.4658 230.017 44.5019 229.896 44.539 229.776C44.5817 229.812 44.6243 229.848 44.668 229.883Z" fill="#168B9C"/>
<path d="M52.8517 190.633C52.8954 190.852 52.867 191.042 52.6112 191.134L52.5981 191.123C52.6888 190.965 52.7806 190.806 52.8713 190.647C52.8713 190.648 52.8517 190.633 52.8517 190.633Z" fill="#168B9C"/>
<path d="M103.184 266.073C103.163 266.149 103.141 266.224 103.12 266.3C103.149 266.231 103.178 266.161 103.207 266.093C103.206 266.093 103.184 266.073 103.184 266.073Z" fill="#168B9C"/>
<path d="M53.6547 189.443C53.6318 189.228 53.599 189.01 53.9083 188.947L53.8854 188.928C53.8012 189.094 53.7159 189.259 53.6318 189.425C53.6318 189.426 53.6547 189.443 53.6547 189.443Z" fill="#168B9C"/>
<path d="M37.3984 235.643C37.3395 235.604 37.2773 235.569 37.226 235.524C37.214 235.514 37.238 235.467 37.2457 235.437C37.2893 235.513 37.334 235.587 37.3776 235.663L37.3984 235.643Z" fill="#168B9C"/>
<path d="M37.3785 235.661C37.4638 235.824 37.549 235.988 37.6354 236.151L37.6572 236.132C37.5709 235.969 37.4856 235.805 37.3993 235.642L37.3785 235.661Z" fill="#168B9C"/>
<path d="M130.315 183.086C130.138 183.008 129.961 182.929 129.784 182.852L129.778 182.859C129.951 182.942 130.125 183.023 130.298 183.106L130.315 183.086Z" fill="#168B9C"/>
<path d="M34.7964 206.953C34.9691 207.034 35.1407 207.115 35.3134 207.196L35.3145 207.194C35.1418 207.112 34.9702 207.032 34.7975 206.95C34.7975 206.951 34.7964 206.953 34.7964 206.953Z" fill="#168B9C"/>
<path d="M104.758 271.198C104.583 271.118 104.408 271.037 104.234 270.958L104.216 270.978C104.391 271.058 104.566 271.139 104.741 271.218C104.741 271.217 104.758 271.198 104.758 271.198Z" fill="#168B9C"/>
<path d="M37.6332 236.15C37.7184 236.314 37.8037 236.478 37.8901 236.641L37.9119 236.622C37.8267 236.459 37.7414 236.295 37.655 236.132L37.6332 236.15Z" fill="#168B9C"/>
<path d="M37.8905 236.64C37.944 236.688 38.0018 236.732 38.0476 236.785C38.0585 236.797 38.0301 236.839 38.0203 236.867C37.9843 236.786 37.9483 236.703 37.9123 236.622L37.8905 236.64Z" fill="#168B9C"/>
<path d="M153.8 187.956C153.629 187.875 153.456 187.794 153.285 187.714L153.267 187.732C153.439 187.813 153.61 187.895 153.782 187.975L153.8 187.956Z" fill="#168B9C"/>
<path d="M206.433 271.695C206.488 271.749 206.547 271.799 206.594 271.859C206.604 271.871 206.569 271.916 206.553 271.946C206.521 271.857 206.488 271.768 206.455 271.679L206.433 271.695Z" fill="#168B9C"/>
<path d="M54.4005 187.708C54.3163 187.876 54.2322 188.043 54.1491 188.211L54.1699 188.227C54.254 188.059 54.3382 187.892 54.4213 187.724L54.4005 187.708Z" fill="#168B9C"/>
<path d="M38.6757 237.864C38.6168 237.825 38.5536 237.789 38.5012 237.743C38.4903 237.734 38.5176 237.686 38.5263 237.655C38.5699 237.731 38.6125 237.805 38.6561 237.881L38.6757 237.864Z" fill="#168B9C"/>
<path d="M153.284 187.714C153.111 187.632 152.94 187.552 152.767 187.47L152.75 187.49C152.922 187.57 153.095 187.652 153.268 187.733L153.284 187.714Z" fill="#168B9C"/>
<path d="M152.235 187.243C152.407 187.325 152.577 187.408 152.749 187.491L152.766 187.471C152.595 187.388 152.424 187.306 152.253 187.222L152.235 187.243Z" fill="#168B9C"/>
<path d="M152.253 187.224C152.177 187.221 152.099 187.224 152.024 187.212C151.989 187.207 151.958 187.176 151.925 187.156C151.983 187.128 152.06 187.064 152.095 187.081C152.155 187.108 152.189 187.186 152.235 187.244L152.253 187.224Z" fill="#168B9C"/>
<path d="M151.159 186.585C151.13 186.617 151.103 186.646 151.075 186.675C151.045 186.611 151.005 186.548 150.988 186.48C150.983 186.46 151.039 186.426 151.069 186.399C151.101 186.464 151.133 186.53 151.159 186.585Z" fill="#168B9C"/>
<path d="M133.912 185.295C133.999 185.338 134.087 185.383 134.175 185.427C134.139 185.436 134.084 185.464 134.071 185.453C134.016 185.4 133.975 185.336 133.929 185.276L133.912 185.295Z" fill="#168B9C"/>
<path d="M122.326 277.146V277.201L122.247 277.173L122.326 277.146Z" fill="#168B9C"/>
<path d="M133.4 185.047C133.57 185.13 133.741 185.212 133.911 185.295L133.929 185.277C133.758 185.194 133.588 185.11 133.417 185.027L133.4 185.047Z" fill="#168B9C"/>
<path d="M42.2791 241.484C42.2017 241.42 42.1755 241.399 42.1493 241.379C42.1798 241.366 42.2115 241.353 42.242 241.34C42.2507 241.37 42.2584 241.4 42.2791 241.484Z" fill="#168B9C"/>
<path d="M133.417 185.029C133.321 184.994 133.225 184.958 133.129 184.923C133.163 184.91 133.212 184.877 133.226 184.889C133.289 184.936 133.343 184.995 133.4 185.05L133.417 185.029Z" fill="#168B9C"/>
<path d="M132.453 184.42C132.442 184.446 132.429 184.494 132.421 184.493C132.386 184.491 132.352 184.473 132.317 184.461C132.328 184.435 132.341 184.386 132.35 184.386C132.385 184.39 132.418 184.407 132.453 184.42Z" fill="#168B9C"/>
<path d="M99.1506 278.78L99.1986 278.686L99.239 278.79L99.1506 278.78Z" fill="#168B9C"/>
<path d="M99.8466 279.727C99.7864 279.679 99.7055 279.64 99.6738 279.578C99.6574 279.547 99.7296 279.475 99.7624 279.421C99.7843 279.453 99.8192 279.484 99.8236 279.518C99.8324 279.593 99.8247 279.668 99.8236 279.744L99.8466 279.727Z" fill="#168B9C"/>
<path d="M134.248 243.351L134.152 243.373L134.163 243.304L134.248 243.351Z" fill="#168B9C"/>
<path d="M151.226 285.36C151.24 285.291 151.253 285.223 151.267 285.155C151.246 285.217 151.226 285.279 151.205 285.341L151.226 285.36Z" fill="#168B9C"/>
<path d="M129.922 177.235L129.936 177.314L129.878 177.3L129.922 177.235Z" fill="#168B9C"/>
<g opacity="0.75">
<path d="M351.453 57.1192C352.582 58.0614 352.761 59.4479 351.886 60.4139C351.004 61.3887 349.549 61.4122 348.431 60.4783C347.302 59.536 347.133 58.158 347.997 57.1836C348.88 56.2088 350.324 56.1769 351.453 57.1192Z" fill="#B9E1DD"/>
<path d="M331.862 40.7476C333.007 41.6724 333.231 43.0667 332.377 44.0497C331.515 45.0413 330.047 45.0994 328.922 44.1914C327.777 43.2666 327.563 41.8807 328.417 40.8977C329.277 39.8889 330.727 39.8312 331.862 40.7476Z" fill="#B9E1DD"/>
<path d="M312.341 24.4342C313.478 25.3677 313.667 26.7626 312.802 27.7371C311.93 28.7203 310.468 28.7526 309.341 27.8274C308.204 26.8939 308.018 25.5161 308.89 24.5329C309.77 23.5409 311.205 23.5006 312.341 24.4342Z" fill="#B9E1DD"/>
<path d="M389.823 109.611C388.694 108.668 388.507 107.291 389.39 106.316C390.272 105.341 391.717 105.309 392.846 106.251C393.975 107.193 394.153 108.58 393.278 109.546C392.414 110.521 390.949 110.536 389.823 109.611Z" fill="#B9E1DD"/>
<path d="M370.301 93.2967C369.164 92.3631 368.96 90.9857 369.822 89.994C370.702 89.002 372.144 88.953 373.271 89.8781C374.408 90.8117 374.622 92.1976 373.758 93.1722C372.896 94.1638 371.425 94.2048 370.301 93.2967Z" fill="#B9E1DD"/>
<path d="M353.782 73.5911C354.892 74.5337 355.063 75.9288 354.171 76.8952C353.286 77.8528 351.812 77.8595 350.701 76.917C349.58 75.9661 349.429 74.5878 350.322 73.6214C351.204 72.6466 352.66 72.6402 353.782 73.5911Z" fill="#B9E1DD"/>
<path d="M334.128 57.1677C335.281 58.0838 335.523 59.4778 334.697 60.4688C333.845 61.4689 332.389 61.5525 331.249 60.6619C330.096 59.7457 329.854 58.3518 330.69 57.3691C331.548 56.3433 332.985 56.26 334.128 57.1677Z" fill="#B9E1DD"/>
<path d="M314.617 40.863C315.754 41.7966 315.96 43.1911 315.104 44.1569C314.232 45.1401 312.772 45.1894 311.645 44.2643C310.508 43.3307 310.312 41.9446 311.176 40.9701C312.048 39.9869 313.49 39.9378 314.617 40.863Z" fill="#B9E1DD"/>
<path d="M372.557 109.709C371.436 108.758 371.267 107.38 372.16 106.414C373.042 105.439 374.489 105.424 375.618 106.366C376.747 107.308 376.907 108.695 376.025 109.67C375.14 110.628 373.676 110.643 372.557 109.709Z" fill="#B9E1DD"/>
<path d="M356.582 93.1928C355.752 94.2268 354.3 94.3447 353.147 93.4886C351.97 92.5985 351.682 91.1967 352.48 90.1974C353.31 89.1634 354.751 89.0371 355.897 89.9019C357.102 90.8001 357.38 92.1935 356.582 93.1928Z" fill="#B9E1DD"/>
<path d="M336.424 73.6138C337.576 74.53 337.827 75.9152 336.983 76.9064C336.131 77.9063 334.675 77.9899 333.535 77.0992C332.382 76.1831 332.14 74.7892 332.976 73.8067C333.844 72.7893 335.281 72.7061 336.424 73.6138Z" fill="#B9E1DD"/>
<path d="M316.986 57.3692C318.097 58.3117 318.25 59.7072 317.347 60.6653C316.463 61.6231 314.996 61.6212 313.875 60.6702C312.772 59.719 312.621 58.3406 313.514 57.3741C314.416 56.416 315.865 56.4182 316.986 57.3692Z" fill="#B9E1DD"/>
<path d="M355.313 109.826C354.184 108.884 354.008 107.515 354.88 106.531C355.762 105.557 357.207 105.525 358.336 106.467C359.465 107.409 359.643 108.796 358.769 109.762C357.894 110.728 356.432 110.76 355.313 109.826Z" fill="#B9E1DD"/>
<path d="M338.844 90.1623C339.947 91.1136 340.1 92.5091 339.197 93.4672C338.303 94.4165 336.836 94.4146 335.723 93.4549C334.62 92.5036 334.469 91.1252 335.38 90.1585C336.272 89.192 337.721 89.1942 338.844 90.1623Z" fill="#B9E1DD"/>
<path d="M319.212 73.7563C320.349 74.6899 320.555 76.0844 319.699 77.0502C318.827 78.0334 317.367 78.0827 316.24 77.1576C315.103 76.224 314.899 74.8466 315.771 73.8634C316.643 72.8802 318.085 72.8312 319.212 73.7563Z" fill="#B9E1DD"/>
<path d="M338.128 109.993C336.976 109.077 336.734 107.682 337.57 106.7C338.43 105.691 339.868 105.608 341 106.507C342.153 107.423 342.395 108.817 341.569 109.808C340.735 110.808 339.269 110.883 338.128 109.993Z" fill="#B9E1DD"/>
<path d="M321.497 90.1936C322.642 91.1185 322.867 92.5128 322.012 93.4957C321.15 94.4874 319.682 94.5455 318.557 93.6375C317.413 92.7126 317.198 91.3267 318.053 90.3437C318.913 89.3349 320.363 89.2771 321.497 90.1936Z" fill="#B9E1DD"/>
<path d="M323.877 106.709C324.98 107.66 325.14 109.047 324.238 110.005C323.343 110.954 321.876 110.952 320.773 110.001C319.67 109.05 319.52 107.671 320.412 106.705C321.307 105.756 322.764 105.749 323.877 106.709Z" fill="#B9E1DD"/>
<path d="M400.175 60.1546C399.046 59.2123 398.878 57.8343 399.768 56.8509C400.65 55.8761 402.097 55.8613 403.226 56.8036C404.355 57.7458 404.525 59.1409 403.641 60.0986C402.759 61.0733 401.294 61.0884 400.175 60.1546Z" fill="#B9E1DD"/>
<path d="M380.116 40.6426C380.946 39.6084 382.388 39.4821 383.534 40.3469C384.72 41.2453 384.998 42.6388 384.2 43.6381C383.378 44.6635 381.918 44.7901 380.772 43.9254C379.588 43.044 379.308 41.6334 380.116 40.6426Z" fill="#B9E1DD"/>
<path d="M364.083 24.0934C365.22 25.027 365.427 26.4216 364.57 27.3874C363.698 28.3706 362.238 28.42 361.111 27.4948C359.974 26.5612 359.77 25.1837 360.642 24.2005C361.514 23.2173 362.949 23.177 364.083 24.0934Z" fill="#B9E1DD"/>
<path d="M402.444 76.5762C401.34 75.6249 401.19 74.2467 402.082 73.2803C402.967 72.3227 404.424 72.3162 405.547 73.2843C406.65 74.2355 406.81 75.6222 405.908 76.5801C405.031 77.5291 403.565 77.5271 402.444 76.5762Z" fill="#B9E1DD"/>
<path d="M385.932 56.8781C387.069 57.8117 387.273 59.1892 386.419 60.1721C385.547 61.1554 384.097 61.2131 382.97 60.2879C381.833 59.3543 381.629 57.9768 382.491 56.9852C383.355 56.0106 384.797 55.9616 385.932 56.8781Z" fill="#B9E1DD"/>
<path d="M366.401 40.5559C367.537 41.4894 367.734 42.8755 366.852 43.8502C365.98 44.8333 364.517 44.8655 363.391 43.9404C362.254 43.0068 362.075 41.6204 362.939 40.646C363.829 39.6626 365.264 39.6223 366.401 40.5559Z" fill="#B9E1DD"/>
<path d="M346.869 24.2337C347.998 25.176 348.166 26.5541 347.284 27.529C346.402 28.5038 344.937 28.519 343.826 27.5763C342.697 26.634 342.529 25.2559 343.419 24.2724C344.303 23.3146 345.74 23.2914 346.869 24.2337Z" fill="#B9E1DD"/>
<path d="M404.8 93.0731C403.663 92.1395 403.477 90.7618 404.349 89.7786C405.221 88.7953 406.674 88.7547 407.8 89.6798C408.937 90.6134 409.126 92.0083 408.261 92.9828C407.387 93.9489 405.917 93.9898 404.8 93.0731Z" fill="#B9E1DD"/>
<path d="M385.249 76.734C384.112 75.8004 383.925 74.4227 384.798 73.4395C385.67 72.4563 387.122 72.4156 388.249 73.3408C389.386 74.2743 389.574 75.6691 388.71 76.6436C387.836 77.6097 386.365 77.6507 385.249 76.734Z" fill="#B9E1DD"/>
<path d="M368.638 56.9521C369.791 57.8682 370.033 59.2622 369.207 60.2533C368.355 61.2534 366.899 61.337 365.758 60.4464C364.598 59.5389 364.363 58.1362 365.2 57.1536C366.058 56.1277 367.488 56.053 368.638 56.9521Z" fill="#B9E1DD"/>
<path d="M349.157 40.6732C350.286 41.6154 350.464 43.0019 349.59 43.968C348.707 44.9429 347.253 44.9664 346.126 44.0413C344.997 43.099 344.811 41.7213 345.693 40.7464C346.583 39.7629 348.028 39.7309 349.157 40.6732Z" fill="#B9E1DD"/>
<path d="M329.595 24.3255C330.732 25.2591 330.92 26.6539 330.056 27.6285C329.183 28.6117 327.721 28.6439 326.594 27.7188C325.458 26.7852 325.279 25.3988 326.143 24.4242C327.023 23.4323 328.458 23.3919 329.595 24.3255Z" fill="#B9E1DD"/>
<path d="M407.087 109.511C405.95 108.577 405.772 107.191 406.636 106.216C407.508 105.233 408.961 105.192 410.08 106.126C411.216 107.059 411.405 108.454 410.54 109.429C409.684 110.395 408.214 110.436 407.087 109.511Z" fill="#B9E1DD"/>
<path d="M387.595 93.2223C386.435 92.3148 386.2 90.9121 387.037 89.9294C387.897 88.9206 389.334 88.8373 390.475 89.7279C391.627 90.6441 391.87 92.0381 391.043 93.0292C390.201 94.0377 388.735 94.1129 387.595 93.2223Z" fill="#B9E1DD"/>
<path d="M370.985 73.4407C372.121 74.3742 372.328 75.7688 371.463 76.7433C370.591 77.7265 369.131 77.7758 368.004 76.8507C366.868 75.9172 366.671 74.531 367.535 73.5566C368.405 72.5562 369.848 72.5072 370.985 73.4407Z" fill="#B9E1DD"/>
</g>
</svg>
