<svg xmlns="http://www.w3.org/2000/svg" viewBox="0 0 220 28.52">
  <g>
    <path d="M218.42,1.89a5.42,5.42,0,0,0-7.61,0l-2.67,2.64-2.68-2.64a5.42,5.42,0,0,0-7.61,0,5.28,5.28,0,0,0,0,7.52l2.68,2.65,7.61,7.53L218.42,9.41A5.28,5.28,0,0,0,218.42,1.89Z" fill="#ff5b00"/>
    <path d="M18.32,14.19c0,4-3.62,6-8.73,6C3.23,20.16.71,17.21,0,13.24H5.15c.39,2.28,1.77,3.09,4.33,3.09s3.7-.91,3.7-2.49c0-1.16-.57-2.07-2.85-2.07H7.07V7.9H9.8c2.13,0,2.77-.67,2.77-1.89s-.85-2.29-3.34-2.29c-1.74,0-3.3.49-3.69,2.5H.39C1,2.81,3.37,0,9.3,0c4.9,0,8.38,2,8.38,5.66a4,4,0,0,1-2.41,3.86A4.74,4.74,0,0,1,18.32,14.19Z" fill="#1d1d1b"/>
    <path d="M44.21,15v9.62H39.13V19.74H24.46v4.88H19.39V15h3.48c.67-.56,1.1-1.69,1.42-3.65L26.06.42h14.6V15Zm-8.63,0V5.16H30.4l-1.07,6.43A8.7,8.7,0,0,1,28.23,15Z" fill="#1d1d1b"/>
    <path d="M66.46,10.08c0,5.94-3.84,10.08-8.92,10.08a7.42,7.42,0,0,1-6.18-3V28.52H46.29V.42h5.07V3.13A7.41,7.41,0,0,1,57.54,0C62.55,0,66.46,4.11,66.46,10.08Zm-5.15,0c0-3.16-2.1-5.3-4.94-5.3a5,5,0,0,0-5,5.3,5,5,0,0,0,5,5.3C59.18,15.38,61.31,13.28,61.31,10.08Z" fill="#1d1d1b"/>
    <path d="M88.49.42l0,19.32H83.38v-2.6a7.27,7.27,0,0,1-6.11,3c-5.11,0-8.91-4.14-8.91-10.08S72.23,0,77.24,0a7.35,7.35,0,0,1,6.18,3.13V.42Zm-5.07,9.66a5,5,0,0,0-5-5.3c-2.84,0-4.94,2.14-4.94,5.3s2.13,5.3,4.94,5.3A5,5,0,0,0,83.42,10.08Z" fill="#1d1d1b"/>
    <path d="M108.38,14.16c0,4-3.09,5.58-7.1,5.58H91V.42h9.44c3.91,0,7,1,7,4.88,0,2-1.07,3.06-2.53,4A4.67,4.67,0,0,1,108.38,14.16ZM100,4.36H96V8.08H100c1.74,0,2.31-.63,2.31-1.83S101.71,4.36,100,4.36Zm3.26,9.34c0-1.37-.63-2-2.34-2H96v4.15h4.87C102.66,15.81,103.23,15.1,103.23,13.7Z" fill="#1d1d1b"/>
    <path d="M109.87,10.08A9.88,9.88,0,0,1,120.06,0c4.76,0,9,2.84,9.73,7.76h-5.22a4.41,4.41,0,0,0-4.51-3.12c-3.09,0-5.08,2.24-5,5.44s2,5.45,5,5.45a4.45,4.45,0,0,0,4.55-3.17h5.22c-.78,5.1-5.08,7.8-9.77,7.8A9.87,9.87,0,0,1,109.87,10.08Z" fill="#1d1d1b"/>
    <path d="M150.51.42V19.74h-5.08V12.89l.32-5.73-8.06,12.58h-5.86V.42h5.08V7.27l-.25,5.66,8-12.51Z" fill="#1d1d1b"/>
    <path d="M169.69,5.16h-6V19.74h-5.08V5.16h-6V.42h17.11V5.16Z" fill="#1d1d1b"/>
    <path d="M190.35.42V19.74h-5.08V12.89l.32-5.73-8.06,12.58h-5.86V.42h5.08V7.27l-.25,5.66,8-12.51Z" fill="#1d1d1b"/>
    <path d="M200.53,12.06l-2.68-2.65a5.28,5.28,0,0,1,0-7.52,5.42,5.42,0,0,1,7.61,0l2.68,2.64Z" fill="#ff8150"/>
  </g>
</svg>
