<svg width="385" height="143" viewBox="0 0 385 143" fill="none" xmlns="http://www.w3.org/2000/svg">
<path fill-rule="evenodd" clip-rule="evenodd" d="M344.372 48.9036C346.649 48.8386 348.99 48.741 351.233 49.1963C352.144 49.3588 353.282 49.9441 353.184 51.0496C353.217 60.3816 353.152 69.6811 353.217 79.013C353.282 81.7769 353.737 84.7358 355.59 86.8818C357.834 89.4181 361.866 89.7432 364.727 88.1174C367.361 86.5892 369.474 84.3456 371.393 82.0045C371.555 71.5995 371.393 61.162 371.49 50.7245C371.588 49.5864 372.921 49.2613 373.864 49.0987C376.563 48.741 379.327 48.741 382.025 49.0987C383.098 49.2288 384.627 49.7165 384.529 51.0496C384.529 66.5596 384.529 82.037 384.529 97.5469C384.627 98.5874 383.586 99.2052 382.676 99.3678C380.335 99.823 377.863 99.7905 375.49 99.4654C374.579 99.3028 373.376 98.9451 373.279 97.8721C373.214 96.0837 373.279 94.3279 373.279 92.5395C373.214 92.5395 373.084 92.507 373.019 92.4745C369.344 96.3764 364.695 99.7905 359.232 100.441C355.233 100.831 350.941 100.376 347.494 98.1972C344.893 96.604 342.942 94.0678 341.771 91.2715C340.438 88.0199 340.113 84.4757 340.015 80.9965C339.983 71.1443 340.015 61.292 339.983 51.4073C339.95 50.7895 340.048 50.0417 340.666 49.7165C341.804 49.0337 343.137 49.0012 344.372 48.9036ZM323.79 50.3343C326.456 48.8061 329.773 48.806 332.667 49.6189C333.48 49.8465 334.488 50.1717 334.715 51.1147C335.138 52.6754 335.04 54.3012 335.105 55.927C335.073 57.8779 335.171 59.8939 334.52 61.7798C334.195 62.6902 333.024 62.6902 332.244 62.3651C330.131 61.6172 327.757 60.9344 325.611 61.9424C322.75 63.2755 320.831 65.9418 319.075 68.4455C318.75 68.9982 318.197 69.486 318.295 70.2013C318.295 79.6309 318.295 89.0604 318.295 98.5224C318.425 99.3353 317.775 100.018 317.059 100.246C315.466 100.766 313.743 100.766 312.084 100.831C310.199 100.798 308.28 100.831 306.459 100.278C305.679 100.051 305.029 99.3678 305.159 98.5224C305.159 83.0125 305.159 67.535 305.159 52.0251C305.094 50.9846 306.167 50.4644 307.045 50.3018C309.256 49.8791 311.532 49.9441 313.743 50.1392C314.751 50.2693 316.084 50.5619 316.344 51.6999C316.442 53.7159 316.344 55.7319 316.376 57.7804C318.523 54.984 320.701 52.0901 323.79 50.3343ZM286.104 85.2886C288.771 84.8984 291.632 84.8008 294.136 85.8738C296.217 86.8168 296.705 89.3205 296.867 91.369C296.965 93.7751 296.997 96.3439 295.892 98.5549C294.884 100.441 292.575 100.929 290.624 101.091C288.283 101.189 285.714 101.221 283.633 99.9531C281.91 98.7825 281.585 96.4739 281.422 94.5555C281.325 92.2469 281.325 89.7757 282.365 87.6297C283.081 86.2315 284.641 85.5487 286.104 85.2886Z" fill="#E31E24"/>
<path fill-rule="evenodd" clip-rule="evenodd" d="M187.192 28.3212C186.217 28.5163 184.949 28.7764 184.656 29.9145C184.526 31.4427 184.656 32.9709 184.624 34.4667C184.624 55.9269 184.624 77.3872 184.624 98.8475C184.526 99.5304 184.981 100.213 185.599 100.441C187.03 101.026 188.623 101.059 190.151 101.124C192.232 101.124 194.346 101.189 196.362 100.603C197.175 100.408 197.922 99.7255 197.792 98.8475C197.792 90.7186 197.825 82.5897 197.792 74.4283C203.222 82.7523 208.425 91.2389 213.79 99.6279C214.635 100.733 216.164 100.831 217.464 100.994C219.968 101.189 222.504 101.189 224.975 100.929C225.918 100.766 227.056 100.733 227.707 99.9531C228.39 98.6199 227.479 97.1567 226.829 96.0187C221.561 87.8247 216.294 79.6633 210.994 71.5019C215.448 66.332 220.033 61.227 224.52 56.0895C225.463 54.9515 226.341 53.5533 226.146 52.0251C225.918 51.0821 224.845 50.7895 224.032 50.6269C221.659 50.2042 219.22 50.2692 216.847 50.3668C215.221 50.4969 213.367 50.6269 212.229 51.895C207.384 58.2681 202.67 64.8037 197.825 71.1768C197.857 57.5202 197.857 43.8637 197.825 30.2071C197.792 28.8089 196.232 28.4513 195.126 28.2887C192.46 27.8985 189.794 27.8985 187.192 28.3212ZM108.049 38.271C107.106 38.4336 105.773 38.8238 105.643 39.9618C105.546 43.506 105.676 47.0827 105.578 50.6269C103.627 50.6269 101.709 50.5619 99.7578 50.6269C98.7498 50.757 98.3922 51.83 98.2296 52.6754C97.9044 54.8214 97.8719 57 98.2296 59.146C98.4247 60.0564 98.9124 61.292 100.05 61.2595C101.871 61.292 103.725 61.292 105.546 61.227C105.676 67.8927 105.578 74.5909 105.611 81.2566C105.611 86.0364 105.383 91.0763 107.627 95.4334C109.187 98.5549 112.341 100.603 115.723 101.319C119.56 102.099 123.592 102.034 127.364 100.961C128.599 100.603 130.062 100.051 130.453 98.685C131.135 96.4089 131.038 94.0027 130.778 91.6616C130.615 90.9137 130.615 89.7432 129.672 89.5806C128.404 89.6456 127.331 90.426 126.095 90.5886C124.145 90.9137 121.706 90.9137 120.275 89.288C118.942 87.5646 118.747 85.256 118.714 83.175C118.714 75.859 118.682 68.5105 118.747 61.1945C122.226 61.1945 125.705 61.2595 129.184 61.1945C130.615 60.8368 130.745 59.0484 130.875 57.8128C130.973 55.8619 131.07 53.8459 130.55 51.96C130.355 51.2447 129.802 50.5294 128.989 50.5619C125.575 50.5294 122.129 50.5619 118.714 50.5294C118.714 46.9852 118.747 43.4735 118.682 39.9293C118.552 38.6612 117.089 38.336 116.048 38.1409C113.447 37.9133 110.716 37.9133 108.049 38.271ZM6.79574 52.7079C5.49511 53.3582 4.06442 54.0411 3.25153 55.3092C2.43864 56.6423 2.5687 58.3006 2.60122 59.8288C2.73128 61.227 2.86134 62.9178 4.06442 63.8608C5.13743 64.446 6.34051 63.7632 7.31598 63.2755C11.478 61.0969 16.0302 59.3086 20.81 59.4386C23.4437 59.4386 26.5977 59.7638 28.256 62.1049C30.0444 64.6736 29.6867 67.9902 29.7192 70.9817C24.9394 70.9817 20.1271 70.9167 15.3799 71.7295C10.8602 72.5099 6.14542 74.0707 3.08895 77.6474C0.35764 80.7689 -0.32518 85.1585 0.130039 89.1579C0.48771 92.9297 2.43864 96.604 5.56014 98.815C9.72213 101.806 15.1522 102.457 20.1271 101.806C24.6143 101.254 28.6137 98.75 31.7677 95.596C31.7677 96.8966 31.7027 98.2297 31.8002 99.5304C31.8978 100.636 33.1659 100.896 34.0763 101.026C36.2549 101.221 38.4334 101.254 40.612 100.961C41.5224 100.831 42.7255 100.343 42.6604 99.2052C42.693 88.5726 42.6604 77.94 42.6604 67.3399C42.5629 63.308 41.9776 59.081 39.5715 55.7319C37.2303 52.5128 33.3935 50.822 29.5892 50.1067C21.9155 48.676 13.8516 49.4564 6.79574 52.7079ZM16.0627 80.7689C12.616 82.4597 11.8357 87.4996 14.1443 90.426C15.9651 92.6371 19.1191 92.9622 21.7854 92.507C25.037 91.8892 27.5407 89.5156 29.6867 87.1419C29.6867 84.4756 29.6867 81.8419 29.6867 79.1756C25.1345 79.3382 20.2897 78.6554 16.0627 80.7689ZM74.4282 49.8791C69.4533 50.9521 65.4864 54.3662 61.9747 57.8454C61.9422 55.927 62.0397 53.976 61.9422 52.0251C61.7796 51.0171 60.6416 50.6919 59.7962 50.5294C57.5526 50.2042 55.244 50.2042 53.0004 50.5294C52.0575 50.6594 50.8219 51.2122 50.8544 52.3502C50.8219 74.0381 50.8544 95.6935 50.8544 117.381C50.7893 118.097 51.2771 118.78 51.9274 119.072C53.4881 119.723 55.2115 119.755 56.8698 119.788C58.7882 119.788 60.7716 119.82 62.625 119.202C63.4054 118.975 64.1207 118.259 64.0232 117.381C64.0557 110.13 63.9907 102.847 64.0557 95.596C67.0146 98.5224 70.5588 101.221 74.7859 101.806C79.9233 102.489 85.4835 101.351 89.5154 97.9696C93.84 94.4254 96.0511 88.9628 97.059 83.5652C98.1321 77.3872 98.067 70.9492 96.6688 64.8037C95.5633 60.0564 93.2222 55.3742 89.2228 52.4803C84.9957 49.3913 79.4031 48.8711 74.4282 49.8791ZM71.6644 61.292C68.738 62.4951 66.5919 64.8687 64.641 67.2749C64.3483 67.6651 63.8931 68.0228 63.9907 68.5755C63.9907 73.5504 63.9907 78.5578 63.9907 83.5327C65.8115 85.7438 67.6974 87.9223 70.1036 89.4831C72.2496 90.9137 75.111 91.2389 77.5172 90.2309C79.8583 89.2229 81.4841 87.0444 82.427 84.7358C84.2479 80.3462 84.2804 75.4363 83.6951 70.8191C83.2724 67.7626 82.2644 64.5436 79.8908 62.4301C77.7448 60.4141 74.3631 60.1865 71.6644 61.292ZM139.167 56.6098C135.102 61.227 133.346 67.4375 132.989 73.4854C132.729 78.5578 133.054 83.7603 134.777 88.6051C136.208 92.6696 138.972 96.3113 142.711 98.5224C147.491 101.384 153.181 102.067 158.644 102.002C162.806 101.937 166.968 101.286 170.999 100.181C172.463 99.7255 173.926 99.3028 175.227 98.4899C176.332 97.677 176.397 96.2138 176.462 94.9782C176.495 93.4174 176.592 91.8242 176.3 90.2634C176.202 89.5481 175.649 88.8327 174.869 88.9303C173.568 88.9628 172.43 89.6131 171.227 90.0033C166.577 91.6616 161.602 92.4745 156.66 92.0193C153.734 91.7266 150.677 90.5886 148.824 88.1824C146.808 85.6462 146.288 82.2646 146.255 79.1106C155.685 79.1106 165.114 79.1106 174.544 79.1106C175.519 79.1106 176.56 78.9155 177.308 78.2327C178.185 77.4848 178.543 76.3142 178.641 75.1762C178.803 71.2093 178.608 67.2099 177.47 63.4055C176.235 58.9834 173.438 54.9515 169.471 52.6104C164.984 49.814 159.554 49.2287 154.384 49.5539C148.661 49.8465 142.971 52.2527 139.167 56.6098ZM148.661 62.5276C147.003 64.8687 146.418 67.7626 146.255 70.559C152.823 70.559 159.359 70.559 165.927 70.559C166.025 67.3399 165.504 63.8283 163.261 61.3246C161.31 59.146 158.188 58.5282 155.36 58.7558C152.726 58.9184 150.19 60.3491 148.661 62.5276ZM237.331 51.7324C235.478 52.4478 233.56 53.1956 232.096 54.5613C230.666 55.9269 230.796 58.0405 230.861 59.8613C230.958 61.1945 231.121 62.7227 232.129 63.7307C233.104 64.5111 234.437 63.8608 235.38 63.373C239.607 61.162 244.192 59.3086 249.037 59.4386C251.638 59.4386 254.662 59.7313 256.385 61.9423C258.304 64.5111 257.946 67.9252 257.979 70.9817C250.825 70.9817 243.314 70.8191 236.616 73.778C233.56 75.1437 230.828 77.4848 229.495 80.6063C228.162 83.6628 228.032 87.1419 228.617 90.3935C229.202 93.7101 231.088 96.7991 233.82 98.7825C236.714 100.896 240.29 101.806 243.802 102.002C247.639 102.229 251.573 101.546 254.922 99.5629C256.841 98.5224 258.466 97.0592 260.027 95.5635C260.027 96.8641 259.962 98.1972 260.06 99.4979C260.157 100.636 261.458 100.896 262.368 101.026C264.514 101.221 266.725 101.254 268.871 100.961C269.782 100.831 270.985 100.343 270.92 99.2052C270.952 88.5726 270.92 77.94 270.92 67.3399C270.822 63.3405 270.237 59.081 267.831 55.7319C265.49 52.5128 261.653 50.822 257.849 50.1067C250.988 48.806 243.834 49.3263 237.331 51.7324ZM247.996 79.5658C245.558 79.9885 242.859 81.029 241.721 83.4026C240.583 85.9714 240.908 89.4831 243.249 91.2389C245.265 92.7997 248.061 92.8972 250.435 92.3769C253.492 91.6291 255.865 89.3855 257.914 87.1094C257.914 84.4431 257.914 81.8094 257.914 79.1431C254.63 79.2406 251.281 79.013 247.996 79.5658Z" fill="#0B64A8"/>
</svg>
