<svg width="136" height="166" viewBox="0 0 136 166" fill="none" xmlns="http://www.w3.org/2000/svg">
<g opacity="0.2">
<path d="M38.9924 63.5707C37.7243 64.6488 37.6076 66.1229 38.7045 67.0745C39.8114 68.0347 41.529 67.9495 42.7858 66.881C44.0539 65.8029 44.1592 64.3385 43.0736 63.3772C41.9668 62.417 40.2605 62.4926 38.9924 63.5707Z" fill="#9BB0AE"/>
<path d="M60.8164 45.0183C59.5284 46.0793 59.3581 47.5653 60.4326 48.5363C61.5169 49.5159 63.2529 49.4661 64.5182 48.4244C65.8061 47.3634 65.9651 45.887 64.8907 44.9159C63.8078 43.9181 62.0929 43.9669 60.8164 45.0183Z" fill="#9BB0AE"/>
<path d="M82.5588 26.5318C81.2807 27.6014 81.1528 29.0852 82.2385 30.0466C83.3341 31.0166 85.0617 30.9399 86.3284 29.88C87.6064 28.8104 87.7329 27.3447 86.6373 26.3748C85.5318 25.3963 83.8368 25.4622 82.5588 26.5318Z" fill="#9BB0AE"/>
<path d="M-2.15824 121.411C-0.890097 120.333 -0.763695 118.867 -1.87073 117.907C-2.97777 116.946 -4.68422 117.022 -5.95237 118.1C-7.22051 119.178 -7.33703 120.652 -6.23988 121.604C-5.15404 122.566 -3.42495 122.471 -2.15824 121.411Z" fill="#9BB0AE"/>
<path d="M19.5871 102.924C20.8651 101.854 21.0128 100.388 19.9285 99.4081C18.8231 98.4296 17.1182 98.487 15.8515 99.5469C14.5735 100.616 14.4145 102.093 15.5002 103.054C16.5844 104.034 18.3219 103.966 19.5871 102.924Z" fill="#9BB0AE"/>
<path d="M37.5589 81.091C36.312 82.1681 36.2052 83.651 37.3235 84.6017C38.4318 85.5438 40.1721 85.4393 41.4191 84.3622C42.6773 83.2755 42.7614 81.8119 41.6432 80.8612C40.5363 79.9009 38.8171 80.0043 37.5589 81.091Z" fill="#9BB0AE"/>
<path d="M59.4521 62.4786C58.1544 63.531 57.9628 65.0181 59.0047 65.9997C60.0776 66.9889 61.8009 66.9669 63.0859 65.9423C64.3836 64.8899 64.5752 63.4029 63.522 62.4309C62.4406 61.4149 60.7386 61.4359 59.4521 62.4786Z" fill="#9BB0AE"/>
<path d="M81.1844 44.0027C79.9064 45.0722 79.7572 46.5571 80.833 47.5099C81.9285 48.4798 83.6546 48.4213 84.9213 47.3614C86.1994 46.2918 86.3372 44.8166 85.2515 43.8552C84.156 42.8853 82.4511 42.9427 81.1844 44.0027Z" fill="#9BB0AE"/>
<path d="M18.2346 120.376C19.4928 119.289 19.598 117.824 18.4797 116.874C17.3728 115.913 15.665 116.007 14.3968 117.085C13.1287 118.163 13.0334 119.636 14.1404 120.597C15.2488 121.539 16.9778 121.444 18.2346 120.376Z" fill="#9BB0AE"/>
<path d="M35.7808 101.944C36.8297 102.971 38.5501 102.985 39.8534 101.996C41.1808 100.969 41.4261 99.4706 40.4167 98.4782C39.3678 97.4515 37.6587 97.4275 36.3653 98.4253C35.0053 99.4626 34.7714 100.952 35.7808 101.944Z" fill="#9BB0AE"/>
<path d="M58.0551 79.9695C56.7574 81.0219 56.5559 82.5002 57.6188 83.4808C58.6916 84.4699 60.4148 84.4477 61.6998 83.4232C62.9976 82.3708 63.1892 80.8838 62.1362 79.9119C61.0436 78.9056 59.3416 78.9267 58.0551 79.9695Z" fill="#9BB0AE"/>
<path d="M79.7033 61.562C78.4564 62.6391 78.371 64.1209 79.5006 65.062C80.6091 66.0042 82.3396 65.8913 83.5978 64.8046C84.8349 63.7189 84.9189 62.2553 83.8005 61.3045C82.6708 60.3634 80.9616 60.4753 79.7033 61.562Z" fill="#9BB0AE"/>
<path d="M38.601 119.362C39.8692 118.284 39.9844 116.828 38.8889 115.858C37.7821 114.898 36.0758 114.973 34.8077 116.052C33.5395 117.13 33.4229 118.604 34.5198 119.556C35.6168 120.507 37.3442 120.431 38.601 119.362Z" fill="#9BB0AE"/>
<path d="M56.5171 97.5766C55.28 98.6623 55.1945 100.144 56.3241 101.085C57.4439 102.018 59.1743 101.905 60.4227 100.809C61.6598 99.7238 61.7438 98.2601 60.6043 97.3104C59.486 96.3597 57.7768 96.4716 56.5171 97.5766Z" fill="#9BB0AE"/>
<path d="M78.3854 78.9848C77.1074 80.0544 76.9582 81.5393 78.034 82.4921C79.1296 83.462 80.8556 83.4035 82.1223 82.3436C83.4004 81.274 83.5481 79.8073 82.4525 78.8374C81.357 77.8675 79.6521 77.9249 78.3854 78.9848Z" fill="#9BB0AE"/>
<path d="M58.902 118.405C60.1998 117.353 60.3913 115.866 59.338 114.893C58.2551 113.896 56.553 113.917 55.2779 114.95C53.9801 116.002 53.7886 117.489 54.8305 118.471C55.8823 119.461 57.6169 119.43 58.902 118.405Z" fill="#9BB0AE"/>
<path d="M76.9998 96.4648C75.7119 97.5258 75.5416 99.0118 76.616 99.9828C77.7004 100.962 79.4364 100.913 80.7017 99.8709C81.9896 98.8099 82.1486 97.3335 81.0741 96.3625C79.9913 95.3647 78.2764 95.4135 76.9998 96.4648Z" fill="#9BB0AE"/>
<path d="M75.5092 114.035C74.2721 115.12 74.1768 116.593 75.3064 117.535C76.4261 118.467 78.1565 118.354 79.3935 117.268C80.6306 116.183 80.7146 114.719 79.5964 113.769C78.4767 112.836 76.7576 112.939 75.5092 114.035Z" fill="#9BB0AE"/>
<path d="M3.83201 48.0556C2.78299 47.0288 1.07382 47.0047 -0.219662 48.0025C-1.55844 49.0388 -1.79228 50.528 -0.78279 51.5205C0.256351 52.5387 1.98672 52.5617 3.28021 51.5639C4.61754 50.5459 4.85282 49.0385 3.83201 48.0556Z" fill="#9BB0AE"/>
<path d="M21.4447 29.5852C20.1667 30.6547 20.0175 32.1396 21.0933 33.0924C22.1889 34.0623 23.915 34.0039 25.1817 32.9439C26.4597 31.8744 26.6074 30.4077 25.5119 29.4377C24.4163 28.4678 22.7213 28.5338 21.4447 29.5852Z" fill="#9BB0AE"/>
<path d="M-1.73212 65.5904C-3.01015 66.6599 -3.15786 68.1265 -2.08352 69.0975C-0.987961 70.0674 0.726806 70.0185 1.99351 68.9586C3.27153 67.8891 3.41925 66.4224 2.33502 65.4429C1.24935 64.4816 -0.455537 64.539 -1.73212 65.5904Z" fill="#9BB0AE"/>
<path d="M20.0229 47.0942C18.7449 48.1637 18.607 49.639 19.7138 50.5992C20.8093 51.569 22.5368 51.4923 23.8035 50.4324C25.0815 49.3628 25.1982 47.8886 24.1126 46.9274C22.9959 45.9586 21.301 46.0246 20.0229 47.0942Z" fill="#9BB0AE"/>
<path d="M41.7801 28.5981C40.5119 29.6762 40.4066 31.1408 41.5135 32.1011C42.6204 33.0614 44.3494 32.9665 45.5964 31.8895C46.8645 30.8113 46.9698 29.3467 45.853 28.3779C44.7447 27.4358 43.0482 27.5199 41.7801 28.5981Z" fill="#9BB0AE"/>
<path d="M0.616476 86.4479C1.8945 85.3784 2.02099 83.9127 0.925406 82.9428C-0.170183 81.9729 -1.88642 82.0399 -3.15312 83.0998C-4.43115 84.1693 -4.55908 85.6532 -3.47338 86.6145C-2.37635 87.5663 -0.638906 87.4982 0.616476 86.4479Z" fill="#9BB0AE"/>
<path d="M18.6912 64.5275C17.3935 65.5799 17.2019 67.0669 18.2438 68.0486C19.3168 69.0378 21.0401 69.0158 22.3251 67.9912C23.6328 66.9474 23.8144 65.4518 22.7612 64.4797C21.6798 63.4637 19.9876 63.4933 18.6912 64.5275Z" fill="#9BB0AE"/>
<path d="M40.3915 46.0806C39.1234 47.1587 39.0068 48.633 40.1039 49.5848C41.2109 50.5452 42.9286 50.46 44.1953 49.4001C45.4634 48.3219 45.5899 46.8562 44.4829 45.8958C43.3661 44.9269 41.6597 45.0024 40.3915 46.0806Z" fill="#9BB0AE"/>
<path d="M62.1817 27.5552C60.9036 28.6248 60.7757 30.1087 61.8614 31.0701C62.957 32.04 64.6846 31.9634 65.9513 30.9034C67.2293 29.8339 67.3459 28.3596 66.2602 27.3982C65.1547 26.4197 63.4597 26.4857 62.1817 27.5552Z" fill="#9BB0AE"/>
<path d="M-0.837638 103.987C0.470023 102.943 0.651644 101.447 -0.401575 100.475C-1.48444 99.4774 -3.1865 99.4984 -4.47151 100.523C-5.76929 101.575 -5.96079 103.062 -4.9189 104.044C-3.85723 105.043 -2.12265 105.011 -0.837638 103.987Z" fill="#9BB0AE"/>
<path d="M17.2369 82.0664C15.9589 83.136 15.8097 84.6209 16.8954 85.5822C17.991 86.5522 19.7171 86.4937 20.9838 85.4338C22.2618 84.3643 22.3996 82.889 21.3139 81.9276C20.2198 80.9395 18.5149 80.9969 17.2369 82.0664Z" fill="#9BB0AE"/>
</g>
</svg>
