<svg width="191" height="235" viewBox="0 0 191 235" fill="none" xmlns="http://www.w3.org/2000/svg">
<g clip-path="url(#clip0_3_1640)">
<path d="M185.66 107.82C185.72 107.75 185.77 107.67 185.82 107.6C185.87 107.53 185.82 107.51 185.82 107.51C186.53 105.65 188.03 100.51 185.15 95.79C185.24 95.56 185.32 95.34 185.4 95.11C185.48 94.88 185.4 94.99 185.31 95.01C186 93.33 187.36 88.17 181.99 81.58L182.23 81.18C182.24 81.169 182.245 81.1547 182.245 81.14C182.245 81.1252 182.24 81.111 182.23 81.1C183.05 79.75 185.03 75.24 180.53 67.95C180.68 67.7229 180.813 67.4857 180.93 67.24C180.93 67.16 180.93 67.14 180.83 67.17C181.58 65.28 183.09 59.81 179.46 52.66C179.55 52.51 179.66 52.37 179.76 52.21C179.86 52.05 179.69 52.06 179.62 52.15C179.55 52.24 179.45 52.37 179.36 52.47C179.358 52.4434 179.358 52.4166 179.36 52.39C179.36 52.39 182.68 49.77 180.36 43.57L180.6 43.32C182.097 41.4121 182.777 38.9883 182.49 36.58C182.49 36.58 182.49 36.52 182.49 36.49V36.06C182.49 36.06 182.49 36 182.49 35.97C182.49 35.94 182.49 35.67 182.44 35.52C182.39 35.37 182.44 35.37 182.44 35.3C182.44 35.23 182.44 35.07 182.39 34.96L182.27 34.4C182.614 34.2902 182.948 34.1531 183.27 33.99C183.36 33.99 183.41 33.77 183.27 33.82L183.62 33.57C183.82 33.43 184.03 33.27 184.26 33.08L184.46 32.9L184.52 32.85L184.72 32.67C186.645 30.8893 187.824 28.4452 188.02 25.83C188.02 25.64 188.02 25.45 188.02 25.26V24.58C188.02 24.48 188.02 24.38 188.02 24.28V23.78C188.02 23.72 188.02 23.65 188.02 23.59C188.02 23.35 188.02 23.12 187.93 22.88C187.935 22.7967 187.935 22.7133 187.93 22.63C187.93 22.45 187.87 22.27 187.83 22.08C187.79 21.89 187.83 21.92 187.78 21.83C187.78 21.57 187.66 21.3 187.59 21.03C187.59 21.03 192.68 8.02999 185.59 4.34999C184.077 3.51671 182.411 2.99851 180.692 2.82664C178.974 2.65478 177.238 2.83281 175.59 3.34999C174.15 3.85314 172.612 4.01071 171.1 3.80999C167.39 2.94999 163.1 -0.770012 157.71 0.949988C152.32 2.66999 152 7.82999 152 9.54999C152 9.54999 144.31 12.41 145.45 18.72C143.41 19.2304 141.577 20.3565 140.199 21.9453C138.821 23.534 137.966 25.5083 137.75 27.6C137.75 27.6 130.06 28.46 129.49 37.35C129.49 37.35 119.49 37.92 118.38 45.66C118.38 45.66 109.25 43.08 104.38 46.24C104.38 46.24 92.38 44.24 87.28 49.1C85.4813 47.2264 83.1681 45.9274 80.6321 45.3668C78.0961 44.8062 75.4508 45.0091 73.03 45.95C73.03 45.95 66.47 40.79 60.49 42.8C60.49 42.8 58.49 37.07 47.94 38.5C47.94 38.5 45.38 33.91 35.69 35.63C35.69 35.63 29.13 31.63 23.69 38.78H23.25C21.46 38.66 14.6 38.57 11.15 44.27C7.15001 50.86 10.58 55.45 10.58 55.45C10.58 55.45 6.3 56.88 7.44 62.33C7.44 62.33 3.68001 65.85 4.51001 72.63C4.50268 72.6402 4.49874 72.6524 4.49874 72.665C4.49874 72.6776 4.50268 72.6898 4.51001 72.7C4.50626 72.7366 4.50626 72.7734 4.51001 72.81C4.51001 72.95 4.51001 73.08 4.56001 73.22C4.61001 73.36 2.23001 75.84 2.76001 83.3C2.76001 83.3 2.67001 83.35 2.68001 83.38L2.80001 83.84C2.80001 84.02 2.8 84.21 2.85 84.4C1.04109 87.2829 0.129204 90.6381 0.230006 94.04C0.258578 94.7113 0.335443 95.3797 0.460005 96.04C0.460005 96.11 0.460005 96.19 0.460005 96.27C0.460005 96.35 0.460007 96.48 0.540007 96.59C0.620007 96.7 0.590007 96.81 0.610007 96.91L0.690005 97.2L0.810007 97.6C0.810007 97.6 0.810007 97.7 0.810007 97.75C0.720007 97.58 0.620007 97.4 0.540007 97.22C0.460007 97.04 0.440005 97.22 0.460005 97.28C0.595009 97.7179 0.783073 98.1377 1.02001 98.53C0.750007 99.1 -0.849995 103 1.62001 112.05C1.70001 112.36 1.79001 112.68 1.89001 113C0.603562 115.126 -0.012922 117.59 0.120852 120.071C0.254626 122.552 1.13246 124.935 2.64001 126.91L2.78 127.06C3.12194 127.539 3.48913 128 3.88001 128.44C3.88001 128.44 0.0800018 147.34 16.95 150.59C16.95 150.59 16.95 150.64 16.95 150.65C17.3379 150.738 17.7328 150.791 18.13 150.81C18.26 151.24 22.28 164.14 38 160.97C38.2202 160.947 38.4379 160.903 38.65 160.84C38.8 161.22 43.22 171.84 59.45 165.7C75.98 159.4 67.45 132.16 57.17 116.97C46.89 101.78 25.45 87.96 28.58 78.24C31.71 68.52 47.11 67.64 53.38 68.24C59.65 68.84 125.2 71.11 142.02 62.79C158.84 54.47 160.15 103.5 154.17 116.68C151.84 121.8 148.6 138.8 150.83 144.68C151.52 146.48 145.53 148.68 145.05 150.08C141.7 160.35 138.65 160.76 131.47 161.37C126.23 161.82 120.65 159.6 115.34 157.37C107.08 153.91 99.5 150.44 94.99 157.07C87.58 167.97 84.44 183.44 84.44 183.44C84.44 183.44 81.02 192.9 85.02 201.5C85.16 201.8 85.29 202.09 85.43 202.37L85.55 202.61L85.84 203.2L85.96 203.43C86.08 203.65 86.19 203.87 86.31 204.08V204.16L86.7 204.85L86.78 204.99L87.08 205.49L87.16 205.64L87.5 206.17C87.7533 206.557 87.9933 206.917 88.22 207.25C90.16 209.98 91.48 210.71 92 212.69C92.2625 213.942 92.33 215.227 92.2 216.5C91.8794 221.862 92.7149 227.229 94.65 232.24C95.3 234.18 98.13 235 100.8 234.72C101.73 234.63 102.639 234.387 103.49 234H103.56L103.8 233.88L103.92 233.81L104.12 233.69L104.26 233.6L104.43 233.48L104.58 233.37L104.73 233.25C104.781 233.212 104.828 233.168 104.87 233.12L105 233L105.14 232.85L105.25 232.73L105.38 232.55L105.46 232.43C105.509 232.369 105.55 232.302 105.58 232.23C105.604 232.196 105.624 232.159 105.64 232.12C105.698 232.014 105.748 231.904 105.79 231.79C107.236 227.083 107.642 222.119 106.98 217.24C106.27 213.66 115.28 204.12 114.09 191.72C114.09 191.72 123.09 205.07 136.38 197.72C136.38 197.72 154.38 202.97 157.49 185.55C157.451 185.836 157.398 186.12 157.33 186.4C157.33 186.5 157.45 186.4 157.47 186.4C157.557 186.134 157.631 185.864 157.69 185.59C159.23 185.65 168.19 185.35 168.84 170.31C168.84 170.31 176.91 170.07 175.01 156C175.08 156.18 175.15 156.36 175.21 156.54C175.27 156.72 175.38 156.54 175.36 156.45C175.34 156.36 175.27 156.06 175.22 155.87C176.29 155.16 181.13 151.43 179.31 143.01C179.31 143.01 179.4 143.01 179.39 142.94V142.85C180.19 142.54 186.63 139.67 184.46 128.91C184.51 128.91 184.57 128.83 184.55 128.78C184.488 128.542 184.412 128.308 184.32 128.08C184.88 127.78 192.56 123.47 185.48 108.3C185.48 108.24 185.55 108.09 185.66 107.82Z" fill="#F7A5AA"/>
<g style="mix-blend-mode:multiply" opacity="0.51">
<path d="M175.86 118.33C174.126 115.235 171.409 112.807 168.14 111.43C168.76 110.43 173.04 103.49 170.22 98.52C169.916 97.9566 169.539 97.4355 169.1 96.97C171.33 95.0222 172.927 92.4533 173.688 89.5921C174.449 86.731 174.338 83.7079 173.37 80.91C173.035 79.8315 172.6 78.7869 172.07 77.79C170.5 74.79 168.8 74.33 168.19 74.25C171.364 69.7172 172.612 64.1111 171.66 58.66C171.338 56.6359 170.683 54.6794 169.72 52.87C167.417 48.6112 163.576 45.3921 158.98 43.87C158.98 43.87 140.93 60.01 91.39 58.46C41.85 56.91 26.45 54.75 26.45 54.75C25.7802 56.9696 25.566 59.3017 25.8203 61.6062C26.0746 63.9106 26.7922 66.1399 27.93 68.16C28.1 68.48 28.28 68.81 28.48 69.16C28.48 69.16 28.43 69.21 28.48 69.23C28.68 69.53 28.88 69.81 29.09 70.09L29.24 70.31C28.86 70.46 17.87 74.87 19.16 88.25C19.3356 90.6902 19.9986 93.0705 21.11 95.25C21.9083 96.9354 23.191 98.3446 24.7941 99.2976C26.3972 100.251 28.248 100.704 30.11 100.6H30.24C29.58 102.04 26.34 109.88 30.5 116.18C31.0783 117.1 31.7742 117.94 32.57 118.68C40.15 125.79 50.06 124.86 50.06 124.86C50.06 124.86 54.91 124.52 56.84 127.95C58 130.2 57.93 134 54.68 140.37C50.83 147.89 49.48 153.17 51.22 160.46C51.5388 161.846 52.0222 163.189 52.66 164.46C52.9995 165.136 53.3906 165.784 53.83 166.4H54.77C55.7811 166.448 56.7935 166.337 57.77 166.07C60.11 165.32 61.77 163.18 64.19 162.65C64.9067 162.467 65.6554 162.447 66.3807 162.592C67.1061 162.738 67.7894 163.045 68.38 163.49C69.5069 164.475 70.3639 165.731 70.87 167.14C71.4889 168.718 71.9935 170.339 72.38 171.99C72.7091 173.469 73.1231 174.928 73.62 176.36C74.41 178.41 76.16 179.59 77.97 180.67C78.9058 181.194 79.7868 181.811 80.6 182.51C81.4794 183.209 82.102 184.179 82.37 185.27C82.3678 186.239 82.2808 187.206 82.11 188.16C82.0911 189.396 82.2085 190.63 82.46 191.84C82.55 192.3 82.64 192.75 82.75 193.2C93.08 192.09 102.41 183.85 107.75 174.31C113.36 164.24 112 159.11 110.9 157.12C110.747 156.8 110.559 156.498 110.34 156.22L111.42 156.54C113.2 157.203 114.844 158.186 116.27 159.44C118.51 161.5 122.27 170.87 133.45 170.87C144.3 170.87 159.65 163.06 150.79 145.57C150.809 145.565 150.826 145.553 150.838 145.537C150.849 145.52 150.853 145.5 150.85 145.48C150.585 144.86 150.25 144.273 149.85 143.73C150.98 143.82 170.75 145.16 176.19 131.04C178.13 125.49 177.48 121.34 175.86 118.33Z" fill="#EA9A8D"/>
</g>
<path d="M31.98 54.75C31.98 54.75 29.28 62.14 34.54 70.28C34.54 70.28 23.84 74.61 25.07 88.22C26.3 101.83 35.52 100.39 35.52 100.39C35.52 100.39 30.35 111.39 37.52 118.48C39.681 120.584 42.2528 122.22 45.0747 123.285C47.8965 124.35 50.9077 124.821 53.92 124.67C53.92 124.67 66.29 123.74 58.34 140.36C54.73 147.88 53.47 153.16 55.1 160.45C55.5997 163.099 56.7898 165.569 58.55 167.61C60.55 169.77 64.45 170.93 65.98 171.08C65.98 171.08 63.58 185.13 71.82 190.08C86.08 198.68 100.82 187.72 107.96 174.08C115.1 160.44 110.22 155.88 110.22 155.88C112.342 156.579 114.289 157.724 115.93 159.24C118.03 161.31 121.52 170.67 132.03 170.67C142.54 170.67 157.6 162.32 147.34 143.53C147.34 143.53 166.83 145.39 172.09 130.85C177.35 116.31 164.67 111.35 164.67 111.35C164.67 111.35 170.55 102.07 165.6 96.81C167.731 94.7859 169.239 92.1955 169.948 89.3433C170.656 86.4911 170.536 83.4959 169.6 80.71C167.6 74.05 164.6 74.23 164.6 74.23C167.694 69.5996 168.9 63.9609 167.97 58.47C167.528 55.1859 166.194 52.0858 164.114 49.5065C162.034 46.9272 159.286 44.9673 156.17 43.84C156.17 43.84 139.23 60 92.82 58.45C46.41 56.9 31.98 54.75 31.98 54.75Z" fill="#FAC6CA"/>
<path d="M97.72 71.61C96.6712 73.2275 95.278 74.5934 93.64 75.61C84.49 81.06 73 82.56 62.53 81.93C56.98 81.6 51.02 80.93 46.03 78.38C41.51 76.04 36.94 73.31 33.9 69.14C33.9 69.14 33.79 69.14 33.81 69.21C36.42 73.47 41.03 75.98 45.27 78.34L46.21 78.83C43.561 79.135 41.05 80.174 38.96 81.83C37.5852 81.7576 36.2099 81.9629 34.9162 82.4337C33.6224 82.9044 32.4368 83.631 31.43 84.57C31.37 84.57 31.43 84.71 31.43 84.66C32.4078 83.917 33.4682 83.2895 34.59 82.79C35.8782 82.3437 37.2272 82.0975 38.59 82.06C34.95 85.06 32.67 89.63 34.39 94.2C34.39 94.3 34.57 94.2 34.55 94.09C33.35 90.61 34.84 86.51 37.14 83.83C39.5831 81.1327 42.9171 79.4072 46.53 78.97C51.39 81.26 57.02 81.83 62.31 82.22C68.1242 82.6726 73.9734 82.2683 79.67 81.02C81.4 80.63 83.11 80.21 84.77 79.7C88.33 79.07 93.87 79.81 95.53 83.57C95.53 83.66 95.7 83.57 95.68 83.47C95.17 81.55 93.28 80.66 91.61 79.88C89.9422 79.1474 88.0976 78.9146 86.3 79.21C87.06 78.95 87.82 78.68 88.56 78.37H88.61C91.91 77.19 96.17 74.91 97.75 71.6C97.85 71.56 97.75 71.56 97.72 71.61Z" fill="#D37299"/>
<path d="M93.62 159.36C91.643 159.409 89.7074 159.937 87.98 160.9C86.8154 161.566 85.6932 162.305 84.62 163.11C86.1213 160.825 86.8825 158.133 86.8 155.4C86.8 155.27 86.61 155.4 86.61 155.49C86.38 165.96 74.46 172.54 64.92 170.8C64.92 170.8 64.78 170.9 64.85 170.93C69.92 172.79 75.96 170.55 80.2 167.65C81.1995 166.954 82.1155 166.145 82.93 165.24C86.11 162.45 89.16 160.14 93.56 159.47C93.63 159.5 93.71 159.35 93.62 159.36Z" fill="#D37299"/>
<path d="M141.29 138.71C137.69 136.812 133.669 135.856 129.6 135.93C129.6 135.93 129.49 136.03 129.6 136.03C133.167 136.185 136.666 137.056 139.89 138.59C143.06 140.08 146.63 142.39 148.32 145.59C148.32 145.65 148.46 145.59 148.43 145.51C147.17 142.39 144.1 140.24 141.29 138.71Z" fill="#D37299"/>
<path d="M164.1 124.37C158.87 130.97 147.02 133.11 139.86 128.5C143.095 126.092 145.516 122.753 146.8 118.93C146.8 118.81 146.68 118.84 146.65 118.93C145.142 122.816 142.567 126.196 139.22 128.68C136.07 131.08 131.34 132.37 127.46 132.8C123.182 133.169 118.873 132.909 114.67 132.03C110.9 131.32 107.33 129.54 103.84 127.98C103.066 127.359 102.251 126.791 101.4 126.28C96.4 123.28 89.99 122.28 84.73 125.16C84.64 125.21 84.6 125.41 84.73 125.34C90.49 122.46 97.33 124.34 102.45 127.75C106.83 130.69 109.72 135.23 114.19 138.07C116.45 139.51 118.92 140.58 121.31 141.8C123.995 143.205 126.428 145.047 128.51 147.25C130.646 149.366 132.279 151.935 133.29 154.766C134.3 157.598 134.663 160.62 134.35 163.61C134.35 163.68 134.44 163.61 134.45 163.61C135.131 160.043 134.637 156.352 133.04 153.09C133.742 153.882 134.602 154.519 135.565 154.96C136.528 155.4 137.571 155.636 138.63 155.65C140.74 155.65 144.63 154.4 145.42 152.14C145.42 152.06 145.34 152.08 145.32 152.14C144.13 154.76 139.14 155.56 136.74 154.89C134.972 154.304 133.433 153.178 132.34 151.67C131.697 150.465 130.947 149.321 130.1 148.25C126.1 143.17 120.41 141.08 115.1 137.88C111.1 135.48 108.26 131.78 104.78 128.78C115.02 134.47 130.31 135.58 139.78 128.61C143.48 131.76 149.12 131.61 153.63 130.73C154.56 130.549 155.478 130.312 156.38 130.02C159.3 130.42 160.56 132.64 160.82 135.4C160.82 135.51 160.99 135.4 160.99 135.33C160.9 132.76 159.73 129.94 156.88 129.84C159.842 128.841 162.435 126.973 164.32 124.48C164.4 124.29 164.19 124.24 164.1 124.37Z" fill="#D37299"/>
<path d="M164.93 110.46C161.77 114.55 155.57 116.74 151.88 112.06C151.88 112.06 151.75 112.06 151.79 112.15C155.33 117.4 162.11 115.06 165.11 110.53C165.17 110.37 164.98 110.34 164.93 110.46Z" fill="#D37299"/>
<path d="M166.22 95.98C163.92 98.32 158.46 101.27 156.65 96.86C156.65 96.79 156.51 96.86 156.53 96.94C158.28 101.69 164.09 98.94 166.33 96.05C166.4 95.96 166.29 95.91 166.22 95.98Z" fill="#D37299"/>
<path d="M156.83 105.48C154.19 104.83 152.6 102.18 152.32 99.59C152.485 98.874 152.612 98.1496 152.7 97.42C152.79 96.5356 152.79 95.6444 152.7 94.76C152.543 94.1256 152.433 93.4805 152.37 92.83C152.843 91.1481 153.144 89.4226 153.27 87.68C153.64 84.25 153.96 80.87 151.14 78.37C150.936 78.1892 150.722 78.019 150.5 77.86C150.504 77.8368 150.504 77.8132 150.5 77.79C150.948 75.9446 151.047 74.0316 150.79 72.15C150.79 69.93 150.45 67.74 150.79 65.52C151.015 64.3148 151.502 63.174 152.218 62.1785C152.933 61.183 153.859 60.3573 154.93 59.76C154.99 59.76 154.99 59.59 154.93 59.64C151.02 61.8 150.18 65.58 150.33 69.55C150.08 68.46 149.76 67.38 149.42 66.29C148.37 62.96 145.78 59.43 142.21 58.59C142.15 58.59 142.06 58.69 142.13 58.71C145.67 59.71 147.95 63.28 149.04 66.56C150.383 70.1103 150.802 73.9433 150.26 77.7C147.8 76.01 144.43 75.37 141.6 74.98C137.55 74.4619 133.435 74.8933 129.58 76.24C126.58 76.82 123.35 76.53 121.93 73.24C121.93 73.24 121.82 73.24 121.84 73.31C122.84 76.25 125.44 77.03 128.1 76.78C124.982 78.0448 122.022 79.6691 119.28 81.62C119.22 81.62 119.28 81.76 119.28 81.71C125.46 77.63 131.86 75.02 139.38 75.31C142.741 75.4098 146.042 76.2281 149.06 77.71C152.93 79.71 153.21 83.22 152.85 87.15C152.49 91.08 152 94.71 148.64 97.35C145.889 99.3695 142.825 100.924 139.57 101.95C136.082 103.163 132.431 103.837 128.74 103.95C125.01 104.07 121.31 102.89 117.8 101.74C117.946 99.6881 117.767 97.6261 117.27 95.63C116.797 93.6476 115.857 91.8067 114.53 90.26C118.349 92.8561 122.92 94.1149 127.53 93.84C129.699 93.7368 131.841 93.3191 133.89 92.6C135.311 92.5803 136.726 92.7896 138.08 93.22C139.75 93.72 141.98 94.48 142.78 96.22C142.78 96.31 142.96 96.22 142.94 96.11C142.21 94.02 139.71 93.17 137.79 92.6C136.925 92.3451 136.031 92.2007 135.13 92.17C137.523 91.1557 139.676 89.6498 141.45 87.75C141.52 87.68 141.45 87.61 141.38 87.68C139.342 89.765 136.826 91.3201 134.05 92.21C132.984 92.2977 131.94 92.5612 130.96 92.99C129.48 93.2532 127.983 93.4004 126.48 93.43C121.59 93.55 117.61 91.78 113.67 89.33C111.475 87.2428 108.916 85.5753 106.12 84.41C109.12 79.13 108.25 71.93 105.37 66.75C105.37 66.7 105.23 66.75 105.26 66.83C106.818 69.932 107.62 73.3587 107.6 76.83C107.595 80.8073 106.076 84.6335 103.35 87.53C103.335 87.5423 103.323 87.5576 103.315 87.5748C103.306 87.592 103.301 87.6108 103.3 87.63C95.3 96.42 81.39 97.5 70.3 95.48C67.3006 94.7638 64.2467 94.2988 61.17 94.09C58.2157 94.0694 55.2722 94.4495 52.42 95.22C49.58 95.97 46.86 97.22 44.1 98.22C42.69 98.73 41.25 99.14 39.83 99.6C38.18 100.14 36.25 100.94 34.53 100.27C34.53 100.27 34.4 100.35 34.46 100.37C36.56 101.37 38.99 100.2 41.06 99.61C44.25 98.69 47.3 97.36 50.42 96.23C54.238 94.9106 58.277 94.3501 62.31 94.58C65.83 94.76 69.24 95.9 72.73 96.33C75.3998 96.6614 78.0905 96.7951 80.78 96.73C83.39 97.44 85.78 98.66 88.45 99.18C91.0853 99.6862 93.7674 99.9075 96.45 99.84H96.85C98.6503 99.9302 100.386 100.538 101.85 101.59C103.02 102.41 105.32 104.17 105.05 105.82C105.05 105.93 105.18 105.82 105.2 105.82C105.69 104.13 103.73 102.6 102.61 101.65C101.448 100.632 100.024 99.9596 98.5 99.71C100.049 99.5787 101.553 99.1227 102.914 98.3714C104.276 97.6202 105.463 96.5907 106.4 95.35C106.46 95.26 106.35 95.23 106.3 95.35C103.61 98.92 98.89 99.7 94.68 99.54C92.4033 99.4554 90.1365 99.1946 87.9 98.76C85.7791 98.2055 83.6895 97.5379 81.64 96.76C90.5 96.37 99.4 93.55 104.78 86.3C105.207 85.7945 105.588 85.2524 105.92 84.68C109.92 87.22 114.43 89.35 116.29 94.07C117.392 97.092 117.688 100.349 117.15 103.52C116.55 106.87 113.85 109.52 111.15 111.38C106.15 114.89 99.15 115.38 93.23 115.38C90.8887 115.333 88.5517 115.156 86.23 114.85C85.36 114.67 84.49 114.46 83.62 114.21C81.19 113.52 78.74 112.98 76.35 112.14C73.66 111.19 70.98 110.25 68.22 109.52C63.95 108.39 59.15 107.36 54.71 107.72C52.6423 107.8 50.6076 108.265 48.71 109.09C47.0106 110.009 45.4844 111.217 44.2 112.66C44.13 112.74 44.2 112.81 44.28 112.74C45.9739 110.961 48.0689 109.614 50.39 108.81C52.6388 108.257 54.962 108.072 57.27 108.26C60.8789 108.484 64.4529 109.098 67.93 110.09C68.99 113.15 67.71 115.66 65.93 118.18C65.8 118.33 65.67 118.48 65.52 118.63C64.0389 120.105 62.3263 121.328 60.45 122.25C56.76 124.15 51.37 125.19 47.31 124.09C47.31 124.09 47.2 124.15 47.25 124.17C49.25 125.17 51.76 124.8 53.88 124.59C56.5613 124.308 59.159 123.492 61.52 122.19C64.3771 120.729 66.6878 118.387 68.11 115.51C68.99 113.79 69.33 111.85 68.31 110.2C69.54 110.54 70.74 110.91 71.93 111.3L75.43 112.43C80.9 117.33 82.85 126.62 82.5 133.58C82.2767 137.539 81.2991 141.418 79.62 145.01C77.92 148.9 75.33 151.73 72.5 154.82C72.44 154.89 72.5 154.95 72.57 154.89C74.5733 152.979 76.3914 150.883 78 148.63C82.3966 145.571 87.8257 144.377 93.1 145.31C95.4793 145.749 97.6888 146.843 99.48 148.47L100.6 149.78C100.97 150.21 101.35 150.61 101.74 151C102.709 152.378 103.455 153.9 103.95 155.51C105.78 161.51 101.82 167.61 97.95 171.83C93.68 176.49 88.25 178.75 82.18 180.04C82.12 180.04 82.06 180.2 82.18 180.18C88.44 178.93 93.72 176.72 98.18 172.08C102.28 167.84 105.71 161.95 104.56 155.88C104.329 154.714 103.935 153.586 103.39 152.53C105.809 154.527 108.63 155.98 111.66 156.79C111.74 156.79 111.88 156.65 111.78 156.61C109.787 155.894 107.855 155.022 106 154C104.77 153.24 103.649 152.314 102.67 151.25C101.83 149.961 100.798 148.807 99.61 147.83C98.4328 146.413 97.1272 145.107 95.71 143.93C94.0305 142.681 92.1641 141.706 90.18 141.04C90.18 141.04 90.06 141.11 90.12 141.14C92.1636 142.053 94.077 143.233 95.81 144.65C96.4853 145.222 97.1232 145.837 97.72 146.49C96.5336 145.778 95.2404 145.261 93.89 144.96C89.07 143.96 82.31 144.72 78.33 148.08C78.7197 147.48 79.0769 146.859 79.4 146.22C81.3288 142.648 82.5127 138.722 82.88 134.68C83.1751 130.663 82.7656 126.626 81.67 122.75C80.67 119.26 79.01 115.12 76.13 112.66L76.78 112.87C78.43 113.2 80.08 113.56 81.71 114.01C85.0049 114.763 88.3453 115.301 91.71 115.62C92.44 115.67 93.19 115.71 93.93 115.74C94.67 115.77 95.62 115.74 96.45 115.67C100.93 115.45 105.61 114.82 109.6 112.72C109.6 112.82 109.78 112.72 109.78 112.61C110.32 114.61 113.66 115.72 115.37 116.29C117.762 117.06 120.235 117.55 122.74 117.75C123.556 117.795 124.374 117.795 125.19 117.75C128.31 118.12 132.39 119.48 133.45 122.53C133.45 122.62 133.61 122.53 133.59 122.44C132.88 119.87 129.77 118.16 126.91 117.61C130.216 117.246 133.407 116.183 136.27 114.49C136.37 114.43 136.33 114.27 136.21 114.35C132.14 116.563 127.536 117.602 122.91 117.35C120.435 117.156 117.992 116.673 115.63 115.91C113.504 115.199 111.547 114.058 109.88 112.56C110.87 112.02 111.805 111.383 112.67 110.66C114.57 109.06 116.49 107.04 117.22 104.59C117.447 103.809 117.604 103.009 117.69 102.2C121.43 103.47 125.13 104.59 129.13 104.51C132.889 104.349 136.6 103.603 140.13 102.3C143.582 101.165 146.798 99.4099 149.62 97.12C150.746 96.1502 151.603 94.907 152.11 93.51C152.11 94.02 152.3 94.56 152.34 95.03C152.463 97.0856 152.177 99.1452 151.5 101.09C150.344 104.316 148.046 107.005 145.04 108.65C144.98 108.65 144.98 108.8 145.04 108.76C147.66 107.387 149.794 105.239 151.15 102.61C151.531 101.889 151.83 101.128 152.04 100.34C152.29 102.89 153.92 105.47 156.61 105.79C156.81 105.66 156.93 105.5 156.83 105.48Z" fill="#D37299"/>
<path d="M165.18 73.24C164.012 74.659 162.531 75.7883 160.853 76.5395C159.175 77.2907 157.347 77.6434 155.51 77.57C155.45 77.57 155.37 77.7 155.45 77.7C159.12 77.98 163.34 76.7 165.34 73.34C165.43 73.16 165.28 73.07 165.18 73.24Z" fill="#D37299"/>
<g style="mix-blend-mode:multiply">
<path d="M185.26 12.79C184.64 11.01 183.95 9.27 183.26 7.53C180.743 6.76553 178.057 6.76553 175.54 7.53C174.678 7.75624 173.803 7.92989 172.92 8.05C172.93 7.99375 172.93 7.93625 172.92 7.88C172.922 7.84669 172.922 7.81331 172.92 7.78V7.71L172.85 7.63C172.83 7.59441 172.807 7.56091 172.78 7.53L172.71 7.47C172.672 7.43424 172.632 7.40084 172.59 7.37H172.52L172.37 7.27H172.28L172.11 7.18H171.98C171.929 7.15405 171.875 7.13392 171.82 7.12C171.748 7.09409 171.675 7.07403 171.6 7.06H171.51H171.23C170.668 6.99982 170.105 7.16127 169.66 7.51C169.595 7.56489 169.535 7.6251 169.48 7.69C165.93 6.24 162.13 3.78 157.46 5.24C152.07 6.89 151.71 11.81 151.7 13.56C151.496 13.6262 151.296 13.703 151.1 13.79C151.073 13.8018 151.05 13.8215 151.034 13.8464C151.018 13.8713 151.01 13.9004 151.01 13.93C149.14 14.79 144.15 17.57 145.09 22.6H144.96H144.85C142.876 23.1105 141.102 24.2059 139.762 25.7425C138.422 27.279 137.578 29.1849 137.34 31.21H137.13L136.49 31.31C136.49 31.31 136.44 31.31 136.43 31.37H136.29H136.21L135.94 31.45H135.88L135.51 31.58C134.397 31.9747 133.362 32.5601 132.45 33.31L132.15 33.56C131.746 33.9276 131.377 34.3327 131.05 34.77L130.96 34.89L130.78 35.15L130.66 35.32C130.66 35.4 130.56 35.49 130.5 35.57L130.38 35.78L130.24 36.04L130.11 36.3C130.069 36.3781 130.033 36.4582 130 36.54C129.92 36.7 129.85 36.87 129.78 37.05C129.761 37.1149 129.738 37.1784 129.71 37.24C129.71 37.37 129.62 37.5 129.58 37.63C129.552 37.7052 129.529 37.782 129.51 37.86C129.51 37.99 129.43 38.12 129.4 38.25L129.34 38.5L129.25 38.91C129.25 38.99 129.25 39.08 129.25 39.16C129.25 39.24 129.2 39.47 129.18 39.63V39.86C129.18 40.1 129.13 40.35 129.11 40.6H128.92H128.6C128.6 40.6 128.51 40.6 128.5 40.69C126.246 40.9486 124.066 41.6559 122.09 42.77L121.76 42.98H121.68L121.36 43.2C121.17 43.34 120.98 43.48 120.79 43.64L120.68 43.74L120.45 43.94L120.29 44.09L120.09 44.29L119.9 44.5L119.74 44.68C119.629 44.8036 119.525 44.9338 119.43 45.07C119.387 45.1209 119.347 45.1743 119.31 45.23C119.24 45.33 119.17 45.42 119.11 45.52L118.99 45.7C118.93 45.81 118.86 45.92 118.8 46.04C118.777 46.092 118.751 46.1422 118.72 46.19C118.633 46.3633 118.553 46.5333 118.48 46.7C118.476 46.7366 118.476 46.7735 118.48 46.81C118.42 46.95 118.36 47.1 118.31 47.25L118.25 47.44L118.13 47.86C118.13 47.92 118.13 47.98 118.13 48.04C118.13 48.1 118.05 48.41 118.02 48.6C117.828 48.5217 117.631 48.4582 117.43 48.41C117.38 48.41 117.31 48.41 117.31 48.5C117.03 48.43 116.68 48.36 116.31 48.28L116 48.22L115.67 48.16C115.2 48.08 114.67 48 114.11 47.93C111.35 47.5016 108.53 47.6687 105.84 48.42L105.39 48.59H105.34L104.95 48.76L104.8 48.83L104.51 48.97L104.07 49.23H103.87H103.66H103.54H103.39H103.24H103.08H102.9H102.72H102.51H102.3H102.08H101.86H101.61H101.37H101.1H100.84H100.56H97.93C94.47 49.23 90.18 49.71 87.29 51.68L86.98 51.9C86.7409 52.003 86.5131 52.1304 86.3 52.28L85.96 51.95C84.3415 50.4994 82.4016 49.454 80.3 48.9C77.7064 48.2552 74.9825 48.3663 72.45 49.22C72.45 49.16 72.45 49.22 72.45 49.22L72.1 49.36C72.0223 49.2491 71.9388 49.1423 71.85 49.04L71.73 48.9L71.59 48.74L71.43 48.57L71.25 48.39L71.04 48.2L70.81 47.99L70.55 47.76L70.25 47.53C68.9028 46.4787 67.3115 45.7852 65.6243 45.5142C63.9371 45.2432 62.2087 45.4034 60.6 45.98L60.9 45.84C60.96 45.84 60.99 45.69 60.9 45.73L60.24 45.93C59.94 45.07 57.92 40.72 47.6 42.12L47.78 42.02C47.84 42.02 47.85 41.84 47.78 41.89L47.4 42.04L47.3 41.91C46.8076 41.3392 46.231 40.8469 45.59 40.45C43.71 39.27 40.29 38.13 34.72 39.45C33.9569 39.6197 33.2316 39.9281 32.58 40.36L32.36 40.52L31.93 40.24L31.73 40.41C31.61 40.53 31.48 40.65 31.37 40.78C31.3281 40.8186 31.2912 40.8623 31.26 40.91C31.26 40.91 31.17 41.02 31.12 41.08L30.99 41.27C30.99 41.34 30.9 41.42 30.85 41.5L30.73 41.73L30.66 41.89C30.66 41.98 30.59 42.07 30.56 42.16C30.53 42.25 30.56 42.24 30.56 42.28C30.56 42.32 30.49 42.55 30.46 42.69C30.4552 42.7332 30.4552 42.7768 30.46 42.82V43.02C27.891 42.2112 25.2677 41.5863 22.61 41.15H21.9H21.47H20.62C21.25 41.53 21.88 41.91 22.49 42.33C23.95 43.33 25.14 44.77 26.84 45.33C26.8769 45.3439 26.9104 45.3655 26.9384 45.3933C26.9664 45.4212 26.9882 45.4546 27.0024 45.4914C27.0165 45.5282 27.0227 45.5676 27.0206 45.607C27.0185 45.6464 27.008 45.6849 26.99 45.72H26.92C26.9048 45.7479 26.8799 45.7692 26.85 45.78C26.1325 46.1542 25.3947 46.488 24.64 46.78C23.2818 47.5493 22.161 48.677 21.4 50.04C18.81 54.79 21.68 62.32 34.27 61.79C34.27 61.79 34.27 61.79 34.34 61.79C34.54 62.12 37.55 66.7 47.93 65.44C48.06 65.62 48.19 65.81 48.33 65.99C48.47 66.17 48.52 65.93 48.48 65.86V65.78C49.8 67.32 55.56 73.01 65.17 68.61C65.36 68.9 65.56 69.18 65.77 69.44C65.77 69.5 65.94 69.39 65.9 69.33C65.73 69.07 65.56 68.8 65.4 68.51C66.4216 69.774 67.6738 70.8327 69.09 71.63C71.5 73.87 79.87 73.36 82.16 71.87L82.37 72.08C85.5 75.89 97.99 77.74 106.52 72.39C106.38 72.53 114.92 76.39 121.11 70.39C120.74 70.86 120.34 71.31 119.93 71.74C119.83 71.84 119.93 71.94 120.03 71.85C121.307 70.6751 122.352 69.2708 123.11 67.71C123.76 68.26 128.21 71.58 136.63 68.28C139.43 67.19 141.22 65.14 142.47 62.08L142.65 61.81C142.65 61.81 155.19 62.07 158.07 49.75C158.07 49.75 168.14 51.43 169.86 38C169.86 38 178.41 37.44 180.2 26.68C180.2 26.68 180.28 26.68 180.28 26.61C180.285 26.5836 180.285 26.5564 180.28 26.53C180.73 26.61 183.58 26.98 187.35 24.78C187.541 24.6518 187.71 24.493 187.85 24.31C187.503 20.3718 186.632 16.4976 185.26 12.79Z" fill="#EA9A8D"/>
</g>
<path d="M185.66 3.90999C181.31 1.49999 178.13 2.23999 175.52 2.90999C174.658 3.13929 173.783 3.31628 172.9 3.43999C172.909 3.38371 172.909 3.32628 172.9 3.26999C172.904 3.23675 172.904 3.20323 172.9 3.16999V3.08999L172.83 3.00999C172.81 2.9744 172.787 2.9409 172.76 2.90999L172.69 2.84999C172.655 2.80829 172.615 2.77132 172.57 2.73999H172.5L172.35 2.62999H172.26L172.09 2.54L171.96 2.48999L171.8 2.43L171.58 2.36999H171.49H171.21C170.931 2.33714 170.648 2.36095 170.378 2.43999C170.108 2.51903 169.857 2.65167 169.64 2.82999C169.575 2.88142 169.515 2.9383 169.46 3C166.11 1.7 162.28 -0.810008 157.61 0.659993C152.22 2.35999 151.86 7.41 151.85 9.22C151.646 9.28622 151.446 9.36299 151.25 9.44999C151.224 9.46366 151.202 9.48371 151.187 9.50823C151.171 9.53275 151.162 9.5609 151.16 9.58999C149.29 10.48 144.3 13.34 145.24 18.51H145.11H145C143.001 19.0576 141.214 20.1966 139.874 21.7778C138.534 23.3589 137.703 25.3082 137.49 27.37H137.28L136.64 27.46C136.615 27.4746 136.595 27.4952 136.58 27.52H136.44H136.36L136.09 27.61H136.03L135.66 27.73C134.544 28.1408 133.509 28.7432 132.6 29.51L132.3 29.78C131.898 30.1641 131.53 30.5823 131.2 31.03L131.11 31.15L130.93 31.41L130.81 31.59L130.65 31.85L130.53 32.07L130.39 32.33L130.26 32.6C130.219 32.6781 130.183 32.7582 130.15 32.84C130.07 33.01 130 33.19 129.93 33.37C129.911 33.4349 129.888 33.4984 129.86 33.56C129.86 33.7 129.77 33.83 129.73 33.97C129.701 34.0481 129.677 34.1284 129.66 34.21C129.66 34.34 129.58 34.47 129.55 34.6L129.49 34.86L129.4 35.28C129.4 35.37 129.4 35.45 129.4 35.54C129.4 35.63 129.35 35.86 129.33 36.03V36.26C129.33 36.51 129.28 36.76 129.26 37.02H129.07H128.75C128.75 37.02 128.66 37.07 128.65 37.11C126.285 37.3376 123.995 38.0636 121.93 39.24L121.6 39.45L121.52 39.51L121.2 39.73L120.63 40.19L120.52 40.29C120.438 40.3545 120.362 40.4246 120.29 40.5L120.13 40.65L119.93 40.86L119.74 41.07L119.58 41.25C119.47 41.38 119.37 41.52 119.27 41.65C119.227 41.7076 119.187 41.7677 119.15 41.83C119.078 41.9227 119.011 42.0195 118.95 42.12L118.83 42.31C118.77 42.42 118.7 42.53 118.64 42.65L118.56 42.81C118.47 42.9785 118.39 43.1521 118.32 43.33C118.316 43.3699 118.316 43.4101 118.32 43.45C118.26 43.59 118.2 43.75 118.15 43.9L118.09 44.09L117.97 44.53C117.97 44.59 117.97 44.65 117.97 44.71C117.97 44.77 117.89 45.09 117.86 45.29C117.669 45.2085 117.471 45.1416 117.27 45.09C117.22 45.09 117.15 45.09 117.15 45.18L116.15 44.96L115.84 44.9L115.51 44.84C115.04 44.76 114.51 44.67 113.95 44.6C111.19 44.1599 108.367 44.3306 105.68 45.1L104.93 45.24H104.88L104.49 45.42L104.34 45.49L104.05 45.64L103.61 45.9H103.41H103.32H103.2H103.08H102.93H102.78H102.62H102.44H102.26H102.05H101.84H101.62H101.4H101.15H100.91H100.64H100.38H100.1H99.83H97.93C94.47 45.9 90.18 46.4 87.29 48.42L86.98 48.65C86.7407 48.7565 86.5128 48.8872 86.3 49.04L85.96 48.7C84.3518 47.2177 82.4105 46.1441 80.3 45.57C77.7082 44.9017 74.9765 45.0165 72.45 45.9C72.45 45.84 72.45 45.9 72.45 45.9L72.1 46.05C72.0234 45.9351 71.9399 45.8249 71.85 45.72C71.8137 45.6671 71.7736 45.617 71.73 45.57L71.59 45.41L71.43 45.23L71.25 45.04L71.04 44.84L70.81 44.63L70.55 44.4L70.25 44.16C68.9159 43.0839 67.3258 42.3718 65.6346 42.0931C63.9433 41.8145 62.2088 41.9788 60.6 42.57L60.9 42.42C60.96 42.42 60.99 42.27 60.9 42.31L60.24 42.52C59.94 41.63 57.92 37.16 47.6 38.6L47.78 38.49C47.84 38.49 47.85 38.31 47.78 38.36L47.4 38.52L47.3 38.39C46.8108 37.8076 46.2339 37.3049 45.59 36.9C43.71 35.68 40.29 34.5 34.72 35.82C33.9573 36.001 33.2327 36.3159 32.58 36.75L32.36 36.92L32.26 36.99L32.06 37.17C31.9325 37.2893 31.8123 37.4162 31.7 37.55L31.59 37.68L31.45 37.86L31.32 38.05L31.18 38.29L31.06 38.53L30.99 38.69C30.9507 38.7811 30.9173 38.8746 30.89 38.97C30.89 38.97 30.89 39.05 30.89 39.1C30.89 39.15 30.82 39.37 30.79 39.51C30.7852 39.5565 30.7852 39.6035 30.79 39.65V39.86C28.2263 39.0202 25.6019 38.3783 22.94 37.94L22.23 37.89H21.8H20.43C20.0209 37.8987 19.613 37.9389 19.21 38.01H19.15L18.91 38.06H18.73L18.52 38.11L18.32 38.17L18.14 38.24L17.94 38.32L17.77 38.4L17.59 38.49L17.44 38.58L17.27 38.7L17.14 38.8L16.99 38.95C16.9509 38.9841 16.9141 39.0209 16.88 39.06C16.8312 39.1123 16.7876 39.1692 16.75 39.23L16.66 39.35C16.6194 39.4213 16.5826 39.4947 16.55 39.57L16.49 39.68C16.4381 39.8026 16.3979 39.9298 16.37 40.06C16.5032 40.0991 16.6412 40.1193 16.78 40.12C20.1981 40.5738 23.5871 41.2249 26.93 42.07C24.5714 42.7771 22.5719 44.3581 21.34 46.49C18.75 51.38 21.62 59.13 34.21 58.58C34.21 58.58 34.21 58.58 34.28 58.58C34.48 58.92 37.49 63.58 47.87 62.33C48 62.52 48.13 62.71 48.27 62.89C48.41 63.07 48.46 62.83 48.42 62.76V62.68C49.74 64.27 55.5 70.12 65.11 65.59C65.3 65.89 65.5 66.18 65.71 66.45C65.71 66.5 65.88 66.39 65.84 66.34C65.67 66.07 65.5 65.78 65.34 65.49C66.3541 66.7828 67.6067 67.869 69.03 68.69C71.44 71 79.81 70.47 82.1 68.94L82.31 69.16C85.44 73.07 97.93 74.98 106.46 69.48C106.32 69.62 114.86 73.62 121.05 67.42C120.68 67.9 120.28 68.36 119.87 68.81C119.77 68.91 119.87 69.01 119.97 68.92C121.25 67.7053 122.294 66.2644 123.05 64.67C123.7 65.23 128.15 68.67 136.57 65.26C139.37 64.13 141.16 62.02 142.41 58.88L142.59 58.6C142.59 58.6 155.13 58.87 158.01 46.21C158.01 46.21 168.08 47.93 169.8 34.12C169.8 34.12 178.35 33.55 180.14 22.49C180.14 22.49 180.22 22.49 180.22 22.41C180.225 22.3835 180.225 22.3564 180.22 22.33C180.67 22.41 183.52 22.79 187.29 20.53C189.17 19.43 193.41 8.17999 185.66 3.90999Z" fill="#F9B5B2"/>
<g clip-path="url(#clip1_3_1640)">
<path d="M126.87 182.74C126.005 182.737 125.177 182.393 124.564 181.783C123.952 181.172 123.605 180.345 123.6 179.48C123.603 178.614 123.948 177.783 124.561 177.171C125.173 176.558 126.004 176.213 126.87 176.21C127.736 176.213 128.567 176.558 129.179 177.171C129.792 177.783 130.137 178.614 130.14 179.48C130.135 180.345 129.788 181.172 129.176 181.783C128.563 182.393 127.735 182.737 126.87 182.74Z" fill="#F27692"/>
<path d="M103.84 188.21C102.974 188.207 102.143 187.862 101.531 187.249C100.918 186.637 100.573 185.806 100.57 184.94C100.573 184.074 100.918 183.243 101.531 182.631C102.143 182.018 102.974 181.673 103.84 181.67C104.706 181.673 105.537 182.018 106.149 182.631C106.762 183.243 107.107 184.074 107.11 184.94C107.107 185.806 106.762 186.637 106.149 187.249C105.537 187.862 104.706 188.207 103.84 188.21Z" fill="#F27692"/>
<path d="M77.85 196.87C76.9835 196.867 76.1533 196.522 75.5407 195.909C74.928 195.297 74.5826 194.466 74.58 193.6C74.5826 192.734 74.928 191.903 75.5407 191.291C76.1533 190.678 76.9835 190.333 77.85 190.33C78.7164 190.333 79.5466 190.678 80.1593 191.291C80.772 191.903 81.1174 192.734 81.12 193.6C81.1174 194.466 80.772 195.297 80.1593 195.909C79.5466 196.522 78.7164 196.867 77.85 196.87Z" fill="#F27692"/>
<path d="M52.71 213.56C51.8436 213.557 51.0133 213.212 50.4007 212.599C49.788 211.987 49.4426 211.156 49.44 210.29C49.4426 209.424 49.788 208.593 50.4007 207.981C51.0133 207.368 51.8436 207.023 52.71 207.02C53.5764 207.023 54.4067 207.368 55.0193 207.981C55.632 208.593 55.9774 209.424 55.98 210.29C55.9774 211.156 55.632 211.987 55.0193 212.599C54.4067 213.212 53.5764 213.557 52.71 213.56Z" fill="#F27692"/>
<path d="M113.77 225.18C112.904 225.177 112.073 224.832 111.461 224.219C110.848 223.607 110.503 222.776 110.5 221.91C110.503 221.044 110.848 220.213 111.461 219.601C112.073 218.988 112.904 218.643 113.77 218.64C114.636 218.643 115.467 218.988 116.079 219.601C116.692 220.213 117.037 221.044 117.04 221.91C117.037 222.776 116.692 223.607 116.079 224.219C115.467 224.832 114.636 225.177 113.77 225.18Z" fill="#F27692"/>
<path d="M3.27 188.21C2.40355 188.207 1.57335 187.862 0.960678 187.249C0.348005 186.637 0.0026376 185.806 0 184.94C0.0026376 184.074 0.348005 183.243 0.960678 182.631C1.57335 182.018 2.40355 181.673 3.27 181.67C4.13644 181.673 4.96665 182.018 5.57932 182.631C6.192 183.243 6.53736 184.074 6.54 184.94C6.53736 185.806 6.192 186.637 5.57932 187.249C4.96665 187.862 4.13644 188.207 3.27 188.21Z" fill="#F27692"/>
<path d="M33.51 220.25C32.6435 220.247 31.8133 219.902 31.2007 219.289C30.588 218.677 30.2426 217.846 30.24 216.98C30.2505 216.119 30.5993 215.296 31.2112 214.69C31.823 214.084 32.6487 213.743 33.51 213.74C34.3764 213.743 35.2066 214.088 35.8193 214.701C36.432 215.313 36.7774 216.144 36.78 217.01C36.7695 217.871 36.4207 218.694 35.8088 219.3C35.197 219.906 34.3713 220.247 33.51 220.25Z" fill="#F27692"/>
<path d="M52.93 139.54C52.0636 139.537 51.2333 139.192 50.6207 138.579C50.008 137.967 49.6626 137.136 49.66 136.27C49.6626 135.404 50.008 134.573 50.6207 133.961C51.2333 133.348 52.0636 133.003 52.93 133C53.7964 133.003 54.6267 133.348 55.2393 133.961C55.852 134.573 56.1974 135.404 56.2 136.27C56.1974 137.136 55.852 137.967 55.2393 138.579C54.6267 139.192 53.7964 139.537 52.93 139.54Z" fill="#F27692"/>
<path d="M97.11 117.15C96.2435 117.147 95.4133 116.802 94.8007 116.189C94.188 115.577 93.8426 114.746 93.84 113.88C93.8426 113.014 94.188 112.183 94.8007 111.571C95.4133 110.958 96.2435 110.613 97.11 110.61C97.9764 110.613 98.8066 110.958 99.4193 111.571C100.032 112.183 100.377 113.014 100.38 113.88C100.377 114.746 100.032 115.577 99.4193 116.189C98.8066 116.802 97.9764 117.147 97.11 117.15Z" fill="#F27692"/>
<path d="M170.66 76C169.794 75.9974 168.963 75.652 168.351 75.0393C167.738 74.4266 167.393 73.5964 167.39 72.73C167.393 71.8635 167.738 71.0333 168.351 70.4207C168.963 69.808 169.794 69.4626 170.66 69.46C171.528 69.4626 172.36 69.8094 172.973 70.4242C173.586 71.039 173.93 71.8718 173.93 72.74C173.925 73.6047 173.578 74.4323 172.966 75.0429C172.353 75.6534 171.525 75.9974 170.66 76Z" fill="#F27692"/>
<path d="M134.33 153.94C133.464 153.937 132.633 153.592 132.021 152.979C131.408 152.367 131.063 151.536 131.06 150.67C131.063 149.804 131.408 148.973 132.021 148.361C132.633 147.748 133.464 147.403 134.33 147.4C135.196 147.403 136.027 147.748 136.639 148.361C137.252 148.973 137.597 149.804 137.6 150.67C137.597 151.536 137.252 152.367 136.639 152.979C136.027 153.592 135.196 153.937 134.33 153.94Z" fill="#F27692"/>
<path d="M101.58 143.8C100.714 143.797 99.8833 143.452 99.2707 142.839C98.658 142.227 98.3126 141.396 98.31 140.53C98.3126 139.664 98.658 138.833 99.2707 138.221C99.8833 137.608 100.714 137.263 101.58 137.26C102.446 137.263 103.277 137.608 103.889 138.221C104.502 138.833 104.847 139.664 104.85 140.53C104.847 141.396 104.502 142.227 103.889 142.839C103.277 143.452 102.446 143.797 101.58 143.8Z" fill="#F27692"/>
<path d="M79.64 171.06C78.7736 171.057 77.9433 170.712 77.3307 170.099C76.718 169.487 76.3726 168.656 76.37 167.79C76.3726 166.924 76.718 166.093 77.3307 165.481C77.9433 164.868 78.7736 164.523 79.64 164.52C80.5064 164.523 81.3367 164.868 81.9493 165.481C82.562 166.093 82.9074 166.924 82.91 167.79C82.9074 168.656 82.562 169.487 81.9493 170.099C81.3367 170.712 80.5064 171.057 79.64 171.06Z" fill="#F27692"/>
<path d="M122.93 205.5C122.064 205.497 121.233 205.152 120.621 204.539C120.008 203.927 119.663 203.096 119.66 202.23C119.663 201.364 120.008 200.533 120.621 199.921C121.233 199.308 122.064 198.963 122.93 198.96C123.796 198.963 124.627 199.308 125.239 199.921C125.852 200.533 126.197 201.364 126.2 202.23C126.197 203.096 125.852 203.927 125.239 204.539C124.627 205.152 123.796 205.497 122.93 205.5Z" fill="#F27692"/>
<path d="M150.45 41.47C149.654 41.47 148.891 41.1539 148.329 40.5913C147.766 40.0287 147.45 39.2657 147.45 38.47C147.45 37.6744 147.766 36.9113 148.329 36.3487C148.891 35.7861 149.654 35.47 150.45 35.47C151.246 35.47 152.009 35.7861 152.571 36.3487C153.134 36.9113 153.45 37.6744 153.45 38.47C153.45 39.2657 153.134 40.0287 152.571 40.5913C152.009 41.1539 151.246 41.47 150.45 41.47Z" fill="#F27692"/>
<path d="M139.46 45.27C138.664 45.27 137.901 44.9539 137.339 44.3913C136.776 43.8287 136.46 43.0656 136.46 42.27C136.46 41.4743 136.776 40.7113 137.339 40.1487C137.901 39.5861 138.664 39.27 139.46 39.27C140.256 39.27 141.019 39.5861 141.581 40.1487C142.144 40.7113 142.46 41.4743 142.46 42.27C142.46 43.0656 142.144 43.8287 141.581 44.3913C141.019 44.9539 140.256 45.27 139.46 45.27Z" fill="#00AE4F"/>
<path d="M120.65 36.61C119.854 36.61 119.091 36.2939 118.529 35.7313C117.966 35.1687 117.65 34.4057 117.65 33.61C117.65 32.8144 117.966 32.0513 118.529 31.4887C119.091 30.9261 119.854 30.61 120.65 30.61C121.446 30.61 122.209 30.9261 122.771 31.4887C123.334 32.0513 123.65 32.8144 123.65 33.61C123.65 34.4057 123.334 35.1687 122.771 35.7313C122.209 36.2939 121.446 36.61 120.65 36.61Z" fill="#F27692"/>
<path d="M106.58 69.39C105.784 69.39 105.021 69.0739 104.459 68.5113C103.896 67.9487 103.58 67.1857 103.58 66.39C103.58 65.5944 103.896 64.8313 104.459 64.2687C105.021 63.7061 105.784 63.39 106.58 63.39C107.376 63.39 108.139 63.7061 108.701 64.2687C109.264 64.8313 109.58 65.5944 109.58 66.39C109.58 67.1857 109.264 67.9487 108.701 68.5113C108.139 69.0739 107.376 69.39 106.58 69.39Z" fill="#F27692"/>
<path d="M104.68 52.91C103.884 52.91 103.121 52.5939 102.559 52.0313C101.996 51.4687 101.68 50.7057 101.68 49.91C101.68 49.1144 101.996 48.3513 102.559 47.7887C103.121 47.2261 103.884 46.91 104.68 46.91C105.476 46.91 106.239 47.2261 106.801 47.7887C107.364 48.3513 107.68 49.1144 107.68 49.91C107.68 50.7057 107.364 51.4687 106.801 52.0313C106.239 52.5939 105.476 52.91 104.68 52.91Z" fill="#F27692"/>
<path d="M130.16 62.17C129.364 62.17 128.601 61.8539 128.039 61.2913C127.476 60.7287 127.16 59.9657 127.16 59.17C127.16 58.3744 127.476 57.6113 128.039 57.0487C128.601 56.4861 129.364 56.17 130.16 56.17C130.956 56.17 131.719 56.4861 132.281 57.0487C132.844 57.6113 133.16 58.3744 133.16 59.17C133.16 59.9657 132.844 60.7287 132.281 61.2913C131.719 61.8539 130.956 62.17 130.16 62.17Z" fill="#F27692"/>
<path d="M139.67 5.97C138.874 5.97 138.111 5.65393 137.549 5.09132C136.986 4.52871 136.67 3.76565 136.67 2.97C136.67 2.17435 136.986 1.41129 137.549 0.848682C138.111 0.286073 138.874 -0.0299988 139.67 -0.0299988C140.466 -0.0299988 141.229 0.286073 141.791 0.848682C142.354 1.41129 142.67 2.17435 142.67 2.97C142.67 3.76565 142.354 4.52871 141.791 5.09132C141.229 5.65393 140.466 5.97 139.67 5.97Z" fill="#F27692"/>
<path d="M136.5 21.4C135.704 21.4 134.941 21.0839 134.379 20.5213C133.816 19.9587 133.5 19.1956 133.5 18.4C133.5 17.6043 133.816 16.8413 134.379 16.2787C134.941 15.7161 135.704 15.4 136.5 15.4C137.296 15.4 138.059 15.7161 138.621 16.2787C139.184 16.8413 139.5 17.6043 139.5 18.4C139.5 19.1956 139.184 19.9587 138.621 20.5213C138.059 21.0839 137.296 21.4 136.5 21.4Z" fill="#F27692"/>
<path d="M76.28 60.74C75.4843 60.74 74.7213 60.4239 74.1587 59.8613C73.5961 59.2987 73.28 58.5356 73.28 57.74C73.28 56.9443 73.5961 56.1813 74.1587 55.6187C74.7213 55.0561 75.4843 54.74 76.28 54.74C77.0756 54.74 77.8387 55.0561 78.4013 55.6187C78.9639 56.1813 79.28 56.9443 79.28 57.74C79.28 58.5356 78.9639 59.2987 78.4013 59.8613C77.8387 60.4239 77.0756 60.74 76.28 60.74Z" fill="#F27692"/>
<path d="M79.69 92.3C78.8944 92.3 78.1313 91.9839 77.5687 91.4213C77.0061 90.8587 76.69 90.0956 76.69 89.3C76.69 88.5043 77.0061 87.7413 77.5687 87.1787C78.1313 86.6161 78.8944 86.3 79.69 86.3C80.4857 86.3 81.2487 86.6161 81.8113 87.1787C82.3739 87.7413 82.69 88.5043 82.69 89.3C82.69 90.0956 82.3739 90.8587 81.8113 91.4213C81.2487 91.9839 80.4857 92.3 79.69 92.3Z" fill="#F27692"/>
<path d="M60.26 118.74C59.4644 118.74 58.7013 118.424 58.1387 117.861C57.5761 117.299 57.26 116.536 57.26 115.74C57.26 114.944 57.5761 114.181 58.1387 113.619C58.7013 113.056 59.4644 112.74 60.26 112.74C61.0557 112.74 61.8187 113.056 62.3813 113.619C62.9439 114.181 63.26 114.944 63.26 115.74C63.26 116.536 62.9439 117.299 62.3813 117.861C61.8187 118.424 61.0557 118.74 60.26 118.74Z" fill="#F27692"/>
<path d="M162.09 108.74C161.294 108.74 160.531 108.424 159.969 107.861C159.406 107.299 159.09 106.536 159.09 105.74C159.09 104.944 159.406 104.181 159.969 103.619C160.531 103.056 161.294 102.74 162.09 102.74C162.886 102.74 163.649 103.056 164.211 103.619C164.774 104.181 165.09 104.944 165.09 105.74C165.09 106.536 164.774 107.299 164.211 107.861C163.649 108.424 162.886 108.74 162.09 108.74Z" fill="#F27692"/>
<path d="M167.38 196.25C166.584 196.25 165.821 195.934 165.259 195.371C164.696 194.809 164.38 194.046 164.38 193.25C164.38 192.454 164.696 191.691 165.259 191.129C165.821 190.566 166.584 190.25 167.38 190.25C168.176 190.25 168.939 190.566 169.501 191.129C170.064 191.691 170.38 192.454 170.38 193.25C170.38 194.046 170.064 194.809 169.501 195.371C168.939 195.934 168.176 196.25 167.38 196.25Z" fill="#F27692"/>
</g>
<g clip-path="url(#clip2_3_1640)">
<path d="M133.93 58.55C132.95 58.5447 132.012 58.1532 131.319 57.4605C130.627 56.7677 130.235 55.8297 130.23 54.85C130.233 53.8695 130.623 52.9299 131.317 52.2366C132.01 51.5433 132.949 51.1526 133.93 51.15C134.91 51.1526 135.85 51.5433 136.543 52.2366C137.237 52.9299 137.627 53.8695 137.63 54.85C137.625 55.8297 137.233 56.7677 136.54 57.4605C135.848 58.1532 134.91 58.5447 133.93 58.55Z" fill="#00AE4F"/>
<path d="M53.22 97.62C52.2413 97.6174 51.3032 97.2281 50.6102 96.5369C49.9171 95.8458 49.5253 94.9088 49.52 93.93C49.5227 92.9495 49.9133 92.0099 50.6066 91.3166C51.2999 90.6233 52.2395 90.2327 53.22 90.23C54.2005 90.2327 55.1401 90.6233 55.8334 91.3166C56.5267 92.0099 56.9174 92.9495 56.92 93.93C56.9147 94.9088 56.5229 95.8458 55.8299 96.5369C55.1369 97.2281 54.1988 97.6174 53.22 97.62Z" fill="#00AE4F"/>
<path d="M42.85 163.13C41.9836 163.127 41.1534 162.782 40.5407 162.169C39.928 161.557 39.5827 160.726 39.58 159.86C39.5827 158.994 39.928 158.163 40.5407 157.551C41.1534 156.938 41.9836 156.593 42.85 156.59C43.7165 156.593 44.5467 156.938 45.1593 157.551C45.772 158.163 46.1174 158.994 46.12 159.86C46.1174 160.726 45.772 161.557 45.1593 162.169C44.5467 162.782 43.7165 163.127 42.85 163.13Z" fill="#00AE4F"/>
<path d="M103.71 26.11C102.914 26.11 102.151 25.7939 101.589 25.2313C101.026 24.6687 100.71 23.9056 100.71 23.11C100.71 22.3143 101.026 21.5513 101.589 20.9887C102.151 20.4261 102.914 20.11 103.71 20.11C104.506 20.11 105.269 20.4261 105.831 20.9887C106.394 21.5513 106.71 22.3143 106.71 23.11C106.71 23.9056 106.394 24.6687 105.831 25.2313C105.269 25.7939 104.506 26.11 103.71 26.11Z" fill="#00AE4F"/>
<path d="M84.7 33.71C83.9044 33.71 83.1413 33.3939 82.5787 32.8313C82.0161 32.2687 81.7 31.5056 81.7 30.71C81.7 29.9143 82.0161 29.1513 82.5787 28.5887C83.1413 28.0261 83.9044 27.71 84.7 27.71C85.4957 27.71 86.2587 28.0261 86.8213 28.5887C87.3839 29.1513 87.7 29.9143 87.7 30.71C87.7 31.5056 87.3839 32.2687 86.8213 32.8313C86.2587 33.3939 85.4957 33.71 84.7 33.71Z" fill="#00AE4F"/>
<path d="M51.53 28.43C50.7343 28.43 49.9713 28.1139 49.4087 27.5513C48.8461 26.9887 48.53 26.2256 48.53 25.43C48.53 24.6343 48.8461 23.8713 49.4087 23.3087C49.9713 22.7461 50.7343 22.43 51.53 22.43C52.3256 22.43 53.0887 22.7461 53.6513 23.3087C54.2139 23.8713 54.53 24.6343 54.53 25.43C54.53 26.2256 54.2139 26.9887 53.6513 27.5513C53.0887 28.1139 52.3256 28.43 51.53 28.43Z" fill="#00AE4F"/>
<path d="M43.29 51.04C42.4944 51.04 41.7313 50.7239 41.1687 50.1613C40.6061 49.5987 40.29 48.8357 40.29 48.04C40.29 47.2444 40.6061 46.4813 41.1687 45.9187C41.7313 45.3561 42.4944 45.04 43.29 45.04C44.0857 45.04 44.8487 45.3561 45.4113 45.9187C45.9739 46.4813 46.29 47.2444 46.29 48.04C46.29 48.8357 45.9739 49.5987 45.4113 50.1613C44.8487 50.7239 44.0857 51.04 43.29 51.04Z" fill="#00AE4F"/>
<path d="M91.25 72.38C90.4544 72.38 89.6913 72.0639 89.1287 71.5013C88.5661 70.9387 88.25 70.1757 88.25 69.38C88.25 68.5844 88.5661 67.8213 89.1287 67.2587C89.6913 66.6961 90.4544 66.38 91.25 66.38C92.0456 66.38 92.8087 66.6961 93.3713 67.2587C93.9339 67.8213 94.25 68.5844 94.25 69.38C94.25 70.1757 93.9339 70.9387 93.3713 71.5013C92.8087 72.0639 92.0456 72.38 91.25 72.38Z" fill="#00AE4F"/>
<path d="M100.12 93.93C99.3243 93.93 98.5613 93.6139 97.9987 93.0513C97.4361 92.4887 97.12 91.7256 97.12 90.93C97.12 90.1343 97.4361 89.3713 97.9987 88.8087C98.5613 88.2461 99.3243 87.93 100.12 87.93C100.916 87.93 101.679 88.2461 102.241 88.8087C102.804 89.3713 103.12 90.1343 103.12 90.93C103.12 91.7256 102.804 92.4887 102.241 93.0513C101.679 93.6139 100.916 93.93 100.12 93.93Z" fill="#00AE4F"/>
<path d="M79.69 139.72C78.8253 139.715 77.9976 139.368 77.3871 138.756C76.7766 138.143 76.4326 137.315 76.43 136.45C76.4326 135.585 76.7766 134.757 77.3871 134.144C77.9976 133.532 78.8253 133.185 79.69 133.18C80.5564 133.183 81.3867 133.528 81.9993 134.141C82.612 134.753 82.9574 135.584 82.96 136.45C82.9574 137.316 82.612 138.147 81.9993 138.759C81.3867 139.372 80.5564 139.717 79.69 139.72Z" fill="#00AE4F"/>
<path d="M102.72 146.48C101.855 146.475 101.028 146.128 100.417 145.516C99.8066 144.903 99.4626 144.075 99.46 143.21C99.4626 142.345 99.8066 141.517 100.417 140.904C101.028 140.292 101.855 139.945 102.72 139.94C103.586 139.943 104.417 140.288 105.029 140.901C105.642 141.513 105.987 142.344 105.99 143.21C105.987 144.076 105.642 144.907 105.029 145.519C104.417 146.132 103.586 146.477 102.72 146.48Z" fill="#00AE4F"/>
<path d="M36.34 119.23H35.58C33.9839 119.23 32.69 120.524 32.69 122.12V122.88C32.69 124.476 33.9839 125.77 35.58 125.77H36.34C37.9361 125.77 39.23 124.476 39.23 122.88V122.12C39.23 120.524 37.9361 119.23 36.34 119.23Z" fill="#00AE4F"/>
<path d="M111.6 108.24C110.734 108.237 109.903 107.892 109.291 107.279C108.678 106.667 108.333 105.836 108.33 104.97C108.333 104.104 108.678 103.273 109.291 102.661C109.903 102.048 110.734 101.703 111.6 101.7C112.466 101.703 113.297 102.048 113.909 102.661C114.522 103.273 114.867 104.104 114.87 104.97C114.867 105.836 114.522 106.667 113.909 107.279C113.297 107.892 112.466 108.237 111.6 108.24Z" fill="#00AE4F"/>
<path d="M64.69 190.43C63.8235 190.427 62.9933 190.082 62.3807 189.469C61.768 188.857 61.4226 188.026 61.42 187.16C61.4226 186.294 61.768 185.463 62.3807 184.851C62.9933 184.238 63.8235 183.893 64.69 183.89C65.5564 183.893 66.3866 184.238 66.9993 184.851C67.612 185.463 67.9574 186.294 67.96 187.16C67.9574 188.026 67.612 188.857 66.9993 189.469C66.3866 190.082 65.5564 190.427 64.69 190.43Z" fill="#00AE4F"/>
<path d="M119.84 175.22C118.974 175.217 118.143 174.872 117.531 174.259C116.918 173.647 116.573 172.816 116.57 171.95C116.573 171.084 116.918 170.253 117.531 169.641C118.143 169.028 118.974 168.683 119.84 168.68C120.706 168.683 121.537 169.028 122.149 169.641C122.762 170.253 123.107 171.084 123.11 171.95C123.107 172.816 122.762 173.647 122.149 174.259C121.537 174.872 120.706 175.217 119.84 175.22Z" fill="#00AE4F"/>
<path d="M90.18 211.6C89.3153 211.595 88.4876 211.248 87.8771 210.636C87.2666 210.023 86.9226 209.195 86.92 208.33C86.9226 207.465 87.2666 206.637 87.8771 206.024C88.4876 205.412 89.3153 205.065 90.18 205.06C91.0464 205.063 91.8766 205.408 92.4893 206.021C93.102 206.633 93.4473 207.464 93.45 208.33C93.4473 209.196 93.102 210.027 92.4893 210.639C91.8766 211.252 91.0464 211.597 90.18 211.6Z" fill="#00AE4F"/>
<path d="M146.39 111.45C145.524 111.447 144.693 111.102 144.081 110.489C143.468 109.877 143.123 109.046 143.12 108.18C143.123 107.314 143.468 106.483 144.081 105.871C144.693 105.258 145.524 104.913 146.39 104.91C147.256 104.913 148.087 105.258 148.699 105.871C149.312 106.483 149.657 107.314 149.66 108.18C149.657 109.046 149.312 109.877 148.699 110.489C148.087 111.102 147.256 111.447 146.39 111.45Z" fill="#00AE4F"/>
<path d="M129.48 205.26C128.614 205.257 127.783 204.912 127.171 204.299C126.558 203.687 126.213 202.856 126.21 201.99C126.213 201.124 126.558 200.293 127.171 199.681C127.783 199.068 128.614 198.723 129.48 198.72C130.346 198.723 131.177 199.068 131.789 199.681C132.402 200.293 132.747 201.124 132.75 201.99C132.747 202.856 132.402 203.687 131.789 204.299C131.177 204.912 130.346 205.257 129.48 205.26Z" fill="#00AE4F"/>
</g>
</g>
<defs>
<clipPath id="clip0_3_1640">
<rect width="190.15" height="234.8" fill="white"/>
</clipPath>
<clipPath id="clip1_3_1640">
<rect width="173.93" height="249.28" fill="white"/>
</clipPath>
<clipPath id="clip2_3_1640">
<rect width="169.66" height="227.59" fill="white" transform="translate(-20 -16)"/>
</clipPath>
</defs>
</svg>
