<svg width="176" height="216" viewBox="0 0 176 216" fill="none" xmlns="http://www.w3.org/2000/svg">
<g clip-path="url(#clip0_5_2258)">
<path d="M29.37 186.54C29.37 186.54 0.809992 154.13 0.0399918 99.35C-0.730008 44.57 28.89 9.59998 59.46 2.11998C97.27 -7.14002 148.97 13.69 157.46 70.02C165.95 126.35 148.94 173.43 137.37 183.46C125.8 193.49 29.37 186.54 29.37 186.54Z" fill="#D1E7EA"/>
<path d="M88.46 215.09C136.779 215.09 175.95 204.036 175.95 190.4C175.95 176.764 136.779 165.71 88.46 165.71C40.1406 165.71 0.970001 176.764 0.970001 190.4C0.970001 204.036 40.1406 215.09 88.46 215.09Z" fill="#92C6CC"/>
<path d="M167.57 182.44C167.74 187.12 168.47 192.44 166.23 196.7C166.141 196.862 165.999 196.987 165.827 197.055C165.655 197.122 165.465 197.128 165.29 197.07C165.288 197.193 165.241 197.31 165.158 197.401C165.075 197.491 164.962 197.548 164.84 197.56C152 199.317 139.01 199.693 126.09 198.68C125.988 198.673 125.889 198.641 125.8 198.589C125.712 198.536 125.638 198.464 125.582 198.378C125.527 198.291 125.492 198.193 125.482 198.091C125.471 197.989 125.484 197.886 125.52 197.79C121.69 196.52 123.45 178.2 124.16 175.95C124.198 175.811 124.272 175.684 124.376 175.584C124.48 175.483 124.609 175.413 124.75 175.38C131.3 174.02 139.24 175.27 145.92 175.38L157.36 175.56C159.36 175.61 163.28 174.96 165.21 176.07C167.57 177.39 167.48 180.02 167.57 182.44ZM164.64 196.04C165.64 193.54 167.03 184.21 165.77 181.25C163.34 175.65 151.4 177.25 146.29 177.25C146.363 177.308 146.423 177.381 146.466 177.464C146.509 177.546 146.534 177.637 146.54 177.73C146.94 184.07 147.4 190.73 146.54 197.05C152.54 196.87 158.567 196.63 164.62 196.33C164.612 196.233 164.619 196.135 164.64 196.04ZM145.37 177.24L137.31 177.07C135.48 177.02 130.42 176.22 128.73 176.87C124.27 178.58 125.34 182.76 125.34 186.27C125.34 188.12 124.69 196.56 126.5 196.88C126.553 196.892 126.604 196.916 126.647 196.949C126.691 196.982 126.727 197.024 126.752 197.073C126.778 197.121 126.793 197.175 126.796 197.229C126.799 197.284 126.79 197.339 126.77 197.39C133.12 197.39 139.41 197.25 145.77 197.07C145.24 190.66 145.53 184.15 145.21 177.73C145.2 177.642 145.209 177.552 145.237 177.468C145.264 177.383 145.31 177.305 145.37 177.24Z" fill="#222221"/>
<path d="M165.77 181.25C167.03 184.25 165.69 193.54 164.64 196.04C164.609 196.134 164.592 196.231 164.59 196.33C158.537 196.643 152.51 196.883 146.51 197.05C147.4 190.73 146.94 184.05 146.51 177.73C146.504 177.637 146.479 177.546 146.436 177.464C146.393 177.381 146.333 177.308 146.26 177.25C151.37 177.25 163.37 175.68 165.77 181.25ZM160.63 185.83C160.895 185.663 161.097 185.411 161.202 185.115C161.307 184.82 161.31 184.497 161.21 184.2C161.195 184.147 161.17 184.097 161.135 184.053C161.101 184.01 161.059 183.974 161.01 183.947C160.962 183.92 160.909 183.903 160.854 183.896C160.799 183.89 160.743 183.895 160.69 183.91C159.993 182.979 159.01 182.303 157.892 181.985C156.774 181.667 155.582 181.725 154.5 182.15C151.61 183.24 150.66 186.65 150.77 189.49C151.01 195.97 160.32 196.73 160.98 190.09C160.993 189.991 160.973 189.891 160.922 189.806C160.871 189.721 160.793 189.655 160.7 189.62C160.87 189.31 160.47 188.84 160.15 189.09C158.82 190.09 156.51 190.73 155.7 188.74C155.537 188.369 155.513 187.952 155.632 187.565C155.751 187.177 156.005 186.845 156.348 186.63C156.691 186.414 157.1 186.329 157.5 186.389C157.901 186.45 158.266 186.652 158.53 186.96C158.592 187.032 158.68 187.078 158.775 187.088C158.87 187.097 158.965 187.069 159.04 187.01H159.1C159.411 187.042 159.724 186.972 159.992 186.81C160.259 186.647 160.466 186.401 160.58 186.11C160.617 186.021 160.634 185.926 160.63 185.83Z" fill="#E09E25"/>
<path d="M161.21 184.2C161.31 184.497 161.307 184.82 161.202 185.115C161.097 185.411 160.895 185.663 160.63 185.83C160.654 185.932 160.654 186.038 160.63 186.14C160.516 186.431 160.309 186.677 160.042 186.84C159.774 187.002 159.461 187.073 159.15 187.04H159.09C159.015 187.099 158.92 187.127 158.825 187.118C158.73 187.108 158.642 187.063 158.58 186.99C158.316 186.682 157.951 186.48 157.55 186.419C157.15 186.359 156.74 186.444 156.398 186.66C156.055 186.876 155.801 187.207 155.682 187.595C155.563 187.982 155.587 188.399 155.75 188.77C156.56 190.77 158.87 190.14 160.2 189.12C160.52 188.87 160.92 189.34 160.75 189.65C160.843 189.685 160.921 189.751 160.972 189.836C161.023 189.922 161.043 190.022 161.03 190.12C160.37 196.76 151.03 196 150.82 189.52C150.71 186.68 151.66 183.27 154.55 182.18C155.632 181.755 156.824 181.697 157.942 182.015C159.06 182.333 160.043 183.009 160.74 183.94C160.836 183.922 160.936 183.938 161.022 183.985C161.108 184.033 161.174 184.109 161.21 184.2ZM160.27 185.34C160.379 185.163 160.434 184.958 160.43 184.75C160.397 184.758 160.363 184.758 160.33 184.75C159.74 184.098 158.982 183.621 158.139 183.371C157.296 183.12 156.4 183.106 155.55 183.33C153.55 183.85 152.71 185.6 152.37 187.51C151.94 189.92 152.22 192.9 154.99 193.71C155.51 193.845 156.051 193.872 156.582 193.789C157.112 193.706 157.62 193.514 158.073 193.226C158.526 192.938 158.915 192.56 159.216 192.115C159.516 191.67 159.722 191.168 159.82 190.64C159.345 191.01 158.783 191.251 158.187 191.338C157.592 191.426 156.984 191.358 156.422 191.14C155.861 190.922 155.366 190.563 154.985 190.097C154.604 189.63 154.351 189.073 154.25 188.48C154.148 187.851 154.27 187.205 154.596 186.657C154.921 186.109 155.429 185.692 156.03 185.48C156.52 185.28 157.061 185.237 157.577 185.357C158.092 185.477 158.558 185.754 158.91 186.15C159.18 185.9 159.56 185.68 159.7 185.51C159.763 185.423 159.853 185.359 159.956 185.329C160.059 185.298 160.169 185.302 160.27 185.34Z" fill="#222221"/>
<path d="M160.43 184.75C160.434 184.958 160.379 185.163 160.27 185.34C160.175 185.296 160.068 185.284 159.965 185.306C159.863 185.328 159.77 185.382 159.7 185.46C159.56 185.63 159.18 185.85 158.91 186.1C158.558 185.704 158.092 185.427 157.577 185.307C157.061 185.187 156.52 185.23 156.03 185.43C155.429 185.642 154.921 186.059 154.596 186.607C154.27 187.155 154.148 187.801 154.25 188.43C154.351 189.023 154.604 189.58 154.985 190.047C155.366 190.513 155.861 190.872 156.422 191.09C156.984 191.308 157.592 191.376 158.187 191.288C158.783 191.201 159.345 190.96 159.82 190.59C159.722 191.118 159.516 191.62 159.216 192.065C158.915 192.51 158.526 192.888 158.073 193.176C157.62 193.464 157.112 193.656 156.582 193.739C156.051 193.822 155.51 193.795 154.99 193.66C152.22 192.85 151.94 189.87 152.37 187.46C152.71 185.55 153.54 183.8 155.55 183.28C156.404 183.046 157.307 183.053 158.158 183.3C159.008 183.547 159.774 184.025 160.37 184.68C160.385 184.707 160.405 184.731 160.43 184.75Z" fill="#B4D6DB"/>
<path d="M137.37 177.07L145.43 177.24C145.363 177.302 145.31 177.378 145.275 177.463C145.241 177.547 145.225 177.639 145.23 177.73C145.55 184.15 145.23 190.66 145.79 197.07C139.47 197.25 133.18 197.36 126.79 197.39C126.81 197.339 126.819 197.284 126.816 197.23C126.813 197.175 126.798 197.121 126.772 197.073C126.747 197.025 126.711 196.982 126.667 196.949C126.624 196.916 126.573 196.892 126.52 196.88C124.71 196.56 125.34 188.12 125.36 186.27C125.36 182.76 124.29 178.58 128.75 176.87C130.46 176.22 135.52 177.02 137.37 177.07ZM141.56 192.07C142.5 190.28 140.99 188.07 139.2 187.53C139.66 187.18 140.046 186.741 140.333 186.239C140.621 185.737 140.805 185.183 140.875 184.608C140.945 184.034 140.899 183.452 140.74 182.896C140.581 182.339 140.313 181.821 139.95 181.37C137.61 178.5 132.95 179.92 130.17 181.27C130.124 181.293 130.083 181.325 130.05 181.364C130.017 181.404 129.993 181.45 129.98 181.5C129.845 181.494 129.714 181.541 129.613 181.631C129.512 181.72 129.45 181.846 129.44 181.98C129.284 185.638 129.62 189.301 130.44 192.87C130.45 192.919 130.472 192.965 130.504 193.004C130.535 193.043 130.576 193.074 130.622 193.094C130.669 193.113 130.719 193.121 130.769 193.117C130.819 193.113 130.868 193.097 130.91 193.07C130.907 193.23 130.963 193.386 131.069 193.506C131.174 193.626 131.321 193.703 131.48 193.72C133.593 193.945 135.725 193.915 137.83 193.63C139.08 193.46 140.86 193.33 141.54 192.07H141.56Z" fill="#F0D682"/>
<path d="M139.18 187.53C140.97 188.1 142.48 190.28 141.54 192.07C140.86 193.33 139.08 193.46 137.85 193.63C135.745 193.915 133.613 193.945 131.5 193.72C131.341 193.703 131.194 193.626 131.089 193.506C130.983 193.385 130.927 193.23 130.93 193.07C130.888 193.097 130.839 193.113 130.789 193.117C130.739 193.121 130.689 193.113 130.642 193.094C130.596 193.074 130.555 193.043 130.524 193.004C130.492 192.965 130.47 192.919 130.46 192.87C129.64 189.301 129.304 185.638 129.46 181.98C129.47 181.846 129.532 181.72 129.633 181.631C129.734 181.541 129.865 181.494 130 181.5C130.013 181.45 130.037 181.404 130.07 181.364C130.103 181.325 130.144 181.293 130.19 181.27C132.98 179.92 137.63 178.5 139.97 181.37C140.331 181.823 140.597 182.344 140.752 182.902C140.908 183.459 140.95 184.043 140.877 184.617C140.803 185.191 140.615 185.745 140.323 186.245C140.032 186.746 139.643 187.183 139.18 187.53ZM139.68 191.95C140.33 191.53 140.32 190.12 139.89 189.46C139.387 188.835 138.718 188.364 137.96 188.1C137.885 188.105 137.81 188.091 137.742 188.06C137.674 188.028 137.615 187.98 137.57 187.92C137.526 187.895 137.493 187.855 137.476 187.807C137.46 187.759 137.461 187.707 137.48 187.66C137.454 187.543 137.462 187.42 137.503 187.307C137.544 187.194 137.615 187.094 137.71 187.02C138.266 186.713 138.732 186.265 139.06 185.721C139.389 185.176 139.568 184.555 139.58 183.92C139.504 183.124 139.131 182.385 138.533 181.853C137.936 181.321 137.16 181.034 136.36 181.05C136.203 181.04 136.046 181.04 135.89 181.05C134.05 181.162 132.229 181.48 130.46 182C131.164 185.497 131.409 189.07 131.19 192.63C131.288 192.568 131.403 192.536 131.52 192.54C133.752 192.687 135.993 192.613 138.21 192.32C138.718 192.282 139.215 192.157 139.68 191.95Z" fill="#222221"/>
<path d="M139.89 189.46C140.32 190.12 140.33 191.53 139.68 191.95C139.207 192.152 138.703 192.271 138.19 192.3C135.973 192.593 133.732 192.667 131.5 192.52C131.383 192.516 131.268 192.547 131.17 192.61C131.389 189.05 131.144 185.477 130.44 181.98C132.209 181.46 134.03 181.142 135.87 181.03C136.027 181.02 136.183 181.02 136.34 181.03C137.14 181.014 137.916 181.301 138.513 181.833C139.111 182.365 139.484 183.104 139.56 183.9C139.548 184.535 139.369 185.156 139.04 185.7C138.712 186.245 138.246 186.693 137.69 187C137.595 187.074 137.524 187.174 137.483 187.287C137.442 187.4 137.434 187.522 137.46 187.64C137.441 187.687 137.44 187.739 137.456 187.787C137.473 187.834 137.506 187.875 137.55 187.9C137.595 187.96 137.654 188.008 137.722 188.039C137.79 188.071 137.865 188.085 137.94 188.08C138.708 188.346 139.384 188.825 139.89 189.46ZM136.63 190.93C137.2 190.68 136.86 189.93 136.34 189.86C135.395 189.873 134.472 190.154 133.68 190.67C133.627 190.702 133.585 190.75 133.559 190.806C133.532 190.862 133.523 190.925 133.531 190.986C133.539 191.047 133.566 191.105 133.606 191.152C133.647 191.199 133.7 191.233 133.76 191.25C134.728 191.42 135.724 191.309 136.63 190.93ZM136.13 185.62C136.264 185.602 136.388 185.536 136.477 185.434C136.566 185.331 136.615 185.201 136.615 185.065C136.615 184.929 136.566 184.798 136.477 184.696C136.388 184.594 136.264 184.528 136.13 184.51C135.24 184.51 134.33 184.65 133.43 184.71C133.346 184.724 133.27 184.767 133.215 184.832C133.16 184.897 133.13 184.98 133.13 185.065C133.13 185.15 133.16 185.232 133.215 185.297C133.27 185.362 133.346 185.406 133.43 185.42C134.37 185.48 135.24 185.68 136.13 185.62Z" fill="#E09E25"/>
<path d="M136.37 189.86C136.89 189.91 137.23 190.68 136.66 190.93C135.753 191.306 134.757 191.413 133.79 191.24C133.73 191.223 133.677 191.189 133.636 191.142C133.596 191.095 133.569 191.037 133.561 190.976C133.553 190.915 133.562 190.852 133.589 190.796C133.615 190.74 133.657 190.693 133.71 190.66C134.502 190.144 135.425 189.863 136.37 189.85V189.86Z" fill="#222221"/>
<path d="M136.13 184.51C136.264 184.528 136.388 184.594 136.477 184.696C136.566 184.798 136.615 184.929 136.615 185.065C136.615 185.201 136.566 185.332 136.477 185.434C136.388 185.536 136.264 185.602 136.13 185.62C135.24 185.62 134.33 185.48 133.43 185.42C133.346 185.406 133.27 185.362 133.215 185.297C133.16 185.233 133.13 185.15 133.13 185.065C133.13 184.98 133.16 184.898 133.215 184.833C133.27 184.768 133.346 184.724 133.43 184.71C134.37 184.68 135.24 184.49 136.13 184.51Z" fill="#222221"/>
<path d="M105.23 141.55C105.225 141.65 105.2 141.748 105.155 141.838C105.111 141.928 105.048 142.007 104.97 142.071C104.893 142.135 104.803 142.183 104.707 142.21C104.61 142.237 104.509 142.244 104.41 142.23C102.91 142 101.41 141.75 99.95 141.47C101.717 146.207 104.232 150.63 107.4 154.57C108.755 152.249 109.489 149.618 109.53 146.93C109.67 142.33 108.35 137.78 106.71 133.37H106.62C103.517 131.352 100.152 129.767 96.62 128.66C97.09 130.45 97.62 132.23 98.25 133.97C100.758 134.709 103.189 135.686 105.51 136.89C105.62 136.917 105.722 136.969 105.81 137.04C105.857 137.052 105.901 137.072 105.94 137.1C105.99 137.131 106.031 137.172 106.062 137.222C106.093 137.271 106.112 137.327 106.118 137.385C106.124 137.443 106.116 137.502 106.096 137.556C106.075 137.611 106.042 137.66 106 137.7C105.94 138.94 105.94 140.14 106 141.39C106.021 141.492 106.001 141.598 105.944 141.686C105.887 141.773 105.797 141.834 105.695 141.855C105.593 141.876 105.487 141.856 105.399 141.799C105.312 141.742 105.251 141.652 105.23 141.55ZM165.37 118.12C165.57 121.53 166.73 125.77 163.58 128.12C160.15 130.62 154.09 130.57 149.97 130.98C147.07 131.25 140.97 132.81 138.59 130.23C137.24 128.77 136.8 126.28 136.82 123.77C135.775 124.044 134.672 123.988 133.66 123.61H133.53C122.89 124.068 112.307 121.822 102.77 117.08C105.12 122.82 107.36 128.59 109.27 134.41C111.34 140.68 112.99 147.95 110.2 154.27C108.74 157.425 106.435 160.115 103.54 162.04C103.54 162.04 103.54 162.11 103.54 162.16C103.42 169.92 104.1 177.56 104.28 185.31C104.274 185.354 104.257 185.395 104.23 185.43C105.344 185.991 106.213 186.941 106.674 188.101C107.135 189.26 107.154 190.547 106.73 191.72C107.23 191.919 107.668 192.248 107.997 192.674C108.326 193.1 108.534 193.606 108.6 194.14C108.623 194.593 108.54 195.045 108.358 195.461C108.176 195.876 107.9 196.244 107.552 196.534C107.204 196.825 106.794 197.031 106.352 197.136C105.911 197.242 105.452 197.243 105.01 197.14C104.508 197.592 103.874 197.872 103.201 197.939C102.528 198.006 101.851 197.855 101.27 197.51C100.725 198.018 100.038 198.35 99.3011 198.461C98.5639 198.571 97.8105 198.456 97.14 198.13C96.5809 198.42 95.9559 198.56 95.3265 198.535C94.697 198.511 94.0848 198.323 93.55 197.99C92.9547 198.656 92.1538 199.103 91.2748 199.26C90.3959 199.418 89.4895 199.277 88.7 198.86C87.7486 198.433 86.9952 197.66 86.5922 196.698C86.1893 195.737 86.1671 194.658 86.53 193.68C86.9482 192.757 87.6484 191.99 88.53 191.49C88.4594 191.436 88.4057 191.364 88.3756 191.28C88.3454 191.197 88.34 191.106 88.36 191.02C88.7188 189.076 89.8336 187.354 91.46 186.23C91.3933 186.203 91.3346 186.159 91.2891 186.103C91.2437 186.047 91.2131 185.981 91.2 185.91C89.7692 179.728 86.5811 174.092 82.02 169.68C81.9209 169.577 81.8532 169.448 81.8248 169.308C81.7965 169.168 81.8087 169.023 81.86 168.89C79.7 169.11 77.59 169.23 75.64 169.28C75.6342 169.37 75.6104 169.459 75.57 169.54C72.63 175.28 71.75 181.24 71.95 187.63C71.95 187.68 71.95 187.69 71.95 187.72C72.9655 188.547 73.8697 189.501 74.64 190.56C74.7351 190.679 74.7848 190.828 74.78 190.98C75.4303 191.152 76.0215 191.497 76.49 191.98C77.1313 192.745 77.4827 193.712 77.4827 194.71C77.4827 195.708 77.1313 196.675 76.49 197.44C75.6907 198.351 74.6012 198.958 73.4059 199.159C72.2106 199.359 70.9828 199.141 69.93 198.54C69.197 198.114 68.5845 197.508 68.15 196.78C67.761 197.492 67.1062 198.02 66.3286 198.251C65.5511 198.481 64.7139 198.395 64 198.01C63.8535 197.912 63.7132 197.805 63.58 197.69C63.3107 197.997 62.9781 198.243 62.605 198.409C62.2318 198.576 61.8271 198.66 61.4185 198.655C61.0099 198.65 60.6072 198.557 60.238 198.382C59.8689 198.207 59.542 197.954 59.28 197.64C59.22 197.55 59.17 197.44 59.12 197.35C58.8238 197.722 58.438 198.013 57.9987 198.195C57.5595 198.378 57.0811 198.446 56.6085 198.393C56.1358 198.34 55.6843 198.168 55.2963 197.893C54.9083 197.617 54.5965 197.248 54.39 196.82C54.2913 196.602 54.2337 196.369 54.22 196.13C53.8617 196.233 53.4843 196.252 53.1175 196.186C52.7506 196.119 52.404 195.969 52.1049 195.746C51.8058 195.523 51.5621 195.234 51.393 194.902C51.2239 194.57 51.1339 194.203 51.13 193.83C51.1522 193.53 51.2344 193.237 51.3718 192.969C51.5092 192.701 51.699 192.463 51.93 192.27C51.9623 191.514 52.1787 190.777 52.5603 190.124C52.942 189.47 53.4774 188.92 54.12 188.52C54.1188 188.467 54.1299 188.413 54.1525 188.365C54.175 188.316 54.2084 188.274 54.25 188.24L54.4 188.1C51.9447 179.781 50.2708 171.25 49.4 162.62V162.56C45.8052 159.61 43.2819 155.558 42.22 151.03C40.09 142.63 42.15 134.9 45.22 127.35C41.4212 130.327 37.0454 132.483 32.37 133.68C32.2469 134.767 32.0294 135.841 31.72 136.89C31.5798 137.728 31.3415 138.547 31.01 139.33C30.8254 139.882 30.456 140.354 29.9642 140.665C29.4723 140.977 28.8881 141.109 28.31 141.04C27.6963 140.864 27.155 140.496 26.7647 139.99C26.3744 139.485 26.1556 138.868 26.14 138.23C26.0964 137.79 26.1337 137.346 26.25 136.92C24.53 138.71 22.25 140.24 20.95 138.68C19.95 137.52 21.34 135.36 22.05 134.39C22.11 134.3 22.2 134.21 22.28 134.11C19.79 135.19 17.03 135.7 16.92 133.25C16.83 131.37 19.41 129.9 20.81 129.19C22.0518 128.551 23.4152 128.183 24.81 128.11C22.69 126.86 20.02 124.53 22.26 122.77C23.45 121.84 25.26 122.94 26.26 123.57C27.3497 124.2 28.3292 125.004 29.16 125.95C29.24 125.95 29.3 125.87 29.4 125.84C34.63 124.31 38.78 118.9 42.19 114.84C46.36 109.95 48.58 104.91 50.88 99.1C40.49 96.26 31.31 90.27 30.65 78.55C26.06 80.19 20.77 76.49 19.94 71.89C19.6235 69.8538 20.0574 67.7719 21.1611 66.0318C22.2648 64.2916 23.9631 63.0116 25.94 62.43C22.64 41.82 29.94 23.7 51.05 17.84C55.2318 16.7007 59.5159 15.9772 63.84 15.68C61.8954 13.3821 60.1397 10.9308 58.59 8.35004C58.11 7.53004 59.31 6.55004 59.95 7.35004C62.0228 9.94831 63.8759 12.7145 65.49 15.62C67.59 15.51 69.7 15.48 71.83 15.56C71.7928 14.3715 71.686 13.1861 71.51 12.01C71.26 10.7 70.75 9.43003 70.51 8.12003C70.39 7.24003 71.51 6.58003 72.05 7.47003C73.3 9.71003 73.56 12.97 73.29 15.61C74.77 15.7 76.29 15.84 77.72 16.01C77.93 12.73 80.31 8.66003 83.55 8.06003C84.28 7.92003 85.05 8.86002 84.35 9.43002C83.04 10.53 81.62 11.19 80.6 12.66C79.891 13.732 79.3953 14.9305 79.14 16.19C89.96 17.68 100.37 21.68 108.28 28.44C114.49 33.75 117.82 40.54 116.2 48.69C114.63 56.63 113.99 62.54 115.03 70.69C115.51 74.54 116.03 78.5 114.97 82.3C113.05 89.51 107.77 94.01 101.17 96.82C110.07 106.41 120.41 112.55 132.88 116.42C132.972 116.442 133.059 116.483 133.134 116.539C133.21 116.596 133.273 116.668 133.32 116.75C133.79 115.3 134.84 113.06 136.23 112.07C136.23 112.02 136.23 111.99 136.23 111.93C136.35 108.81 135.61 105.65 138.59 104.25C141.21 103.03 145.53 103.31 148.44 102.92C151.14 102.55 153.85 102.09 156.57 101.85C159.29 101.61 162.66 101.53 164.15 104.26C166.07 107.84 165.12 114.22 165.37 118.12ZM160.85 127.36C165.02 125.22 163.6 119.73 163.39 116.14C163.26 113.64 163.75 109.57 162.89 107.19C160.89 101.76 154.89 104.09 150.89 104.62C148.51 104.92 146.12 105.23 143.74 105.56C139.74 106.08 138.33 107.8 137.82 111.62C138.043 111.65 138.261 111.707 138.47 111.79C141.15 112.95 139.96 116.02 138.47 117.7C138.47 117.7 138.47 117.75 138.47 117.77C138.59 121.59 137.47 128.21 142.08 129.6C144.43 130.3 148.36 129.31 150.83 129.03C153.3 128.75 158.29 128.68 160.82 127.36H160.85ZM138.79 114.79C139.09 113.69 138.21 112.47 137.08 113.29C135.729 114.487 134.684 115.988 134.03 117.67C133.989 117.734 133.933 117.787 133.867 117.823C133.8 117.86 133.726 117.879 133.65 117.879C133.574 117.879 133.5 117.86 133.433 117.823C133.367 117.787 133.311 117.734 133.27 117.67C133.181 117.78 133.061 117.862 132.926 117.905C132.791 117.947 132.646 117.949 132.51 117.91C119.716 114.988 108.332 107.718 100.3 97.34C100.3 97.34 100.3 97.27 100.3 97.23C90.08 101.23 76.99 101.46 68.09 101.32C62.602 101.274 57.1382 100.586 51.81 99.27C51.59 105.27 47.81 110.77 44.18 115.32C40.55 119.87 36.05 125.99 30.03 127.58C29.8298 127.633 29.6169 127.611 29.4323 127.517C29.2477 127.422 29.1044 127.263 29.03 127.07C27.7806 126.086 26.4414 125.223 25.03 124.49C24.83 124.38 24.61 124.27 24.4 124.18C23.78 123.72 23.56 123.86 23.75 124.58C23.75 125.34 23.9 125.43 24.43 125.86C25.2651 126.504 26.1513 127.08 27.08 127.58C27.2054 127.657 27.3026 127.772 27.357 127.908C27.4114 128.045 27.4201 128.195 27.3818 128.337C27.3435 128.479 27.2603 128.605 27.1446 128.696C27.0289 128.786 26.8869 128.837 26.74 128.84C24.38 129.49 21.23 129.92 19.55 131.91C18.92 132.65 18.92 133.39 20.01 133.22C20.6548 133.114 21.2902 132.957 21.91 132.75C23.1139 132.245 24.2716 131.636 25.37 130.93C25.4488 130.885 25.5372 130.86 25.6278 130.857C25.7183 130.854 25.8083 130.873 25.8899 130.912C25.9715 130.952 26.0424 131.01 26.0964 131.083C26.1504 131.156 26.1859 131.241 26.2 131.33C26.2782 131.324 26.3562 131.343 26.4223 131.386C26.4883 131.428 26.5387 131.491 26.5659 131.564C26.5931 131.638 26.5955 131.718 26.5727 131.793C26.55 131.868 26.5034 131.934 26.44 131.98C25.3462 132.604 24.3767 133.425 23.58 134.4C23.13 134.97 21.73 136.86 22.21 137.55C23.09 138.83 26.99 133.71 27.67 133.12C27.7713 133.03 27.9008 132.979 28.036 132.975C28.1712 132.97 28.3037 133.013 28.4105 133.096C28.5173 133.18 28.5917 133.297 28.6208 133.429C28.65 133.562 28.632 133.7 28.57 133.82C28.24 135.23 26.48 140.07 28.94 139.42C30 139.15 30.14 137.34 30.36 136.42C30.5587 135.304 30.8634 134.209 31.27 133.15C31.298 133.089 31.3382 133.035 31.388 132.99C31.4379 132.945 31.4964 132.911 31.56 132.89C31.5776 132.845 31.6044 132.803 31.6389 132.769C31.6733 132.734 31.7146 132.708 31.76 132.69C37.2048 130.388 42.2875 127.309 46.85 123.55C49.77 117.09 53.1 110.7 54.85 104.11C55 103.51 56.01 103.61 55.96 104.25C54.96 116.35 46.21 126.12 43.96 138.05C51.2 130.24 63.5 126.55 73.54 124.94C84.69 123.17 95.86 124.7 105.54 130.37C104.95 128.92 104.36 127.47 103.81 126.07C101.09 119.15 98.3 112.26 95.74 105.28C95.31 104.09 97.14 103.66 97.6 104.77C99.1 108.35 100.6 111.95 102.11 115.56C112.001 119.859 122.686 122.03 133.47 121.93C133.57 121.923 133.671 121.937 133.766 121.97C133.861 122.004 133.948 122.057 134.022 122.125C134.096 122.193 134.155 122.276 134.196 122.368C134.237 122.46 134.259 122.559 134.26 122.66C135.11 122.58 135.96 122.44 136.79 122.3C136.894 120.922 137.091 119.552 137.38 118.2C137.281 118.15 137.194 118.079 137.127 117.991C137.059 117.903 137.012 117.801 136.989 117.693C136.966 117.584 136.967 117.472 136.993 117.364C137.02 117.256 137.07 117.156 137.14 117.07C137.844 116.441 138.398 115.662 138.76 114.79H138.79ZM113.19 51.88C115.03 43.75 114.7 37.77 108.48 31.55C105.05 28.3301 101.079 25.7404 96.75 23.9C86.1792 19.0281 74.5316 16.9617 62.93 17.9C52.17 18.81 40.02 22.13 33.32 31.2C26.84 40 26.22 51.46 27.89 61.9C27.9053 61.9961 27.9053 62.094 27.89 62.19C28.0107 62.2229 28.1172 62.2945 28.1932 62.3939C28.2692 62.4933 28.3103 62.6149 28.3103 62.74C28.3103 62.8651 28.2692 62.9868 28.1932 63.0862C28.1172 63.1855 28.0107 63.2572 27.89 63.29C24.43 64.46 21.25 67.59 22.04 71.56C22.83 75.53 26.81 77.08 30.48 76.84C30.5928 76.8248 30.7072 76.8248 30.82 76.84C31.16 76.46 31.95 76.46 32.04 77.07C33.77 89.62 43.18 95.67 54.49 98.17C65.49 100.63 78.4 99.72 87.72 98.17C99.13 96.34 113.05 90.56 113.34 77.17C113.365 74.7063 113.262 72.2429 113.03 69.79C112.54 63.9 111.74 58.27 113.19 51.88ZM105.51 196.55C106.07 196.48 106.579 196.192 106.928 195.748C107.276 195.304 107.435 194.74 107.37 194.18C107.298 193.901 107.168 193.639 106.99 193.412C106.811 193.186 106.587 192.999 106.332 192.863C106.077 192.728 105.797 192.647 105.509 192.626C105.221 192.605 104.932 192.643 104.66 192.74C105.078 193.046 105.414 193.449 105.641 193.914C105.867 194.379 105.977 194.893 105.96 195.41C105.906 195.821 105.752 196.213 105.51 196.55ZM105.37 191.46C105.85 182.65 91.52 184.21 89.22 191.09C89.6247 190.947 90.0559 190.895 90.483 190.938C90.91 190.982 91.3222 191.119 91.69 191.34C91.7528 191.381 91.8012 191.441 91.8283 191.511C91.8554 191.581 91.8599 191.658 91.8412 191.731C91.8224 191.804 91.7814 191.869 91.7238 191.917C91.6662 191.965 91.5949 191.994 91.52 192C90.03 192.06 88.42 192.52 87.73 194C87.5878 194.349 87.5175 194.722 87.5235 195.099C87.5295 195.475 87.6115 195.846 87.7647 196.19C87.918 196.534 88.1392 196.843 88.415 197.099C88.6909 197.355 89.0157 197.553 89.37 197.68C92.43 198.99 94.43 195.02 92.43 192.82C92.3288 192.704 92.2749 192.555 92.2791 192.402C92.2833 192.248 92.3453 192.102 92.4526 191.992C92.5599 191.882 92.7047 191.817 92.8581 191.809C93.0115 191.801 93.1621 191.852 93.28 191.95C93.6987 192.34 94.0206 192.823 94.22 193.36C94.5074 193.097 94.8487 192.9 95.22 192.783C95.5913 192.665 95.9837 192.63 96.37 192.68C96.8551 192.748 97.3121 192.948 97.69 193.26C98.1074 192.837 98.6547 192.567 99.2441 192.493C99.8334 192.418 100.431 192.544 100.94 192.85C100.963 192.758 101.007 192.672 101.07 192.6C101.471 192.229 101.985 192.004 102.53 191.962C103.075 191.92 103.617 192.064 104.07 192.37C104.046 192.229 104.069 192.084 104.136 191.957C104.203 191.831 104.31 191.73 104.44 191.67C104.734 191.541 105.049 191.47 105.37 191.46ZM104.75 140.95C104.874 140.972 104.987 141.035 105.07 141.13C104.636 139.968 104.515 138.713 104.72 137.49C100.533 135.975 96.2328 134.791 91.86 133.95C91.69 134.8 91.46 135.62 91.29 136.47C91.09 137.47 90.86 137.91 91.62 138.4C92.53 139.02 94.73 138.99 95.83 139.19C98.81 139.76 101.8 140.3 104.75 140.95ZM104.69 195.32C104.68 194.963 104.574 194.615 104.385 194.313C104.195 194.01 103.927 193.764 103.61 193.6C103.318 193.453 102.999 193.366 102.672 193.345C102.346 193.325 102.018 193.371 101.71 193.48C102.039 193.896 102.238 194.401 102.28 194.93C102.335 195.688 102.115 196.441 101.66 197.05C101.972 197.172 102.307 197.223 102.64 197.199C102.974 197.175 103.298 197.076 103.589 196.91C103.88 196.744 104.129 196.515 104.32 196.24C104.51 195.965 104.637 195.65 104.69 195.32ZM106.63 155.76C102.834 151.783 100.211 146.834 99.05 141.46C99.0331 141.415 99.0331 141.365 99.05 141.32L96.98 140.93C94.98 140.56 92.24 140.5 90.42 139.68C88.07 138.62 90.29 135.2 91.13 133.52C91.0891 133.395 91.081 133.261 91.1064 133.132C91.1319 133.003 91.19 132.883 91.2752 132.782C91.3605 132.682 91.47 132.605 91.5934 132.559C91.7168 132.513 91.8499 132.5 91.98 132.52C93.55 132.76 95.11 133.11 96.67 133.52C96.0188 131.856 95.6471 130.095 95.57 128.31C82.4993 124.685 68.5687 125.786 56.23 131.42C56.6347 133.296 56.7159 135.227 56.47 137.13C57.36 136.81 58.27 136.52 59.2 136.24C59.2894 136.217 59.3829 136.215 59.4733 136.234C59.5637 136.253 59.6484 136.292 59.721 136.349C59.7936 136.406 59.852 136.48 59.8917 136.563C59.9314 136.646 59.9514 136.738 59.95 136.83C59.95 138.83 60.01 140.83 60.03 142.83C60.0232 142.943 59.9866 143.052 59.9238 143.146C59.861 143.241 59.7744 143.317 59.6727 143.366C59.5711 143.416 59.458 143.438 59.3451 143.43C59.2322 143.422 59.1235 143.384 59.03 143.32C58.4 143.46 57.77 143.6 57.13 143.72C56.6276 149.988 54.1326 155.931 50.01 160.68C50.1089 160.797 50.2159 160.907 50.33 161.01C56.07 166.01 65.33 167.01 72.57 167.14C83.11 167.37 99.92 165.19 106.63 155.76ZM103.3 184.95C101.6 177.95 101.43 170.35 101.8 163.14C96.43 166.32 89.62 167.97 83.27 168.71C85.8035 170.812 87.8921 173.398 89.4135 176.317C90.9349 179.236 91.8584 182.429 92.13 185.71C93.8226 184.773 95.7003 184.219 97.6305 184.088C99.5606 183.957 101.496 184.251 103.3 184.95ZM101.18 195.55C101.257 195.163 101.2 194.76 101.018 194.41C100.837 194.059 100.541 193.78 100.18 193.62C99.8677 193.48 99.519 193.444 99.1846 193.516C98.8501 193.588 98.5473 193.764 98.32 194.02C98.6402 194.616 98.7493 195.304 98.6294 195.97C98.5096 196.636 98.1679 197.243 97.66 197.69C99.21 197.82 100.95 197.29 101.18 195.55ZM93.82 197.48C95.4 198 97.5 197.34 97.46 195.41C97.4791 195.036 97.3588 194.669 97.1223 194.379C96.8858 194.088 96.55 193.897 96.18 193.84C95.5699 193.78 94.9586 193.943 94.46 194.3C94.639 195.394 94.4189 196.515 93.84 197.46L93.82 197.48ZM75.41 196.48C77.41 193.93 74.52 190.48 71.75 192.34C71.41 192.57 71.06 192.06 71.32 191.78C71.7725 191.346 72.3312 191.039 72.94 190.89C68.31 185.29 60.8 184.62 54.85 188.76C53.97 189.482 53.3516 190.472 53.09 191.58C53.4305 191.477 53.7913 191.459 54.1402 191.529C54.4891 191.599 54.8154 191.754 55.09 191.98C55.57 192.42 54.95 192.98 54.46 192.8C54.2171 192.702 53.9565 192.656 53.6947 192.664C53.4329 192.673 53.1759 192.736 52.94 192.85C52.9037 192.92 52.8512 192.98 52.7868 193.025C52.7224 193.071 52.648 193.1 52.57 193.11C52.3673 193.315 52.2525 193.592 52.25 193.88C52.25 194.88 53.39 195.47 54.25 195.29C54.6 193.57 56.45 192 58.12 192.99C58.2093 193.048 58.278 193.132 58.3161 193.231C58.3542 193.33 58.3597 193.439 58.3319 193.542C58.304 193.644 58.2442 193.735 58.1612 193.801C58.0781 193.868 57.9761 193.906 57.87 193.91C57.5307 193.881 57.1892 193.927 56.8695 194.045C56.5499 194.162 56.2599 194.348 56.02 194.59C55.791 194.812 55.6335 195.097 55.5676 195.408C55.5017 195.72 55.5304 196.045 55.65 196.34C55.8075 196.591 56.0145 196.806 56.2584 196.974C56.5023 197.141 56.7779 197.257 57.0683 197.314C57.3586 197.372 57.6576 197.369 57.9468 197.306C58.236 197.243 58.5093 197.122 58.75 196.95C58.8023 196.935 58.8577 196.935 58.91 196.95C58.6404 196.269 58.6404 195.511 58.91 194.83C59.2 194.09 59.97 193 60.91 193.1C61.0014 193.105 61.0893 193.137 61.1635 193.19C61.2377 193.244 61.295 193.318 61.3286 193.403C61.3622 193.488 61.3708 193.581 61.3534 193.671C61.3359 193.761 61.2931 193.844 61.23 193.91C60.83 194.4 60.32 194.59 60.15 195.27C60.0677 195.526 60.0429 195.796 60.0775 196.062C60.1121 196.329 60.2051 196.584 60.35 196.81C60.6864 197.183 61.1509 197.416 61.6512 197.462C62.1514 197.509 62.6508 197.365 63.05 197.06C62.22 195.79 62.13 193.88 63.44 192.98C63.89 192.67 64.27 193.26 64.1 193.66C63.7734 194.208 63.6298 194.845 63.69 195.48C63.727 195.796 63.8364 196.1 64.0099 196.367C64.1833 196.634 64.4161 196.858 64.69 197.02C65.2429 197.248 65.8587 197.272 66.428 197.089C66.9973 196.906 67.4834 196.527 67.8 196.02C67.6277 195.584 67.5767 195.109 67.6524 194.646C67.7281 194.183 67.9277 193.749 68.23 193.39C68.58 192.94 69.34 193.39 69.17 193.95C68.06 197.39 73.44 199.07 75.37 196.51L75.41 196.48ZM73.9 169.24C65.71 169.24 57.22 167.92 50.97 163.65C53.0965 171.464 54.4662 179.464 55.06 187.54C57.2854 185.737 60.0347 184.702 62.8969 184.59C65.7591 184.478 68.5807 185.296 70.94 186.92C70.0364 180.872 71.0726 174.693 73.9 169.27V169.24ZM58.79 142.38V137.68C55.6767 138.621 52.641 139.801 49.71 141.21C49.71 141.21 49.71 141.21 49.71 141.27C49.3805 142.189 49.1983 143.154 49.17 144.13C52.3003 143.191 55.5281 142.613 58.79 142.41V142.38ZM55.52 137.47C55.25 135.67 55.19 133.83 54.95 132.03C50.7338 134.089 46.9043 136.859 43.63 140.22C43.56 140.79 43.49 141.38 43.45 141.97C43.09 148.39 44.84 155.42 49.45 160.1C52.6131 155.19 54.8123 149.723 55.93 143.99C53.48 144.54 51.05 145.11 48.63 145.84C48.5123 145.868 48.3897 145.87 48.2713 145.845C48.1528 145.82 48.0416 145.768 47.9456 145.694C47.8497 145.621 47.7715 145.526 47.7169 145.418C47.6623 145.31 47.6326 145.191 47.63 145.07C47.4518 144.019 47.5695 142.938 47.97 141.95C47.8957 141.991 47.8082 142.001 47.7266 141.978C47.645 141.954 47.5761 141.899 47.535 141.825C47.4939 141.751 47.484 141.663 47.5074 141.582C47.5308 141.5 47.5857 141.431 47.66 141.39C47.95 141.19 48.26 141.04 48.57 140.85C48.5825 140.813 48.6029 140.779 48.63 140.75C48.6883 140.67 48.7653 140.606 48.8541 140.562C48.943 140.518 49.0411 140.497 49.14 140.5C51.1801 139.325 53.3141 138.322 55.52 137.5V137.47Z" fill="#222221"/>
<path d="M163.37 116.14C163.58 119.73 165 125.22 160.83 127.36C158.3 128.66 153.51 128.75 150.92 129.03C148.33 129.31 144.52 130.3 142.17 129.6C137.52 128.21 138.68 121.6 138.56 117.77C138.56 117.77 138.56 117.77 138.56 117.7C140.01 116.02 141.2 112.95 138.56 111.79C138.351 111.707 138.133 111.65 137.91 111.62C138.42 107.8 139.84 106.08 143.83 105.56C146.21 105.23 148.6 104.92 150.98 104.62C154.98 104.09 160.98 101.76 162.98 107.19C163.72 109.57 163.23 113.68 163.37 116.14ZM159.66 123.43C159.731 123.502 159.824 123.548 159.924 123.561C160.024 123.573 160.125 123.552 160.212 123.5C160.298 123.448 160.365 123.369 160.401 123.274C160.437 123.18 160.44 123.076 160.41 122.98C159.319 119.127 157.969 115.352 156.37 111.68C154.96 108.44 154.82 107 151.32 107.36C148.23 107.67 147.66 108.14 146.95 111.28C145.896 115.447 145.144 119.685 144.7 123.96C144.696 124.012 144.702 124.064 144.719 124.114C144.735 124.163 144.762 124.209 144.796 124.248C144.831 124.287 144.873 124.319 144.92 124.342C144.967 124.365 145.018 124.378 145.07 124.38C145.07 124.44 145.07 124.49 145.07 124.53C145.279 124.802 145.542 125.028 145.841 125.196C146.14 125.363 146.471 125.468 146.812 125.505C147.153 125.541 147.498 125.508 147.826 125.408C148.154 125.307 148.458 125.141 148.72 124.92C149.217 124.495 149.586 123.939 149.783 123.315C149.981 122.691 150.001 122.024 149.84 121.39C151.442 121.613 153.072 121.545 154.65 121.19C154.625 121.709 154.741 122.224 154.986 122.682C155.23 123.14 155.595 123.523 156.04 123.79C157.01 124.34 158.9 124.4 159.65 123.43H159.66Z" fill="#B4D6DB"/>
<path d="M160.37 122.98C160.4 123.076 160.397 123.18 160.361 123.274C160.325 123.369 160.258 123.448 160.172 123.5C160.085 123.552 159.984 123.573 159.884 123.561C159.784 123.548 159.691 123.502 159.62 123.43C158.87 124.43 156.98 124.34 156.02 123.78C155.575 123.513 155.21 123.13 154.966 122.672C154.721 122.214 154.605 121.699 154.63 121.18C153.052 121.535 151.422 121.603 149.82 121.38C149.981 122.014 149.961 122.681 149.763 123.305C149.566 123.928 149.197 124.485 148.7 124.91C148.438 125.131 148.134 125.297 147.806 125.398C147.478 125.498 147.133 125.531 146.792 125.495C146.451 125.458 146.12 125.353 145.821 125.186C145.522 125.018 145.259 124.792 145.05 124.52C145.05 124.52 145.05 124.43 145.05 124.37C144.998 124.367 144.947 124.355 144.9 124.332C144.853 124.309 144.811 124.277 144.776 124.238C144.742 124.199 144.715 124.153 144.699 124.104C144.682 124.054 144.676 124.002 144.68 123.95C145.124 119.675 145.876 115.437 146.93 111.27C147.64 108.13 148.21 107.66 151.3 107.35C154.8 106.99 154.94 108.43 156.35 111.67C157.943 115.345 159.286 119.124 160.37 122.98ZM158.06 122.98C158.47 122.88 158.78 122.61 159.18 122.48C158.27 120.15 157.33 117.82 156.44 115.48C155.93 113.984 155.343 112.515 154.68 111.08C153.94 109.65 153.47 108.61 151.68 108.47C147.79 108.15 147.68 113.09 147.16 115.74C146.64 118.39 146.16 121.28 145.49 124.02C145.859 124.309 146.321 124.454 146.788 124.426C147.256 124.399 147.698 124.201 148.03 123.87C148.384 123.484 148.586 122.983 148.6 122.46C148.6 122.03 148.5 121.6 148.54 121.18C148.559 121.029 148.633 120.89 148.747 120.789C148.861 120.688 149.008 120.631 149.16 120.63C149.194 120.541 149.257 120.465 149.338 120.415C149.419 120.364 149.515 120.341 149.61 120.35C151.417 120.289 153.22 120.132 155.01 119.88C155.052 119.861 155.097 119.852 155.143 119.853C155.189 119.854 155.233 119.866 155.274 119.887C155.314 119.908 155.35 119.939 155.377 119.975C155.404 120.012 155.422 120.055 155.43 120.1C155.477 120.197 155.501 120.303 155.501 120.41C155.501 120.517 155.477 120.623 155.43 120.72C155.429 121.116 155.526 121.506 155.713 121.855C155.899 122.204 156.17 122.501 156.5 122.72C156.977 123.007 157.548 123.097 158.09 122.97L158.06 122.98Z" fill="#222221"/>
<path d="M159.21 122.47C158.81 122.6 158.5 122.87 158.09 122.97C157.598 123.076 157.085 123.005 156.64 122.77C156.31 122.551 156.039 122.254 155.853 121.905C155.666 121.556 155.569 121.166 155.57 120.77C155.617 120.673 155.641 120.567 155.641 120.46C155.641 120.353 155.617 120.247 155.57 120.15C155.562 120.105 155.544 120.062 155.517 120.025C155.49 119.989 155.454 119.958 155.414 119.937C155.373 119.916 155.329 119.904 155.283 119.903C155.237 119.902 155.192 119.911 155.15 119.93C153.36 120.182 151.557 120.339 149.75 120.4C149.655 120.391 149.559 120.414 149.478 120.465C149.397 120.515 149.334 120.591 149.3 120.68C149.148 120.681 149.001 120.738 148.887 120.839C148.773 120.94 148.699 121.079 148.68 121.23C148.68 121.65 148.77 122.08 148.74 122.51C148.726 123.033 148.524 123.534 148.17 123.92C147.838 124.251 147.396 124.449 146.928 124.476C146.461 124.504 145.999 124.359 145.63 124.07C146.26 121.33 146.73 118.56 147.3 115.79C147.87 113.02 147.93 108.2 151.82 108.52C153.56 108.66 154.03 109.7 154.82 111.13C155.483 112.565 156.07 114.034 156.58 115.53C157.37 117.81 158.3 120.14 159.21 122.47ZM154.63 118.38C154.736 118.325 154.821 118.235 154.87 118.125C154.919 118.015 154.929 117.893 154.898 117.776C154.868 117.66 154.8 117.558 154.704 117.486C154.608 117.414 154.49 117.376 154.37 117.38C154.38 117.361 154.385 117.341 154.385 117.32C154.385 117.299 154.38 117.279 154.37 117.26C154.003 115.347 153.27 113.524 152.21 111.89C152.17 111.827 152.117 111.774 152.054 111.735C151.991 111.696 151.92 111.671 151.846 111.662C151.773 111.653 151.698 111.661 151.628 111.685C151.557 111.709 151.493 111.748 151.44 111.8C150.564 112.525 149.902 113.475 149.527 114.548C149.151 115.622 149.076 116.777 149.31 117.89C149.37 118.19 149.65 118.23 149.88 118.14C149.871 118.176 149.871 118.214 149.88 118.25C150.17 118.94 151.31 118.84 151.94 118.84C152.862 118.932 153.791 118.773 154.63 118.38Z" fill="#F0D682"/>
<path d="M154.37 117.39C154.49 117.387 154.608 117.424 154.704 117.496C154.8 117.568 154.868 117.67 154.898 117.786C154.929 117.903 154.919 118.026 154.87 118.135C154.821 118.245 154.736 118.335 154.63 118.39C153.792 118.787 152.863 118.949 151.94 118.86C151.31 118.86 150.17 118.96 149.88 118.27C149.871 118.234 149.871 118.196 149.88 118.16C149.65 118.25 149.37 118.16 149.31 117.91C149.076 116.797 149.151 115.642 149.527 114.568C149.902 113.495 150.564 112.545 151.44 111.82C151.493 111.768 151.557 111.729 151.628 111.705C151.698 111.681 151.773 111.673 151.846 111.682C151.92 111.691 151.991 111.716 152.054 111.755C152.117 111.794 152.17 111.847 152.21 111.91C153.27 113.544 154.003 115.367 154.37 117.28C154.38 117.299 154.385 117.319 154.385 117.34C154.385 117.361 154.38 117.381 154.37 117.4V117.39ZM153.37 117.44C153.245 115.854 152.696 114.331 151.78 113.03C150.777 114.427 150.213 116.091 150.16 117.81C150.69 117.647 151.25 117.599 151.8 117.67C152.328 117.625 152.852 117.549 153.37 117.44Z" fill="#222221"/>
<path d="M153.37 117.41C152.845 117.509 152.314 117.576 151.78 117.61C151.23 117.539 150.67 117.587 150.14 117.75C150.193 116.031 150.757 114.367 151.76 112.97C152.688 114.277 153.244 115.812 153.37 117.41Z" fill="#B4D6DB"/>
<path d="M137.05 113.29C138.18 112.47 139.05 113.69 138.76 114.79C138.41 115.67 137.867 116.459 137.17 117.1C137.1 117.186 137.05 117.286 137.023 117.394C136.997 117.502 136.996 117.614 137.019 117.723C137.042 117.831 137.089 117.933 137.157 118.021C137.224 118.109 137.311 118.18 137.41 118.23C137.121 119.582 136.924 120.952 136.82 122.33C135.99 122.47 135.14 122.61 134.29 122.69C134.289 122.589 134.267 122.49 134.226 122.398C134.185 122.306 134.126 122.223 134.052 122.155C133.978 122.086 133.891 122.034 133.796 122C133.701 121.967 133.6 121.953 133.5 121.96C122.716 122.06 112.031 119.889 102.14 115.59C100.66 111.98 99.14 108.38 97.63 104.8C97.17 103.69 95.34 104.12 95.77 105.31C98.33 112.31 101.12 119.18 103.84 126.1C104.39 127.5 104.98 128.95 105.57 130.4C95.86 124.73 84.69 123.2 73.57 124.97C63.57 126.58 51.23 130.27 43.99 138.08C46.26 126.15 54.99 116.38 55.99 104.28C55.99 103.64 54.99 103.54 54.88 104.14C53.1 110.73 49.77 117.14 46.88 123.58C42.3027 127.328 37.2064 130.393 31.75 132.68C31.7046 132.698 31.6633 132.724 31.6289 132.759C31.5944 132.793 31.5676 132.835 31.55 132.88C31.4864 132.901 31.4279 132.935 31.378 132.98C31.3282 133.025 31.288 133.079 31.26 133.14C30.8534 134.199 30.5487 135.294 30.35 136.41C30.13 137.31 29.99 139.12 28.93 139.41C26.47 140.06 28.23 135.22 28.56 133.81C28.622 133.69 28.64 133.552 28.6108 133.419C28.5817 133.287 28.5073 133.17 28.4005 133.086C28.2937 133.003 28.1612 132.96 28.026 132.965C27.8908 132.969 27.7613 133.02 27.66 133.11C26.98 133.7 23.08 138.82 22.2 137.54C21.72 136.85 23.12 134.96 23.57 134.39C24.3667 133.415 25.3362 132.594 26.43 131.97C26.4934 131.924 26.54 131.858 26.5627 131.783C26.5855 131.708 26.5831 131.628 26.5559 131.554C26.5287 131.481 26.4783 131.418 26.4123 131.376C26.3462 131.333 26.2682 131.314 26.19 131.32C26.1759 131.23 26.1404 131.146 26.0864 131.073C26.0324 131 25.9615 130.942 25.8799 130.902C25.7983 130.863 25.7083 130.844 25.6178 130.847C25.5272 130.85 25.4388 130.875 25.36 130.92C24.2335 131.637 23.0455 132.253 21.81 132.76C21.1902 132.967 20.5548 133.124 19.91 133.23C18.82 133.4 18.82 132.66 19.45 131.92C21.13 129.92 24.28 129.5 26.64 128.85C26.7869 128.847 26.9289 128.796 27.0446 128.706C27.1603 128.615 27.2435 128.489 27.2818 128.347C27.3201 128.205 27.3114 128.055 27.257 127.918C27.2026 127.782 27.1054 127.667 26.98 127.59C26.0655 127.091 25.1926 126.519 24.37 125.88C23.84 125.45 23.67 125.36 23.69 124.6C23.5 123.88 23.69 123.74 24.34 124.2C24.55 124.29 24.77 124.4 24.97 124.51C26.3814 125.242 27.7206 126.106 28.97 127.09C29.0444 127.283 29.1877 127.442 29.3723 127.537C29.5569 127.631 29.7697 127.653 29.97 127.6C35.97 126.01 40.42 120 44.12 115.34C47.82 110.68 51.53 105.28 51.75 99.29C57.0782 100.606 62.542 101.294 68.03 101.34C76.93 101.48 90.03 101.28 100.24 97.25C100.24 97.25 100.24 97.33 100.24 97.36C108.272 107.738 119.656 115.008 132.45 117.93C132.586 117.969 132.731 117.967 132.866 117.925C133.001 117.882 133.121 117.8 133.21 117.69C133.251 117.754 133.307 117.807 133.373 117.843C133.44 117.88 133.514 117.899 133.59 117.899C133.666 117.899 133.74 117.88 133.807 117.843C133.873 117.807 133.929 117.754 133.97 117.69C134.63 115.998 135.686 114.489 137.05 113.29Z" fill="#EBD7BE"/>
<path d="M108.48 31.55C114.7 37.77 115.03 43.75 113.19 51.88C111.74 58.27 112.54 63.88 113.05 69.88L108.78 69.97C108.769 69.7394 108.684 69.5186 108.537 69.3399C108.391 69.1612 108.192 69.034 107.968 68.977C107.745 68.9199 107.508 68.9361 107.295 69.023C107.081 69.1099 106.9 69.2631 106.78 69.46C99.37 81.08 83.42 84.97 70.37 83.23C70.3369 81.0973 69.7591 79.0085 68.6915 77.162C67.6239 75.3155 66.1018 73.7726 64.27 72.68C62.1463 71.4509 59.7302 70.818 57.2766 70.8479C54.8231 70.8778 52.4231 71.5695 50.33 72.85C49.1497 73.6518 48.1318 74.6697 47.33 75.85C46.1245 74.9872 44.9724 74.0521 43.88 73.05C42.703 71.8405 41.694 70.4783 40.88 69C40.67 68.64 40.04 68.89 40.19 69.29C41.29 72.35 43.55 75.72 46.69 77.02C46.058 78.1688 45.7266 79.4588 45.7266 80.77C45.7266 82.0812 46.058 83.3711 46.69 84.52C46.7373 84.5938 46.8076 84.65 46.89 84.68C46.6016 86.4967 47.0399 88.3539 48.11 89.85C48.9933 91.016 50.0982 91.996 51.3612 92.7339C52.6242 93.4718 54.0205 93.953 55.47 94.15L54.6 98.24C43.29 95.74 33.88 89.69 32.15 77.14C32.06 76.53 31.27 76.53 30.93 76.91C30.8172 76.8948 30.7028 76.8948 30.59 76.91C26.92 77.15 22.95 75.7 22.15 71.63C21.35 67.56 24.54 64.53 28 63.36C28.1207 63.3271 28.2273 63.2555 28.3032 63.1561C28.3792 63.0567 28.4203 62.9351 28.4203 62.81C28.4203 62.6849 28.3792 62.5633 28.3032 62.4639C28.2273 62.3645 28.1207 62.2928 28 62.26C28.0153 62.1639 28.0153 62.066 28 61.97C26.33 51.53 27 40.07 33.43 31.27C40.13 22.2 52.28 18.88 63.04 17.97C74.6416 17.0316 86.2892 19.0981 96.86 23.97C101.145 25.8005 105.078 28.3657 108.48 31.55ZM97.48 61.91C97.82 60.01 96.48 58.3 95.01 57.28C94.39 56.87 93.85 57.75 94.27 58.28C94.99 59.18 95.95 60.15 95.75 61.42C95.7327 61.519 95.7059 61.6161 95.67 61.71C95.5587 61.4468 95.3861 61.2141 95.1665 61.0313C94.9469 60.8485 94.6867 60.7209 94.4076 60.6592C94.1286 60.5975 93.8389 60.6035 93.5627 60.6767C93.2865 60.75 93.0318 60.8882 92.82 61.08C91.49 62.3 92.82 64.08 94.24 64.33C94.6108 64.3906 94.9901 64.3755 95.3549 64.2855C95.7196 64.1955 96.0624 64.0325 96.3624 63.8063C96.6624 63.5801 96.9135 63.2955 97.1004 62.9695C97.2874 62.6436 97.4063 62.2832 97.45 61.91H97.48ZM79.37 72.48C82.04 71.76 82.37 67.65 80.37 66.03C78.37 64.41 74.7 65.23 74.53 67.96C74.5327 68.0503 74.5614 68.1379 74.6126 68.2123C74.6637 68.2867 74.7353 68.3448 74.8186 68.3796C74.902 68.4144 74.9936 68.4245 75.0825 68.4086C75.1714 68.3927 75.2539 68.3515 75.32 68.29C76.22 67.21 77.99 66.14 79.27 67.29C79.5292 67.5464 79.7192 67.8644 79.8223 68.2141C79.9255 68.5638 79.9385 68.9339 79.86 69.29C79.7654 69.6684 79.5964 70.0242 79.3629 70.3367C79.1294 70.6491 78.8361 70.912 78.5 71.11C77.93 71.68 78.65 72.68 79.37 72.48ZM57.72 63.16C57.8288 63.0483 57.9071 62.9106 57.9473 62.76C57.9876 62.6094 57.9885 62.451 57.95 62.3C57.8477 61.8963 57.6292 61.5316 57.3218 61.2508C57.0143 60.9699 56.6312 60.7854 56.22 60.72C55.8646 60.6849 55.5072 60.7626 55.1984 60.9421C54.8897 61.1216 54.6453 61.3938 54.5 61.72C54.4813 61.8493 54.4813 61.9806 54.5 62.11C54.41 62.05 54.31 62.02 54.25 61.92C54.1205 61.7237 54.0313 61.5035 53.9879 61.2724C53.9444 61.0412 53.9474 60.8037 53.9967 60.5738C54.0461 60.3438 54.1408 60.126 54.2753 59.933C54.4097 59.7401 54.5813 59.5759 54.78 59.45C55.16 59.13 54.78 58.5 54.3 58.64C53.8965 58.795 53.5327 59.0383 53.2353 59.352C52.9379 59.6657 52.7144 60.042 52.5811 60.4532C52.4479 60.8645 52.4083 61.3003 52.4652 61.7288C52.5221 62.1574 52.6741 62.5678 52.91 62.93C53.1894 63.2996 53.5466 63.6032 53.9563 63.8194C54.3661 64.0355 54.8184 64.159 55.2811 64.1809C55.7439 64.2028 56.2058 64.1228 56.6342 63.9463C57.0626 63.7699 57.4469 63.5015 57.76 63.16H57.72ZM29.55 71.16C30.09 71.81 30.97 70.9 30.46 70.25C29.9094 69.6191 29.2039 69.1425 28.4131 68.8672C27.6223 68.5919 26.7734 68.5274 25.95 68.68C26.4583 67.7295 27.3148 67.0127 28.34 66.68C28.89 66.45 28.91 65.46 28.18 65.51C27.2512 65.6351 26.3873 66.0555 25.7156 66.7091C25.044 67.3627 24.6003 68.2149 24.45 69.14C24.3292 70.0489 24.4909 70.9729 24.9131 71.7869C25.3352 72.6008 25.9975 73.2652 26.81 73.69C26.9071 73.7343 27.0172 73.7409 27.119 73.7086C27.2207 73.6762 27.3067 73.6071 27.3604 73.5149C27.414 73.4226 27.4314 73.3136 27.4091 73.2092C27.3869 73.1048 27.3266 73.0124 27.24 72.95C26.7061 72.5988 26.2779 72.1089 26.0014 71.5328C25.7248 70.9567 25.6102 70.3162 25.67 69.68C25.7298 69.6864 25.7902 69.6864 25.85 69.68C26.5522 69.5789 27.2686 69.6665 27.9258 69.9336C28.583 70.2007 29.1574 70.6377 29.59 71.2L29.55 71.16Z" fill="#EBD7BE"/>
<path d="M113.05 69.86C113.282 72.3129 113.385 74.7763 113.36 77.24C113.07 90.66 99.15 96.44 87.74 98.24C78.42 99.76 65.56 100.67 54.51 98.24L55.38 94.15C56.7 94.3614 58.0524 94.2199 59.3 93.74H59.44C66.44 94.62 70.09 89.74 70.38 84.37C83.5 88.37 101.38 82.12 108.6 70.45C108.705 70.2887 108.763 70.1021 108.77 69.91L113.05 69.86Z" fill="#EBD7BE"/>
<path d="M106.71 133.37C108.35 137.78 109.71 142.37 109.53 146.93C109.489 149.618 108.756 152.249 107.4 154.57C104.232 150.63 101.717 146.207 99.95 141.47C101.43 141.75 102.95 142 104.41 142.23C104.509 142.244 104.61 142.237 104.707 142.21C104.803 142.183 104.893 142.135 104.97 142.071C105.048 142.007 105.111 141.928 105.155 141.838C105.2 141.748 105.225 141.65 105.23 141.55C105.269 141.628 105.334 141.691 105.413 141.727C105.493 141.764 105.583 141.771 105.668 141.749C105.752 141.727 105.827 141.676 105.878 141.605C105.93 141.534 105.955 141.447 105.95 141.36C105.95 140.11 105.95 138.91 105.95 137.67C105.993 137.63 106.025 137.581 106.046 137.526C106.066 137.472 106.074 137.413 106.068 137.355C106.062 137.297 106.043 137.241 106.012 137.192C105.981 137.142 105.94 137.101 105.89 137.07C105.851 137.042 105.807 137.022 105.76 137.01C105.672 136.939 105.57 136.887 105.46 136.86C103.139 135.656 100.708 134.678 98.2 133.94C97.58 132.2 97.04 130.42 96.57 128.63C100.102 129.737 103.467 131.322 106.57 133.34L106.71 133.37Z" fill="#F5F5F5"/>
<path d="M108.78 69.95C108.773 70.1421 108.715 70.3288 108.61 70.49C101.43 82.16 83.51 88.44 70.39 84.41C70.1 89.83 66.39 94.66 59.45 93.78H59.31C58.0623 94.26 56.7099 94.4014 55.39 94.19C53.9405 93.9931 52.5442 93.5119 51.2812 92.774C50.0182 92.0361 48.9133 91.056 48.03 89.89C46.9459 88.3849 46.5035 86.5111 46.8 84.68C46.7176 84.6501 46.6473 84.5938 46.6 84.52C45.968 83.3712 45.6366 82.0812 45.6366 80.77C45.6366 79.4588 45.968 78.1689 46.6 77.02C43.46 75.72 41.2 72.35 40.1 69.29C39.95 68.89 40.58 68.64 40.79 69C41.604 70.4784 42.613 71.8406 43.79 73.05C44.8824 74.0522 46.0345 74.9872 47.24 75.85C48.0418 74.6698 49.0597 73.6518 50.24 72.85C52.3434 71.5523 54.7601 70.851 57.2314 70.8211C59.7028 70.7911 62.1357 71.4337 64.27 72.68C66.1018 73.7727 67.6238 75.3155 68.6915 77.162C69.7591 79.0085 70.3369 81.0973 70.37 83.23C83.37 84.97 99.37 81.08 106.76 69.44C106.876 69.2339 107.057 69.0718 107.275 68.9786C107.493 68.8854 107.735 68.8663 107.965 68.9243C108.194 68.9822 108.398 69.1141 108.546 69.2994C108.693 69.4847 108.775 69.7133 108.78 69.95ZM61.52 92.19C71 91.51 70.97 77.89 62.94 73.76C55.72 70.05 45.94 74.76 47.18 83.38C48.97 78.9 55.41 76.3 59.87 80.19C59.9181 80.2289 59.9547 80.2802 59.9759 80.3383C59.997 80.3965 60.0019 80.4593 59.99 80.52C60.4527 80.4965 60.9149 80.5738 61.3449 80.7464C61.7748 80.9191 62.1621 81.183 62.48 81.52C62.7822 81.8806 62.9861 82.3131 63.072 82.7756C63.1578 83.2382 63.1227 83.7151 62.97 84.16C63.0357 84.231 63.0898 84.312 63.13 84.4C63.6361 85.7163 63.7535 87.1503 63.468 88.5313C63.1826 89.9123 62.5065 91.1823 61.52 92.19ZM59.16 92.19C60.2602 91.555 61.1244 90.5797 61.6222 89.411C62.12 88.2422 62.2245 86.9433 61.92 85.71C61.4903 86.0357 60.9772 86.2334 60.44 86.28C59.65 90.28 54.07 91.77 51.67 88.13C51.1321 87.3218 50.9065 86.3455 51.0353 85.3832C51.1641 84.421 51.6385 83.5384 52.37 82.9C53.118 82.2793 54.0131 81.8613 54.9692 81.6862C55.9254 81.5111 56.9105 81.5847 57.83 81.9C58.0299 81.5662 58.2645 81.2545 58.53 80.97C58.5866 80.9169 58.6577 80.8819 58.7343 80.8694C58.8109 80.8569 58.8895 80.8676 58.96 80.9C59.0162 80.8576 59.0765 80.8207 59.14 80.79C56.43 79.31 52.96 78.79 50.44 81.02C49.358 81.9685 48.6346 83.2598 48.3907 84.6778C48.1467 86.0958 48.3972 87.5545 49.1 88.81C50.86 91.67 56.03 93.81 59.1 92.19H59.16ZM61.16 84.37C61.2917 84.2371 61.3951 84.0788 61.4637 83.9046C61.5324 83.7305 61.5649 83.5442 61.5593 83.3572C61.5536 83.1701 61.51 82.9861 61.4311 82.8164C61.3521 82.6467 61.2395 82.4948 61.1 82.37C60.45 81.83 59.82 82 59.1 82.05C59.05 82.05 59.02 82.05 58.99 82.05C58.96 82.05 58.91 82.29 58.87 82.41C58.9147 82.4522 58.9475 82.5054 58.9652 82.5643C58.9828 82.6232 58.9846 82.6857 58.9704 82.7455C58.9562 82.8053 58.9265 82.8603 58.8843 82.905C58.8421 82.9497 58.7889 82.9825 58.73 83C58.6748 83.246 58.6795 83.5016 58.7439 83.7452C58.8083 83.9889 58.9305 84.2135 59.1 84.4C59.2329 84.5516 59.3976 84.6721 59.5824 84.7527C59.7672 84.8333 59.9676 84.8721 60.1691 84.8663C60.3706 84.8606 60.5684 84.8105 60.7484 84.7195C60.9283 84.6285 61.0859 84.4989 61.21 84.34L61.16 84.37ZM59 86.05C58.6248 85.883 58.2853 85.6454 58 85.35C57.685 85.0231 57.4611 84.6194 57.3505 84.179C57.24 83.7386 57.2467 83.277 57.37 82.84C56.153 82.6612 54.9106 82.8712 53.82 83.44C53.4909 83.6058 53.1984 83.8358 52.9597 84.1165C52.7209 84.3971 52.5408 84.7227 52.4299 85.074C52.319 85.4254 52.2795 85.7954 52.3139 86.1623C52.3483 86.5291 52.4557 86.8854 52.63 87.21C53.0799 87.9057 53.7613 88.4197 54.5538 88.6613C55.3462 88.9029 56.1985 88.8564 56.96 88.53C57.482 88.3067 57.9436 87.9628 58.307 87.5265C58.6703 87.0901 58.9249 86.5739 59.05 86.02L59 86.05Z" fill="#222221"/>
<path d="M107.37 194.18C107.402 194.46 107.378 194.743 107.301 195.014C107.223 195.285 107.093 195.537 106.917 195.757C106.741 195.978 106.524 196.161 106.277 196.297C106.031 196.433 105.76 196.519 105.48 196.55C105.715 196.211 105.862 195.82 105.91 195.41C105.927 194.893 105.817 194.379 105.591 193.914C105.364 193.449 105.028 193.046 104.61 192.74C104.885 192.635 105.179 192.59 105.473 192.607C105.766 192.624 106.053 192.703 106.314 192.839C106.575 192.975 106.804 193.165 106.986 193.396C107.168 193.627 107.299 193.895 107.37 194.18Z" fill="#EBD7BE"/>
<path d="M89.22 191.09C91.52 184.21 105.85 182.65 105.37 191.46C105.028 191.451 104.688 191.512 104.37 191.64C104.24 191.7 104.133 191.801 104.066 191.927C103.999 192.054 103.976 192.199 104 192.34C103.547 192.034 103.005 191.89 102.46 191.932C101.915 191.974 101.401 192.199 101 192.57C100.937 192.642 100.893 192.728 100.87 192.82C100.361 192.514 99.7634 192.388 99.1741 192.463C98.5847 192.537 98.0374 192.807 97.62 193.23C97.2585 192.941 96.8276 192.751 96.37 192.68C95.9809 192.64 95.5877 192.685 95.218 192.813C94.8483 192.941 94.5111 193.148 94.23 193.42C94.0306 192.883 93.7088 192.4 93.29 192.01C93.1721 191.912 93.0215 191.861 92.8681 191.869C92.7147 191.877 92.5699 191.942 92.4626 192.052C92.3553 192.162 92.2934 192.308 92.2892 192.461C92.285 192.615 92.3388 192.764 92.44 192.88C94.44 195.08 92.44 199.05 89.38 197.74C89.0217 197.612 88.6934 197.412 88.4151 197.153C88.1368 196.894 87.9146 196.58 87.7619 196.232C87.6092 195.883 87.5294 195.508 87.5274 195.127C87.5253 194.747 87.6011 194.37 87.75 194.02C88.44 192.55 90.05 192.09 91.54 192.02C91.6149 192.014 91.6862 191.985 91.7438 191.937C91.8014 191.889 91.8425 191.824 91.8612 191.751C91.88 191.678 91.8755 191.601 91.8483 191.531C91.8212 191.461 91.7728 191.401 91.71 191.36C91.3412 191.132 90.9263 190.99 90.4955 190.943C90.0647 190.897 89.629 190.947 89.22 191.09Z" fill="#EBD7BE"/>
<path d="M105.07 141.13C104.987 141.035 104.874 140.972 104.75 140.95C101.8 140.3 98.81 139.76 95.83 139.19C94.73 138.99 92.53 139.02 91.62 138.4C90.86 137.91 91.09 137.49 91.29 136.47C91.46 135.62 91.69 134.8 91.86 133.95C96.2328 134.791 100.533 135.975 104.72 137.49C104.515 138.713 104.636 139.968 105.07 141.13Z" fill="#C4DFE2"/>
<path d="M103.61 193.6C103.927 193.764 104.195 194.01 104.385 194.313C104.574 194.615 104.68 194.963 104.69 195.32C104.636 195.647 104.51 195.957 104.321 196.23C104.133 196.502 103.886 196.729 103.599 196.894C103.312 197.06 102.992 197.16 102.662 197.187C102.332 197.213 102 197.167 101.69 197.05C102.145 196.441 102.365 195.688 102.31 194.93C102.268 194.401 102.069 193.896 101.74 193.48C102.044 193.375 102.366 193.331 102.687 193.352C103.008 193.372 103.322 193.457 103.61 193.6Z" fill="#EBD7BE"/>
<path d="M99.05 141.46C100.211 146.834 102.834 151.783 106.63 155.76C99.92 165.19 83.11 167.37 72.57 167.14C65.29 166.98 56.07 166.04 50.33 161.01C50.2159 160.908 50.109 160.797 50.01 160.68C54.134 155.942 56.6357 150.01 57.15 143.75C57.79 143.63 58.42 143.49 59.05 143.35C59.1435 143.414 59.2522 143.452 59.3651 143.46C59.4781 143.468 59.5911 143.446 59.6928 143.396C59.7944 143.347 59.8811 143.271 59.9438 143.176C60.0066 143.082 60.0432 142.973 60.05 142.86C60.05 140.86 60.05 138.86 59.97 136.86C59.9714 136.768 59.9515 136.676 59.9118 136.593C59.872 136.51 59.8136 136.437 59.7411 136.379C59.6685 136.322 59.5837 136.283 59.4933 136.264C59.403 136.245 59.3094 136.247 59.22 136.27C58.29 136.55 57.38 136.84 56.49 137.16C56.7359 135.257 56.6548 133.326 56.25 131.45C68.5887 125.816 82.5193 124.715 95.59 128.34C95.6672 130.125 96.0388 131.886 96.69 133.55C95.13 133.15 93.57 132.8 92 132.55C91.8699 132.53 91.7368 132.543 91.6134 132.589C91.4901 132.635 91.3805 132.712 91.2953 132.812C91.21 132.913 91.1519 133.033 91.1264 133.162C91.101 133.291 91.1091 133.425 91.15 133.55C90.31 135.23 88.09 138.65 90.44 139.71C92.26 140.53 95.01 140.59 97 140.96L99.07 141.35C99.053 141.384 99.0461 141.422 99.05 141.46Z" fill="#F5F5F5"/>
<path d="M101.8 163.14C101.43 170.35 101.6 177.94 103.3 184.95C101.498 184.248 99.5629 183.95 97.6327 184.078C95.7026 184.206 93.8241 184.756 92.13 185.69C91.8584 182.409 90.9349 179.216 89.4135 176.297C87.8921 173.378 85.8035 170.792 83.27 168.69C89.62 167.97 96.43 166.32 101.8 163.14Z" fill="#EBD7BE"/>
<path d="M100.2 193.62C100.561 193.78 100.857 194.059 101.038 194.41C101.22 194.76 101.277 195.163 101.2 195.55C100.97 197.29 99.2 197.82 97.7 197.69C98.208 197.242 98.5496 196.636 98.6695 195.97C98.7893 195.304 98.6802 194.616 98.36 194.02C98.5859 193.769 98.8852 193.595 99.2154 193.523C99.5457 193.451 99.8901 193.485 100.2 193.62Z" fill="#EBD7BE"/>
<path d="M94.98 57.28C96.48 58.28 97.79 60.01 97.45 61.91C97.4029 62.2835 97.2804 62.6436 97.09 62.9683C96.8995 63.2931 96.6451 63.5758 96.3421 63.7993C96.0392 64.0227 95.694 64.1824 95.3275 64.2684C94.961 64.3545 94.5808 64.3653 94.21 64.3C92.82 64.01 91.46 62.3 92.79 61.05C93.0018 60.8582 93.2565 60.72 93.5327 60.6468C93.8089 60.5736 94.0986 60.5675 94.3777 60.6292C94.6567 60.6909 94.9168 60.8185 95.1365 61.0013C95.3561 61.1841 95.5287 61.4168 95.64 61.68C95.6759 61.5861 95.7027 61.489 95.72 61.39C95.92 60.12 94.96 59.15 94.24 58.25C93.82 57.75 94.37 56.87 94.98 57.28Z" fill="#222221"/>
<path d="M97.46 195.41C97.46 197.34 95.4 198 93.82 197.48C94.399 196.535 94.619 195.414 94.44 194.32C94.9387 193.963 95.5499 193.8 96.16 193.86C96.5301 193.912 96.8678 194.099 97.1079 194.385C97.3481 194.671 97.4735 195.037 97.46 195.41Z" fill="#EBD7BE"/>
<path d="M80.46 66.03C82.36 67.65 82.08 71.76 79.46 72.48C78.7 72.68 77.98 71.63 78.64 71.08C78.9761 70.882 79.2694 70.6191 79.5029 70.3067C79.7364 69.9942 79.9054 69.6384 80 69.26C80.0785 68.9039 80.0655 68.5338 79.9623 68.1841C79.8592 67.8344 79.6692 67.5165 79.41 67.26C78.13 66.1 76.41 67.17 75.46 68.26C75.3939 68.3215 75.3114 68.3627 75.2225 68.3786C75.1336 68.3945 75.042 68.3845 74.9586 68.3497C74.8753 68.3148 74.8037 68.2567 74.7526 68.1823C74.7014 68.1079 74.6727 68.0203 74.67 67.93C74.79 65.23 78.64 64.47 80.46 66.03Z" fill="#222221"/>
<path d="M71.75 192.37C74.52 190.47 77.37 193.96 75.41 196.51C73.45 199.06 68.06 197.39 69.16 193.9C69.33 193.37 68.57 192.9 68.22 193.34C67.9177 193.699 67.7181 194.133 67.6424 194.596C67.5667 195.059 67.6177 195.534 67.79 195.97C67.4734 196.477 66.9873 196.856 66.418 197.039C65.8487 197.222 65.2329 197.198 64.68 196.97C64.4061 196.808 64.1733 196.584 63.9999 196.317C63.8264 196.05 63.717 195.746 63.68 195.43C63.6198 194.795 63.7634 194.158 64.09 193.61C64.26 193.21 63.88 192.61 63.43 192.93C62.12 193.83 62.21 195.74 63.04 197.01C62.6408 197.315 62.1414 197.459 61.6412 197.412C61.1409 197.366 60.6764 197.133 60.34 196.76C60.1951 196.534 60.1021 196.279 60.0675 196.012C60.0329 195.746 60.0577 195.476 60.14 195.22C60.31 194.54 60.82 194.35 61.22 193.86C61.2831 193.794 61.3259 193.711 61.3434 193.621C61.3608 193.531 61.3522 193.438 61.3186 193.353C61.285 193.268 61.2277 193.194 61.1535 193.14C61.0793 193.087 60.9914 193.055 60.9 193.05C59.97 192.95 59.2 194.05 58.9 194.78C58.6304 195.461 58.6304 196.219 58.9 196.9C58.8477 196.885 58.7923 196.885 58.74 196.9C58.4993 197.072 58.226 197.193 57.9368 197.256C57.6476 197.319 57.3486 197.322 57.0583 197.264C56.7679 197.207 56.4923 197.091 56.2484 196.924C56.0045 196.756 55.7975 196.541 55.64 196.29C55.5204 195.995 55.4917 195.67 55.5576 195.358C55.6235 195.047 55.781 194.762 56.01 194.54C56.2499 194.298 56.5399 194.112 56.8595 193.995C57.1792 193.877 57.5207 193.831 57.86 193.86C57.9661 193.856 58.0681 193.818 58.1512 193.751C58.2342 193.685 58.294 193.594 58.3219 193.492C58.3497 193.389 58.3442 193.28 58.3061 193.181C58.268 193.082 58.1993 192.998 58.11 192.94C56.44 191.94 54.59 193.52 54.24 195.24C53.37 195.42 52.24 194.79 52.24 193.83C52.2425 193.541 52.3573 193.265 52.56 193.06C52.638 193.05 52.7124 193.02 52.7768 192.975C52.8412 192.93 52.8937 192.87 52.93 192.8C53.1659 192.686 53.423 192.623 53.6847 192.614C53.9465 192.606 54.2071 192.652 54.45 192.75C54.94 192.95 55.56 192.37 55.08 191.93C54.8054 191.704 54.4791 191.549 54.1302 191.479C53.7813 191.409 53.4205 191.427 53.08 191.53C53.3416 190.422 53.96 189.432 54.84 188.71C60.84 184.57 68.3 185.24 72.93 190.84C72.3212 190.989 71.7625 191.296 71.31 191.73C71.06 192.09 71.37 192.6 71.75 192.37Z" fill="#EBD7BE"/>
<path d="M73.88 169.27C71.0326 174.697 69.9821 180.888 70.88 186.95C68.5207 185.326 65.6992 184.508 62.8369 184.62C59.9747 184.732 57.2255 185.767 55 187.57C54.4193 179.495 53.063 171.495 50.95 163.68C57.2 167.95 65.69 169.27 73.88 169.27Z" fill="#EBD7BE"/>
<path d="M62.94 73.76C70.94 77.89 71 91.51 61.52 92.19C62.4988 91.1858 63.1703 89.9229 63.4555 88.5499C63.7408 87.1769 63.6278 85.751 63.13 84.44C63.0898 84.352 63.0357 84.271 62.97 84.2C63.1227 83.755 63.1578 83.2781 63.072 82.8156C62.9861 82.353 62.7822 81.9205 62.48 81.56C62.1621 81.223 61.7748 80.9591 61.3449 80.7864C60.9149 80.6138 60.4527 80.5365 59.99 80.56C60.0019 80.4993 59.997 80.4364 59.9759 80.3783C59.9547 80.3201 59.9181 80.2689 59.87 80.23C55.41 76.34 48.97 78.94 47.18 83.42C45.89 74.77 55.72 70.05 62.94 73.76Z" fill="#F0D682"/>
<path d="M61.92 85.68C62.2245 86.9133 62.12 88.2122 61.6222 89.3809C61.1244 90.5497 60.2603 91.525 59.16 92.16C56.09 93.78 50.92 91.64 49.16 88.78C48.4572 87.5245 48.2068 86.0657 48.4507 84.6477C48.6946 83.2297 49.418 81.9385 50.5 80.99C53.02 78.8 56.5 79.28 59.2 80.76C59.1366 80.7907 59.0763 80.8275 59.02 80.87C58.9495 80.8375 58.8709 80.8269 58.7943 80.8393C58.7177 80.8518 58.6466 80.8869 58.59 80.94C58.3246 81.2245 58.0899 81.5362 57.89 81.87C56.9705 81.5547 55.9854 81.481 55.0293 81.6561C54.0731 81.8313 53.1781 82.2493 52.43 82.87C51.6985 83.5083 51.2241 84.3909 51.0953 85.3532C50.9665 86.3155 51.1921 87.2918 51.73 88.1C54.13 91.74 59.73 90.23 60.5 86.25C61.0163 86.1925 61.5072 85.9954 61.92 85.68Z" fill="#F0D682"/>
<path d="M61.15 82.3C61.3015 82.4263 61.425 82.5829 61.5127 82.7596C61.6003 82.9363 61.6502 83.1294 61.6591 83.3265C61.668 83.5235 61.6358 83.7203 61.5644 83.9042C61.4931 84.0881 61.3842 84.2552 61.2447 84.3947C61.1052 84.5342 60.9381 84.643 60.7542 84.7144C60.5703 84.7858 60.3735 84.818 60.1765 84.8091C59.9794 84.8002 59.7863 84.7503 59.6096 84.6627C59.4329 84.575 59.2764 84.4515 59.15 84.3C58.9805 84.1135 58.8584 83.8889 58.794 83.6452C58.7296 83.4015 58.7248 83.1459 58.78 82.9C58.8389 82.8824 58.8921 82.8496 58.9343 82.8049C58.9765 82.7603 59.0062 82.7052 59.0204 82.6454C59.0346 82.5856 59.0328 82.5232 59.0152 82.4643C58.9976 82.4054 58.9647 82.3522 58.92 82.31C58.92 82.19 58.99 82.08 59.04 81.95C59.09 81.82 59.1 81.95 59.15 81.95C59.87 81.93 60.5 81.76 61.15 82.3Z" fill="#F0D682"/>
<path d="M58.79 137.68V142.46C55.5267 142.646 52.2955 143.207 49.16 144.13C49.1883 143.154 49.3705 142.189 49.7 141.27C49.7 141.27 49.7 141.27 49.7 141.21C52.6343 139.8 55.6734 138.62 58.79 137.68Z" fill="#C4DFE2"/>
<path d="M58.09 85.32C58.3753 85.6153 58.7148 85.853 59.09 86.02C58.97 86.5594 58.7271 87.0639 58.3802 87.494C58.0333 87.9242 57.5918 88.2684 57.09 88.5C56.3285 88.8263 55.4762 88.8728 54.6838 88.6313C53.8913 88.3897 53.2099 87.8756 52.76 87.18C52.5858 86.8553 52.4783 86.4991 52.4439 86.1322C52.4096 85.7654 52.449 85.3954 52.5599 85.044C52.6708 84.6926 52.8509 84.3671 53.0897 84.0864C53.3284 83.8058 53.621 83.5758 53.95 83.41C55.0406 82.8411 56.283 82.6311 57.5 82.81C57.3716 83.2436 57.3585 83.7031 57.4619 84.1433C57.5654 84.5835 57.7819 84.9891 58.09 85.32Z" fill="#F0D682"/>
<path d="M57.99 62.3C58.0285 62.4511 58.0276 62.6095 57.9873 62.7601C57.9471 62.9107 57.8688 63.0484 57.76 63.16C57.4504 63.5043 57.069 63.7764 56.6427 63.957C56.2164 64.1376 55.7556 64.2223 55.2929 64.2052C54.8302 64.188 54.3769 64.0693 53.9652 63.8576C53.5534 63.6459 53.1932 63.3463 52.91 62.98C52.674 62.6178 52.522 62.2074 52.4651 61.7789C52.4082 61.3503 52.4479 60.9145 52.5811 60.5033C52.7144 60.092 52.9379 59.7158 53.2353 59.402C53.5327 59.0883 53.8964 58.8451 54.3 58.69C54.75 58.55 55.16 59.18 54.78 59.5C54.5813 59.6259 54.4097 59.7901 54.2752 59.9831C54.1408 60.176 54.0461 60.3938 53.9967 60.6238C53.9474 60.8538 53.9444 61.0913 53.9878 61.3224C54.0313 61.5536 54.1204 61.7737 54.25 61.97C54.31 62.07 54.41 62.1 54.5 62.16C54.4813 62.0307 54.4813 61.8993 54.5 61.77C54.6453 61.4438 54.8897 61.1716 55.1984 60.9921C55.5072 60.8126 55.8646 60.7349 56.22 60.77C56.6321 60.8245 57.0193 60.9984 57.3339 61.2702C57.6484 61.5421 57.8765 61.9001 57.99 62.3Z" fill="#222221"/>
<path d="M54.95 132.06C55.19 133.86 55.25 135.7 55.52 137.5C53.3209 138.323 51.1937 139.326 49.16 140.5C49.0611 140.497 48.963 140.519 48.8741 140.562C48.7853 140.606 48.7084 140.67 48.65 140.75C48.623 140.779 48.6025 140.813 48.59 140.85C48.28 141.04 47.97 141.19 47.68 141.39C47.6057 141.431 47.5509 141.5 47.5274 141.582C47.504 141.663 47.5139 141.751 47.555 141.825C47.5961 141.899 47.665 141.954 47.7466 141.978C47.8282 142.001 47.9157 141.991 47.99 141.95C47.5895 142.938 47.4718 144.019 47.65 145.07C47.6526 145.191 47.6823 145.31 47.7369 145.418C47.7915 145.526 47.8697 145.621 47.9656 145.694C48.0616 145.768 48.1729 145.82 48.2913 145.845C48.4097 145.87 48.5323 145.868 48.65 145.84C51.07 145.11 53.5 144.54 55.95 143.99C54.8323 149.723 52.6332 155.19 49.47 160.1C44.84 155.42 43.09 148.39 43.47 141.97C43.47 141.38 43.58 140.79 43.65 140.22C46.9207 136.872 50.7432 134.112 54.95 132.06Z" fill="#F5F5F5"/>
<path d="M30.5 70.29C31.01 70.94 30.13 71.85 29.59 71.2C29.1574 70.6377 28.583 70.2007 27.9258 69.9336C27.2686 69.6665 26.5522 69.5789 25.85 69.68C25.7902 69.6864 25.7298 69.6864 25.67 69.68C25.5891 70.3339 25.6934 70.9973 25.971 71.5948C26.2485 72.1923 26.6882 72.7 27.24 73.06C27.3266 73.1224 27.3869 73.2148 27.4091 73.3192C27.4314 73.4236 27.414 73.5326 27.3603 73.6249C27.3067 73.7172 27.2207 73.7862 27.1189 73.8186C27.0172 73.8509 26.9071 73.8443 26.81 73.8C25.9975 73.3752 25.3352 72.7108 24.913 71.8968C24.4909 71.0829 24.3292 70.1589 24.45 69.25C24.6003 68.325 25.044 67.4727 25.7156 66.8191C26.3872 66.1655 27.2512 65.7451 28.18 65.62C28.91 65.57 28.89 66.56 28.34 66.79C27.3148 67.1227 26.4582 67.8395 25.95 68.79C26.7733 68.6216 27.6264 68.6715 28.4245 68.9347C29.2227 69.1978 29.9382 69.665 30.5 70.29Z" fill="#222221"/>
</g>
<defs>
<clipPath id="clip0_5_2258">
<rect width="175.95" height="215.1" fill="white"/>
</clipPath>
</defs>
</svg>
